<svg width="54" height="52" viewBox="0 0 54 52" fill="none" xmlns="http://www.w3.org/2000/svg">
<path d="M10 16.1421V41.4681" stroke="#31363B" stroke-width="2.5"/>
<path d="M14 17.1553V42.4814" stroke="#31363B" stroke-width="2.5"/>
<path d="M20 16.1421V41.4681" stroke="#31363B" stroke-width="2.5"/>
<path d="M24 16.1421V41.4681" stroke="#31363B" stroke-width="2.5"/>
<path d="M30 16.1421V41.4681" stroke="#31363B" stroke-width="2.5"/>
<path d="M34 16.1421V41.4681" stroke="#31363B" stroke-width="2.5"/>
<path d="M44 16.1421V41.4681" stroke="#31363B" stroke-width="2.5"/>
<path d="M40 16.1421V41.4681" stroke="#31363B" stroke-width="2.5"/>
<path d="M27 16.3226L5.7235 16.3226C4.70101 16.3226 4.33759 14.9694 5.22251 14.4572L26.499 2.1406C26.8089 1.9612 27.1911 1.9612 27.501 2.1406L48.7775 14.4572C49.6624 14.9694 49.299 16.3226 48.2765 16.3226L27 16.3226Z" stroke="#31363B" stroke-width="2.5"/>
<path d="M5 43.0757V45.1268C5 45.6791 5.44771 46.1268 6 46.1268H48C48.5523 46.1268 49 45.6791 49 45.1268V43.0757C49 42.5234 48.5523 42.0757 48 42.0757H6C5.44772 42.0757 5 42.5234 5 43.0757Z" stroke="#31363B" stroke-width="2.5"/>
<path d="M2 47.1714V49.6938C2 50.2461 2.44771 50.6938 3 50.6938H51C51.5523 50.6938 52 50.2461 52 49.6938V47.1714C52 46.6191 51.5523 46.1714 51 46.1714H3C2.44772 46.1714 2 46.6191 2 47.1714Z" stroke="#31363B" stroke-width="2.5"/>
</svg>
