<svg width="54" height="54" viewBox="0 0 54 54" fill="none" xmlns="http://www.w3.org/2000/svg">
<path fill-rule="evenodd" clip-rule="evenodd" d="M14.1096 17.9637C14.6629 18.1466 15.2595 17.8467 15.442 17.2934C17.0978 12.2857 21.7561 8.92139 27.0341 8.92139C33.7647 8.92139 39.2408 14.3971 39.2408 21.1282C39.2408 26.3303 36.9106 29.4384 35.0386 31.9358C33.6765 33.7523 32.5003 35.3215 32.5003 37.2245C32.5003 37.3497 32.4987 37.4738 32.4958 37.5969H28.0888V35.174C28.0888 34.5915 27.6166 34.1194 27.0341 34.1194C26.4515 34.1194 25.9794 34.5915 25.9794 35.174V37.5969H21.5719C21.5691 37.4738 21.5674 37.3497 21.5674 37.2245C21.5674 35.3211 20.3912 33.7523 19.0292 31.9354C17.6502 30.0959 16.0876 28.0108 15.3126 25.0482C15.1651 24.4846 14.5883 24.1472 14.0252 24.2947C13.462 24.4418 13.1246 25.0186 13.272 25.5817C14.1516 28.9448 15.9203 31.3047 17.3417 33.2006C18.5241 34.7781 19.458 36.024 19.458 37.2245C19.458 37.7296 19.4795 38.2223 19.5211 38.6924V47.6136C19.5211 47.642 19.5231 47.6696 19.5252 47.6972C19.526 47.7038 19.5256 47.7108 19.5264 47.7174C19.5301 47.7565 19.5363 47.7945 19.5441 47.8324V47.8332C19.9104 49.5512 20.8481 51.1134 22.1854 52.232C23.5482 53.3723 25.2704 54.0002 27.0341 54.0002C28.7978 54.0002 30.5195 53.3723 31.8827 52.232C33.2196 51.1134 34.1577 49.5512 34.5236 47.8332C34.5236 47.8328 34.524 47.8324 34.524 47.8319C34.5318 47.7945 34.5376 47.7565 34.5417 47.7174C34.5421 47.7108 34.5421 47.7038 34.5425 47.6972C34.5446 47.6692 34.5467 47.6416 34.5467 47.6132V38.6924C34.5883 38.2223 34.6101 37.7296 34.6101 37.2245C34.6101 36.024 35.5441 34.7781 36.7265 33.2006C38.6777 30.5977 41.3502 27.0332 41.3502 21.1282C41.3502 13.2341 34.9277 6.81201 27.0341 6.81201C20.8444 6.81201 15.3814 10.758 13.4393 16.6313C13.2564 17.1842 13.5567 17.7808 14.1096 17.9637ZM27.0341 51.8908C24.8897 51.8908 22.9558 50.5939 22.0395 48.6679H32.0286C31.1119 50.5939 29.1781 51.8908 27.0341 51.8908ZM32.4377 46.5585H21.6304V44.1871H32.4377V46.5585ZM32.4377 42.0777H21.6304V39.7063H32.4377V42.0777Z" fill="#31363B"/>
<path fill-rule="evenodd" clip-rule="evenodd" d="M27.0342 4.91954C27.6167 4.91954 28.0889 4.4474 28.0889 3.86485V1.05469C28.0889 0.472137 27.6167 0 27.0342 0C26.4516 0 25.9795 0.472137 25.9795 1.05469V3.86485C25.9795 4.4474 26.4516 4.91954 27.0342 4.91954Z" fill="#31363B"/>
<path fill-rule="evenodd" clip-rule="evenodd" d="M6.96094 22.1826H9.7711C10.3537 22.1826 10.8258 21.7105 10.8258 21.1279C10.8258 20.5454 10.3537 20.0732 9.7711 20.0732H6.96094C6.37839 20.0732 5.90625 20.5454 5.90625 21.1279C5.90625 21.7105 6.37839 22.1826 6.96094 22.1826Z" fill="#31363B"/>
<path fill-rule="evenodd" clip-rule="evenodd" d="M31.8631 23.2588C31.8631 22.6762 31.391 22.2041 30.8084 22.2041H23.26C22.6775 22.2041 22.2053 22.6762 22.2053 23.2588C22.2053 23.8413 22.6775 24.3135 23.26 24.3135H25.9795V26.7364C25.9795 27.3189 26.4517 27.7911 27.0342 27.7911C27.6168 27.7911 28.0889 27.3189 28.0889 26.7364V24.3135H30.8084C31.391 24.3135 31.8631 23.8413 31.8631 23.2588Z" fill="#31363B"/>
<path fill-rule="evenodd" clip-rule="evenodd" d="M14.0818 9.66679C14.2877 9.87279 14.5576 9.97578 14.8274 9.97578C15.0973 9.97578 15.3672 9.87279 15.5731 9.66679C15.9851 9.25481 15.9851 8.58698 15.5731 8.1754L13.5861 6.18839C13.1741 5.7764 12.5063 5.7764 12.0943 6.18839C11.6828 6.59996 11.6828 7.26779 12.0943 7.67978L14.0818 9.66679Z" fill="#31363B"/>
<path fill-rule="evenodd" clip-rule="evenodd" d="M12.1128 37.1042C12.3826 37.1042 12.6525 37.0012 12.8585 36.7952L14.8455 34.8082C15.2575 34.3962 15.2575 33.7288 14.8455 33.3168C14.4335 32.9048 13.7657 32.9048 13.3541 33.3168L11.3667 35.3038C10.9551 35.7158 10.9551 36.3836 11.3667 36.7952C11.5727 37.0012 11.8425 37.1042 12.1128 37.1042Z" fill="#31363B"/>
<path fill-rule="evenodd" clip-rule="evenodd" d="M39.241 9.97604C39.5109 9.97604 39.7807 9.87304 39.9867 9.66705L41.9737 7.68004C42.3857 7.26805 42.3857 6.60022 41.9737 6.18823C41.5622 5.77624 40.8943 5.77666 40.4823 6.18823L38.4953 8.17525C38.0833 8.58723 38.0833 9.25506 38.4949 9.66705C38.7009 9.87304 38.9712 9.97604 39.241 9.97604Z" fill="#31363B"/>
<path fill-rule="evenodd" clip-rule="evenodd" d="M39.2228 33.3168C38.8108 33.7284 38.8108 34.3962 39.2228 34.8082L41.2098 36.7952C41.4158 37.0012 41.6857 37.1042 41.9555 37.1042C42.2254 37.1042 42.4952 37.0012 42.7012 36.7952C43.1132 36.3836 43.1132 35.7158 42.7012 35.3038L40.7142 33.3168C40.3022 32.9048 39.6344 32.9048 39.2228 33.3168Z" fill="#31363B"/>
<path fill-rule="evenodd" clip-rule="evenodd" d="M44.2972 22.1826H47.1074C47.69 22.1826 48.1621 21.7105 48.1621 21.1279C48.1621 20.5454 47.69 20.0732 47.1074 20.0732H44.2972C43.7147 20.0732 43.2426 20.5454 43.2426 21.1279C43.2426 21.7105 43.7147 22.1826 44.2972 22.1826Z" fill="#31363B"/>
<path fill-rule="evenodd" clip-rule="evenodd" d="M27.0342 29.9004C26.4533 29.9004 25.9795 30.3742 25.9795 30.9551C25.9795 31.536 26.4533 32.0098 27.0342 32.0098C27.6151 32.0098 28.0889 31.536 28.0889 30.9551C28.0889 30.3742 27.6151 29.9004 27.0342 29.9004Z" fill="#31363B"/>
<path fill-rule="evenodd" clip-rule="evenodd" d="M14.8274 21.1279C14.8274 20.547 14.3536 20.0732 13.7727 20.0732C13.1914 20.0732 12.718 20.547 12.718 21.1279C12.718 21.7088 13.1914 22.1826 13.7727 22.1826C14.3536 22.1826 14.8274 21.7088 14.8274 21.1279Z" fill="#31363B"/>
</svg>
