<svg width="54" height="54" viewBox="0 0 54 54" fill="none" xmlns="http://www.w3.org/2000/svg">
<g clip-path="url(#clip0)">
<path d="M22.6426 42.4858C20.0239 42.4858 17.8934 44.6163 17.8934 47.235C17.8934 49.8537 20.0239 51.9842 22.6426 51.9842C25.2613 51.9842 27.3918 49.8537 27.3918 47.235C27.3917 44.6163 25.2612 42.4858 22.6426 42.4858ZM22.6426 49.3323C21.486 49.3323 20.5451 48.3913 20.5451 47.2348C20.5451 46.0782 21.4861 45.1373 22.6426 45.1373C23.7991 45.1373 24.7401 46.0783 24.7401 47.2348C24.7401 48.3915 23.7991 49.3323 22.6426 49.3323Z" fill="#31363C"/>
<path d="M39.3008 42.4858C36.6822 42.4858 34.5517 44.6163 34.5517 47.235C34.5517 49.8537 36.6822 51.9842 39.3008 51.9842C41.9195 51.9842 44.05 49.8537 44.05 47.235C44.0499 44.6163 41.9194 42.4858 39.3008 42.4858ZM39.3008 49.3323C38.1443 49.3323 37.2034 48.3913 37.2034 47.2348C37.2034 46.0782 38.1444 45.1373 39.3008 45.1373C40.4574 45.1373 41.3983 46.0783 41.3983 47.2348C41.3983 48.3915 40.4573 49.3323 39.3008 49.3323Z" fill="#31363C"/>
<path d="M40.4701 17.4819H21.4699C20.7377 17.4819 20.1441 18.0755 20.1441 18.8078C20.1441 19.5401 20.7378 20.1336 21.4699 20.1336H40.4701C41.2023 20.1336 41.7959 19.5401 41.7959 18.8078C41.7959 18.0754 41.2023 17.4819 40.4701 17.4819Z" fill="#31363C"/>
<path d="M39.436 24.3672H22.5042C21.772 24.3672 21.1784 24.9608 21.1784 25.693C21.1784 26.4253 21.772 27.0189 22.5042 27.0189H39.4359C40.1682 27.0189 40.7617 26.4253 40.7617 25.693C40.7617 24.9609 40.1682 24.3672 39.436 24.3672Z" fill="#31363C"/>
<path d="M53.4033 11.5748C52.8976 10.9542 52.1484 10.5983 51.3478 10.5983H10.0489L9.21484 6.54949C9.04071 5.70489 8.46464 4.99572 7.67352 4.65221L1.85406 2.12623C1.18223 1.83439 0.401439 2.14268 0.110029 2.8143C-0.181698 3.48614 0.126587 4.26703 0.798108 4.55844L6.61767 7.08453L13.0329 38.2254C13.2856 39.4518 14.3779 40.3419 15.6301 40.3419H47.3937C48.126 40.3419 48.7196 39.7484 48.7196 39.0161C48.7196 38.2838 48.126 37.6903 47.3937 37.6903H15.6302L14.8498 33.9022H47.6393C48.8914 33.9022 49.9837 33.0121 50.2363 31.7857L53.9449 13.7848C54.1064 13.0009 53.909 12.1952 53.4033 11.5748ZM47.6393 31.2507H14.3036L10.5952 13.2499L51.3477 13.25L47.6393 31.2507Z" fill="#31363C"/>
</g>
<defs>
<clipPath id="clip0">
<rect width="54" height="54" fill="white"/>
</clipPath>
</defs>
</svg>
