<svg width="37" height="52" viewBox="0 0 37 52" fill="none" xmlns="http://www.w3.org/2000/svg">
<rect x="0.75" y="0.75" width="35.5" height="50.5" rx="2.25" stroke="#31363B" stroke-width="1.5"/>
<rect x="4.22852" y="5.2002" width="28.5429" height="37.44" rx="1" stroke="#31363B" stroke-width="1.5"/>
<rect x="14.8" y="45.7598" width="7.4" height="3.12" rx="1" stroke="#31363B" stroke-width="1.5"/>
<path d="M20.6143 18.7201H17.7072M14.8 28.6001H17.7072M17.7072 18.7201H17.14C15.8477 18.7201 14.8 19.7678 14.8 21.0601V21.0601C14.8 22.3525 15.8477 23.4001 17.14 23.4001H18.0143C19.4503 23.4001 20.6143 24.5642 20.6143 26.0001V26.0001C20.6143 27.4361 19.4503 28.6001 18.0143 28.6001H17.7072M17.7072 18.7201V16.6401M17.7072 28.6001V31.2001" stroke="#31363B" stroke-width="1.5"/>
</svg>
