<svg width="54" height="54" viewBox="0 0 54 54" fill="none" xmlns="http://www.w3.org/2000/svg">
<path d="M27 1.7998H25.2V7.1998H27V1.7998Z" fill="#31363C"/>
<path d="M47.7 31.5001V22.5001C47.7 22.0031 47.297 21.6001 46.8 21.6001H43.2V17.1001C43.2 16.6031 42.797 16.2001 42.3 16.2001H36.747C36.1674 12.6671 33.8608 9.65744 30.6 8.1793V5.4001H28.8V8.7751C28.7998 9.1459 29.027 9.4789 29.3724 9.6139C33.9983 11.4147 36.2886 16.6247 34.4877 21.2506C34.4419 21.368 34.3937 21.4846 34.3431 21.6001H28.17C29.098 20.541 28.9917 18.9301 27.9326 18.0021C27.7658 17.8559 27.5805 17.7321 27.3816 17.6338L25.6275 16.7563C25.2477 16.5666 25.0937 16.105 25.2834 15.7252C25.4131 15.4655 25.6782 15.301 25.9686 15.3001H26.2314C26.6556 15.3005 26.9996 15.6445 27 16.0687V16.2001H28.8V16.0687C28.7958 14.9504 28.0675 13.9638 27 13.6306V12.6001H25.2V13.6306C23.8501 14.0504 23.0963 15.485 23.5161 16.8349C23.7236 17.5019 24.1947 18.0552 24.8202 18.3664L26.5743 19.2439C26.9541 19.4336 27.1081 19.8952 26.9184 20.275C26.7884 20.5353 26.5224 20.6999 26.2314 20.7001H25.9686C25.5444 20.6996 25.2005 20.3557 25.2 19.9315V19.8001H23.4V19.9315C23.4021 20.5454 23.6258 21.1379 24.03 21.6001H17.8569C17.3561 20.4661 17.0982 19.2397 17.1 18.0001C17.1066 14.4838 19.1536 11.291 22.3461 9.8173C22.5045 9.7453 22.6653 9.67724 22.8285 9.613C23.1732 9.47789 23.4 9.14534 23.4 8.7751V3.6001H21.6V8.1802H21.5946C18.3525 9.67881 16.057 12.6788 15.4584 16.2001H7.2C5.21179 16.2001 3.6 17.8119 3.6 19.8001V50.4001C3.6 52.3883 5.21179 54.0001 7.2 54.0001H46.8C47.297 54.0001 47.7 53.5971 47.7 53.1001V44.1001C49.1912 44.1001 50.4 42.8913 50.4 41.4001V34.2001C50.4 32.7089 49.1912 31.5001 47.7 31.5001ZM36.9 18.0001H41.4V21.6001H36.27C36.6858 20.4453 36.8989 19.2275 36.9 18.0001ZM7.2 52.2001C6.20584 52.2001 5.4 51.3943 5.4 50.4001V22.8997C5.94484 23.2236 6.56617 23.3964 7.2 23.4001V52.2001ZM5.4 19.8001C5.4 18.8059 6.20584 18.0001 7.2 18.0001H15.3C15.3011 19.2275 15.5142 20.4453 15.93 21.6001H7.2C6.20584 21.6001 5.4 20.7943 5.4 19.8001ZM45.9 52.2001H9V23.4001H45.9V31.5001H34.2C30.7206 31.5001 27.9 34.3207 27.9 37.8001C27.9 41.2795 30.7206 44.1001 34.2 44.1001H45.9V52.2001ZM48.6 41.4001C48.6 41.8971 48.197 42.3001 47.7 42.3001H34.2C31.7148 42.3001 29.7 40.2853 29.7 37.8001C29.7 35.3149 31.7148 33.3001 34.2 33.3001H47.7C48.197 33.3001 48.6 33.7031 48.6 34.2001V41.4001Z" fill="#31363C"/>
<path d="M34.2 35.1001C32.7088 35.1001 31.5 36.3089 31.5 37.8001C31.5 39.2913 32.7088 40.5001 34.2 40.5001C35.6912 40.5001 36.9 39.2913 36.9 37.8001C36.9 36.3089 35.6912 35.1001 34.2 35.1001ZM34.2 38.7001C33.703 38.7001 33.3 38.2971 33.3 37.8001C33.3 37.3031 33.703 36.9001 34.2 36.9001C34.697 36.9001 35.1 37.3031 35.1 37.8001C35.1 38.2971 34.697 38.7001 34.2 38.7001Z" fill="#31363C"/>
<path d="M30.6 1.7998H28.8V3.5998H30.6V1.7998Z" fill="#31363C"/>
<path d="M23.4 0H21.6V1.8H23.4V0Z" fill="#31363C"/>
<path d="M32.4 17.1001H30.6V18.9001H32.4V17.1001Z" fill="#31363C"/>
<path d="M21.6 17.1001H19.8V18.9001H21.6V17.1001Z" fill="#31363C"/>
</svg>
