<svg width="38" height="38" viewBox="0 0 38 38" fill="none" xmlns="http://www.w3.org/2000/svg">
<path d="M18.9999 1.1875C11.2218 1.1875 4.63115 6.175 2.19678 13.0625H35.803C33.3687 6.175 26.778 1.1875 18.9999 1.1875Z" fill="#F9F9F9"/>
<path d="M18.9999 36.8125C26.778 36.8125 33.3687 31.8844 35.803 24.9375H2.19678C4.63115 31.8844 11.2218 36.8125 18.9999 36.8125Z" fill="#ED4C5C"/>
<path d="M2.19687 13.0625C1.54375 14.9031 1.1875 16.9219 1.1875 19C1.1875 21.0781 1.54375 23.0969 2.19687 24.9375H35.8031C36.4562 23.0969 36.8125 21.0781 36.8125 19C36.8125 16.9219 36.4562 14.9031 35.8031 13.0625H2.19687Z" fill="#83BF4F"/>
</svg>
