<svg width="38" height="38" viewBox="0 0 38 38" fill="none" xmlns="http://www.w3.org/2000/svg">
<path d="M19 38C29.4934 38 38 29.4934 38 19C38 8.50659 29.4934 0 19 0C8.50659 0 0 8.50659 0 19C0 29.4934 8.50659 38 19 38Z" fill="#FF0100"/>
<path d="M12.6667 16.72L17.7333 20.2667L15.8333 14.44L20.9 10.7667H14.63L12.6667 5.06665L10.7667 10.7667H4.43335L9.50002 14.44L7.60002 20.2667L12.6667 16.72Z" fill="#FFE62E"/>
<path d="M21.09 21.09L19.6333 21.4066L21.0266 21.9766V23.4333L21.9766 22.3566L23.37 22.8633L22.5466 21.66L23.4333 20.52L21.9766 20.8366L21.09 19.6333V21.09Z" fill="#FFE62E"/>
<path d="M23.2433 16.7833L22.1666 17.7333L23.6233 17.6066L24.2566 19L24.51 17.5433L25.9666 17.4166L24.7 16.6566L25.0166 15.2L23.94 16.15L22.6733 15.39L23.2433 16.7833Z" fill="#FFE62E"/>
<path d="M23.6233 11.8433L24.0666 13.3L24.51 11.9067H25.9666L24.8266 11.02L25.27 9.56333L24.0666 10.45L22.9266 9.5L23.37 10.9567L22.1666 11.78L23.6233 11.8433Z" fill="#FFE62E"/>
<path d="M21.09 6.77668V8.23335L21.9766 7.03002L23.4333 7.34668L22.5466 6.20668L23.37 5.00335L21.9766 5.57335L21.0266 4.43335V5.89002L19.6333 6.46002L21.09 6.77668Z" fill="#FFE62E"/>
<rect x="0.5" y="0.5" width="37" height="37" rx="18.5" stroke="#DFDFDF"/>
</svg>
