<svg width="38" height="38" viewBox="0 0 38 38" fill="none" xmlns="http://www.w3.org/2000/svg">
<path d="M0 19C0 27.2967 5.32 34.3267 12.6667 36.9233V1.07666C5.32 3.67333 0 10.7033 0 19Z" fill="#FF0100"/>
<path d="M19 0C16.7833 0 14.63 0.38 12.6666 1.07667V12.6667H36.9233C34.3266 5.32 27.2966 0 19 0Z" fill="#00742F"/>
<path d="M36.9233 12.6667H12.6666V25.3334H36.9233C37.62 23.3701 38 21.2167 38 19.0001C38 16.7834 37.62 14.6301 36.9233 12.6667Z" fill="#F9F9F9"/>
<path d="M12.6666 25.3333V36.9233C14.63 37.6199 16.7833 37.9999 19 37.9999C27.2966 37.9999 34.3266 32.7433 36.9233 25.3333H12.6666Z" fill="black"/>
<rect x="0.5" y="0.5" width="37" height="37" rx="18.5" stroke="#DFDFDF"/>
</svg>
