<svg width="38" height="38" viewBox="0 0 38 38" fill="none" xmlns="http://www.w3.org/2000/svg">
<path d="M19.2491 0C11.0885 0 4.17373 5.32 1.61963 12.6667H36.8786C34.3245 5.32 27.4098 0 19.2491 0Z" fill="#3E4347"/>
<path d="M19.2491 37.9999C27.4098 37.9999 34.3245 32.7433 36.8786 25.3333H1.61963C4.17373 32.7433 11.0885 37.9999 19.2491 37.9999Z" fill="#FFE62E"/>
<path d="M1.61981 12.6667C0.934561 14.6301 0.560791 16.7834 0.560791 19.0001C0.560791 21.2167 0.934561 23.3701 1.61981 25.3334H36.8788C37.5641 23.3701 37.9378 21.2167 37.9378 19.0001C37.9378 16.7834 37.5641 14.6301 36.8788 12.6667H1.61981Z" fill="#FF0100"/>
<rect x="0.5" y="0.5" width="37" height="37" rx="18.5" stroke="#DFDFDF"/>
</svg>
