<svg width="38" height="38" viewBox="0 0 38 38" fill="none" xmlns="http://www.w3.org/2000/svg">
<path d="M19.1868 0C11.0885 0 4.17373 5.32 1.61963 12.6667H36.8786C34.2622 5.32 27.3475 0 19.1868 0Z" fill="#F29100"/>
<path d="M19.1868 37.9999C27.3475 37.9999 34.2622 32.7433 36.8163 25.3333H1.61963C4.17373 32.7433 11.0885 37.9999 19.1868 37.9999Z" fill="#65BF4F"/>
<path d="M1.61981 12.6667C0.934561 14.6301 0.560791 16.7834 0.560791 19.0001C0.560791 21.2167 0.934561 23.3701 1.61981 25.3334H36.8788C37.5641 23.3701 37.9378 21.2167 37.9378 19.0001C37.9378 16.7834 37.5641 14.6301 36.8788 12.6667H1.61981Z" fill="white"/>
<path d="M19.187 24.0667C21.9393 24.0667 24.1706 21.7983 24.1706 19C24.1706 16.2018 21.9393 13.9333 19.187 13.9333C16.4346 13.9333 14.2034 16.2018 14.2034 19C14.2034 21.7983 16.4346 24.0667 19.187 24.0667Z" fill="#428BC1"/>
<path d="M19.1868 23.4333C21.5952 23.4333 23.5475 21.4484 23.5475 19C23.5475 16.5515 21.5952 14.5667 19.1868 14.5667C16.7785 14.5667 14.8262 16.5515 14.8262 19C14.8262 21.4484 16.7785 23.4333 19.1868 23.4333Z" fill="white"/>
<path d="M17.5673 15.2C17.7394 15.2 17.8788 15.0582 17.8788 14.8833C17.8788 14.7084 17.7394 14.5667 17.5673 14.5667C17.3953 14.5667 17.2559 14.7084 17.2559 14.8833C17.2559 15.0582 17.3953 15.2 17.5673 15.2Z" fill="#428BC1"/>
<path d="M16.5705 15.7701C16.7425 15.7701 16.882 15.6283 16.882 15.4534C16.882 15.2785 16.7425 15.1367 16.5705 15.1367C16.3985 15.1367 16.259 15.2785 16.259 15.4534C16.259 15.6283 16.3985 15.7701 16.5705 15.7701Z" fill="#428BC1"/>
<path d="M15.7607 16.5933C15.9327 16.5933 16.0722 16.4515 16.0722 16.2766C16.0722 16.1017 15.9327 15.96 15.7607 15.96C15.5887 15.96 15.4492 16.1017 15.4492 16.2766C15.4492 16.4515 15.5887 16.5933 15.7607 16.5933Z" fill="#428BC1"/>
<path d="M15.2001 17.6065C15.3722 17.6065 15.5116 17.4647 15.5116 17.2898C15.5116 17.1149 15.3722 16.9731 15.2001 16.9731C15.0281 16.9731 14.8887 17.1149 14.8887 17.2898C14.8887 17.4647 15.0281 17.6065 15.2001 17.6065Z" fill="#428BC1"/>
<path d="M14.8886 18.7466C15.0606 18.7466 15.2001 18.6048 15.2001 18.4299C15.2001 18.2551 15.0606 18.1133 14.8886 18.1133C14.7166 18.1133 14.5771 18.2551 14.5771 18.4299C14.5771 18.6048 14.7166 18.7466 14.8886 18.7466Z" fill="#428BC1"/>
<path d="M14.8886 19.8865C15.0606 19.8865 15.2001 19.7447 15.2001 19.5698C15.2001 19.395 15.0606 19.2532 14.8886 19.2532C14.7166 19.2532 14.5771 19.395 14.5771 19.5698C14.5771 19.7447 14.7166 19.8865 14.8886 19.8865Z" fill="#428BC1"/>
<path d="M15.2001 21.0264C15.3722 21.0264 15.5116 20.8846 15.5116 20.7097C15.5116 20.5348 15.3722 20.3931 15.2001 20.3931C15.0281 20.3931 14.8887 20.5348 14.8887 20.7097C14.8887 20.8846 15.0281 21.0264 15.2001 21.0264Z" fill="#428BC1"/>
<path d="M15.7607 22.0398C15.9327 22.0398 16.0722 21.8981 16.0722 21.7232C16.0722 21.5483 15.9327 21.4065 15.7607 21.4065C15.5887 21.4065 15.4492 21.5483 15.4492 21.7232C15.4492 21.8981 15.5887 22.0398 15.7607 22.0398Z" fill="#428BC1"/>
<path d="M16.5705 22.8633C16.7425 22.8633 16.882 22.7215 16.882 22.5466C16.882 22.3718 16.7425 22.23 16.5705 22.23C16.3985 22.23 16.259 22.3718 16.259 22.5466C16.259 22.7215 16.3985 22.8633 16.5705 22.8633Z" fill="#428BC1"/>
<path d="M17.5673 23.4334C17.7394 23.4334 17.8788 23.2916 17.8788 23.1167C17.8788 22.9418 17.7394 22.8 17.5673 22.8C17.3953 22.8 17.2559 22.9418 17.2559 23.1167C17.2559 23.2916 17.3953 23.4334 17.5673 23.4334Z" fill="#428BC1"/>
<path d="M18.6264 23.6866C18.7984 23.6866 18.9379 23.5448 18.9379 23.3699C18.9379 23.195 18.7984 23.0532 18.6264 23.0532C18.4544 23.0532 18.3149 23.195 18.3149 23.3699C18.3149 23.5448 18.4544 23.6866 18.6264 23.6866Z" fill="#428BC1"/>
<path d="M19.4985 23.4332C19.4985 23.2432 19.6231 23.1166 19.7477 23.0532C19.9346 23.0532 20.0592 23.1799 20.1215 23.3066C20.1215 23.4966 19.9969 23.6232 19.8723 23.6866C19.6231 23.7499 19.4985 23.6232 19.4985 23.4332Z" fill="#428BC1"/>
<path d="M20.8688 23.4334C21.0409 23.4334 21.1803 23.2916 21.1803 23.1167C21.1803 22.9418 21.0409 22.8 20.8688 22.8C20.6968 22.8 20.5574 22.9418 20.5574 23.1167C20.5574 23.2916 20.6968 23.4334 20.8688 23.4334Z" fill="#428BC1"/>
<path d="M21.8657 22.8633C22.0377 22.8633 22.1771 22.7215 22.1771 22.5466C22.1771 22.3718 22.0377 22.23 21.8657 22.23C21.6937 22.23 21.5542 22.3718 21.5542 22.5466C21.5542 22.7215 21.6937 22.8633 21.8657 22.8633Z" fill="#428BC1"/>
<path d="M22.6755 22.0398C22.8475 22.0398 22.987 21.8981 22.987 21.7232C22.987 21.5483 22.8475 21.4065 22.6755 21.4065C22.5035 21.4065 22.364 21.5483 22.364 21.7232C22.364 21.8981 22.5035 22.0398 22.6755 22.0398Z" fill="#428BC1"/>
<path d="M23.2363 21.0264C23.4083 21.0264 23.5478 20.8846 23.5478 20.7097C23.5478 20.5348 23.4083 20.3931 23.2363 20.3931C23.0643 20.3931 22.9248 20.5348 22.9248 20.7097C22.9248 20.8846 23.0643 21.0264 23.2363 21.0264Z" fill="#428BC1"/>
<path d="M23.5476 19.8865C23.7196 19.8865 23.859 19.7447 23.859 19.5698C23.859 19.395 23.7196 19.2532 23.5476 19.2532C23.3755 19.2532 23.2361 19.395 23.2361 19.5698C23.2361 19.7447 23.3755 19.8865 23.5476 19.8865Z" fill="#428BC1"/>
<path d="M23.5476 18.7466C23.3607 18.7466 23.2361 18.6199 23.1738 18.4933C23.1738 18.3033 23.2984 18.1766 23.423 18.1133C23.6099 18.1133 23.7345 18.2399 23.7968 18.3666C23.8591 18.5566 23.7345 18.6833 23.5476 18.7466Z" fill="#428BC1"/>
<path d="M23.2363 17.6065C23.4083 17.6065 23.5478 17.4647 23.5478 17.2898C23.5478 17.1149 23.4083 16.9731 23.2363 16.9731C23.0643 16.9731 22.9248 17.1149 22.9248 17.2898C22.9248 17.4647 23.0643 17.6065 23.2363 17.6065Z" fill="#428BC1"/>
<path d="M22.6755 16.5933C22.8475 16.5933 22.987 16.4515 22.987 16.2766C22.987 16.1017 22.8475 15.96 22.6755 15.96C22.5035 15.96 22.364 16.1017 22.364 16.2766C22.364 16.4515 22.5035 16.5933 22.6755 16.5933Z" fill="#428BC1"/>
<path d="M21.8657 15.7701C22.0377 15.7701 22.1771 15.6283 22.1771 15.4534C22.1771 15.2785 22.0377 15.1367 21.8657 15.1367C21.6937 15.1367 21.5542 15.2785 21.5542 15.4534C21.5542 15.6283 21.6937 15.7701 21.8657 15.7701Z" fill="#428BC1"/>
<path d="M21.1805 15.0101C21.1182 15.2001 20.9313 15.2634 20.7444 15.2001C20.5575 15.1367 20.4952 14.9467 20.5575 14.7567C20.6198 14.5667 20.8067 14.5034 20.9936 14.5667C21.1805 14.6934 21.2428 14.8834 21.1805 15.0101Z" fill="#428BC1"/>
<path d="M20.0591 14.6299C20.0591 14.8199 19.8722 14.9465 19.6853 14.8832C19.4984 14.8832 19.3738 14.6932 19.4361 14.5032C19.4361 14.3132 19.623 14.1865 19.8099 14.2499C19.9968 14.3132 20.1214 14.5032 20.0591 14.6299Z" fill="#428BC1"/>
<path d="M18.9379 14.5664C18.9379 14.7564 18.8133 14.8831 18.6887 14.9464C18.5018 14.9464 18.3772 14.8198 18.3149 14.6931C18.3149 14.5031 18.4395 14.3764 18.5641 14.3131C18.751 14.2498 18.9379 14.3764 18.9379 14.5664Z" fill="#428BC1"/>
<path d="M19.1871 19.9498C19.7032 19.9498 20.1215 19.5245 20.1215 18.9998C20.1215 18.4751 19.7032 18.0498 19.1871 18.0498C18.671 18.0498 18.2527 18.4751 18.2527 18.9998C18.2527 19.5245 18.671 19.9498 19.1871 19.9498Z" fill="#428BC1"/>
<path d="M19.1871 14.5667L19.0625 17.29L19.1871 19L19.374 17.29L19.1871 14.5667Z" fill="#428BC1"/>
<path d="M18.0657 14.6931L18.6263 17.4164L19.187 18.9998L18.9378 17.2898L18.0657 14.6931Z" fill="#428BC1"/>
<path d="M17.0066 15.1367L18.2525 17.6067L19.1869 19.0001L18.5017 17.4167L17.0066 15.1367Z" fill="#428BC1"/>
<path d="M16.1345 15.8333L17.9411 17.9233L19.187 18.9999L18.128 17.6699L16.1345 15.8333Z" fill="#428BC1"/>
<path d="M15.4492 16.7832L17.6918 18.3032L19.1869 18.9999L17.8164 17.9865L15.4492 16.7832Z" fill="#428BC1"/>
<path d="M15.0132 17.8599L17.5673 18.6832L19.187 18.9999L17.6296 18.4299L15.0132 17.8599Z" fill="#428BC1"/>
<path d="M14.8264 18.9997L17.5674 19.1264L19.1871 18.9997L17.5674 18.873L14.8264 18.9997Z" fill="#428BC1"/>
<path d="M15.0132 20.14L17.6296 19.57L19.187 19L17.5673 19.3167L15.0132 20.14Z" fill="#428BC1"/>
<path d="M15.4492 21.2167L17.8164 20.0133L19.1869 19L17.6918 19.6967L15.4492 21.2167Z" fill="#428BC1"/>
<path d="M16.1345 22.1033L18.128 20.33L19.187 19L17.9411 20.0767L16.1345 22.1033Z" fill="#428BC1"/>
<path d="M17.0066 22.8633L18.5017 20.52L19.1869 19L18.2525 20.3933L17.0066 22.8633Z" fill="#428BC1"/>
<path d="M18.0657 23.3067L18.9378 20.71L19.187 19L18.6263 20.5833L18.0657 23.3067Z" fill="#428BC1"/>
<path d="M19.1871 23.4333L19.374 20.71L19.1871 19L19.0625 20.71L19.1871 23.4333Z" fill="#428BC1"/>
<path d="M20.3083 23.3067L19.81 20.5833L19.187 19L19.4985 20.71L20.3083 23.3067Z" fill="#428BC1"/>
<path d="M21.3673 22.8633L20.1837 20.3933L19.187 19L19.9346 20.5833L21.3673 22.8633Z" fill="#428BC1"/>
<path d="M22.3018 22.1033L20.4952 20.0767L19.187 19L20.3083 20.33L22.3018 22.1033Z" fill="#428BC1"/>
<path d="M22.987 21.2167L20.7444 19.6967L19.187 19L20.5575 20.0133L22.987 21.2167Z" fill="#428BC1"/>
<path d="M23.4231 20.14L20.869 19.3167L19.187 19L20.8067 19.57L23.4231 20.14Z" fill="#428BC1"/>
<path d="M23.5477 18.9998L20.869 18.8098L19.187 18.9998L20.869 19.1265L23.5477 18.9998Z" fill="#428BC1"/>
<path d="M23.4231 17.8599L20.8067 18.4299L19.187 18.9999L20.869 18.6832L23.4231 17.8599Z" fill="#428BC1"/>
<path d="M22.987 16.7832L20.5575 17.9865L19.187 18.9999L20.7444 18.3032L22.987 16.7832Z" fill="#428BC1"/>
<path d="M22.3018 15.8965L20.3083 17.6698L19.187 18.9998L20.4952 17.9231L22.3018 15.8965Z" fill="#428BC1"/>
<path d="M21.3673 15.1367L19.9346 17.4801L19.187 19.0001L20.1837 17.6067L21.3673 15.1367Z" fill="#428BC1"/>
<path d="M20.3706 14.6931L19.4985 17.2898L19.187 18.9998L19.81 17.4164L20.3706 14.6931Z" fill="#428BC1"/>
<rect x="0.5" y="0.5" width="37" height="37" rx="18.5" stroke="#DFDFDF"/>
</svg>
