<svg width="38" height="38" viewBox="0 0 38 38" fill="none" xmlns="http://www.w3.org/2000/svg">
<path d="M19 38C29.4934 38 38 29.4934 38 19C38 8.50659 29.4934 0 19 0C8.50659 0 0 8.50659 0 19C0 29.4934 8.50659 38 19 38Z" fill="#F5F5F5"/>
<path d="M13.5533 20.0766C15.3267 21.28 17.7967 20.7733 19 19C20.2033 17.2266 22.61 16.72 24.4466 17.9233C26.1566 19.0633 26.6633 21.28 25.7133 22.99C27.8033 19.4433 26.8533 14.82 23.3067 12.4766C19.6967 10.07 14.82 11.02 12.4133 14.63C12.35 14.7566 12.2867 14.8833 12.2233 14.9466C11.3367 16.7833 11.9067 18.9366 13.5533 20.0766Z" fill="#FF0100"/>
<path d="M25.5233 23.3701C25.5866 23.2435 25.65 23.1168 25.7133 23.0535C25.65 23.1168 25.5866 23.2435 25.5233 23.3701Z" fill="#003478"/>
<path d="M24.4467 17.9233C22.6734 16.72 20.2034 17.2267 19 19C17.7967 20.7733 15.39 21.28 13.5534 20.0767C11.8434 18.9367 11.3367 16.72 12.2867 15.01C10.1334 18.5567 11.1467 23.18 14.6934 25.5233C18.3034 27.93 23.18 26.98 25.5867 23.37C25.65 23.2433 25.7134 23.1167 25.7767 23.0533C26.6634 21.2167 26.0934 19.0633 24.4467 17.9233Z" fill="#259BF2"/>
<path d="M3.67341 13.4901L8.04341 6.96673L7.60008 6.65006L7.15674 6.39673L2.78674 12.9201L3.23008 13.1734L3.67341 13.4901Z" fill="#3E4347"/>
<path d="M4.87668 14.3134L5.32002 14.5667L9.62668 8.04339L9.24668 7.79006L8.80335 7.47339L4.43335 13.9967L4.87668 14.3134Z" fill="#3E4347"/>
<path d="M10.3867 8.55005L6.08008 15.0734L6.52341 15.39L6.96674 15.6434L11.2734 9.12005L10.8301 8.86672L10.3867 8.55005Z" fill="#3E4347"/>
<path d="M29.4502 25.65L29.8935 25.9667L31.9202 22.9267L31.4768 22.61L31.0335 22.3567L29.0068 25.3967L29.4502 25.65Z" fill="#3E4347"/>
<path d="M34.3267 24.51L32.3 27.55L32.7434 27.8667L33.1867 28.12L35.2134 25.08L34.7701 24.8267L34.3267 24.51Z" fill="#3E4347"/>
<path d="M31.5401 27.0434L33.5668 24.0034L33.1234 23.6867L32.6801 23.4333L30.6534 26.4733L31.0968 26.7267L31.5401 27.0434Z" fill="#3E4347"/>
<path d="M29.1967 26.0934L28.7534 25.8401L26.7267 28.8801L27.17 29.1334L27.6133 29.4501L29.64 26.4101L29.1967 26.0934Z" fill="#3E4347"/>
<path d="M30.7801 27.1701L30.4001 26.9167L28.3734 29.9567L28.7534 30.2101L29.1967 30.5267L31.2234 27.4867L30.7801 27.1701Z" fill="#3E4347"/>
<path d="M31.9835 27.9934L29.9568 31.0334L30.4001 31.3501L30.8435 31.6034L32.8701 28.5634L32.4268 28.2467L31.9835 27.9934Z" fill="#3E4347"/>
<path d="M3.23008 24.8267L2.78674 25.08L7.15674 31.6033L7.60008 31.35L8.04341 31.0333L3.67341 24.51L3.23008 24.8267Z" fill="#3E4347"/>
<path d="M7.22007 27.1701L6.77673 27.4867L8.8034 30.5267L9.24673 30.2101L9.62673 29.9567L7.60007 26.9167L7.22007 27.1701Z" fill="#3E4347"/>
<path d="M6.52341 22.61L6.08008 22.9267L10.3867 29.45L10.8301 29.1334L11.2734 28.88L6.96674 22.3567L6.52341 22.61Z" fill="#3E4347"/>
<path d="M4.43335 24.0034L6.46002 27.0434L6.90335 26.7267L7.34668 26.4733L5.32002 23.4333L4.87668 23.6867L4.43335 24.0034Z" fill="#3E4347"/>
<path d="M32.4268 9.7534L32.8701 9.43673L30.8435 6.39673L30.4001 6.65006L29.9568 6.96673L31.9835 10.0067L32.4268 9.7534Z" fill="#3E4347"/>
<path d="M29.1967 11.9067L29.64 11.59L27.6133 8.55005L27.17 8.86672L26.7267 9.12005L28.7534 12.16L29.1967 11.9067Z" fill="#3E4347"/>
<path d="M32.3 10.4501L34.3267 13.4901L34.7701 13.1735L35.2134 12.9201L33.1867 9.88013L32.7434 10.1335L32.3 10.4501Z" fill="#3E4347"/>
<path d="M33.1234 14.3134L33.5667 13.9967L29.1967 7.47339L28.7534 7.79006L28.3734 8.04339L32.6801 14.5667L33.1234 14.3134Z" fill="#3E4347"/>
<path d="M31.4768 15.3901L31.9202 15.0734L29.8935 12.0334L29.4502 12.3501L29.0068 12.6034L31.0335 15.6434L31.4768 15.3901Z" fill="#3E4347"/>
<rect x="0.5" y="0.5" width="37" height="37" rx="18.5" stroke="#DFDFDF"/>
</svg>
