<svg width="38" height="38" viewBox="0 0 38 38" fill="none" xmlns="http://www.w3.org/2000/svg">
<path d="M0 19C0 29.5133 8.48667 38 19 38V0C8.48667 0 0 8.48667 0 19Z" fill="#F9F9F9"/>
<path d="M38 19C38 8.48667 29.5133 0 19 0V38C29.5133 38 38 29.5133 38 19Z" fill="#FF0100"/>
<path d="M4.17993 9.5V13.11H7.78993C7.78993 13.68 8.35993 14.3133 8.99327 14.3133V17.9233H12.6033V14.3133C13.1733 14.3133 13.8066 13.7433 13.8066 13.11H17.4166V9.5H13.8066C13.8066 8.93 13.2366 8.29667 12.6033 8.29667V4.75H8.99327V8.36C8.42327 8.36 7.78993 8.93 7.78993 9.56333H4.17993V9.5Z" fill="#FF0100"/>
<path d="M4.56006 9.87998V12.73H8.17006C8.17006 13.3 8.74006 13.9333 9.37339 13.9333V17.5433H12.2234V13.9333C12.7934 13.9333 13.4267 13.3633 13.4267 12.73H17.0367V9.87998H13.4267C13.4267 9.30998 12.8567 8.67665 12.2234 8.67665V5.06665H9.37339V8.67665C8.80339 8.67665 8.17006 9.24665 8.17006 9.87998H4.56006Z" fill="#BCBCBC"/>
<path d="M9.12015 8.67658C9.31015 8.86658 9.24681 9.30992 8.99348 9.56325C8.74015 9.81658 8.29681 9.87991 8.10681 9.68991C7.91681 9.49991 7.98015 9.05658 8.23348 8.80325C8.48681 8.48658 8.93015 8.42325 9.12015 8.67658Z" fill="#94989B"/>
<path d="M8.04346 9.30997L8.10679 9.24664L8.42346 9.43664L8.23346 9.11997L8.29679 9.05664L8.61346 9.75331L8.04346 9.30997Z" fill="#D0D0D0"/>
<path d="M8.55005 8.80332L8.61338 8.73999L9.12005 9.24666L9.05671 9.30999L8.55005 8.80332Z" fill="#D0D0D0"/>
<path d="M9.81661 13.2368L9.94328 13.3635L9.81661 13.4901L9.68994 13.3635L9.81661 13.2368Z" fill="#3E4347"/>
<path d="M11.7165 13.2368L11.8432 13.3635L11.7165 13.4901L11.5898 13.3635L11.7165 13.2368Z" fill="#3E4347"/>
<path d="M10.7032 13.3635V13.4902H10.5132V13.6169H10.7032V13.7435H10.8299V13.6169H11.0198V13.4902H10.8299V13.3635H10.7032Z" fill="#3E4347"/>
<path d="M11.8434 10.83C12.0334 10.7667 12.2234 10.9567 12.2867 10.9567C12.35 11.0834 12.4767 10.9567 12.4767 10.9567C12.4767 10.9567 12.35 10.8934 12.2234 10.7667C12.16 10.7667 11.97 10.64 11.8434 10.64C11.78 10.7034 11.59 10.83 11.59 10.83C11.59 10.83 11.5267 10.7034 11.4634 10.7034C11.4634 10.64 11.4 10.5134 11.3367 10.45L11.5267 10.26C11.59 10.26 11.59 10.26 11.59 10.1967C11.59 10.1967 11.6534 10.1967 11.6534 10.1334V10.0067C11.5267 10.0067 11.3367 9.94338 11.21 9.94338V9.81671C11.21 9.81671 11.1467 9.81671 11.0834 9.88004H11.02C11.02 9.75338 10.8934 9.62671 10.7667 9.62671C10.64 9.62671 10.5134 9.69004 10.5134 9.81671C9.50002 9.56338 8.99335 10.5767 9.24669 10.83C9.31002 10.8934 9.56335 10.7667 9.75335 10.7034V10.83H9.69002L9.94335 11.02L10.1334 11.1467C10.07 11.21 9.94335 11.2734 9.94335 11.4634C9.81669 11.5267 9.56335 11.2734 9.50002 11.4C9.43669 11.5267 9.43669 11.6534 9.50002 11.78C9.56335 11.8434 9.37335 11.9067 9.37335 11.97C9.31002 12.0334 9.50002 12.35 9.56335 12.35V12.2234C9.56335 12.2234 9.69002 12.2234 9.69002 12.16V12.0334C9.69002 12.0334 9.81669 11.9067 9.81669 11.78C9.81669 11.6534 9.62669 11.59 9.69002 11.5267C9.75335 11.4634 9.94335 11.6534 10.07 11.59C10.1334 11.78 10.3867 11.9067 10.5134 11.9067C10.5134 11.97 10.45 12.16 10.45 12.2234C10.45 12.2867 10.5767 12.2234 10.7667 12.2867C10.7667 12.35 10.7034 12.35 10.7034 12.35H10.5134L10.45 12.4134H9.81669L10.07 12.6034H12.0967L12.2234 12.4767L11.97 12.35L12.0334 12.2867H12.16C12.4134 12.4767 12.54 12.2867 12.54 12.2867C12.54 12.2867 12.4767 12.2867 12.4767 12.2234L12.4134 12.16C12.4134 12.16 12.4134 12.2867 12.35 12.2867C12.35 12.2867 12.2867 12.2867 12.2234 12.2234C12.35 12.16 12.4134 11.97 12.4134 11.97L12.4767 11.8434H12.54C12.54 11.8434 12.54 11.78 12.4767 11.78C12.4767 11.78 12.4767 11.7167 12.4134 11.7167V11.6534C12.35 11.6534 12.35 11.8434 12.35 11.8434C12.35 11.8434 12.2234 11.97 12.16 11.97C12.16 11.8434 11.97 11.7167 12.0334 11.6534C12.0967 11.59 12.16 11.78 12.2867 11.7167C12.35 11.7167 12.4134 11.6534 12.4134 11.5267C12.4767 11.59 12.54 11.59 12.54 11.59V11.5267H12.6034L12.54 11.4634V11.4H12.4767C12.4767 11.3367 12.4134 11.2734 12.4134 11.2734H12.35L11.97 11.4C11.97 11.4 11.8434 11.4634 11.8434 11.5267C11.8434 11.59 11.9067 11.6534 11.97 11.6534C11.9067 11.6534 11.78 11.59 11.78 11.59L11.9067 11.7167H11.8434C11.8434 11.78 11.9067 11.78 11.97 11.78C11.97 11.8434 12.0334 11.8434 12.0334 11.8434C12.0334 11.8434 12.0334 11.9067 11.97 11.9067C11.9067 11.9067 11.78 11.7167 11.7167 11.78C11.59 11.8434 11.78 12.0334 11.78 12.0334L11.7167 12.0967L11.6534 12.0334C11.6534 11.9067 11.7167 11.6534 11.8434 11.5267C11.78 11.5267 11.6534 11.6534 11.5267 11.7167C11.4634 11.6534 11.3367 11.59 11.3367 11.5267C11.3367 11.5267 11.2734 11.4634 11.2734 11.4H11.3367C11.5267 11.4 11.7167 11.3367 11.8434 11.2734C11.9067 11.3367 11.9067 11.3367 11.97 11.2734C12.16 11.4 12.16 11.59 12.2234 11.4634C12.2867 11.6534 12.4134 11.59 12.4134 11.59L12.16 11.4C12.16 11.4 12.0334 11.2734 11.9067 11.21C11.78 11.1467 11.59 11.1467 11.59 11.1467C11.59 11.1467 11.8434 11.02 11.8434 10.83ZM11.4 10.26C11.4 10.3234 11.3367 10.3234 11.2734 10.3867L11.21 10.3234C11.21 10.3234 11.3367 10.26 11.4 10.26ZM10.83 10.1967L10.7667 10.26L10.7034 10.1967H10.7667C10.7034 10.1967 10.7667 10.1334 10.83 10.1967V10.1334V10.1967ZM10.5134 9.94338C10.5134 10.0067 10.5134 10.0067 10.5767 10.07H10.3867C10.3867 10.0067 10.45 10.0067 10.5134 9.94338ZM9.94335 10.9567C9.88002 10.9567 9.88002 10.9567 9.94335 10.9567V10.8934C9.94335 10.8934 9.88002 10.8934 9.88002 10.83V10.7034L10.0067 10.5767C10.1967 10.5134 10.26 10.45 10.26 10.45C10.26 10.5134 10.26 10.64 10.3234 10.7034C10.3234 10.83 10.45 11.02 10.5134 11.0834C10.45 11.0834 10.3234 11.1467 10.26 11.1467L9.94335 10.9567ZM10.45 12.0967C10.5134 12.0967 10.5767 11.9067 10.5767 11.8434C10.64 11.97 10.5767 12.0967 10.64 12.0967C10.7034 12.16 10.7667 12.0967 10.7667 12.0967C10.8934 12.0967 11.0834 12.0334 11.0834 12.0334C11.1467 12.0967 11.1467 12.0334 11.21 12.0334C11.21 12.0967 11.2734 12.0967 11.2734 12.0967C11.2734 12.0967 11.0834 12.16 11.02 12.16C10.8934 12.0967 10.7667 12.16 10.7034 12.2234C10.5134 12.2234 10.45 12.16 10.45 12.0967ZM11.2734 11.6534V11.7167H11.4C11.4 11.7167 11.4634 11.7167 11.4634 11.78L11.4 11.8434C11.2734 11.78 11.0834 11.7167 10.83 11.78C11.0834 11.78 11.0834 11.9067 11.0834 11.9067C11.0834 11.9067 11.21 11.9067 11.21 12.0334C11.2734 12.0334 11.2734 12.0967 11.2734 12.0967C11.2734 12.0967 11.3367 12.0334 11.3367 12.16C11.4 12.16 11.4 12.16 11.4634 12.2234C11.4 12.16 11.3367 12.16 11.2734 12.16C11.21 12.0967 11.1467 12.0334 11.0834 12.0334C11.02 12.0967 10.83 12.0967 10.7667 12.0967C10.7034 12.0967 10.7667 12.0334 10.7034 12.0334C10.7667 11.97 10.7034 11.8434 10.7034 11.78C10.7034 11.78 10.7667 11.78 10.83 11.7167C10.8934 11.7167 10.9567 11.6534 11.02 11.59C11.1467 11.5267 11.21 11.59 11.2734 11.6534Z" fill="#94989B"/>
<rect x="0.5" y="0.5" width="37" height="37" rx="18.5" stroke="#DFDFDF"/>
</svg>
