<svg width="38" height="38" viewBox="0 0 38 38" fill="none" xmlns="http://www.w3.org/2000/svg">
<path d="M9.5 35.4668V2.53345C3.8 5.82678 0 11.9701 0 19.0001C0 26.0301 3.8 32.1734 9.5 35.4668Z" fill="#699635"/>
<path d="M19 0C15.5167 0 12.2867 0.95 9.5 2.53333V35.4667C12.2867 37.1133 15.5167 38 19 38C29.5133 38 38 29.5133 38 19C38 8.48667 29.5133 0 19 0Z" fill="#FF0100"/>
<path d="M9.50015 11.3999C5.32015 11.3999 1.90015 14.8199 1.90015 18.9999C1.90015 23.1799 5.32015 26.5999 9.50015 26.5999C13.6801 26.5999 17.1001 23.1799 17.1001 18.9999C17.1001 14.8199 13.6801 11.3999 9.50015 11.3999ZM9.50015 25.6499C5.82681 25.6499 2.85015 22.6732 2.85015 18.9999C2.85015 15.3266 5.82681 12.3499 9.50015 12.3499C13.1735 12.3499 16.1501 15.3266 16.1501 18.9999C16.1501 22.6732 13.1735 25.6499 9.50015 25.6499Z" fill="#FFE62E"/>
<path d="M12.0968 26.4099C11.9702 26.5366 11.7802 26.5366 11.6535 26.4099L2.97684 14.9466C2.85017 14.8199 2.85017 14.6299 2.97684 14.5033L3.16684 14.3133C3.2935 14.1866 3.4835 14.1866 3.61017 14.3133L12.2868 25.7766C12.4135 25.9033 12.4135 26.0933 12.2868 26.2199L12.0968 26.4099Z" fill="#FFE62E"/>
<path d="M9.62674 11.0833C9.81674 11.0833 9.94341 11.2099 9.94341 11.3999V26.5999C9.94341 26.7899 9.81674 26.9166 9.62674 26.9166H9.31007C9.12007 26.9166 8.99341 26.7899 8.99341 26.5999V11.3999C8.99341 11.2099 9.12007 11.0833 9.31007 11.0833H9.62674Z" fill="#FFE62E"/>
<path d="M17.0367 19.8232L9.5 18.4932V19.4432L16.91 20.7732C17.1 20.7732 17.2267 20.7098 17.29 20.5198L17.3533 20.2032C17.3533 20.0765 17.2267 19.8865 17.0367 19.8232Z" fill="#FFE62E"/>
<path d="M9.49995 18.43L3.54662 14.25C3.41995 14.1233 3.22995 14.1866 3.10328 14.3133L2.91328 14.5666C2.78662 14.6933 2.84995 14.8833 2.97662 15.01L9.49995 19.57V18.43Z" fill="#FFE62E"/>
<path d="M9.24682 17.7332L3.29349 23.6865C3.16682 23.8132 3.16682 24.0032 3.29349 24.1298L3.54682 24.3832C3.67349 24.5098 3.86349 24.5098 3.99015 24.3832L9.24682 19.1265V17.7332Z" fill="#FFE62E"/>
<path d="M9.5001 14.8833L1.58343 18.62C1.45676 18.6833 1.3301 18.8733 1.45676 19.0633L1.58343 19.38C1.64676 19.5066 1.83676 19.6333 2.02676 19.5066L9.5001 15.96V14.8833Z" fill="#FFE62E"/>
<path d="M16.5301 15.9599L8.99341 14.6299V15.5799L16.4034 16.9099C16.5934 16.9099 16.7201 16.8465 16.7834 16.6565L16.8467 16.3399C16.7834 16.1499 16.6567 15.9599 16.5301 15.9599Z" fill="#FFE62E"/>
<path d="M9.4367 23.3699C9.31003 23.4332 9.18337 23.6232 9.31004 23.8132L9.4367 24.1299C9.50003 24.2566 9.69004 24.3832 9.88004 24.2566L16.2134 21.3432L16.53 20.1399L9.4367 23.3699Z" fill="#FFE62E"/>
<path d="M9.43684 21.2165L2.34351 18.6199V19.6332L9.43684 22.2299V21.2165Z" fill="#FFE62E"/>
<path d="M4.49683 23.3066V24.2566L13.8702 24.89C14.2502 24.6366 14.5668 24.32 14.8835 24.0033L4.49683 23.3066Z" fill="#FFE62E"/>
<path d="M6.33325 15.8333V20.2666C6.33325 22.0399 7.72659 23.4333 9.49992 23.4333C11.2733 23.4333 12.6666 22.0399 12.6666 20.2666V15.8333H6.33325Z" fill="white"/>
<path d="M9.49998 24.7C7.02998 24.7 5.06665 22.7366 5.06665 20.2666V14.5667H13.9333V20.2666C13.9333 22.7366 11.97 24.7 9.49998 24.7ZM7.59998 17.1V20.2666C7.59998 21.3433 8.42332 22.1666 9.49998 22.1666C10.5767 22.1666 11.4 21.3433 11.4 20.2666V17.1H7.59998Z" fill="#ED4C5C"/>
<path d="M8.92993 17.3534V18.3667C8.92993 18.5567 9.0566 18.6834 9.2466 18.6834H9.75326C9.94326 18.6834 10.0699 18.5567 10.0699 18.3667V17.29H8.92993V17.3534Z" fill="#0071BC"/>
<path d="M8.92993 18.9368V20.0134C8.92993 20.2034 9.0566 20.3301 9.2466 20.3301H9.75326C9.94326 20.3301 10.0699 20.2034 10.0699 20.0134V18.9368H8.92993Z" fill="#0071BC"/>
<path d="M7.66333 18.9368V20.0134C7.66333 20.2034 7.79 20.3301 7.98 20.3301H8.48666C8.67666 20.3301 8.80333 20.2034 8.80333 20.0134V18.9368H7.66333Z" fill="#0071BC"/>
<path d="M10.1968 18.9368V20.0134C10.1968 20.2034 10.3234 20.3301 10.5134 20.3301H11.0201C11.2101 20.3301 11.3368 20.2034 11.3368 20.0134V18.9368H10.1968Z" fill="#0071BC"/>
<path d="M8.92993 20.4568V21.5335C8.92993 21.7235 9.0566 21.8501 9.2466 21.8501H9.75326C9.94326 21.8501 10.0699 21.7235 10.0699 21.5335V20.4568H8.92993Z" fill="#0071BC"/>
<path d="M9.49996 19.6964C9.56991 19.6964 9.62663 19.6397 9.62663 19.5698C9.62663 19.4998 9.56991 19.4431 9.49996 19.4431C9.43 19.4431 9.37329 19.4998 9.37329 19.5698C9.37329 19.6397 9.43 19.6964 9.49996 19.6964Z" fill="white"/>
<path d="M9.24654 20.0131C9.3165 20.0131 9.37321 19.9564 9.37321 19.8864C9.37321 19.8165 9.3165 19.7598 9.24654 19.7598C9.17658 19.7598 9.11987 19.8165 9.11987 19.8864C9.11987 19.9564 9.17658 20.0131 9.24654 20.0131Z" fill="white"/>
<path d="M9.75337 20.0131C9.82333 20.0131 9.88004 19.9564 9.88004 19.8864C9.88004 19.8165 9.82333 19.7598 9.75337 19.7598C9.68342 19.7598 9.62671 19.8165 9.62671 19.8864C9.62671 19.9564 9.68342 20.0131 9.75337 20.0131Z" fill="white"/>
<path d="M9.24654 19.3798C9.3165 19.3798 9.37321 19.3231 9.37321 19.2531C9.37321 19.1832 9.3165 19.1265 9.24654 19.1265C9.17658 19.1265 9.11987 19.1832 9.11987 19.2531C9.11987 19.3231 9.17658 19.3798 9.24654 19.3798Z" fill="white"/>
<path d="M9.75337 19.3798C9.82333 19.3798 9.88004 19.3231 9.88004 19.2531C9.88004 19.1832 9.82333 19.1265 9.75337 19.1265C9.68342 19.1265 9.62671 19.1832 9.62671 19.2531C9.62671 19.3231 9.68342 19.3798 9.75337 19.3798Z" fill="white"/>
<path d="M9.49996 18.1132C9.56991 18.1132 9.62663 18.0565 9.62663 17.9865C9.62663 17.9166 9.56991 17.8599 9.49996 17.8599C9.43 17.8599 9.37329 17.9166 9.37329 17.9865C9.37329 18.0565 9.43 18.1132 9.49996 18.1132Z" fill="white"/>
<path d="M9.24654 18.4298C9.3165 18.4298 9.37321 18.3731 9.37321 18.3032C9.37321 18.2332 9.3165 18.1765 9.24654 18.1765C9.17658 18.1765 9.11987 18.2332 9.11987 18.3032C9.11987 18.3731 9.17658 18.4298 9.24654 18.4298Z" fill="white"/>
<path d="M9.75337 18.4298C9.82333 18.4298 9.88004 18.3731 9.88004 18.3032C9.88004 18.2332 9.82333 18.1765 9.75337 18.1765C9.68342 18.1765 9.62671 18.2332 9.62671 18.3032C9.62671 18.3731 9.68342 18.4298 9.75337 18.4298Z" fill="white"/>
<path d="M9.24654 17.7965C9.3165 17.7965 9.37321 17.7398 9.37321 17.6699C9.37321 17.5999 9.3165 17.5432 9.24654 17.5432C9.17658 17.5432 9.11987 17.5999 9.11987 17.6699C9.11987 17.7398 9.17658 17.7965 9.24654 17.7965Z" fill="white"/>
<path d="M9.75337 17.7965C9.82333 17.7965 9.88004 17.7398 9.88004 17.6699C9.88004 17.5999 9.82333 17.5432 9.75337 17.5432C9.68342 17.5432 9.62671 17.5999 9.62671 17.6699C9.62671 17.7398 9.68342 17.7965 9.75337 17.7965Z" fill="white"/>
<path d="M10.7666 19.6964C10.8365 19.6964 10.8932 19.6397 10.8932 19.5698C10.8932 19.4998 10.8365 19.4431 10.7666 19.4431C10.6966 19.4431 10.6399 19.4998 10.6399 19.5698C10.6399 19.6397 10.6966 19.6964 10.7666 19.6964Z" fill="white"/>
<path d="M10.5134 20.0131C10.5833 20.0131 10.6401 19.9564 10.6401 19.8864C10.6401 19.8165 10.5833 19.7598 10.5134 19.7598C10.4434 19.7598 10.3867 19.8165 10.3867 19.8864C10.3867 19.9564 10.4434 20.0131 10.5134 20.0131Z" fill="white"/>
<path d="M11.02 20.0131C11.0899 20.0131 11.1466 19.9564 11.1466 19.8864C11.1466 19.8165 11.0899 19.7598 11.02 19.7598C10.95 19.7598 10.8933 19.8165 10.8933 19.8864C10.8933 19.9564 10.95 20.0131 11.02 20.0131Z" fill="white"/>
<path d="M10.5134 19.3798C10.5833 19.3798 10.6401 19.3231 10.6401 19.2531C10.6401 19.1832 10.5833 19.1265 10.5134 19.1265C10.4434 19.1265 10.3867 19.1832 10.3867 19.2531C10.3867 19.3231 10.4434 19.3798 10.5134 19.3798Z" fill="white"/>
<path d="M11.02 19.3798C11.0899 19.3798 11.1466 19.3231 11.1466 19.2531C11.1466 19.1832 11.0899 19.1265 11.02 19.1265C10.95 19.1265 10.8933 19.1832 10.8933 19.2531C10.8933 19.3231 10.95 19.3798 11.02 19.3798Z" fill="white"/>
<path d="M8.23336 19.6964C8.30331 19.6964 8.36002 19.6397 8.36002 19.5698C8.36002 19.4998 8.30331 19.4431 8.23336 19.4431C8.1634 19.4431 8.10669 19.4998 8.10669 19.5698C8.10669 19.6397 8.1634 19.6964 8.23336 19.6964Z" fill="white"/>
<path d="M7.97994 20.0131C8.04989 20.0131 8.10661 19.9564 8.10661 19.8864C8.10661 19.8165 8.04989 19.7598 7.97994 19.7598C7.90998 19.7598 7.85327 19.8165 7.85327 19.8864C7.85327 19.9564 7.90998 20.0131 7.97994 20.0131Z" fill="white"/>
<path d="M8.48653 20.0131C8.55649 20.0131 8.6132 19.9564 8.6132 19.8864C8.6132 19.8165 8.55649 19.7598 8.48653 19.7598C8.41657 19.7598 8.35986 19.8165 8.35986 19.8864C8.35986 19.9564 8.41657 20.0131 8.48653 20.0131Z" fill="white"/>
<path d="M7.97994 19.3798C8.04989 19.3798 8.10661 19.3231 8.10661 19.2531C8.10661 19.1832 8.04989 19.1265 7.97994 19.1265C7.90998 19.1265 7.85327 19.1832 7.85327 19.2531C7.85327 19.3231 7.90998 19.3798 7.97994 19.3798Z" fill="white"/>
<path d="M8.48653 19.3798C8.55649 19.3798 8.6132 19.3231 8.6132 19.2531C8.6132 19.1832 8.55649 19.1265 8.48653 19.1265C8.41657 19.1265 8.35986 19.1832 8.35986 19.2531C8.35986 19.3231 8.41657 19.3798 8.48653 19.3798Z" fill="white"/>
<path d="M9.49996 21.2799C9.56991 21.2799 9.62663 21.2232 9.62663 21.1533C9.62663 21.0833 9.56991 21.0266 9.49996 21.0266C9.43 21.0266 9.37329 21.0833 9.37329 21.1533C9.37329 21.2232 9.43 21.2799 9.49996 21.2799Z" fill="white"/>
<path d="M9.24654 21.5966C9.3165 21.5966 9.37321 21.5399 9.37321 21.4699C9.37321 21.4 9.3165 21.3433 9.24654 21.3433C9.17658 21.3433 9.11987 21.4 9.11987 21.4699C9.11987 21.5399 9.17658 21.5966 9.24654 21.5966Z" fill="white"/>
<path d="M9.75337 21.5966C9.82333 21.5966 9.88004 21.5399 9.88004 21.4699C9.88004 21.4 9.82333 21.3433 9.75337 21.3433C9.68342 21.3433 9.62671 21.4 9.62671 21.4699C9.62671 21.5399 9.68342 21.5966 9.75337 21.5966Z" fill="white"/>
<path d="M9.24654 20.9633C9.3165 20.9633 9.37321 20.9066 9.37321 20.8366C9.37321 20.7667 9.3165 20.71 9.24654 20.71C9.17658 20.71 9.11987 20.7667 9.11987 20.8366C9.11987 20.9066 9.17658 20.9633 9.24654 20.9633Z" fill="white"/>
<path d="M9.75337 20.9633C9.82333 20.9633 9.88004 20.9066 9.88004 20.8366C9.88004 20.7667 9.82333 20.71 9.75337 20.71C9.68342 20.71 9.62671 20.7667 9.62671 20.8366C9.62671 20.9066 9.68342 20.9633 9.75337 20.9633Z" fill="white"/>
<path d="M8.8667 16.4666H10.1334L10.0067 15.8333V15.2H10.1334V14.8833H9.94337V15.0733H9.88003V14.8833H9.69003V15.0733H9.56337V14.8833H9.4367V15.0733H9.31003V14.8833H9.12003V15.0733H8.99337V14.8833H8.8667V15.2H8.99337V15.8333L8.8667 16.4666Z" fill="#FFE62E"/>
<path d="M9.69006 16.4665H9.62673V16.2132C9.62673 16.1499 9.56339 16.0865 9.50006 16.0865C9.43672 16.0865 9.37339 16.1499 9.37339 16.2132V16.4665H9.31006V16.2132C9.31006 16.0865 9.37339 16.0232 9.50006 16.0232C9.62672 16.0232 9.69006 16.0865 9.69006 16.2132V16.4665Z" fill="#3E4347"/>
<path d="M9.50012 15.7698H9.12012V15.4532C9.12012 15.3265 9.18345 15.2632 9.31012 15.2632C9.43678 15.2632 9.50012 15.3265 9.50012 15.4532V15.7698ZM9.18345 15.7065H9.43678V15.4532C9.43678 15.3898 9.37345 15.3265 9.31012 15.3265C9.24678 15.3265 9.18345 15.3898 9.18345 15.4532V15.7065Z" fill="#3E4347"/>
<path d="M9.88 15.7698H9.5V15.4532C9.5 15.3265 9.56333 15.2632 9.69 15.2632C9.81667 15.2632 9.88 15.3265 9.88 15.4532V15.7698ZM9.56333 15.7065H9.81667V15.4532C9.81667 15.3898 9.75333 15.3265 9.69 15.3265C9.62667 15.3265 9.56333 15.3898 9.56333 15.4532V15.7065Z" fill="#3E4347"/>
<path d="M5.69995 16.4666H6.96662L6.83995 15.8333V15.2H6.96662V14.8833H6.77662V15.0733H6.71328V14.8833H6.52328V15.0733H6.39662V14.8833H6.26995V15.0733H6.14328V14.8833H5.95328V15.0733H5.82662V14.8833H5.69995V15.2H5.82662V15.8333L5.69995 16.4666Z" fill="#FFE62E"/>
<path d="M6.52331 16.4665H6.45998V16.2132C6.45998 16.1499 6.39664 16.0865 6.33331 16.0865C6.26998 16.0865 6.20664 16.1499 6.20664 16.2132V16.4665H6.14331V16.2132C6.14331 16.0865 6.20664 16.0232 6.33331 16.0232C6.45998 16.0232 6.52331 16.0865 6.52331 16.2132V16.4665Z" fill="#3E4347"/>
<path d="M6.33337 15.7698H5.95337V15.4532C5.95337 15.3265 6.0167 15.2632 6.14337 15.2632C6.27004 15.2632 6.33337 15.3265 6.33337 15.4532V15.7698ZM6.0167 15.7065H6.27004V15.4532C6.27004 15.3898 6.2067 15.3265 6.14337 15.3265C6.08004 15.3265 6.0167 15.3898 6.0167 15.4532V15.7065Z" fill="#3E4347"/>
<path d="M6.71325 15.7698H6.33325V15.4532C6.33325 15.3265 6.39659 15.2632 6.52325 15.2632C6.64992 15.2632 6.71325 15.3265 6.71325 15.4532V15.7698ZM6.39659 15.7065H6.64992V15.4532C6.64992 15.3898 6.58659 15.3265 6.52325 15.3265C6.45992 15.3265 6.39659 15.3898 6.39659 15.4532V15.7065Z" fill="#3E4347"/>
<path d="M5.69995 20.2035H6.96662L6.83995 19.5701V18.9368H6.96662V18.6201H6.83995V18.8101H6.71328V18.6201H6.58662V18.8101H6.39662V18.6201H6.26995V18.8101H6.14328V18.6201H6.01662V18.8101H5.88995V18.6201H5.69995V18.9368H5.88995V19.5701L5.69995 20.2035Z" fill="#FFE62E"/>
<path d="M6.52331 20.2033H6.45998V19.95C6.45998 19.8867 6.39664 19.8233 6.33331 19.8233C6.26998 19.8233 6.20664 19.8867 6.20664 19.95V20.2033H6.14331V19.95C6.14331 19.8233 6.20664 19.76 6.33331 19.76C6.45998 19.76 6.52331 19.8233 6.52331 19.95V20.2033Z" fill="#3E4347"/>
<path d="M6.33337 19.5067H5.95337V19.19C5.95337 19.0633 6.0167 19 6.14337 19C6.27004 19 6.33337 19.0633 6.33337 19.19V19.5067ZM6.0167 19.4433H6.27004V19.19C6.27004 19.1267 6.2067 19.0633 6.14337 19.0633C6.08004 19.0633 6.0167 19.1267 6.0167 19.19V19.4433Z" fill="#3E4347"/>
<path d="M6.77673 19.5067H6.39673V19.19C6.39673 19.0633 6.46006 19 6.58673 19C6.71339 19 6.77673 19.0633 6.77673 19.19V19.5067ZM6.46006 19.4433H6.7134V19.19C6.7134 19.1267 6.65006 19.0633 6.58673 19.0633C6.52339 19.0633 6.46006 19.1267 6.46006 19.19V19.4433Z" fill="#3E4347"/>
<path d="M12.0334 20.2666H13.3001L13.1734 19.6332V18.9999H13.3001V18.7466H13.1101V18.8732H13.0468V18.7466H12.8568V18.8732H12.7301V18.7466H12.6034V18.8732H12.4768V18.7466H12.2868V18.8732H12.1601V18.7466H12.0334V18.9999H12.1601V19.6332L12.0334 20.2666Z" fill="#FFE62E"/>
<path d="M12.8566 20.2666H12.7932V20.0132C12.7932 19.9499 12.7299 19.8866 12.6666 19.8866C12.6032 19.8866 12.5399 19.9499 12.5399 20.0132V20.2666H12.4766V20.0132C12.4766 19.8866 12.5399 19.8232 12.6666 19.8232C12.7932 19.8232 12.8566 19.8866 12.8566 20.0132V20.2666Z" fill="#3E4347"/>
<path d="M12.6666 19.5699H12.2866V19.2532C12.2866 19.1266 12.35 19.0632 12.4766 19.0632C12.6033 19.0632 12.6666 19.1266 12.6666 19.2532V19.5699ZM12.35 19.5066H12.6033V19.2532C12.6033 19.1899 12.54 19.1266 12.4766 19.1266C12.4133 19.1266 12.35 19.1899 12.35 19.2532V19.5066Z" fill="#3E4347"/>
<path d="M13.0465 19.5699H12.6665V19.2532C12.6665 19.1266 12.7298 19.0632 12.8565 19.0632C12.9832 19.0632 13.0465 19.1266 13.0465 19.2532V19.5699ZM12.7298 19.5066H12.9832V19.2532C12.9832 19.1899 12.9198 19.1266 12.8565 19.1266C12.7932 19.1266 12.7298 19.1899 12.7298 19.2532V19.5066Z" fill="#3E4347"/>
<path d="M12.0334 16.4666H13.3001L13.1734 15.8333V15.2H13.3001V14.8833H13.1101V15.0733H13.0468V14.8833H12.8568V15.0733H12.7301V14.8833H12.6034V15.0733H12.4768V14.8833H12.2868V15.0733H12.1601V14.8833H12.0334V15.2H12.1601V15.8333L12.0334 16.4666Z" fill="#FFE62E"/>
<path d="M12.8566 16.4665H12.7932V16.2132C12.7932 16.1499 12.7299 16.0865 12.6666 16.0865C12.6032 16.0865 12.5399 16.1499 12.5399 16.2132V16.4665H12.4766V16.2132C12.4766 16.0865 12.5399 16.0232 12.6666 16.0232C12.7932 16.0232 12.8566 16.0865 12.8566 16.2132V16.4665Z" fill="#3E4347"/>
<path d="M12.6666 15.7698H12.2866V15.4532C12.2866 15.3265 12.35 15.2632 12.4766 15.2632C12.6033 15.2632 12.6666 15.3265 12.6666 15.4532V15.7698ZM12.35 15.7065H12.6033V15.4532C12.6033 15.3898 12.54 15.3265 12.4766 15.3265C12.4133 15.3265 12.35 15.3898 12.35 15.4532V15.7065Z" fill="#3E4347"/>
<path d="M13.0465 15.7698H12.6665V15.4532C12.6665 15.3265 12.7298 15.2632 12.8565 15.2632C12.9832 15.2632 13.0465 15.3265 13.0465 15.4532V15.7698ZM12.7298 15.7065H12.9832V15.4532C12.9832 15.3898 12.9198 15.3265 12.8565 15.3265C12.7932 15.3265 12.7298 15.3898 12.7298 15.4532V15.7065Z" fill="#3E4347"/>
<path d="M7.72657 23.8133L8.61324 22.8633L8.04324 22.5466L7.5999 22.1033L7.72657 21.9766L7.53657 21.7866L7.4099 21.9133L7.53657 22.04L7.47324 22.1033L7.34657 21.9766L7.2199 22.1033L7.34657 22.1666L7.2199 22.2933L7.15657 22.1666L7.0299 22.2933L7.15657 22.42L7.0299 22.4833L6.96657 22.3566L6.8399 22.4833L6.90324 22.61L6.8399 22.6733L6.77657 22.5466L6.6499 22.6733L6.8399 22.8633H6.90324L6.96657 22.8L7.4099 23.2433L7.72657 23.8133Z" fill="#FFE62E"/>
<path d="M8.29684 23.1798L8.04351 23.0531C7.98018 22.9898 7.91684 22.9898 7.85351 23.0531C7.79018 23.1164 7.79018 23.1798 7.85351 23.2431L8.04351 23.4331L7.98018 23.4964L7.79018 23.3064C7.72684 23.2431 7.72684 23.1164 7.79018 23.0531C7.85351 22.9898 7.98018 22.9898 8.04351 23.0531L8.29684 23.1798Z" fill="#3E4347"/>
<path d="M7.66344 22.8632L7.41011 23.1166L7.22011 22.9266C7.15677 22.8632 7.15677 22.7366 7.22011 22.6732C7.28344 22.6099 7.41011 22.6099 7.47344 22.6732L7.66344 22.8632ZM7.41011 23.0532L7.60011 22.8632L7.41011 22.6732C7.34677 22.6099 7.28344 22.6099 7.22011 22.6732C7.15677 22.7366 7.15677 22.7999 7.22011 22.8632L7.41011 23.0532Z" fill="#3E4347"/>
<path d="M7.98009 22.5466L7.72676 22.7999L7.53676 22.6099C7.47342 22.5466 7.47342 22.4199 7.53676 22.3566C7.60009 22.2932 7.72676 22.2932 7.79009 22.3566L7.98009 22.5466ZM7.72676 22.7366L7.91676 22.5466L7.72676 22.3566C7.66342 22.2932 7.60009 22.2932 7.53676 22.3566C7.47342 22.4199 7.47342 22.4832 7.53676 22.5466L7.72676 22.7366Z" fill="#3E4347"/>
<path d="M11.2734 23.8133L10.3867 22.8633L10.8934 22.5466L11.3367 22.1033L11.2734 21.9766L11.4634 21.7866L11.5901 21.9133L11.4634 22.04L11.5267 22.1033L11.6534 21.9766L11.7801 22.1033L11.6534 22.1666L11.7801 22.2933L11.8434 22.1666L11.9701 22.2933L11.8434 22.42L11.9701 22.4833L12.0334 22.3566L12.1601 22.4833L12.0334 22.61L12.1601 22.6733L12.2234 22.5466L12.3501 22.6733L12.1601 22.8633H12.0967L12.0334 22.8L11.5901 23.2433L11.2734 23.8133Z" fill="#FFE62E"/>
<path d="M10.7034 23.1798L10.9567 23.0531C11.02 22.9898 11.0834 22.9898 11.1467 23.0531C11.21 23.1164 11.21 23.1798 11.1467 23.2431L10.8934 23.4331L10.9567 23.4964L11.1467 23.3064C11.21 23.2431 11.21 23.1164 11.1467 23.0531C11.0834 22.9898 10.9567 22.9898 10.8934 23.0531L10.7034 23.1798Z" fill="#3E4347"/>
<path d="M11.5267 22.6732C11.59 22.6099 11.7167 22.6099 11.78 22.6732C11.8433 22.7366 11.8433 22.8632 11.78 22.9266L11.59 23.1166L11.3367 22.8632L11.5267 22.6732ZM11.7167 22.8632C11.78 22.7999 11.78 22.7366 11.7167 22.6732C11.6533 22.6099 11.59 22.6099 11.5267 22.6732L11.4 22.8632L11.59 23.0532L11.7167 22.8632Z" fill="#3E4347"/>
<path d="M11.21 22.3566C11.2734 22.2932 11.4 22.2932 11.4634 22.3566C11.5267 22.4199 11.5267 22.5466 11.4634 22.6099L11.2734 22.7999L11.02 22.5466L11.21 22.3566ZM11.4634 22.5466C11.5267 22.4832 11.5267 22.4199 11.4634 22.3566C11.4 22.2932 11.3367 22.2932 11.2734 22.3566L11.0834 22.5466L11.2734 22.7366L11.4634 22.5466Z" fill="#3E4347"/>
<rect x="0.5" y="0.5" width="37" height="37" rx="18.5" stroke="#DFDFDF"/>
</svg>
