<svg width="38" height="38" viewBox="0 0 38 38" fill="none" xmlns="http://www.w3.org/2000/svg">
<path d="M0 19C0 27.2967 5.32 34.3267 12.6667 36.9233V1.07666C5.32 3.67333 0 10.7033 0 19Z" fill="#2A5F9E"/>
<path d="M37.9999 19C37.9999 10.7033 32.7433 3.67333 25.3333 1.07666V36.9233C32.7433 34.3267 37.9999 27.2967 37.9999 19Z" fill="#FF0100"/>
<path d="M12.6667 36.9233C14.6301 37.62 16.7834 38 19.0001 38C21.2167 38 23.3701 37.62 25.3334 36.9233V1.07667C23.3701 0.38 21.2167 0 19.0001 0C16.7834 0 14.6301 0.38 12.6667 1.07667V36.9233Z" fill="#FFCE31"/>
<rect x="0.5" y="0.5" width="37" height="37" rx="18.5" stroke="#DFDFDF"/>
</svg>
