<svg width="38" height="38" viewBox="0 0 38 38" fill="none" xmlns="http://www.w3.org/2000/svg">
<path d="M18.9367 0C10.7033 0 3.67333 5.32 1.07666 12.6667H36.9233C34.2633 5.32 27.2333 0 18.9367 0Z" fill="#F9F9F9"/>
<path d="M18.9367 37.9999C27.2333 37.9999 34.2633 32.6799 36.86 25.3333H1.07666C3.67333 32.7433 10.7033 37.9999 18.9367 37.9999Z" fill="#FF0100"/>
<path d="M1.07667 12.6667C0.38 14.6301 0 16.7834 0 19.0001C0 21.2167 0.38 23.3701 1.07667 25.3334H36.9233C37.62 23.3701 38 21.2167 38 19.0001C38 16.7834 37.62 14.6301 36.9233 12.6667H1.07667Z" fill="#005CE7"/>
<rect x="0.5" y="0.5" width="37" height="37" rx="18.5" stroke="#DFDFDF"/>
</svg>
