<svg width="38" height="38" viewBox="0 0 38 38" fill="none" xmlns="http://www.w3.org/2000/svg">
<path d="M18.9999 36.8125C26.778 36.8125 33.3687 31.8844 35.803 24.9375H2.19678C4.63115 31.8844 11.2218 36.8125 18.9999 36.8125Z" fill="#ED4C5C"/>
<path d="M18.9999 1.1875C11.2218 1.1875 4.63115 6.175 2.19678 13.0625H35.803C33.3687 6.175 26.778 1.1875 18.9999 1.1875Z" fill="#F9F9F9"/>
<path d="M35.8031 24.9375C36.4562 23.0969 36.8125 21.0781 36.8125 19C36.8125 16.9219 36.4562 14.9031 35.8031 13.0625H2.19687C1.54375 14.9031 1.1875 16.9219 1.1875 19C1.1875 21.0781 1.54375 23.0969 2.19687 24.9375H35.8031Z" fill="#428BC1"/>
<path d="M17.9313 14.4281L18.4062 7.77812C14.6656 6.11562 10.2719 6.11562 6.53125 7.77812L7.00625 14.4281C7.24375 17.3969 9.38125 19.95 12.4688 20.7812C15.5562 19.8906 17.6938 17.3969 17.9313 14.4281Z" fill="#428BC1"/>
<path d="M8.01562 15.3188C8.55 17.4563 10.2125 19.2376 12.4688 19.9501C14.725 19.2376 16.3875 17.4563 16.9219 15.3188L14.6656 12.5282L13.775 13.6563L12.4688 11.1626L11.1625 13.6563L10.2719 12.5282L8.01562 15.3188Z" fill="white"/>
<path d="M8.19385 15.9719C8.60947 16.625 9.5001 16.8625 10.2126 16.5063C10.6876 16.2688 11.222 16.2688 11.697 16.5063C12.172 16.7438 12.7063 16.7438 13.1813 16.5063C13.6563 16.2688 14.1907 16.2688 14.6657 16.5063C15.3782 16.8625 16.2688 16.6844 16.6845 15.9719V16.3875C16.2688 17.0407 15.3782 17.2782 14.6657 16.9219C14.2501 16.625 13.6563 16.625 13.1813 16.9219C12.7063 17.1594 12.172 17.1594 11.697 16.9219C11.2813 16.625 10.6876 16.625 10.2126 16.9219C9.5001 17.2782 8.60947 17.1 8.19385 16.3875V15.9719Z" fill="#428BC1"/>
<path d="M8.19385 16.8032C8.60947 17.4563 9.5001 17.6938 10.2126 17.3376C10.6876 17.1001 11.222 17.1001 11.697 17.3376C12.172 17.5751 12.7063 17.5751 13.1813 17.3376C13.6563 17.1001 14.1907 17.1001 14.6657 17.3376C15.3782 17.6938 16.2688 17.5157 16.6845 16.8032V17.2188C16.2688 17.872 15.3782 18.1095 14.6657 17.7532C14.1907 17.5157 13.6563 17.5157 13.1813 17.7532C12.7063 17.9907 12.172 17.9907 11.697 17.7532C11.222 17.5157 10.6876 17.5157 10.2126 17.7532C9.5001 18.1095 8.60947 17.9313 8.19385 17.2188V16.8032Z" fill="#428BC1"/>
<path d="M6.94687 7.6001L7.42188 14.3688C7.6 17.1595 9.61875 19.5345 12.4688 20.3657C15.3188 19.5345 17.2781 17.1595 17.5156 14.3688L17.9906 7.6001C18.1094 7.65947 18.2875 7.71885 18.4062 7.77822L17.9313 14.4282C17.6938 17.397 15.5562 19.9501 12.4688 20.7813C9.38125 19.8907 7.24375 17.397 7.00625 14.4282L6.53125 7.77822C6.65 7.71885 6.82812 7.65947 6.94687 7.6001Z" fill="#ED4C5C"/>
<path d="M10.0938 7.06567L10.2125 7.4813L10.6875 7.36255L10.3312 7.7188L10.6875 8.07505L10.2125 7.9563L10.0938 8.37192L9.975 7.9563L9.5 8.07505L9.85625 7.7188L9.5 7.36255L9.975 7.4813L10.0938 7.06567Z" fill="#FFE62E"/>
<path d="M14.8438 7.06567L14.9625 7.4813L15.4375 7.36255L15.0812 7.7188L15.4375 8.07505L14.9625 7.9563L14.8438 8.37192L14.725 7.9563L14.25 8.07505L14.6063 7.7188L14.25 7.36255L14.725 7.4813L14.8438 7.06567Z" fill="#FFE62E"/>
<path d="M12.4688 8.7876L12.5875 9.20322L13.0625 9.14385L12.7062 9.44072L13.0625 9.79697L12.5875 9.67822L12.4688 10.0938L12.35 9.67822L11.875 9.79697L12.2313 9.44072L11.875 9.14385L12.35 9.20322L12.4688 8.7876Z" fill="#FFE62E"/>
</svg>
