<svg width="38" height="38" viewBox="0 0 38 38" fill="none" xmlns="http://www.w3.org/2000/svg">
<path d="M18.9999 1.1875C11.2218 1.1875 4.63115 6.175 2.19678 13.0625H35.803C33.3687 6.175 26.778 1.1875 18.9999 1.1875Z" fill="#F9F9F9"/>
<path d="M18.9999 36.8125C26.778 36.8125 33.3687 31.8844 35.803 24.9375H2.19678C4.63115 31.8844 11.2218 36.8125 18.9999 36.8125Z" fill="#ED4C5C"/>
<path d="M2.19687 13.0625C1.54375 14.9031 1.1875 16.9219 1.1875 19C1.1875 21.0781 1.54375 23.0969 2.19687 24.9375H35.8031C36.4562 23.0969 36.8125 21.0781 36.8125 19C36.8125 16.9219 36.4562 14.9031 35.8031 13.0625H2.19687Z" fill="#428BC1"/>
<path d="M20.1281 11.2812H8.3125V19.475C8.3125 24.9375 14.0125 26.6 14.25 26.7188C14.4875 26.6 20.1875 24.9375 20.1875 19.475V11.2812H20.1281Z" fill="#F9F9F9"/>
<path d="M9.5 12.4688V19.5344C9.5 22.8594 12.0531 24.6406 14.25 25.5312C16.4469 24.6406 19 22.8594 19 19.5344V12.4688H9.5Z" fill="#ED4C5C"/>
<path d="M13.6562 13.6562H14.8438V21.9688H13.6562V13.6562Z" fill="#F9F9F9"/>
<path d="M11.2812 17.2188H17.2188V18.4062H11.2812V17.2188Z" fill="#F9F9F9"/>
<path d="M12.4688 14.8438H16.0312V16.0312H12.4688V14.8438Z" fill="#F9F9F9"/>
<path d="M14.25 20.7812C13.4782 20.7812 12.7657 21.1375 12.35 21.7312C12.0532 21.4937 11.6969 21.375 11.2813 21.375C10.8063 21.375 10.3313 21.5531 10.0344 21.9094C10.8657 23.75 12.6469 24.8781 14.25 25.5312C15.8532 24.8781 17.6344 23.75 18.4657 21.9094C18.1688 21.5531 17.6938 21.375 17.2188 21.375C16.8032 21.375 16.4469 21.4937 16.15 21.7312C15.7344 21.1375 15.0219 20.7812 14.25 20.7812Z" fill="#428BC1"/>
</svg>
