<svg width="38" height="38" viewBox="0 0 38 38" fill="none" xmlns="http://www.w3.org/2000/svg">
<path d="M0 19C0 22.7367 1.07667 26.22 2.91333 29.1334H35.0233C36.86 26.22 37.9367 22.7367 37.9367 19C37.9367 15.2634 36.86 11.78 35.0233 8.8667H2.91333C1.07667 11.78 0 15.2634 0 19Z" fill="#FFE62E"/>
<path d="M35.0867 8.86667C31.73 3.54667 25.7767 0 19 0C12.2233 0 6.27 3.54667 2.91333 8.86667H35.0867Z" fill="#FF0100"/>
<path d="M2.91333 29.1333C6.27 34.4533 12.2233 38 19 38C25.7767 38 31.73 34.4533 35.0867 29.1333H2.91333Z" fill="#FF0100"/>
<path d="M4.56006 16.9099H6.58673V18.0499H4.56006V16.9099Z" fill="#C8B100"/>
<path d="M4.56006 25.2698H6.65006V26.3464H4.56006V25.2698Z" fill="#C8B100"/>
<path d="M4.37013 23.4966C4.18013 23.6232 4.05347 23.7499 4.05347 23.8132C4.05347 23.8766 4.1168 23.9399 4.24347 24.0032C4.37013 24.0666 4.4968 24.1932 4.43347 24.3199C4.56013 24.1932 4.62347 24.0666 4.62347 23.9399C4.62347 23.7499 4.4968 23.5599 4.37013 23.4966Z" fill="#ED4C5C"/>
<path d="M4.87671 18.05H6.33338V25.2701H4.87671V18.05Z" fill="white"/>
<path d="M7.85341 20.71C7.53674 20.5833 6.96674 20.4566 6.33341 20.4566C6.14341 20.4566 5.89008 20.4566 5.63674 20.52C4.75008 20.6466 4.05341 21.0266 4.11674 21.28L3.80008 20.5833C3.73674 20.2666 4.49674 19.8866 5.44674 19.6966C5.76341 19.6333 6.08008 19.6333 6.33341 19.6333C6.96674 19.6333 7.53674 19.6966 7.85341 19.8233V20.71Z" fill="#ED4C5C"/>
<path d="M4.87684 21.6599C4.49684 21.6599 4.18018 21.5332 4.18018 21.3432C4.18018 21.2166 4.30684 21.0266 4.56018 20.8999H4.94018L4.87684 21.6599Z" fill="#ED4C5C"/>
<path d="M6.3335 21.0901C6.58683 21.1534 6.77683 21.2168 6.9035 21.2801C6.96683 21.3434 6.7135 21.5968 6.3335 21.7868V21.0901Z" fill="#ED4C5C"/>
<path d="M3.92669 23.0534C3.86335 22.9267 4.30669 22.6734 4.87669 22.4834C5.13002 22.42 5.32002 22.2934 5.63669 22.1667C6.39669 21.85 7.03002 21.4067 6.90335 21.28L7.03002 22.04C7.09336 22.1667 6.58669 22.5467 5.82669 22.9267C5.57335 23.0534 5.13002 23.2434 4.87669 23.3067C4.43335 23.4334 4.05335 23.6867 4.05335 23.75L3.92669 23.0534Z" fill="#ED4C5C"/>
<path d="M18.1765 16.9099H20.2032V18.0499H18.1765V16.9099Z" fill="#C8B100"/>
<path d="M18.1133 25.2698H20.2033V26.3464H18.1133V25.2698Z" fill="#C8B100"/>
<path d="M20.3932 23.4966C20.5832 23.6232 20.7099 23.7499 20.7099 23.8132C20.7099 23.8766 20.6466 23.9399 20.5199 24.0033C20.3932 24.1299 20.2666 24.3199 20.3299 24.3832C20.2032 24.2566 20.1399 24.1299 20.1399 24.0033C20.1399 23.7499 20.2666 23.5599 20.3932 23.4966Z" fill="#ED4C5C"/>
<path d="M18.4299 18.05H19.8866V25.2701H18.4299V18.05Z" fill="white"/>
<path d="M16.9102 20.71C17.2268 20.5833 17.7968 20.4566 18.4302 20.4566C18.6202 20.4566 18.8735 20.4566 19.1268 20.52C20.0135 20.6466 20.7102 21.0266 20.6468 21.28L20.9635 20.52C21.0268 20.2033 20.2668 19.8233 19.3168 19.6333H18.4302C17.7968 19.6333 17.2268 19.6966 16.9102 19.8233V20.71Z" fill="#ED4C5C"/>
<path d="M19.8868 21.6599C20.2668 21.6599 20.5835 21.5332 20.5835 21.3432C20.5835 21.2166 20.4568 21.0266 20.2035 20.8999H19.8235L19.8868 21.6599Z" fill="#ED4C5C"/>
<path d="M18.43 21.0901C18.1767 21.1534 17.9867 21.2168 17.86 21.2801C17.7967 21.3434 18.05 21.5968 18.43 21.7868V21.0901Z" fill="#ED4C5C"/>
<path d="M20.8367 23.0534C20.9 22.9267 20.4567 22.6734 19.8867 22.4834C19.6334 22.42 19.4434 22.2934 19.1267 22.1667C18.3667 21.85 17.7334 21.4067 17.86 21.28L17.7334 22.04C17.67 22.1667 18.1767 22.5467 18.9367 22.9267C19.19 23.0534 19.6334 23.2434 19.8867 23.3067C20.33 23.4334 20.71 23.75 20.6467 23.8134L20.8367 23.0534Z" fill="#ED4C5C"/>
<path d="M12.35 12.8567C13.5534 12.8567 16.0234 13.11 16.91 13.9967C15.96 16.2767 14.44 15.3267 12.35 15.3267C10.3234 15.3267 8.74004 16.2767 7.79004 13.9967C8.67671 13.11 11.0834 12.8567 12.35 12.8567Z" fill="#ED4C5C"/>
<path d="M15.4532 15.39C14.6932 14.9466 13.5532 14.8833 12.3499 14.8833C11.1466 14.8833 10.0066 15.01 9.24658 15.39L9.49992 16.4666C10.1966 16.6566 11.2099 16.7833 12.3499 16.7833C13.4899 16.7833 14.4399 16.6566 15.1999 16.4666L15.4532 15.39Z" fill="#C8B100"/>
<path d="M16.53 12.6666C16.2767 12.4766 15.77 12.2866 15.3267 12.2866C15.1367 12.2866 14.9467 12.2866 14.7567 12.3499C14.7567 12.3499 14.3767 11.8432 13.49 11.8432C13.1733 11.8432 12.92 11.9066 12.6667 12.0332V11.9699C12.6033 11.8432 12.4767 11.7166 12.35 11.7166C12.2233 11.7166 12.0333 11.9066 12.0333 12.0332V12.0966C11.78 11.9699 11.5267 11.9066 11.21 11.9066C10.3233 11.9066 9.94332 12.4766 9.94332 12.4132C9.75332 12.3499 9.56332 12.3499 9.37332 12.3499C6.45999 12.3499 7.91666 14.3132 7.91666 14.3132L8.23332 13.9332C7.53666 13.0466 8.16999 12.5399 9.43666 12.5399C9.62666 12.5399 9.75332 12.5399 9.87999 12.6032C9.43666 13.2366 10.26 13.8066 10.26 13.8066L10.45 13.4899C10.0067 13.1732 9.94332 12.0966 11.21 12.0966C11.5267 12.0966 11.78 12.1599 12.0333 12.3499C12.0333 12.4132 11.97 13.2999 11.9067 13.4266L12.4133 13.8699L12.92 13.4266C12.8567 13.2366 12.7933 12.4132 12.7933 12.3499C12.9833 12.2232 13.3 12.0966 13.6167 12.0966C14.9467 12.0966 14.9467 13.1732 14.3767 13.4899L14.5667 13.8066C14.5667 13.8066 15.2633 13.2366 14.9467 12.6032C15.0733 12.6032 15.2633 12.5399 15.39 12.5399C16.91 12.5399 16.9733 13.6799 16.5933 13.9332L16.8467 14.3132C16.72 14.3132 17.4167 13.4266 16.53 12.6666Z" fill="#C8B100"/>
<path d="M11.97 11.4633C11.97 11.2733 12.16 11.0833 12.35 11.0833C12.6033 11.0833 12.73 11.2733 12.73 11.4633C12.73 11.6533 12.54 11.8433 12.35 11.8433C12.16 11.8433 11.97 11.6533 11.97 11.4633Z" fill="#005BBF"/>
<path d="M12.2233 10.3867V10.5767H12.0333V10.7667H12.2233V11.4001H11.97V11.5901H12.73L12.7933 11.4634L12.73 11.4001H12.4766V10.7667H12.6666V10.5767H12.4766V10.3867H12.2233Z" fill="#C8B100"/>
<path d="M12.3501 16.6568C11.3368 16.6568 10.4501 16.5301 9.75342 16.3401C10.4501 16.1501 11.3368 16.0234 12.3501 16.0234C13.3634 16.0234 14.2501 16.1501 14.9468 16.3401C14.3134 16.5301 13.3634 16.6568 12.3501 16.6568Z" fill="#ED4C5C"/>
<path d="M12.4133 27.6133C11.2099 27.6133 10.0699 27.2967 9.0566 26.8533C8.2966 26.4733 7.85327 25.7767 7.85327 24.9533V21.9133H16.9733V24.9533C16.9733 25.7767 16.4666 26.5367 15.7699 26.8533C14.7566 27.36 13.6166 27.6133 12.4133 27.6133Z" fill="white"/>
<path d="M12.3499 16.8467H16.9099V21.9133H12.3499V16.8467Z" fill="white"/>
<path d="M12.4133 24.9533C12.4133 26.1567 11.3999 27.1067 10.1333 27.1067C8.86661 27.1067 7.85327 26.1567 7.85327 24.9533V21.9133H12.4133V24.9533Z" fill="#ED4C5C"/>
<path d="M8.80322 26.7266C8.92989 26.79 9.11989 26.9166 9.37322 26.98V21.7866H8.86656L8.80322 26.7266Z" fill="#C8B100"/>
<path d="M7.79004 24.89C7.79004 25.5233 8.04337 26.03 8.29671 26.2833V21.7866H7.79004V24.89Z" fill="#C8B100"/>
<path d="M9.81665 27.1066H10.3233V21.7866H9.81665V27.1066Z" fill="#C7B500"/>
<path d="M10.8301 26.98C11.0201 26.9166 11.2734 26.79 11.4001 26.7266V21.7866H10.8934L10.8301 26.98Z" fill="#C8B100"/>
<path d="M7.79004 16.8467H12.35V21.9133H7.79004V16.8467Z" fill="#ED4C5C"/>
<path d="M11.9067 26.2834C12.1601 26.0934 12.3501 25.6501 12.4134 25.1434V21.8501H11.9067V26.2834Z" fill="#C8B100"/>
<path d="M16.9733 21.9133V24.9533C16.9733 26.1567 15.96 27.1067 14.6933 27.1067C13.4267 27.1067 12.4133 26.1567 12.4133 24.9533V21.9133H16.9733Z" fill="#ED4C5C"/>
<path d="M15.3266 17.7333C15.5166 18.1133 15.5166 19.0633 14.9466 18.8733C15.0732 18.9367 15.1366 19.38 15.3266 19.6333C15.6432 20.0133 16.0232 19.6967 15.9599 19.2533C15.8332 18.5567 15.8966 18.1133 16.0232 17.4167C16.0232 17.48 16.3399 17.48 16.4666 17.3533C16.4032 17.5433 16.3399 17.7967 16.4666 17.7967C16.3399 17.9867 16.0232 18.3033 15.9599 18.4933C15.8966 18.9367 16.5932 19.76 15.8332 19.95C15.3266 20.0767 15.6432 20.4567 15.8332 20.6467C15.8332 20.6467 15.5799 21.47 15.7066 21.4067C15.1999 21.5967 15.3266 21.1533 15.3266 21.1533C15.5799 20.3933 14.8832 20.33 14.9466 20.2033C14.3132 20.14 15.0099 20.7733 14.4399 20.7733C14.3132 20.7733 14.0599 20.9 14.0599 20.9C13.3632 20.8367 13.7432 20.2033 13.9966 20.2667C14.1866 20.33 14.3766 20.6467 14.3766 20.2033C14.3766 20.2033 14.0599 19.6967 14.8832 19.6967C14.5666 19.6967 14.3766 19.4433 14.2499 19.1267C14.1232 19.19 13.9332 19.5067 13.2366 19.57C13.2366 19.57 13.0466 18.8733 13.2366 19C13.4899 19.1267 13.6166 19.1267 13.8699 18.8733C13.7432 18.6833 12.9832 18.43 13.1099 17.9867C13.1099 17.86 13.4899 17.67 13.4899 17.67C13.4266 17.9867 13.6166 18.3033 13.9966 18.3033C14.5032 18.3667 14.3132 18.1767 14.3766 18.05C14.4399 17.9233 14.8199 18.1133 14.6932 17.7967C14.6932 17.7333 14.2499 17.67 14.3766 17.48C14.6299 17.1633 15.0099 17.4167 15.3266 17.7333Z" fill="#ED4C5C"/>
<path d="M12.4133 26.9799L12.2866 26.6632L12.4133 26.2832L12.54 26.6632L12.4133 26.9799Z" fill="#ED4C5C"/>
<path d="M9.18347 17.9234V18.2401H9.31013V18.4934H8.99347V19.1267H9.18347V20.5201H8.80347V21.2167H11.4001V20.5201H11.0835V19.1267H11.2101V18.4934H10.8935V18.2401H11.0835V17.9234H10.4501V18.2401H10.5768V18.4934H10.2601V17.7334H10.4501V17.4167H9.75347V17.7334H9.94347V18.4934H9.6268V18.2401H9.75347V17.9234H9.18347Z" fill="#C8B100"/>
<path d="M16.3402 25.7133V22.5466H13.0469V25.7133L14.5669 26.41H14.7569L16.3402 25.7133ZM14.5669 22.8V23.8766L13.4902 22.8H14.5669ZM13.2369 22.8633L14.5035 24.13L13.2369 25.3966V22.8633ZM13.3635 25.65L14.5669 24.4466V26.22L13.3635 25.65ZM14.7569 26.1566V24.3833L15.9602 25.5866L14.7569 26.1566ZM16.0869 25.3966L14.8202 24.13L16.0869 22.8633V25.3966ZM14.7569 22.8H15.8335L14.7569 23.8766V22.8Z" fill="#C8B100"/>
<path d="M10.8933 21.85C10.8933 20.9 11.5266 20.2034 12.35 20.2034C13.1733 20.2034 13.8066 20.9634 13.8066 21.85C13.8066 22.7367 13.1733 23.4967 12.35 23.4967C11.5266 23.4967 10.8933 22.8 10.8933 21.85Z" fill="#ED4C5C"/>
<path d="M11.3367 21.8501C11.3367 21.1534 11.78 20.6467 12.35 20.6467C12.92 20.6467 13.3633 21.2167 13.3633 21.8501C13.3633 22.5467 12.92 23.0534 12.35 23.0534C11.8433 23.1167 11.3367 22.5467 11.3367 21.8501Z" fill="#005BBF"/>
<path d="M11.9067 21.0266L11.6533 21.7233L11.8433 21.7866L11.7167 22.0399H12.0967L11.97 21.7866L12.16 21.7233L11.9067 21.0266Z" fill="#C8B100"/>
<path d="M12.8566 21.0266L12.6033 21.7233L12.7933 21.7866L12.6666 22.0399H13.0466L12.9833 21.7866L13.1733 21.7233L12.8566 21.0266Z" fill="#C8B100"/>
<path d="M12.4133 21.8501L12.0967 22.5468L12.2867 22.6101L12.2233 22.8634H12.54L12.4767 22.6101L12.6667 22.5468L12.4133 21.8501Z" fill="#C8B100"/>
<rect x="0.5" y="0.5" width="37" height="37" rx="18.5" stroke="#DFDFDF"/>
</svg>
