<svg width="38" height="38" viewBox="0 0 38 38" fill="none" xmlns="http://www.w3.org/2000/svg">
<path d="M19 38C29.4934 38 38 29.4934 38 19C38 8.50659 29.4934 0 19 0C8.50659 0 0 8.50659 0 19C0 29.4934 8.50659 38 19 38Z" fill="#FF0100"/>
<path d="M24.8901 23.4333L24.9534 20.0133L21.5334 19L24.9534 17.9867L24.8901 14.5667L26.9801 17.29L30.4001 16.2767L28.3101 19L30.4001 21.7233L26.9801 20.71L24.8901 23.4333Z" fill="white"/>
<path d="M19.7601 26.6C15.5801 26.6 12.2234 23.18 12.2234 19C12.2234 14.82 15.5801 11.4 19.7601 11.4C21.3434 11.4 22.8001 11.9067 24.0668 12.73C22.3568 10.7667 19.8234 9.5 16.9734 9.5C11.7801 9.5 7.6001 13.7433 7.6001 19C7.6001 24.2567 11.7801 28.5 16.9734 28.5C19.8234 28.5 22.3568 27.2333 24.0668 25.27C22.8634 26.0933 21.4068 26.6 19.7601 26.6Z" fill="white"/>
<rect x="0.5" y="0.5" width="37" height="37" rx="18.5" stroke="#DFDFDF"/>
</svg>
