<svg width="949" height="792" viewBox="0 0 949 792" fill="none" xmlns="http://www.w3.org/2000/svg">
<g filter="url(#filter0_f)">
<ellipse cx="565.79" cy="501.512" rx="293" ry="139.5" transform="rotate(-19.5519 565.79 501.512)" fill="#1C1C1C" fill-opacity="0.2"/>
</g>
<ellipse rx="281.456" ry="301.128" transform="matrix(0.942599 0.333926 -0.504981 0.86313 434.228 363.898)" fill="#C4C4C4"/>
<ellipse rx="281.456" ry="301.128" transform="matrix(0.942599 0.333926 -0.504981 0.86313 417.364 353.898)" fill="url(#paint0_linear)"/>
<path d="M671.417 446.66C593.571 579.718 423.727 645.822 293.941 599.844C164.155 553.866 116.698 410.781 194.545 277.723C272.392 144.665 442.236 78.5611 572.022 124.539C701.808 170.517 749.264 313.602 671.417 446.66Z" stroke="url(#paint1_linear)" stroke-width="57"/>
<path d="M656.664 438.366C579.699 569.918 410.56 635.266 280.556 589.211C150.552 543.155 102.826 400.981 179.792 269.429C256.757 137.878 425.896 72.5293 555.9 118.585C685.904 164.64 733.629 306.814 656.664 438.366Z" stroke="url(#paint2_linear)" stroke-width="57"/>
<path fill-rule="evenodd" clip-rule="evenodd" d="M447.504 299.802C410.315 291.95 371.711 310.253 360.47 339.452C349.229 368.652 368.997 399.279 406.186 407.132C424.462 410.99 443.182 408.515 458.817 401.482L479.092 434.692C452.974 446.44 421.902 450.468 391.938 444.142C331.373 431.354 296.772 380.626 316.22 330.109C335.668 279.592 401.187 250.004 461.752 262.792C491.716 269.119 515.249 284.676 529.074 304.858L488.199 325.157C479.923 313.075 465.781 303.661 447.504 299.802Z" fill="#E8B72D"/>
<path d="M438.643 378.079L432.499 383.528L421.746 393.065C446.879 394.082 498.639 368.571 521.377 355.689L505.999 352.442L452.834 341.217L438.643 378.079Z" fill="#E8B72D"/>
<path fill-rule="evenodd" clip-rule="evenodd" d="M427.018 268.006L465.999 232.861L495.078 206.644L451.778 273.233L427.018 268.006ZM388.697 443.2C380.924 441.506 373.863 438.894 371.304 437.799L341.761 464L297.068 503.636L388.697 443.2Z" fill="#E8B72D"/>
<path d="M458.598 262.745C450.937 261.29 443.21 260.503 435.519 260.341L330.302 355.204L357.372 360.919C356.588 353.963 357.469 346.737 360.218 339.598C370.231 313.587 402.122 296.274 435.335 298.52L458.598 262.745Z" fill="#E8B72D"/>
<path d="M412.833 372.629L438.643 378.079L432.499 383.528L421.737 393.072C443.336 392.923 463.851 380.914 470.77 362.94C473.055 357.004 473.617 351.041 472.688 345.408L428.531 336.085C423.236 341.78 419.034 348.282 416.286 355.422C414.926 358.953 413.98 362.491 413.424 366C413.072 368.224 412.877 370.437 412.833 372.629Z" fill="#E8B72D"/>
<path d="M403.638 370.688C403.991 365.039 405.234 359.29 407.442 353.555C410.168 346.472 414.161 339.945 419.146 334.103L413.036 332.813L425.776 313.22C421.079 313.345 416.443 314.028 411.999 315.208C396.418 319.347 383.193 329.599 377.906 343.332C376.345 347.388 375.588 351.456 375.561 355.422C375.539 358.726 376.024 361.96 376.973 365.058L403.638 370.688Z" fill="#E8B72D"/>
<path d="M495.078 206.644L487.999 202.5L465.999 232.861L495.078 206.644Z" fill="#E8B72D"/>
<path d="M290.499 499L297.068 503.636L341.761 464L337.499 464L315.999 480L290.499 499Z" fill="#E8B72D"/>
<path d="M415.499 388.5L421.746 393.065L432.499 383.528L428.999 383L415.499 388.5Z" fill="#E8B72D"/>
<path d="M521.377 355.689L514.499 351.5L504.499 351.5L505.999 352.442L521.377 355.689Z" fill="#E8B72D"/>
<path d="M425.776 313.22L419.146 309L410.999 312.5L411.999 315.208C416.443 314.028 421.079 313.345 425.776 313.22Z" fill="#E8B72D"/>
<path d="M370.499 360.919L376.973 365.058C376.024 361.96 375.539 358.726 375.561 355.422L371.499 356.5L370.499 360.919Z" fill="#E8B72D"/>
<path d="M406.186 368L412.833 372.629C412.877 370.437 413.072 368.224 413.424 366L413.036 365.058L408.999 365.058L406.186 368Z" fill="#E8B72D"/>
<mask id="mask0" mask-type="alpha" maskUnits="userSpaceOnUse" x="290" y="202" width="233" height="298">
<path fill-rule="evenodd" clip-rule="evenodd" d="M440.77 295.367C403.58 287.515 364.976 305.818 353.735 335.017C342.494 364.217 362.262 394.844 399.451 402.697C417.727 406.556 436.447 404.08 452.082 397.047L472.357 430.257C446.24 442.005 415.168 446.033 385.203 439.707C324.638 426.919 290.038 376.192 309.485 325.674C328.933 275.157 394.452 245.57 455.017 258.357C484.982 264.684 508.514 280.241 522.339 300.423L481.464 320.722C473.188 308.641 459.046 299.226 440.77 295.367Z" fill="black"/>
<path d="M431.909 373.644L415.011 388.63C440.144 389.647 491.904 364.136 514.642 351.254L446.1 336.782L431.909 373.644Z" fill="black"/>
<path fill-rule="evenodd" clip-rule="evenodd" d="M420.284 263.571L488.343 202.209L445.043 268.799L420.284 263.571ZM381.963 438.765C374.189 437.072 367.128 434.459 364.57 433.364L290.333 499.201L381.963 438.765Z" fill="black"/>
<path d="M451.863 258.31C444.202 256.855 436.475 256.068 428.785 255.906L323.567 350.769L350.637 356.484C349.853 349.528 350.735 342.302 353.483 335.163C363.496 309.152 395.387 291.839 428.6 294.085L451.863 258.31Z" fill="black"/>
<path d="M406.098 368.194L431.909 373.644L415.003 388.637C436.602 388.488 457.116 376.479 464.035 358.505C466.321 352.569 466.883 346.606 465.953 340.973L421.797 331.65C416.501 337.345 412.3 343.847 409.551 350.987C407.33 356.756 406.212 362.542 406.098 368.194Z" fill="black"/>
<path d="M396.903 366.253C397.256 360.604 398.499 354.855 400.707 349.12C403.433 342.037 407.427 335.51 412.411 329.669L406.301 328.378L419.042 308.785C397.873 309.348 377.966 321.247 371.171 338.898C368.31 346.331 368.15 353.806 370.238 360.623L396.903 366.253Z" fill="black"/>
</mask>
<g mask="url(#mask0)">
<rect x="290.196" y="175.687" width="286.583" height="370.878" transform="rotate(7.40998 290.196 175.687)" fill="white"/>
</g>
<defs>
<filter id="filter0_f" x="183" y="212" width="765.581" height="579.024" filterUnits="userSpaceOnUse" color-interpolation-filters="sRGB">
<feFlood flood-opacity="0" result="BackgroundImageFix"/>
<feBlend mode="normal" in="SourceGraphic" in2="BackgroundImageFix" result="shape"/>
<feGaussianBlur stdDeviation="30" result="effect1_foregroundBlur"/>
</filter>
<linearGradient id="paint0_linear" x1="119.313" y1="139.792" x2="546.775" y2="336.023" gradientUnits="userSpaceOnUse">
<stop offset="0.011732" stop-color="#FFD100"/>
<stop offset="1" stop-color="#FFC548"/>
</linearGradient>
<linearGradient id="paint1_linear" x1="281" y1="189.5" x2="540.507" y2="503.389" gradientUnits="userSpaceOnUse">
<stop stop-color="#E9C000"/>
<stop offset="1" stop-color="#D89200"/>
</linearGradient>
<linearGradient id="paint2_linear" x1="310" y1="90.5" x2="654.674" y2="549.107" gradientUnits="userSpaceOnUse">
<stop stop-color="#FFD600"/>
<stop offset="1" stop-color="#FFA800"/>
</linearGradient>
</defs>
</svg>
