<svg width="54" height="54" viewBox="0 0 54 54" fill="none" xmlns="http://www.w3.org/2000/svg">
<path d="M0 8C0 3.58172 3.58172 0 8 0H46C50.4183 0 54 3.58172 54 8V46C54 50.4183 50.4183 54 46 54H8C3.58172 54 0 50.4183 0 46V8Z" fill="#EB5757" fill-opacity="0.1"/>
<path d="M35.731 25.5605C35.3694 25.0205 34.945 24.5524 34.5362 24.0844C33.5144 23.0044 32.3353 22.2304 31.345 21.0963C29.0498 18.4683 28.5781 14.1301 30.0087 10.8C28.5781 11.2141 27.2576 12.1501 26.1572 13.1761C22.1642 16.9202 20.5921 23.5264 22.4786 29.1966C22.5415 29.3766 22.6043 29.5566 22.6043 29.7906C22.6043 30.1866 22.3685 30.5466 22.0541 30.6906C21.7083 30.8706 21.331 30.7626 21.048 30.4746C20.9575 30.3854 20.8782 30.2825 20.8122 30.1686C19.0829 27.5945 18.8 23.9044 19.979 20.9523C17.4008 23.4004 16.0017 27.5405 16.2218 31.4466C16.2847 32.3467 16.379 33.2467 16.6462 34.1467C16.8663 35.2267 17.2751 36.3068 17.7781 37.2608C19.4131 40.3749 22.2899 42.607 25.3869 43.057C28.6882 43.543 32.2253 42.841 34.7563 40.1769C37.586 37.1888 38.6078 32.4007 37.1144 28.2965L36.91 27.8285C36.5956 27.0005 36.1712 26.2625 35.6524 25.5785L35.731 25.5605ZM30.8576 36.9008C30.4174 37.3328 29.71 37.8008 29.1598 37.9808C27.4305 38.7008 25.7013 37.6928 24.648 36.5048C26.5187 36.0008 27.6192 34.4167 27.9336 32.8147C28.2008 31.3746 27.7135 30.1866 27.5091 28.8006C27.3205 27.4685 27.3519 26.3345 27.7921 25.0925C28.0594 25.7765 28.3738 26.4605 28.7353 27.0005C29.9301 28.8006 31.8008 29.5926 32.1939 32.0407C32.2567 32.2927 32.2882 32.5447 32.2882 32.8147C32.3353 34.2907 31.7851 35.9108 30.8419 36.9008H30.8576Z" fill="#EB5757"/>
</svg>
