<svg width="155" height="56" viewBox="0 0 155 56" fill="none" xmlns="http://www.w3.org/2000/svg">
<path d="M0 10C0 4.47715 4.47715 0 10 0H145C150.523 0 155 4.47715 155 10V46C155 51.5228 150.523 56 145 56H10C4.47715 56 0 51.5228 0 46V10Z" fill="black"/>
<path d="M35.9013 28.854C35.887 26.3949 36.9921 24.5416 39.2239 23.1751C37.9757 21.3723 36.0873 20.3807 33.598 20.1896C31.2411 20.0021 28.6624 21.5742 27.7182 21.5742C26.7203 21.5742 24.4385 20.2545 22.6431 20.2545C18.9378 20.3122 15 23.2328 15 29.1749C15 30.9308 15.3183 32.7444 15.9549 34.6121C16.8062 37.0712 19.8748 43.0962 23.0758 42.9988C24.7496 42.9592 25.9335 41.8018 28.1116 41.8018C30.2253 41.8018 31.3197 42.9988 33.1867 42.9988C36.4163 42.952 39.1917 37.475 40 35.0088C35.6688 32.9499 35.9013 28.9801 35.9013 28.854ZM32.1423 17.8568C33.9557 15.6862 33.7911 13.7103 33.7375 13C32.1352 13.0937 30.2825 14.0997 29.2275 15.3364C28.0651 16.6633 27.382 18.3039 27.5286 20.1536C29.2597 20.287 30.8405 19.3892 32.1423 17.8568Z" fill="white"/>
<path d="M56.89 19V11.9H59.3C59.8667 11.9 60.36 11.9933 60.78 12.18C61.2067 12.3667 61.56 12.62 61.84 12.94C62.1267 13.26 62.34 13.6367 62.48 14.07C62.6267 14.4967 62.7 14.9533 62.7 15.44C62.7 15.98 62.62 16.47 62.46 16.91C62.3 17.3433 62.07 17.7167 61.77 18.03C61.4767 18.3367 61.12 18.5767 60.7 18.75C60.2867 18.9167 59.82 19 59.3 19H56.89ZM62 15.44C62 15.0133 61.94 14.6233 61.82 14.27C61.7 13.91 61.5233 13.6 61.29 13.34C61.0633 13.08 60.7833 12.88 60.45 12.74C60.1167 12.5933 59.7333 12.52 59.3 12.52H57.59V18.38H59.3C59.74 18.38 60.1267 18.3067 60.46 18.16C60.8 18.0067 61.0833 17.8 61.31 17.54C61.5367 17.2733 61.7067 16.9633 61.82 16.61C61.94 16.25 62 15.86 62 15.44ZM66.1184 19.1C65.7384 19.1 65.3918 19.03 65.0784 18.89C64.7651 18.7433 64.4918 18.5467 64.2584 18.3C64.0318 18.0533 63.8551 17.7667 63.7284 17.44C63.6018 17.1133 63.5384 16.77 63.5384 16.41C63.5384 16.0433 63.6018 15.6967 63.7284 15.37C63.8618 15.0433 64.0418 14.7567 64.2684 14.51C64.5018 14.2633 64.7751 14.0667 65.0884 13.92C65.4018 13.7733 65.7451 13.7 66.1184 13.7C66.4918 13.7 66.8351 13.7733 67.1484 13.92C67.4684 14.0667 67.7418 14.2633 67.9684 14.51C68.2018 14.7567 68.3818 15.0433 68.5084 15.37C68.6418 15.6967 68.7084 16.0433 68.7084 16.41C68.7084 16.77 68.6451 17.1133 68.5184 17.44C68.3918 17.7667 68.2118 18.0533 67.9784 18.3C67.7518 18.5467 67.4784 18.7433 67.1584 18.89C66.8451 19.03 66.4984 19.1 66.1184 19.1ZM64.2284 16.42C64.2284 16.7133 64.2784 16.9867 64.3784 17.24C64.4784 17.4867 64.6118 17.7067 64.7784 17.9C64.9518 18.0867 65.1518 18.2333 65.3784 18.34C65.6118 18.4467 65.8584 18.5 66.1184 18.5C66.3784 18.5 66.6218 18.4467 66.8484 18.34C67.0818 18.2267 67.2851 18.0767 67.4584 17.89C67.6318 17.6967 67.7684 17.4733 67.8684 17.22C67.9684 16.9667 68.0184 16.6933 68.0184 16.4C68.0184 16.1133 67.9684 15.8433 67.8684 15.59C67.7684 15.33 67.6318 15.1067 67.4584 14.92C67.2851 14.7267 67.0818 14.5767 66.8484 14.47C66.6218 14.3567 66.3784 14.3 66.1184 14.3C65.8584 14.3 65.6151 14.3567 65.3884 14.47C65.1618 14.5767 64.9618 14.7267 64.7884 14.92C64.6151 15.1133 64.4784 15.34 64.3784 15.6C64.2784 15.8533 64.2284 16.1267 64.2284 16.42ZM76.2202 13.79H76.8902L74.6502 19H74.0902L72.9702 16.34L71.8602 19H71.3002L69.0602 13.79H69.7202L71.6202 18.3L72.6102 15.92L71.7202 13.8H72.2902L72.9702 15.5L73.6502 13.8H74.2302L73.3402 15.92L74.3302 18.3L76.2202 13.79ZM82.1749 19H81.4949V16.09C81.4949 15.47 81.4016 15.02 81.2149 14.74C81.0349 14.46 80.7549 14.32 80.3749 14.32C80.1749 14.32 79.9749 14.3567 79.7749 14.43C79.5749 14.5033 79.3883 14.6067 79.2149 14.74C79.0483 14.8733 78.8983 15.0333 78.7649 15.22C78.6316 15.4 78.5349 15.5967 78.4749 15.81V19H77.7949V13.79H78.4149V14.97C78.6283 14.59 78.9316 14.2833 79.3249 14.05C79.7249 13.8167 80.1583 13.7 80.6249 13.7C80.9116 13.7 81.1549 13.7533 81.3549 13.86C81.5549 13.9667 81.7149 14.1167 81.8349 14.31C81.9549 14.5033 82.0416 14.74 82.0949 15.02C82.1483 15.3 82.1749 15.61 82.1749 15.95V19ZM83.655 11.7H84.335V17.82C84.335 18.0133 84.3883 18.1667 84.495 18.28C84.6017 18.3867 84.7517 18.44 84.945 18.44C85.0183 18.44 85.105 18.43 85.205 18.41C85.305 18.39 85.3983 18.3633 85.485 18.33L85.605 18.88C85.4783 18.9333 85.3217 18.9767 85.135 19.01C84.955 19.0433 84.7983 19.06 84.665 19.06C84.3517 19.06 84.105 18.9733 83.925 18.8C83.745 18.62 83.655 18.37 83.655 18.05V11.7ZM88.5696 19.1C88.1896 19.1 87.8429 19.03 87.5296 18.89C87.2163 18.7433 86.9429 18.5467 86.7096 18.3C86.4829 18.0533 86.3063 17.7667 86.1796 17.44C86.0529 17.1133 85.9896 16.77 85.9896 16.41C85.9896 16.0433 86.0529 15.6967 86.1796 15.37C86.3129 15.0433 86.4929 14.7567 86.7196 14.51C86.9529 14.2633 87.2263 14.0667 87.5396 13.92C87.8529 13.7733 88.1963 13.7 88.5696 13.7C88.9429 13.7 89.2863 13.7733 89.5996 13.92C89.9196 14.0667 90.1929 14.2633 90.4196 14.51C90.6529 14.7567 90.8329 15.0433 90.9596 15.37C91.0929 15.6967 91.1596 16.0433 91.1596 16.41C91.1596 16.77 91.0963 17.1133 90.9696 17.44C90.8429 17.7667 90.6629 18.0533 90.4296 18.3C90.2029 18.5467 89.9296 18.7433 89.6096 18.89C89.2963 19.03 88.9496 19.1 88.5696 19.1ZM86.6796 16.42C86.6796 16.7133 86.7296 16.9867 86.8296 17.24C86.9296 17.4867 87.0629 17.7067 87.2296 17.9C87.4029 18.0867 87.6029 18.2333 87.8296 18.34C88.0629 18.4467 88.3096 18.5 88.5696 18.5C88.8296 18.5 89.0729 18.4467 89.2996 18.34C89.5329 18.2267 89.7363 18.0767 89.9096 17.89C90.0829 17.6967 90.2196 17.4733 90.3196 17.22C90.4196 16.9667 90.4696 16.6933 90.4696 16.4C90.4696 16.1133 90.4196 15.8433 90.3196 15.59C90.2196 15.33 90.0829 15.1067 89.9096 14.92C89.7363 14.7267 89.5329 14.5767 89.2996 14.47C89.0729 14.3567 88.8296 14.3 88.5696 14.3C88.3096 14.3 88.0663 14.3567 87.8396 14.47C87.6129 14.5767 87.4129 14.7267 87.2396 14.92C87.0663 15.1133 86.9296 15.34 86.8296 15.6C86.7296 15.8533 86.6796 16.1267 86.6796 16.42ZM93.6069 19.1C93.3602 19.1 93.1302 19.06 92.9169 18.98C92.7102 18.8933 92.5269 18.7767 92.3669 18.63C92.2135 18.4833 92.0935 18.3133 92.0069 18.12C91.9202 17.92 91.8769 17.7067 91.8769 17.48C91.8769 17.2533 91.9302 17.0433 92.0369 16.85C92.1435 16.6567 92.2935 16.49 92.4869 16.35C92.6802 16.21 92.9102 16.1033 93.1769 16.03C93.4435 15.95 93.7369 15.91 94.0569 15.91C94.3235 15.91 94.5935 15.9333 94.8669 15.98C95.1402 16.0267 95.3835 16.0933 95.5969 16.18V15.71C95.5969 15.25 95.4669 14.8867 95.2069 14.62C94.9469 14.3467 94.5869 14.21 94.1269 14.21C93.8602 14.21 93.5869 14.2633 93.3069 14.37C93.0269 14.4767 92.7435 14.63 92.4569 14.83L92.2169 14.38C92.8902 13.9267 93.5435 13.7 94.1769 13.7C94.8302 13.7 95.3435 13.8833 95.7169 14.25C96.0902 14.6167 96.2769 15.1233 96.2769 15.77V18.12C96.2769 18.3067 96.3602 18.4 96.5269 18.4V19C96.4135 19.02 96.3269 19.03 96.2669 19.03C96.0935 19.03 95.9569 18.9867 95.8569 18.9C95.7635 18.8133 95.7135 18.6933 95.7069 18.54L95.6869 18.13C95.4469 18.4433 95.1435 18.6833 94.7769 18.85C94.4169 19.0167 94.0269 19.1 93.6069 19.1ZM93.7669 18.58C94.1202 18.58 94.4435 18.5133 94.7369 18.38C95.0369 18.2467 95.2635 18.07 95.4169 17.85C95.4769 17.79 95.5202 17.7267 95.5469 17.66C95.5802 17.5867 95.5969 17.52 95.5969 17.46V16.61C95.3702 16.5233 95.1335 16.4567 94.8869 16.41C94.6469 16.3633 94.4002 16.34 94.1469 16.34C93.6669 16.34 93.2769 16.44 92.9769 16.64C92.6769 16.84 92.5269 17.1033 92.5269 17.43C92.5269 17.59 92.5569 17.74 92.6169 17.88C92.6835 18.02 92.7702 18.1433 92.8769 18.25C92.9902 18.35 93.1235 18.43 93.2769 18.49C93.4302 18.55 93.5935 18.58 93.7669 18.58ZM99.8861 19.1C99.5261 19.1 99.1928 19.0267 98.8861 18.88C98.5794 18.7267 98.3161 18.5267 98.0961 18.28C97.8761 18.0333 97.7028 17.75 97.5761 17.43C97.4561 17.1033 97.3961 16.7633 97.3961 16.41C97.3961 16.0433 97.4561 15.6967 97.5761 15.37C97.6961 15.0367 97.8594 14.7467 98.0661 14.5C98.2794 14.2533 98.5294 14.06 98.8161 13.92C99.1094 13.7733 99.4294 13.7 99.7761 13.7C100.216 13.7 100.606 13.8167 100.946 14.05C101.286 14.2767 101.553 14.5533 101.746 14.88V11.7H102.426V18.12C102.426 18.3067 102.506 18.4 102.666 18.4V19C102.566 19.02 102.486 19.03 102.426 19.03C102.266 19.03 102.126 18.98 102.006 18.88C101.886 18.7733 101.826 18.6467 101.826 18.5V17.99C101.619 18.33 101.339 18.6 100.986 18.8C100.633 19 100.266 19.1 99.8861 19.1ZM100.036 18.5C100.203 18.5 100.379 18.4667 100.566 18.4C100.759 18.3333 100.939 18.2433 101.106 18.13C101.273 18.01 101.413 17.8733 101.526 17.72C101.646 17.56 101.719 17.39 101.746 17.21V15.6C101.679 15.42 101.583 15.2533 101.456 15.1C101.329 14.94 101.183 14.8 101.016 14.68C100.856 14.56 100.683 14.4667 100.496 14.4C100.309 14.3333 100.126 14.3 99.9461 14.3C99.6661 14.3 99.4128 14.36 99.1861 14.48C98.9594 14.6 98.7628 14.76 98.5961 14.96C98.4361 15.1533 98.3128 15.3767 98.2261 15.63C98.1394 15.8833 98.0961 16.1433 98.0961 16.41C98.0961 16.69 98.1461 16.9567 98.2461 17.21C98.3461 17.4633 98.4828 17.6867 98.6561 17.88C98.8294 18.0667 99.0328 18.2167 99.2661 18.33C99.5061 18.4433 99.7628 18.5 100.036 18.5ZM106.766 19V14.33H106.046V13.79H106.766V13.65C106.766 13.01 106.902 12.51 107.176 12.15C107.449 11.7833 107.822 11.6 108.296 11.6C108.502 11.6 108.702 11.63 108.896 11.69C109.089 11.75 109.256 11.83 109.396 11.93L109.186 12.42C109.092 12.3467 108.976 12.29 108.836 12.25C108.702 12.21 108.566 12.19 108.426 12.19C108.106 12.19 107.862 12.3133 107.696 12.56C107.529 12.8067 107.446 13.1633 107.446 13.63V13.79H108.886V14.33H107.446V19H106.766ZM112.416 14.39C111.956 14.4033 111.556 14.53 111.216 14.77C110.876 15.01 110.636 15.34 110.496 15.76V19H109.816V13.79H110.456V15.04C110.65 14.64 110.91 14.3267 111.236 14.1C111.563 13.8733 111.913 13.76 112.286 13.76C112.34 13.76 112.383 13.7633 112.416 13.77V14.39ZM115.279 19.1C114.899 19.1 114.552 19.03 114.239 18.89C113.925 18.7433 113.652 18.5467 113.419 18.3C113.192 18.0533 113.015 17.7667 112.889 17.44C112.762 17.1133 112.699 16.77 112.699 16.41C112.699 16.0433 112.762 15.6967 112.889 15.37C113.022 15.0433 113.202 14.7567 113.429 14.51C113.662 14.2633 113.935 14.0667 114.249 13.92C114.562 13.7733 114.905 13.7 115.279 13.7C115.652 13.7 115.995 13.7733 116.309 13.92C116.629 14.0667 116.902 14.2633 117.129 14.51C117.362 14.7567 117.542 15.0433 117.669 15.37C117.802 15.6967 117.869 16.0433 117.869 16.41C117.869 16.77 117.805 17.1133 117.679 17.44C117.552 17.7667 117.372 18.0533 117.139 18.3C116.912 18.5467 116.639 18.7433 116.319 18.89C116.005 19.03 115.659 19.1 115.279 19.1ZM113.389 16.42C113.389 16.7133 113.439 16.9867 113.539 17.24C113.639 17.4867 113.772 17.7067 113.939 17.9C114.112 18.0867 114.312 18.2333 114.539 18.34C114.772 18.4467 115.019 18.5 115.279 18.5C115.539 18.5 115.782 18.4467 116.009 18.34C116.242 18.2267 116.445 18.0767 116.619 17.89C116.792 17.6967 116.929 17.4733 117.029 17.22C117.129 16.9667 117.179 16.6933 117.179 16.4C117.179 16.1133 117.129 15.8433 117.029 15.59C116.929 15.33 116.792 15.1067 116.619 14.92C116.445 14.7267 116.242 14.5767 116.009 14.47C115.782 14.3567 115.539 14.3 115.279 14.3C115.019 14.3 114.775 14.3567 114.549 14.47C114.322 14.5767 114.122 14.7267 113.949 14.92C113.775 15.1133 113.639 15.34 113.539 15.6C113.439 15.8533 113.389 16.1267 113.389 16.42ZM126.756 19H126.076V16.09C126.076 15.4833 125.979 15.0367 125.786 14.75C125.593 14.4633 125.306 14.32 124.926 14.32C124.726 14.32 124.536 14.3567 124.356 14.43C124.183 14.5033 124.019 14.6067 123.866 14.74C123.719 14.8733 123.589 15.0333 123.476 15.22C123.363 15.4 123.276 15.6 123.216 15.82V19H122.536V16.09C122.536 15.47 122.443 15.02 122.256 14.74C122.069 14.46 121.783 14.32 121.396 14.32C121.003 14.32 120.653 14.4567 120.346 14.73C120.039 15.0033 119.819 15.3633 119.686 15.81V19H119.006V13.79H119.626V14.97C119.839 14.57 120.119 14.26 120.466 14.04C120.813 13.8133 121.196 13.7 121.616 13.7C122.056 13.7 122.406 13.8233 122.666 14.07C122.933 14.3167 123.096 14.64 123.156 15.04C123.643 14.1467 124.313 13.7 125.166 13.7C125.459 13.7 125.706 13.7533 125.906 13.86C126.113 13.9667 126.276 14.12 126.396 14.32C126.523 14.5133 126.613 14.75 126.666 15.03C126.726 15.3033 126.756 15.61 126.756 15.95V19Z" fill="white"/>
<path d="M60.968 28.22H63.164L68.024 41H65.468L64.28 37.814H59.816L58.646 41H56.09L60.968 28.22ZM63.83 36.068L62.066 31.046L60.23 36.068H63.83ZM74.8438 41.18C74.0998 41.18 73.4518 41.018 72.8998 40.694C72.3478 40.358 71.9158 39.908 71.6038 39.344V44.834H69.1918V31.568H71.2978V33.188C71.6458 32.636 72.0958 32.204 72.6478 31.892C73.1998 31.568 73.8358 31.406 74.5558 31.406C75.1918 31.406 75.7798 31.538 76.3198 31.802C76.8598 32.054 77.3218 32.402 77.7058 32.846C78.1018 33.278 78.4078 33.794 78.6238 34.394C78.8518 34.982 78.9658 35.606 78.9658 36.266C78.9658 36.95 78.8638 37.592 78.6598 38.192C78.4558 38.792 78.1678 39.314 77.7958 39.758C77.4358 40.202 77.0038 40.55 76.4998 40.802C75.9958 41.054 75.4438 41.18 74.8438 41.18ZM74.0338 39.128C74.3938 39.128 74.7238 39.05 75.0238 38.894C75.3358 38.738 75.5998 38.528 75.8158 38.264C76.0318 38 76.1998 37.694 76.3198 37.346C76.4398 36.998 76.4998 36.638 76.4998 36.266C76.4998 35.87 76.4338 35.504 76.3018 35.168C76.1698 34.82 75.9838 34.52 75.7438 34.268C75.5158 34.016 75.2398 33.818 74.9158 33.674C74.6038 33.53 74.2618 33.458 73.8898 33.458C73.6618 33.458 73.4278 33.5 73.1878 33.584C72.9478 33.656 72.7258 33.764 72.5218 33.908C72.3178 34.052 72.1318 34.22 71.9638 34.412C71.8078 34.604 71.6878 34.814 71.6038 35.042V37.256C71.8198 37.796 72.1498 38.246 72.5938 38.606C73.0378 38.954 73.5178 39.128 74.0338 39.128ZM86.252 41.18C85.508 41.18 84.86 41.018 84.308 40.694C83.756 40.358 83.324 39.908 83.012 39.344V44.834H80.6V31.568H82.706V33.188C83.054 32.636 83.504 32.204 84.056 31.892C84.608 31.568 85.244 31.406 85.964 31.406C86.6 31.406 87.188 31.538 87.728 31.802C88.268 32.054 88.73 32.402 89.114 32.846C89.51 33.278 89.816 33.794 90.032 34.394C90.26 34.982 90.374 35.606 90.374 36.266C90.374 36.95 90.272 37.592 90.068 38.192C89.864 38.792 89.576 39.314 89.204 39.758C88.844 40.202 88.412 40.55 87.908 40.802C87.404 41.054 86.852 41.18 86.252 41.18ZM85.442 39.128C85.802 39.128 86.132 39.05 86.432 38.894C86.744 38.738 87.008 38.528 87.224 38.264C87.44 38 87.608 37.694 87.728 37.346C87.848 36.998 87.908 36.638 87.908 36.266C87.908 35.87 87.842 35.504 87.71 35.168C87.578 34.82 87.392 34.52 87.152 34.268C86.924 34.016 86.648 33.818 86.324 33.674C86.012 33.53 85.67 33.458 85.298 33.458C85.07 33.458 84.836 33.5 84.596 33.584C84.356 33.656 84.134 33.764 83.93 33.908C83.726 34.052 83.54 34.22 83.372 34.412C83.216 34.604 83.096 34.814 83.012 35.042V37.256C83.228 37.796 83.558 38.246 84.002 38.606C84.446 38.954 84.926 39.128 85.442 39.128ZM104.18 31.568C104.096 31.484 103.94 31.37 103.712 31.226C103.496 31.082 103.226 30.944 102.902 30.812C102.59 30.668 102.248 30.548 101.876 30.452C101.504 30.356 101.126 30.308 100.742 30.308C100.058 30.308 99.5484 30.434 99.2124 30.686C98.8764 30.938 98.7084 31.292 98.7084 31.748C98.7084 32.012 98.7684 32.234 98.8884 32.414C99.0204 32.582 99.2064 32.732 99.4464 32.864C99.6864 32.996 99.9864 33.116 100.346 33.224C100.718 33.332 101.144 33.446 101.624 33.566C102.248 33.734 102.812 33.914 103.316 34.106C103.832 34.298 104.264 34.538 104.612 34.826C104.972 35.114 105.248 35.462 105.44 35.87C105.632 36.266 105.728 36.758 105.728 37.346C105.728 38.03 105.596 38.618 105.332 39.11C105.08 39.59 104.732 39.98 104.288 40.28C103.856 40.58 103.352 40.802 102.776 40.946C102.212 41.078 101.618 41.144 100.994 41.144C100.034 41.144 99.0864 41 98.1504 40.712C97.2144 40.424 96.3744 40.016 95.6304 39.488L96.7284 37.346C96.8364 37.454 97.0284 37.598 97.3044 37.778C97.5924 37.946 97.9284 38.12 98.3124 38.3C98.6964 38.468 99.1224 38.612 99.5904 38.732C100.058 38.852 100.538 38.912 101.03 38.912C102.398 38.912 103.082 38.474 103.082 37.598C103.082 37.322 103.004 37.088 102.848 36.896C102.692 36.704 102.47 36.536 102.182 36.392C101.894 36.248 101.546 36.116 101.138 35.996C100.73 35.876 100.274 35.744 99.7704 35.6C99.1584 35.432 98.6244 35.252 98.1684 35.06C97.7244 34.856 97.3524 34.622 97.0524 34.358C96.7524 34.082 96.5244 33.77 96.3684 33.422C96.2244 33.062 96.1524 32.636 96.1524 32.144C96.1524 31.496 96.2724 30.92 96.5124 30.416C96.7524 29.912 97.0824 29.492 97.5024 29.156C97.9344 28.82 98.4324 28.568 98.9964 28.4C99.5604 28.22 100.166 28.13 100.814 28.13C101.714 28.13 102.542 28.274 103.298 28.562C104.054 28.838 104.714 29.168 105.278 29.552L104.18 31.568ZM112.918 40.514C112.594 40.658 112.198 40.802 111.73 40.946C111.262 41.09 110.77 41.162 110.254 41.162C109.918 41.162 109.6 41.12 109.3 41.036C109.012 40.952 108.754 40.82 108.526 40.64C108.31 40.448 108.136 40.208 108.004 39.92C107.872 39.62 107.806 39.26 107.806 38.84V33.422H106.564V31.568H107.806V28.508H110.218V31.568H112.198V33.422H110.218V38.03C110.218 38.366 110.302 38.606 110.47 38.75C110.65 38.882 110.866 38.948 111.118 38.948C111.37 38.948 111.616 38.906 111.856 38.822C112.096 38.738 112.288 38.666 112.432 38.606L112.918 40.514ZM118.302 41.18C117.534 41.18 116.844 41.048 116.232 40.784C115.62 40.52 115.098 40.166 114.666 39.722C114.246 39.266 113.922 38.744 113.694 38.156C113.466 37.568 113.352 36.95 113.352 36.302C113.352 35.642 113.466 35.018 113.694 34.43C113.922 33.842 114.246 33.326 114.666 32.882C115.098 32.426 115.62 32.066 116.232 31.802C116.844 31.538 117.534 31.406 118.302 31.406C119.07 31.406 119.754 31.538 120.354 31.802C120.966 32.066 121.482 32.426 121.902 32.882C122.334 33.326 122.664 33.842 122.892 34.43C123.12 35.018 123.234 35.642 123.234 36.302C123.234 36.95 123.12 37.568 122.892 38.156C122.664 38.744 122.34 39.266 121.92 39.722C121.5 40.166 120.984 40.52 120.372 40.784C119.76 41.048 119.07 41.18 118.302 41.18ZM115.836 36.302C115.836 36.722 115.896 37.106 116.016 37.454C116.148 37.79 116.322 38.084 116.538 38.336C116.766 38.588 117.03 38.786 117.33 38.93C117.63 39.062 117.954 39.128 118.302 39.128C118.65 39.128 118.974 39.062 119.274 38.93C119.574 38.786 119.832 38.588 120.048 38.336C120.276 38.084 120.45 37.784 120.57 37.436C120.702 37.088 120.768 36.704 120.768 36.284C120.768 35.876 120.702 35.498 120.57 35.15C120.45 34.802 120.276 34.502 120.048 34.25C119.832 33.998 119.574 33.806 119.274 33.674C118.974 33.53 118.65 33.458 118.302 33.458C117.954 33.458 117.63 33.53 117.33 33.674C117.03 33.818 116.766 34.016 116.538 34.268C116.322 34.52 116.148 34.82 116.016 35.168C115.896 35.516 115.836 35.894 115.836 36.302ZM130.478 33.656C129.746 33.668 129.092 33.812 128.516 34.088C127.94 34.352 127.526 34.754 127.274 35.294V41H124.862V31.568H127.076V33.584C127.244 33.26 127.442 32.972 127.67 32.72C127.898 32.456 128.144 32.228 128.408 32.036C128.672 31.844 128.936 31.7 129.2 31.604C129.476 31.496 129.74 31.442 129.992 31.442C130.124 31.442 130.22 31.442 130.28 31.442C130.352 31.442 130.418 31.448 130.478 31.46V33.656ZM135.722 41.18C134.966 41.18 134.282 41.054 133.67 40.802C133.058 40.538 132.536 40.184 132.104 39.74C131.672 39.296 131.336 38.78 131.096 38.192C130.868 37.604 130.754 36.986 130.754 36.338C130.754 35.666 130.868 35.036 131.096 34.448C131.324 33.848 131.654 33.326 132.086 32.882C132.518 32.426 133.04 32.066 133.652 31.802C134.276 31.538 134.972 31.406 135.74 31.406C136.508 31.406 137.192 31.538 137.792 31.802C138.404 32.066 138.92 32.42 139.34 32.864C139.772 33.308 140.096 33.824 140.312 34.412C140.54 35 140.654 35.612 140.654 36.248C140.654 36.404 140.648 36.554 140.636 36.698C140.636 36.842 140.624 36.962 140.6 37.058H133.31C133.346 37.43 133.436 37.76 133.58 38.048C133.724 38.336 133.91 38.582 134.138 38.786C134.366 38.99 134.624 39.146 134.912 39.254C135.2 39.362 135.5 39.416 135.812 39.416C136.292 39.416 136.742 39.302 137.162 39.074C137.594 38.834 137.888 38.522 138.044 38.138L140.114 38.714C139.766 39.434 139.208 40.028 138.44 40.496C137.684 40.952 136.778 41.18 135.722 41.18ZM138.17 35.492C138.11 34.784 137.846 34.22 137.378 33.8C136.922 33.368 136.364 33.152 135.704 33.152C135.38 33.152 135.074 33.212 134.786 33.332C134.51 33.44 134.264 33.596 134.048 33.8C133.832 34.004 133.652 34.25 133.508 34.538C133.376 34.826 133.298 35.144 133.274 35.492H138.17Z" fill="white"/>
</svg>
