<svg width="174" height="56" viewBox="0 0 174 56" fill="none" xmlns="http://www.w3.org/2000/svg">
<path d="M0 10C0 4.47715 4.47715 0 10 0H164C169.523 0 174 4.47715 174 10V46C174 51.5228 169.523 56 164 56H10C4.47715 56 0 51.5228 0 46V10Z" fill="black"/>
<path d="M31.9029 26.8163L19.4671 14.7115L35.2891 23.5291L31.9029 26.8163ZM16.2225 14C15.4895 14.372 15 15.0502 15 15.9307V40.0693C15 40.9498 15.4904 41.628 16.2225 42L30.6814 27.9969L16.2225 14ZM40.18 26.3402L36.8614 24.4752L33.1597 28.0031L36.8614 31.531L40.2476 29.6659C41.2618 28.8844 41.2618 27.1226 40.18 26.3402ZM19.468 41.2955L35.29 32.4779L31.9038 29.1907L19.468 41.2955Z" fill="white"/>
<path d="M56.89 19V11.9H59.3C59.8667 11.9 60.36 11.9933 60.78 12.18C61.2067 12.3667 61.56 12.62 61.84 12.94C62.1267 13.26 62.34 13.6367 62.48 14.07C62.6267 14.4967 62.7 14.9533 62.7 15.44C62.7 15.98 62.62 16.47 62.46 16.91C62.3 17.3433 62.07 17.7167 61.77 18.03C61.4767 18.3367 61.12 18.5767 60.7 18.75C60.2867 18.9167 59.82 19 59.3 19H56.89ZM62 15.44C62 15.0133 61.94 14.6233 61.82 14.27C61.7 13.91 61.5233 13.6 61.29 13.34C61.0633 13.08 60.7833 12.88 60.45 12.74C60.1167 12.5933 59.7333 12.52 59.3 12.52H57.59V18.38H59.3C59.74 18.38 60.1267 18.3067 60.46 18.16C60.8 18.0067 61.0833 17.8 61.31 17.54C61.5367 17.2733 61.7067 16.9633 61.82 16.61C61.94 16.25 62 15.86 62 15.44ZM66.1184 19.1C65.7384 19.1 65.3918 19.03 65.0784 18.89C64.7651 18.7433 64.4918 18.5467 64.2584 18.3C64.0318 18.0533 63.8551 17.7667 63.7284 17.44C63.6018 17.1133 63.5384 16.77 63.5384 16.41C63.5384 16.0433 63.6018 15.6967 63.7284 15.37C63.8618 15.0433 64.0418 14.7567 64.2684 14.51C64.5018 14.2633 64.7751 14.0667 65.0884 13.92C65.4018 13.7733 65.7451 13.7 66.1184 13.7C66.4918 13.7 66.8351 13.7733 67.1484 13.92C67.4684 14.0667 67.7418 14.2633 67.9684 14.51C68.2018 14.7567 68.3818 15.0433 68.5084 15.37C68.6418 15.6967 68.7084 16.0433 68.7084 16.41C68.7084 16.77 68.6451 17.1133 68.5184 17.44C68.3918 17.7667 68.2118 18.0533 67.9784 18.3C67.7518 18.5467 67.4784 18.7433 67.1584 18.89C66.8451 19.03 66.4984 19.1 66.1184 19.1ZM64.2284 16.42C64.2284 16.7133 64.2784 16.9867 64.3784 17.24C64.4784 17.4867 64.6118 17.7067 64.7784 17.9C64.9518 18.0867 65.1518 18.2333 65.3784 18.34C65.6118 18.4467 65.8584 18.5 66.1184 18.5C66.3784 18.5 66.6218 18.4467 66.8484 18.34C67.0818 18.2267 67.2851 18.0767 67.4584 17.89C67.6318 17.6967 67.7684 17.4733 67.8684 17.22C67.9684 16.9667 68.0184 16.6933 68.0184 16.4C68.0184 16.1133 67.9684 15.8433 67.8684 15.59C67.7684 15.33 67.6318 15.1067 67.4584 14.92C67.2851 14.7267 67.0818 14.5767 66.8484 14.47C66.6218 14.3567 66.3784 14.3 66.1184 14.3C65.8584 14.3 65.6151 14.3567 65.3884 14.47C65.1618 14.5767 64.9618 14.7267 64.7884 14.92C64.6151 15.1133 64.4784 15.34 64.3784 15.6C64.2784 15.8533 64.2284 16.1267 64.2284 16.42ZM76.2202 13.79H76.8902L74.6502 19H74.0902L72.9702 16.34L71.8602 19H71.3002L69.0602 13.79H69.7202L71.6202 18.3L72.6102 15.92L71.7202 13.8H72.2902L72.9702 15.5L73.6502 13.8H74.2302L73.3402 15.92L74.3302 18.3L76.2202 13.79ZM82.1749 19H81.4949V16.09C81.4949 15.47 81.4016 15.02 81.2149 14.74C81.0349 14.46 80.7549 14.32 80.3749 14.32C80.1749 14.32 79.9749 14.3567 79.7749 14.43C79.5749 14.5033 79.3883 14.6067 79.2149 14.74C79.0483 14.8733 78.8983 15.0333 78.7649 15.22C78.6316 15.4 78.5349 15.5967 78.4749 15.81V19H77.7949V13.79H78.4149V14.97C78.6283 14.59 78.9316 14.2833 79.3249 14.05C79.7249 13.8167 80.1583 13.7 80.6249 13.7C80.9116 13.7 81.1549 13.7533 81.3549 13.86C81.5549 13.9667 81.7149 14.1167 81.8349 14.31C81.9549 14.5033 82.0416 14.74 82.0949 15.02C82.1483 15.3 82.1749 15.61 82.1749 15.95V19ZM83.655 11.7H84.335V17.82C84.335 18.0133 84.3883 18.1667 84.495 18.28C84.6017 18.3867 84.7517 18.44 84.945 18.44C85.0183 18.44 85.105 18.43 85.205 18.41C85.305 18.39 85.3983 18.3633 85.485 18.33L85.605 18.88C85.4783 18.9333 85.3217 18.9767 85.135 19.01C84.955 19.0433 84.7983 19.06 84.665 19.06C84.3517 19.06 84.105 18.9733 83.925 18.8C83.745 18.62 83.655 18.37 83.655 18.05V11.7ZM88.5696 19.1C88.1896 19.1 87.8429 19.03 87.5296 18.89C87.2163 18.7433 86.9429 18.5467 86.7096 18.3C86.4829 18.0533 86.3063 17.7667 86.1796 17.44C86.0529 17.1133 85.9896 16.77 85.9896 16.41C85.9896 16.0433 86.0529 15.6967 86.1796 15.37C86.3129 15.0433 86.4929 14.7567 86.7196 14.51C86.9529 14.2633 87.2263 14.0667 87.5396 13.92C87.8529 13.7733 88.1963 13.7 88.5696 13.7C88.9429 13.7 89.2863 13.7733 89.5996 13.92C89.9196 14.0667 90.1929 14.2633 90.4196 14.51C90.6529 14.7567 90.8329 15.0433 90.9596 15.37C91.0929 15.6967 91.1596 16.0433 91.1596 16.41C91.1596 16.77 91.0963 17.1133 90.9696 17.44C90.8429 17.7667 90.6629 18.0533 90.4296 18.3C90.2029 18.5467 89.9296 18.7433 89.6096 18.89C89.2963 19.03 88.9496 19.1 88.5696 19.1ZM86.6796 16.42C86.6796 16.7133 86.7296 16.9867 86.8296 17.24C86.9296 17.4867 87.0629 17.7067 87.2296 17.9C87.4029 18.0867 87.6029 18.2333 87.8296 18.34C88.0629 18.4467 88.3096 18.5 88.5696 18.5C88.8296 18.5 89.0729 18.4467 89.2996 18.34C89.5329 18.2267 89.7363 18.0767 89.9096 17.89C90.0829 17.6967 90.2196 17.4733 90.3196 17.22C90.4196 16.9667 90.4696 16.6933 90.4696 16.4C90.4696 16.1133 90.4196 15.8433 90.3196 15.59C90.2196 15.33 90.0829 15.1067 89.9096 14.92C89.7363 14.7267 89.5329 14.5767 89.2996 14.47C89.0729 14.3567 88.8296 14.3 88.5696 14.3C88.3096 14.3 88.0663 14.3567 87.8396 14.47C87.6129 14.5767 87.4129 14.7267 87.2396 14.92C87.0663 15.1133 86.9296 15.34 86.8296 15.6C86.7296 15.8533 86.6796 16.1267 86.6796 16.42ZM93.6069 19.1C93.3602 19.1 93.1302 19.06 92.9169 18.98C92.7102 18.8933 92.5269 18.7767 92.3669 18.63C92.2135 18.4833 92.0935 18.3133 92.0069 18.12C91.9202 17.92 91.8769 17.7067 91.8769 17.48C91.8769 17.2533 91.9302 17.0433 92.0369 16.85C92.1435 16.6567 92.2935 16.49 92.4869 16.35C92.6802 16.21 92.9102 16.1033 93.1769 16.03C93.4435 15.95 93.7369 15.91 94.0569 15.91C94.3235 15.91 94.5935 15.9333 94.8669 15.98C95.1402 16.0267 95.3835 16.0933 95.5969 16.18V15.71C95.5969 15.25 95.4669 14.8867 95.2069 14.62C94.9469 14.3467 94.5869 14.21 94.1269 14.21C93.8602 14.21 93.5869 14.2633 93.3069 14.37C93.0269 14.4767 92.7435 14.63 92.4569 14.83L92.2169 14.38C92.8902 13.9267 93.5435 13.7 94.1769 13.7C94.8302 13.7 95.3435 13.8833 95.7169 14.25C96.0902 14.6167 96.2769 15.1233 96.2769 15.77V18.12C96.2769 18.3067 96.3602 18.4 96.5269 18.4V19C96.4135 19.02 96.3269 19.03 96.2669 19.03C96.0935 19.03 95.9569 18.9867 95.8569 18.9C95.7635 18.8133 95.7135 18.6933 95.7069 18.54L95.6869 18.13C95.4469 18.4433 95.1435 18.6833 94.7769 18.85C94.4169 19.0167 94.0269 19.1 93.6069 19.1ZM93.7669 18.58C94.1202 18.58 94.4435 18.5133 94.7369 18.38C95.0369 18.2467 95.2635 18.07 95.4169 17.85C95.4769 17.79 95.5202 17.7267 95.5469 17.66C95.5802 17.5867 95.5969 17.52 95.5969 17.46V16.61C95.3702 16.5233 95.1335 16.4567 94.8869 16.41C94.6469 16.3633 94.4002 16.34 94.1469 16.34C93.6669 16.34 93.2769 16.44 92.9769 16.64C92.6769 16.84 92.5269 17.1033 92.5269 17.43C92.5269 17.59 92.5569 17.74 92.6169 17.88C92.6835 18.02 92.7702 18.1433 92.8769 18.25C92.9902 18.35 93.1235 18.43 93.2769 18.49C93.4302 18.55 93.5935 18.58 93.7669 18.58ZM99.8861 19.1C99.5261 19.1 99.1928 19.0267 98.8861 18.88C98.5794 18.7267 98.3161 18.5267 98.0961 18.28C97.8761 18.0333 97.7028 17.75 97.5761 17.43C97.4561 17.1033 97.3961 16.7633 97.3961 16.41C97.3961 16.0433 97.4561 15.6967 97.5761 15.37C97.6961 15.0367 97.8594 14.7467 98.0661 14.5C98.2794 14.2533 98.5294 14.06 98.8161 13.92C99.1094 13.7733 99.4294 13.7 99.7761 13.7C100.216 13.7 100.606 13.8167 100.946 14.05C101.286 14.2767 101.553 14.5533 101.746 14.88V11.7H102.426V18.12C102.426 18.3067 102.506 18.4 102.666 18.4V19C102.566 19.02 102.486 19.03 102.426 19.03C102.266 19.03 102.126 18.98 102.006 18.88C101.886 18.7733 101.826 18.6467 101.826 18.5V17.99C101.619 18.33 101.339 18.6 100.986 18.8C100.633 19 100.266 19.1 99.8861 19.1ZM100.036 18.5C100.203 18.5 100.379 18.4667 100.566 18.4C100.759 18.3333 100.939 18.2433 101.106 18.13C101.273 18.01 101.413 17.8733 101.526 17.72C101.646 17.56 101.719 17.39 101.746 17.21V15.6C101.679 15.42 101.583 15.2533 101.456 15.1C101.329 14.94 101.183 14.8 101.016 14.68C100.856 14.56 100.683 14.4667 100.496 14.4C100.309 14.3333 100.126 14.3 99.9461 14.3C99.6661 14.3 99.4128 14.36 99.1861 14.48C98.9594 14.6 98.7628 14.76 98.5961 14.96C98.4361 15.1533 98.3128 15.3767 98.2261 15.63C98.1394 15.8833 98.0961 16.1433 98.0961 16.41C98.0961 16.69 98.1461 16.9567 98.2461 17.21C98.3461 17.4633 98.4828 17.6867 98.6561 17.88C98.8294 18.0667 99.0328 18.2167 99.2661 18.33C99.5061 18.4433 99.7628 18.5 100.036 18.5ZM106.766 19V14.33H106.046V13.79H106.766V13.65C106.766 13.01 106.902 12.51 107.176 12.15C107.449 11.7833 107.822 11.6 108.296 11.6C108.502 11.6 108.702 11.63 108.896 11.69C109.089 11.75 109.256 11.83 109.396 11.93L109.186 12.42C109.092 12.3467 108.976 12.29 108.836 12.25C108.702 12.21 108.566 12.19 108.426 12.19C108.106 12.19 107.862 12.3133 107.696 12.56C107.529 12.8067 107.446 13.1633 107.446 13.63V13.79H108.886V14.33H107.446V19H106.766ZM112.416 14.39C111.956 14.4033 111.556 14.53 111.216 14.77C110.876 15.01 110.636 15.34 110.496 15.76V19H109.816V13.79H110.456V15.04C110.65 14.64 110.91 14.3267 111.236 14.1C111.563 13.8733 111.913 13.76 112.286 13.76C112.34 13.76 112.383 13.7633 112.416 13.77V14.39ZM115.279 19.1C114.899 19.1 114.552 19.03 114.239 18.89C113.925 18.7433 113.652 18.5467 113.419 18.3C113.192 18.0533 113.015 17.7667 112.889 17.44C112.762 17.1133 112.699 16.77 112.699 16.41C112.699 16.0433 112.762 15.6967 112.889 15.37C113.022 15.0433 113.202 14.7567 113.429 14.51C113.662 14.2633 113.935 14.0667 114.249 13.92C114.562 13.7733 114.905 13.7 115.279 13.7C115.652 13.7 115.995 13.7733 116.309 13.92C116.629 14.0667 116.902 14.2633 117.129 14.51C117.362 14.7567 117.542 15.0433 117.669 15.37C117.802 15.6967 117.869 16.0433 117.869 16.41C117.869 16.77 117.805 17.1133 117.679 17.44C117.552 17.7667 117.372 18.0533 117.139 18.3C116.912 18.5467 116.639 18.7433 116.319 18.89C116.005 19.03 115.659 19.1 115.279 19.1ZM113.389 16.42C113.389 16.7133 113.439 16.9867 113.539 17.24C113.639 17.4867 113.772 17.7067 113.939 17.9C114.112 18.0867 114.312 18.2333 114.539 18.34C114.772 18.4467 115.019 18.5 115.279 18.5C115.539 18.5 115.782 18.4467 116.009 18.34C116.242 18.2267 116.445 18.0767 116.619 17.89C116.792 17.6967 116.929 17.4733 117.029 17.22C117.129 16.9667 117.179 16.6933 117.179 16.4C117.179 16.1133 117.129 15.8433 117.029 15.59C116.929 15.33 116.792 15.1067 116.619 14.92C116.445 14.7267 116.242 14.5767 116.009 14.47C115.782 14.3567 115.539 14.3 115.279 14.3C115.019 14.3 114.775 14.3567 114.549 14.47C114.322 14.5767 114.122 14.7267 113.949 14.92C113.775 15.1133 113.639 15.34 113.539 15.6C113.439 15.8533 113.389 16.1267 113.389 16.42ZM126.756 19H126.076V16.09C126.076 15.4833 125.979 15.0367 125.786 14.75C125.593 14.4633 125.306 14.32 124.926 14.32C124.726 14.32 124.536 14.3567 124.356 14.43C124.183 14.5033 124.019 14.6067 123.866 14.74C123.719 14.8733 123.589 15.0333 123.476 15.22C123.363 15.4 123.276 15.6 123.216 15.82V19H122.536V16.09C122.536 15.47 122.443 15.02 122.256 14.74C122.069 14.46 121.783 14.32 121.396 14.32C121.003 14.32 120.653 14.4567 120.346 14.73C120.039 15.0033 119.819 15.3633 119.686 15.81V19H119.006V13.79H119.626V14.97C119.839 14.57 120.119 14.26 120.466 14.04C120.813 13.8133 121.196 13.7 121.616 13.7C122.056 13.7 122.406 13.8233 122.666 14.07C122.933 14.3167 123.096 14.64 123.156 15.04C123.643 14.1467 124.313 13.7 125.166 13.7C125.459 13.7 125.706 13.7533 125.906 13.86C126.113 13.9667 126.276 14.12 126.396 14.32C126.523 14.5133 126.613 14.75 126.666 15.03C126.726 15.3033 126.756 15.61 126.756 15.95V19Z" fill="white"/>
<path d="M66.206 39.56C65.186 40.58 63.998 41.09 62.642 41.09C61.802 41.09 61.01 40.922 60.266 40.586C59.534 40.25 58.892 39.788 58.34 39.2C57.8 38.612 57.368 37.922 57.044 37.13C56.732 36.326 56.576 35.462 56.576 34.538C56.576 33.662 56.732 32.84 57.044 32.072C57.368 31.292 57.806 30.614 58.358 30.038C58.922 29.45 59.582 28.988 60.338 28.652C61.094 28.304 61.916 28.13 62.804 28.13C64.004 28.13 65.03 28.382 65.882 28.886C66.746 29.39 67.394 30.068 67.826 30.92L65.972 32.288C65.648 31.652 65.192 31.166 64.604 30.83C64.028 30.494 63.398 30.326 62.714 30.326C62.174 30.326 61.676 30.44 61.22 30.668C60.776 30.896 60.392 31.208 60.068 31.604C59.756 32 59.51 32.456 59.33 32.972C59.162 33.488 59.078 34.034 59.078 34.61C59.078 35.21 59.174 35.774 59.366 36.302C59.558 36.818 59.822 37.268 60.158 37.652C60.494 38.036 60.89 38.342 61.346 38.57C61.814 38.786 62.318 38.894 62.858 38.894C64.094 38.894 65.21 38.312 66.206 37.148V36.248H63.632V34.43H68.258V41H66.206V39.56ZM74.497 41.18C73.729 41.18 73.039 41.048 72.427 40.784C71.815 40.52 71.293 40.166 70.861 39.722C70.441 39.266 70.117 38.744 69.889 38.156C69.661 37.568 69.547 36.95 69.547 36.302C69.547 35.642 69.661 35.018 69.889 34.43C70.117 33.842 70.441 33.326 70.861 32.882C71.293 32.426 71.815 32.066 72.427 31.802C73.039 31.538 73.729 31.406 74.497 31.406C75.265 31.406 75.949 31.538 76.549 31.802C77.161 32.066 77.677 32.426 78.097 32.882C78.529 33.326 78.859 33.842 79.087 34.43C79.315 35.018 79.429 35.642 79.429 36.302C79.429 36.95 79.315 37.568 79.087 38.156C78.859 38.744 78.535 39.266 78.115 39.722C77.695 40.166 77.179 40.52 76.567 40.784C75.955 41.048 75.265 41.18 74.497 41.18ZM72.031 36.302C72.031 36.722 72.091 37.106 72.211 37.454C72.343 37.79 72.517 38.084 72.733 38.336C72.961 38.588 73.225 38.786 73.525 38.93C73.825 39.062 74.149 39.128 74.497 39.128C74.845 39.128 75.169 39.062 75.469 38.93C75.769 38.786 76.027 38.588 76.243 38.336C76.471 38.084 76.645 37.784 76.765 37.436C76.897 37.088 76.963 36.704 76.963 36.284C76.963 35.876 76.897 35.498 76.765 35.15C76.645 34.802 76.471 34.502 76.243 34.25C76.027 33.998 75.769 33.806 75.469 33.674C75.169 33.53 74.845 33.458 74.497 33.458C74.149 33.458 73.825 33.53 73.525 33.674C73.225 33.818 72.961 34.016 72.733 34.268C72.517 34.52 72.343 34.82 72.211 35.168C72.091 35.516 72.031 35.894 72.031 36.302ZM85.413 41.18C84.645 41.18 83.955 41.048 83.343 40.784C82.731 40.52 82.209 40.166 81.777 39.722C81.357 39.266 81.033 38.744 80.805 38.156C80.577 37.568 80.463 36.95 80.463 36.302C80.463 35.642 80.577 35.018 80.805 34.43C81.033 33.842 81.357 33.326 81.777 32.882C82.209 32.426 82.731 32.066 83.343 31.802C83.955 31.538 84.645 31.406 85.413 31.406C86.181 31.406 86.865 31.538 87.465 31.802C88.077 32.066 88.593 32.426 89.013 32.882C89.445 33.326 89.775 33.842 90.003 34.43C90.231 35.018 90.345 35.642 90.345 36.302C90.345 36.95 90.231 37.568 90.003 38.156C89.775 38.744 89.451 39.266 89.031 39.722C88.611 40.166 88.095 40.52 87.483 40.784C86.871 41.048 86.181 41.18 85.413 41.18ZM82.947 36.302C82.947 36.722 83.007 37.106 83.127 37.454C83.259 37.79 83.433 38.084 83.649 38.336C83.877 38.588 84.141 38.786 84.441 38.93C84.741 39.062 85.065 39.128 85.413 39.128C85.761 39.128 86.085 39.062 86.385 38.93C86.685 38.786 86.943 38.588 87.159 38.336C87.387 38.084 87.561 37.784 87.681 37.436C87.813 37.088 87.879 36.704 87.879 36.284C87.879 35.876 87.813 35.498 87.681 35.15C87.561 34.802 87.387 34.502 87.159 34.25C86.943 33.998 86.685 33.806 86.385 33.674C86.085 33.53 85.761 33.458 85.413 33.458C85.065 33.458 84.741 33.53 84.441 33.674C84.141 33.818 83.877 34.016 83.649 34.268C83.433 34.52 83.259 34.82 83.127 35.168C83.007 35.516 82.947 35.894 82.947 36.302ZM95.663 41.054C95.027 41.054 94.451 40.928 93.935 40.676C93.419 40.424 92.969 40.082 92.585 39.65C92.213 39.206 91.925 38.696 91.721 38.12C91.517 37.544 91.415 36.932 91.415 36.284C91.415 35.6 91.523 34.964 91.739 34.376C91.955 33.788 92.255 33.272 92.639 32.828C93.023 32.384 93.485 32.036 94.025 31.784C94.565 31.532 95.159 31.406 95.807 31.406C96.539 31.406 97.181 31.574 97.733 31.91C98.285 32.234 98.741 32.672 99.101 33.224V31.568H101.207V40.55C101.207 41.246 101.075 41.87 100.811 42.422C100.547 42.974 100.181 43.442 99.713 43.826C99.257 44.21 98.705 44.504 98.057 44.708C97.421 44.912 96.725 45.014 95.969 45.014C94.937 45.014 94.067 44.84 93.359 44.492C92.663 44.156 92.063 43.676 91.559 43.052L92.873 41.774C93.233 42.218 93.683 42.566 94.223 42.818C94.775 43.07 95.357 43.196 95.969 43.196C96.341 43.196 96.695 43.142 97.031 43.034C97.379 42.938 97.685 42.782 97.949 42.566C98.213 42.35 98.417 42.074 98.561 41.738C98.717 41.402 98.795 41.006 98.795 40.55V39.362C98.483 39.902 98.045 40.322 97.481 40.622C96.917 40.91 96.311 41.054 95.663 41.054ZM96.473 39.128C96.737 39.128 96.989 39.086 97.229 39.002C97.469 38.918 97.691 38.804 97.895 38.66C98.099 38.516 98.279 38.348 98.435 38.156C98.591 37.964 98.711 37.76 98.795 37.544V35.294C98.579 34.742 98.237 34.298 97.769 33.962C97.313 33.626 96.833 33.458 96.329 33.458C95.957 33.458 95.621 33.542 95.321 33.71C95.021 33.866 94.763 34.082 94.547 34.358C94.331 34.622 94.163 34.928 94.043 35.276C93.935 35.624 93.881 35.984 93.881 36.356C93.881 36.74 93.947 37.1 94.079 37.436C94.211 37.772 94.391 38.066 94.619 38.318C94.859 38.57 95.135 38.768 95.447 38.912C95.759 39.056 96.101 39.128 96.473 39.128ZM103.363 27.86H105.775V37.976C105.775 38.324 105.859 38.594 106.027 38.786C106.195 38.978 106.435 39.074 106.747 39.074C106.891 39.074 107.047 39.05 107.215 39.002C107.395 38.954 107.563 38.894 107.719 38.822L108.043 40.658C107.719 40.814 107.341 40.934 106.909 41.018C106.477 41.102 106.087 41.144 105.739 41.144C104.983 41.144 104.395 40.946 103.975 40.55C103.567 40.142 103.363 39.566 103.363 38.822V27.86ZM113.468 41.18C112.712 41.18 112.028 41.054 111.416 40.802C110.804 40.538 110.282 40.184 109.85 39.74C109.418 39.296 109.082 38.78 108.842 38.192C108.614 37.604 108.5 36.986 108.5 36.338C108.5 35.666 108.614 35.036 108.842 34.448C109.07 33.848 109.4 33.326 109.832 32.882C110.264 32.426 110.786 32.066 111.398 31.802C112.022 31.538 112.718 31.406 113.486 31.406C114.254 31.406 114.938 31.538 115.538 31.802C116.15 32.066 116.666 32.42 117.086 32.864C117.518 33.308 117.842 33.824 118.058 34.412C118.286 35 118.4 35.612 118.4 36.248C118.4 36.404 118.394 36.554 118.382 36.698C118.382 36.842 118.37 36.962 118.346 37.058H111.056C111.092 37.43 111.182 37.76 111.326 38.048C111.47 38.336 111.656 38.582 111.884 38.786C112.112 38.99 112.37 39.146 112.658 39.254C112.946 39.362 113.246 39.416 113.558 39.416C114.038 39.416 114.488 39.302 114.908 39.074C115.34 38.834 115.634 38.522 115.79 38.138L117.86 38.714C117.512 39.434 116.954 40.028 116.186 40.496C115.43 40.952 114.524 41.18 113.468 41.18ZM115.916 35.492C115.856 34.784 115.592 34.22 115.124 33.8C114.668 33.368 114.11 33.152 113.45 33.152C113.126 33.152 112.82 33.212 112.532 33.332C112.256 33.44 112.01 33.596 111.794 33.8C111.578 34.004 111.398 34.25 111.254 34.538C111.122 34.826 111.044 35.144 111.02 35.492H115.916ZM124.428 41V28.22H129.846C130.434 28.22 130.974 28.346 131.466 28.598C131.97 28.838 132.402 29.162 132.762 29.57C133.122 29.966 133.404 30.422 133.608 30.938C133.812 31.442 133.914 31.952 133.914 32.468C133.914 33.008 133.818 33.536 133.626 34.052C133.434 34.556 133.164 35.006 132.816 35.402C132.468 35.798 132.048 36.116 131.556 36.356C131.064 36.596 130.524 36.716 129.936 36.716H126.912V41H124.428ZM126.912 34.538H129.792C130.248 34.538 130.626 34.352 130.926 33.98C131.238 33.608 131.394 33.104 131.394 32.468C131.394 32.144 131.346 31.856 131.25 31.604C131.154 31.34 131.028 31.118 130.872 30.938C130.716 30.758 130.53 30.626 130.314 30.542C130.11 30.446 129.9 30.398 129.684 30.398H126.912V34.538ZM135.391 27.86H137.803V37.976C137.803 38.324 137.887 38.594 138.055 38.786C138.223 38.978 138.463 39.074 138.775 39.074C138.919 39.074 139.075 39.05 139.243 39.002C139.423 38.954 139.591 38.894 139.747 38.822L140.071 40.658C139.747 40.814 139.369 40.934 138.937 41.018C138.505 41.102 138.115 41.144 137.767 41.144C137.011 41.144 136.423 40.946 136.003 40.55C135.595 40.142 135.391 39.566 135.391 38.822V27.86ZM143.695 41.18C143.239 41.18 142.813 41.108 142.417 40.964C142.021 40.808 141.679 40.598 141.391 40.334C141.103 40.058 140.875 39.74 140.707 39.38C140.551 39.02 140.473 38.624 140.473 38.192C140.473 37.748 140.569 37.34 140.761 36.968C140.965 36.584 141.241 36.26 141.589 35.996C141.949 35.732 142.375 35.528 142.867 35.384C143.359 35.228 143.899 35.15 144.487 35.15C144.907 35.15 145.315 35.186 145.711 35.258C146.119 35.33 146.479 35.432 146.791 35.564V35.024C146.791 34.4 146.611 33.92 146.251 33.584C145.903 33.248 145.381 33.08 144.685 33.08C144.181 33.08 143.689 33.17 143.209 33.35C142.729 33.53 142.237 33.794 141.733 34.142L140.995 32.612C142.207 31.808 143.515 31.406 144.919 31.406C146.275 31.406 147.325 31.742 148.069 32.414C148.825 33.074 149.203 34.034 149.203 35.294V38.228C149.203 38.48 149.245 38.66 149.329 38.768C149.425 38.876 149.575 38.936 149.779 38.948V41C149.371 41.084 149.017 41.126 148.717 41.126C148.261 41.126 147.907 41.024 147.655 40.82C147.415 40.616 147.265 40.346 147.205 40.01L147.151 39.488C146.731 40.04 146.221 40.46 145.621 40.748C145.021 41.036 144.379 41.18 143.695 41.18ZM144.379 39.416C144.787 39.416 145.171 39.344 145.531 39.2C145.903 39.056 146.191 38.864 146.395 38.624C146.659 38.42 146.791 38.192 146.791 37.94V36.86C146.503 36.752 146.191 36.668 145.855 36.608C145.519 36.536 145.195 36.5 144.883 36.5C144.259 36.5 143.749 36.644 143.353 36.932C142.957 37.208 142.759 37.562 142.759 37.994C142.759 38.402 142.915 38.744 143.227 39.02C143.539 39.284 143.923 39.416 144.379 39.416ZM151.427 42.836C151.631 42.896 151.829 42.938 152.021 42.962C152.213 42.998 152.375 43.016 152.507 43.016C152.663 43.016 152.807 42.986 152.939 42.926C153.071 42.866 153.191 42.758 153.299 42.602C153.407 42.458 153.515 42.254 153.623 41.99C153.731 41.726 153.845 41.396 153.965 41L150.239 31.568H152.723L155.279 38.912L157.547 31.568H159.815L155.855 42.872C155.627 43.532 155.237 44.072 154.685 44.492C154.133 44.912 153.449 45.122 152.633 45.122C152.441 45.122 152.243 45.104 152.039 45.068C151.847 45.044 151.643 44.996 151.427 44.924V42.836Z" fill="white"/>
</svg>
