<svg width="196" height="71" viewBox="0 0 196 71" fill="none" xmlns="http://www.w3.org/2000/svg">
<rect width="109" height="71" rx="20" fill="#54595F"/>
<g clip-path="url(#clip0)">
<path d="M50.9452 46.5712C50.1397 46.5712 49.3858 46.4359 48.6836 46.1652C47.9813 45.8945 47.372 45.5301 46.8557 45.072C46.36 44.593 45.9676 44.0308 45.6784 43.3852C45.3893 42.7397 45.2447 42.0421 45.2447 41.2925C45.2447 40.4595 45.4203 39.6995 45.7714 39.0123C46.1225 38.3251 46.6079 37.7317 47.2275 37.2319C47.8471 36.7321 48.5803 36.3469 49.4271 36.0762C50.2946 35.8055 51.2446 35.6701 52.2773 35.6701C53.5992 35.6701 54.6938 35.8784 55.5613 36.2948V35.7951C55.5613 35.0246 55.3341 34.452 54.8797 34.0771C54.446 33.7023 53.7334 33.5149 52.742 33.5149C51.8126 33.5149 50.9555 33.6711 50.1706 33.9834C49.3858 34.275 48.5596 34.7122 47.6922 35.2953L45.9882 31.6095C48.1362 30.2144 50.5837 29.5168 53.3307 29.5168C55.9331 29.5168 57.9365 30.0998 59.3409 31.266C60.7454 32.4321 61.4476 34.1812 61.4476 36.5135V39.6995C61.4476 40.2617 61.5303 40.6574 61.6955 40.8864C61.8607 41.0947 62.1499 41.2196 62.5629 41.2612V46.2589C62.0879 46.363 61.6335 46.4359 61.1998 46.4775C60.7867 46.54 60.4149 46.5712 60.0845 46.5712C59.0311 46.5712 58.2256 46.3838 57.668 46.009C57.131 45.6134 56.7799 45.0407 56.6146 44.2911L56.4907 43.6976C55.7678 44.6347 54.9313 45.3531 53.9813 45.8528C53.0312 46.3318 52.0192 46.5712 50.9452 46.5712ZM52.7111 42.3232C53.0622 42.3232 53.4236 42.2712 53.7954 42.1671C54.1672 42.0421 54.4976 41.886 54.7868 41.6985C55.014 41.532 55.1999 41.355 55.3444 41.1675C55.489 40.9593 55.5613 40.7511 55.5613 40.5428V39.3247C55.2102 39.1997 54.8281 39.0956 54.415 39.0123C54.0019 38.929 53.6302 38.8874 53.2997 38.8874C52.5768 38.8874 51.9778 39.0644 51.5028 39.4184C51.0278 39.7724 50.7903 40.2201 50.7903 40.7615C50.7903 41.2196 50.9658 41.5944 51.3169 41.886C51.6887 42.1775 52.1534 42.3232 52.7111 42.3232Z" fill="white"/>
<path d="M71.4121 46.5712C69.987 46.5712 68.5928 46.3422 67.2297 45.8841C65.8665 45.4051 64.7099 44.718 63.7598 43.8225L65.7736 40.2617C66.7856 40.9489 67.7563 41.4799 68.6858 41.8547C69.6358 42.2295 70.5033 42.417 71.2881 42.417C72.1143 42.417 72.5274 42.1567 72.5274 41.6361C72.5274 41.3445 72.3621 41.0947 72.0317 40.8864C71.7219 40.6782 71.1023 40.4387 70.1728 40.168C69.0162 39.8348 68.0455 39.5121 67.2607 39.1997C66.4965 38.8665 65.8665 38.5125 65.3708 38.1377C64.8958 37.7629 64.555 37.3464 64.3485 36.8883C64.1419 36.4302 64.0387 35.8888 64.0387 35.2641C64.0387 34.4311 64.2039 33.6607 64.5343 32.9527C64.8648 32.2447 65.3192 31.6304 65.8975 31.1098C66.4965 30.5892 67.1987 30.1935 68.0042 29.9228C68.8303 29.6313 69.7288 29.4855 70.6995 29.4855C71.8974 29.4855 73.0334 29.6417 74.1074 29.9541C75.2021 30.2664 76.2967 30.9015 77.3914 31.8594L75.1607 35.4202C74.1487 34.7539 73.3019 34.2854 72.6203 34.0147C71.9387 33.7231 71.2985 33.5774 70.6995 33.5774C70.3484 33.5774 70.0592 33.6502 69.8321 33.796C69.6049 33.921 69.4913 34.1292 69.4913 34.4207C69.4913 34.7331 69.6565 34.9934 69.987 35.2016C70.3174 35.389 70.968 35.6077 71.9387 35.8575C73.116 36.1699 74.1074 36.5031 74.9129 36.8571C75.7184 37.1902 76.3587 37.5651 76.8337 37.9815C77.3294 38.3772 77.6805 38.8353 77.8871 39.3559C78.0936 39.8557 78.1969 40.4387 78.1969 41.1051C78.1969 41.9588 78.042 42.7189 77.7321 43.3852C77.4223 44.0516 76.968 44.6242 76.369 45.1032C75.7907 45.5821 75.0781 45.9465 74.2313 46.1964C73.4052 46.4463 72.4654 46.5712 71.4121 46.5712Z" fill="white"/>
<path d="M96.5987 46.2589H90.7124V37.0132C90.7124 36.2011 90.5265 35.6181 90.1547 35.2641C89.8036 34.8892 89.3595 34.7018 88.8225 34.7018C88.6367 34.7018 88.4095 34.7643 88.141 34.8892C87.8931 34.9934 87.6349 35.1495 87.3664 35.3578C87.1186 35.5452 86.8811 35.7847 86.6539 36.0762C86.4267 36.3677 86.2408 36.6905 86.0962 37.0445V46.2589H80.2099V23.4571H86.0962V32.2655C86.6745 31.3701 87.4284 30.6933 88.3578 30.2352C89.2872 29.7562 90.3303 29.5168 91.4869 29.5168C92.6228 29.5168 93.5316 29.7146 94.2132 30.1102C94.8948 30.5059 95.4111 31.0057 95.7622 31.6095C96.1133 32.1926 96.3405 32.8277 96.4438 33.5149C96.5471 34.2021 96.5987 34.8476 96.5987 35.4515V46.2589Z" fill="white"/>
<path d="M106.813 46.2589V24.0818H121.901V29.3918H112.854V33.0776H120.228V38.0128H112.854V46.2589H106.813Z" fill="white"/>
<path d="M123.743 23.4571H129.63V39.7307C129.63 40.9801 130.136 41.6048 131.148 41.6048C131.396 41.6048 131.664 41.5632 131.953 41.4799C132.242 41.3966 132.511 41.2821 132.759 41.1363L133.502 45.5092C132.8 45.8424 132.005 46.1027 131.117 46.2901C130.249 46.4775 129.423 46.5712 128.638 46.5712C127.069 46.5712 125.86 46.1652 125.014 45.3531C124.167 44.541 123.743 43.3644 123.743 41.8235V23.4571Z" fill="white"/>
<path d="M139.682 46.5712C138.877 46.5712 138.123 46.4359 137.42 46.1652C136.718 45.8945 136.109 45.5301 135.593 45.072C135.097 44.593 134.704 44.0308 134.415 43.3852C134.126 42.7397 133.982 42.0421 133.982 41.2925C133.982 40.4595 134.157 39.6995 134.508 39.0123C134.859 38.3251 135.345 37.7317 135.964 37.2319C136.584 36.7321 137.317 36.3469 138.164 36.0762C139.031 35.8055 139.982 35.6701 141.014 35.6701C142.336 35.6701 143.431 35.8784 144.298 36.2948V35.7951C144.298 35.0246 144.071 34.452 143.617 34.0771C143.183 33.7023 142.47 33.5149 141.479 33.5149C140.55 33.5149 139.692 33.6711 138.908 33.9834C138.123 34.275 137.297 34.7122 136.429 35.2953L134.725 31.6095C136.873 30.2144 139.321 29.5168 142.068 29.5168C144.67 29.5168 146.673 30.0998 148.078 31.266C149.482 32.4321 150.185 34.1812 150.185 36.5135V39.6995C150.185 40.2617 150.267 40.6574 150.432 40.8864C150.598 41.0947 150.887 41.2196 151.3 41.2612V46.2589C150.825 46.363 150.37 46.4359 149.937 46.4775C149.524 46.54 149.152 46.5712 148.821 46.5712C147.768 46.5712 146.963 46.3838 146.405 46.009C145.868 45.6134 145.517 45.0407 145.352 44.2911L145.228 43.6976C144.505 44.6347 143.668 45.3531 142.718 45.8528C141.768 46.3318 140.756 46.5712 139.682 46.5712ZM141.448 42.3232C141.799 42.3232 142.161 42.2712 142.532 42.1671C142.904 42.0421 143.235 41.886 143.524 41.6985C143.751 41.532 143.937 41.355 144.081 41.1675C144.226 40.9593 144.298 40.7511 144.298 40.5428V39.3247C143.947 39.1997 143.565 39.0956 143.152 39.0123C142.739 38.929 142.367 38.8874 142.037 38.8874C141.314 38.8874 140.715 39.0644 140.24 39.4184C139.765 39.7724 139.527 40.2201 139.527 40.7615C139.527 41.2196 139.703 41.5944 140.054 41.886C140.426 42.1775 140.89 42.3232 141.448 42.3232Z" fill="white"/>
<path d="M160.149 46.5712C158.724 46.5712 157.33 46.3422 155.967 45.8841C154.603 45.4051 153.447 44.718 152.497 43.8225L154.51 40.2617C155.523 40.9489 156.493 41.4799 157.423 41.8547C158.373 42.2295 159.24 42.417 160.025 42.417C160.851 42.417 161.264 42.1567 161.264 41.6361C161.264 41.3445 161.099 41.0947 160.769 40.8864C160.459 40.6782 159.839 40.4387 158.91 40.168C157.753 39.8348 156.782 39.5121 155.998 39.1997C155.233 38.8665 154.603 38.5125 154.108 38.1377C153.633 37.7629 153.292 37.3464 153.085 36.8883C152.879 36.4302 152.776 35.8888 152.776 35.2641C152.776 34.4311 152.941 33.6607 153.271 32.9527C153.602 32.2447 154.056 31.6304 154.634 31.1098C155.233 30.5892 155.936 30.1935 156.741 29.9228C157.567 29.6313 158.466 29.4855 159.436 29.4855C160.634 29.4855 161.77 29.6417 162.844 29.9541C163.939 30.2664 165.034 30.9015 166.128 31.8594L163.898 35.4202C162.886 34.7539 162.039 34.2854 161.357 34.0147C160.676 33.7231 160.035 33.5774 159.436 33.5774C159.085 33.5774 158.796 33.6502 158.569 33.796C158.342 33.921 158.228 34.1292 158.228 34.4207C158.228 34.7331 158.393 34.9934 158.724 35.2016C159.054 35.389 159.705 35.6077 160.676 35.8575C161.853 36.1699 162.844 36.5031 163.65 36.8571C164.455 37.1902 165.096 37.5651 165.571 37.9815C166.066 38.3772 166.417 38.8353 166.624 39.3559C166.831 39.8557 166.934 40.4387 166.934 41.1051C166.934 41.9588 166.779 42.7189 166.469 43.3852C166.159 44.0516 165.705 44.6242 165.106 45.1032C164.528 45.5821 163.815 45.9465 162.968 46.1964C162.142 46.4463 161.202 46.5712 160.149 46.5712Z" fill="white"/>
<path d="M185.336 46.2589H179.449V37.0132C179.449 36.2011 179.263 35.6181 178.892 35.2641C178.541 34.8892 178.096 34.7018 177.559 34.7018C177.374 34.7018 177.146 34.7643 176.878 34.8892C176.63 34.9934 176.372 35.1495 176.103 35.3578C175.856 35.5452 175.618 35.7847 175.391 36.0762C175.164 36.3677 174.978 36.6905 174.833 37.0445V46.2589H168.947V23.4571H174.833V32.2655C175.411 31.3701 176.165 30.6933 177.095 30.2352C178.024 29.7562 179.067 29.5168 180.224 29.5168C181.36 29.5168 182.269 29.7146 182.95 30.1102C183.632 30.5059 184.148 31.0057 184.499 31.6095C184.85 32.1926 185.077 32.8277 185.181 33.5149C185.284 34.2021 185.336 34.8476 185.336 35.4515V46.2589Z" fill="white"/>
<path fill-rule="evenodd" clip-rule="evenodd" d="M30.6539 24.0471C24.8678 24.0471 20.327 28.6356 20.327 34.1118C20.327 39.5881 24.8678 44.1765 30.6539 44.1765C33.4974 44.1765 36.0538 43.0616 37.9139 41.2691L42.6709 46.2869C39.5637 49.2811 35.3159 51.1177 30.6539 51.1177C21.2309 51.1177 13.4424 43.5862 13.4424 34.1118C13.4424 24.6374 21.2309 17.106 30.6539 17.106C35.3159 17.106 39.5637 18.9425 42.6709 21.9368L37.9139 26.9546C36.0538 25.1621 33.4974 24.0471 30.6539 24.0471Z" fill="white"/>
<path d="M33.7521 37.9294L32.1498 41.1603C35.8249 40.4133 41.8634 34.0677 44.4232 30.9882H33.7521V37.9294Z" fill="#FEE802"/>
<path fill-rule="evenodd" clip-rule="evenodd" d="M25.9769 19.1882L32.3751 6L29.8317 19.1882H25.9769ZM30.1703 51.1063C28.9572 51.0972 27.7957 50.9018 27.3666 50.8053L20.3271 65L30.1703 51.1063Z" fill="#FEE802"/>
<path d="M30.2323 17.1109C29.0486 17.1392 27.8924 17.2863 26.7761 17.5409L16.8848 37.9294L21.0992 37.9294C20.6007 36.7469 20.3271 35.4561 20.3271 34.1118C20.3271 29.214 23.9592 25.0264 28.8658 24.1963L30.2323 17.1109Z" fill="#FEE802"/>
<path d="M29.7337 37.9294L33.7521 37.9294L32.1489 41.162C35.2506 40.3418 37.5386 37.4962 37.5386 34.1118C37.5386 32.994 37.289 31.9349 36.843 30.9882H29.9684C29.5216 32.1747 29.2771 33.4615 29.2771 34.8059C29.2771 35.8922 29.4368 36.9409 29.7337 37.9294Z" fill="#FEE802"/>
<path d="M28.3022 37.9294C28.0399 36.9327 27.9001 35.8858 27.9001 34.8059C27.9001 33.4722 28.1133 32.1887 28.5072 30.9882L27.5559 30.9882L28.3043 27.1076C25.2876 27.9841 23.0809 30.7881 23.0809 34.1118C23.0809 35.5115 23.4723 36.8191 24.1508 37.9294H28.3022Z" fill="#FEE802"/>
</g>
<path d="M117 45.8018V23.6247H132.088V28.9347H123.041V32.6205H130.415V37.5556H123.041V45.8018H117Z" fill="black"/>
<path d="M133.93 23H139.817V39.2736C139.817 40.523 140.323 41.1477 141.335 41.1477C141.583 41.1477 141.851 41.1061 142.14 41.0228C142.429 40.9395 142.698 40.8249 142.946 40.6792L143.689 45.0521C142.987 45.3853 142.192 45.6456 141.304 45.833C140.436 46.0204 139.61 46.1141 138.825 46.1141C137.256 46.1141 136.047 45.7081 135.2 44.8959C134.354 44.0838 133.93 42.9073 133.93 41.3664V23Z" fill="black"/>
<path d="M149.869 46.1141C149.063 46.1141 148.31 45.9788 147.607 45.7081C146.905 45.4374 146.296 45.0729 145.779 44.6148C145.284 44.1359 144.891 43.5736 144.602 42.9281C144.313 42.2826 144.168 41.585 144.168 40.8354C144.168 40.0024 144.344 39.2424 144.695 38.5552C145.046 37.868 145.532 37.2745 146.151 36.7748C146.771 36.275 147.504 35.8898 148.351 35.6191C149.218 35.3484 150.168 35.213 151.201 35.213C152.523 35.213 153.618 35.4212 154.485 35.8377V35.3379C154.485 34.5675 154.258 33.9948 153.803 33.62C153.37 33.2452 152.657 33.0578 151.666 33.0578C150.736 33.0578 149.879 33.2139 149.094 33.5263C148.31 33.8178 147.483 34.2551 146.616 34.8382L144.912 31.1524C147.06 29.7572 149.507 29.0596 152.254 29.0596C154.857 29.0596 156.86 29.6427 158.265 30.8088C159.669 31.9749 160.371 33.7241 160.371 36.0564V39.2424C160.371 39.8046 160.454 40.2002 160.619 40.4293C160.784 40.6375 161.074 40.7625 161.487 40.8041V45.8018C161.012 45.9059 160.557 45.9788 160.124 46.0204C159.71 46.0829 159.339 46.1141 159.008 46.1141C157.955 46.1141 157.149 45.9267 156.592 45.5519C156.055 45.1562 155.704 44.5836 155.538 43.8339L155.414 43.2405C154.692 44.1775 153.855 44.8959 152.905 45.3957C151.955 45.8746 150.943 46.1141 149.869 46.1141ZM151.635 41.8661C151.986 41.8661 152.347 41.8141 152.719 41.7099C153.091 41.585 153.421 41.4288 153.711 41.2414C153.938 41.0748 154.124 40.8978 154.268 40.7104C154.413 40.5022 154.485 40.2939 154.485 40.0857V38.8675C154.134 38.7426 153.752 38.6385 153.339 38.5552C152.926 38.4719 152.554 38.4302 152.223 38.4302C151.501 38.4302 150.902 38.6072 150.427 38.9612C149.952 39.3152 149.714 39.7629 149.714 40.3044C149.714 40.7625 149.89 41.1373 150.241 41.4288C150.612 41.7204 151.077 41.8661 151.635 41.8661Z" fill="black"/>
<path d="M170.336 46.1141C168.911 46.1141 167.517 45.8851 166.153 45.4269C164.79 44.948 163.634 44.2608 162.684 43.3654L164.697 39.8046C165.709 40.4918 166.68 41.0228 167.61 41.3976C168.56 41.7724 169.427 41.9598 170.212 41.9598C171.038 41.9598 171.451 41.6995 171.451 41.1789C171.451 40.8874 171.286 40.6375 170.955 40.4293C170.646 40.2211 170.026 39.9816 169.097 39.7109C167.94 39.3777 166.969 39.0549 166.184 38.7426C165.42 38.4094 164.79 38.0554 164.295 37.6806C163.82 37.3058 163.479 36.8893 163.272 36.4312C163.066 35.9731 162.962 35.4316 162.962 34.8069C162.962 33.974 163.128 33.2035 163.458 32.4955C163.789 31.7875 164.243 31.1732 164.821 30.6526C165.42 30.1321 166.122 29.7364 166.928 29.4657C167.754 29.1742 168.653 29.0284 169.623 29.0284C170.821 29.0284 171.957 29.1846 173.031 29.4969C174.126 29.8093 175.22 30.4444 176.315 31.4023L174.084 34.9631C173.072 34.2968 172.226 33.8282 171.544 33.5575C170.862 33.266 170.222 33.1202 169.623 33.1202C169.272 33.1202 168.983 33.1931 168.756 33.3389C168.529 33.4638 168.415 33.6721 168.415 33.9636C168.415 34.2759 168.58 34.5362 168.911 34.7445C169.241 34.9319 169.892 35.1505 170.862 35.4004C172.04 35.7128 173.031 36.0459 173.837 36.3999C174.642 36.7331 175.282 37.1079 175.757 37.5244C176.253 37.9201 176.604 38.3782 176.811 38.8988C177.017 39.3985 177.121 39.9816 177.121 40.6479C177.121 41.5017 176.966 42.2618 176.656 42.9281C176.346 43.5945 175.892 44.1671 175.293 44.6461C174.714 45.125 174.002 45.4894 173.155 45.7393C172.329 45.9892 171.389 46.1141 170.336 46.1141Z" fill="black"/>
<path d="M195.522 45.8018H189.636V36.5561C189.636 35.744 189.45 35.1609 189.078 34.8069C188.727 34.4321 188.283 34.2447 187.746 34.2447C187.56 34.2447 187.333 34.3072 187.065 34.4321C186.817 34.5362 186.559 34.6924 186.29 34.9006C186.042 35.0881 185.805 35.3275 185.578 35.6191C185.35 35.9106 185.165 36.2334 185.02 36.5874V45.8018H179.134V23H185.02V31.8084C185.598 30.9129 186.352 30.2362 187.282 29.7781C188.211 29.2991 189.254 29.0596 190.411 29.0596C191.547 29.0596 192.455 29.2575 193.137 29.6531C193.819 30.0488 194.335 30.5485 194.686 31.1524C195.037 31.7355 195.264 32.3706 195.368 33.0578C195.471 33.7449 195.522 34.3905 195.522 34.9944V45.8018Z" fill="black"/>
<defs>
<clipPath id="clip0">
<rect x="3" y="2" width="102" height="67" fill="white"/>
</clipPath>
</defs>
</svg>
