<svg width="1920" height="253" viewBox="0 0 1920 253" fill="none" xmlns="http://www.w3.org/2000/svg">
<g clip-path="url(#clip0)">
<rect width="1920" height="253" fill="url(#paint0_linear)"/>
<g opacity="0.3">
<path d="M-295.2 432.463L-468.356 361.885C-468.269 362.237 -468.18 362.589 -468.091 362.942C-426.843 524.919 -87.8786 789.989 76.8 902.5L76.8 432.463L-295.2 432.463Z" fill="url(#paint1_linear)"/>
<path fill-rule="evenodd" clip-rule="evenodd" d="M709.2 89.9878L1416 371.813L709.2 259.778L709.2 89.9878ZM-1001.39 274.694C-1000.9 221.259 -990.434 170.099 -985.26 151.198L-1746 -158.875L-1001.39 274.694Z" fill="url(#paint2_linear)"/>
<path d="M820.53 277.425C819.013 225.285 811.13 174.358 797.484 125.19L-295.2 -310.5L-295.2 -124.865C-231.823 -146.823 -162.645 -158.875 -90.6003 -158.875C171.886 -158.875 396.312 1.11037 440.8 217.235L820.53 277.425Z" fill="url(#paint3_linear)"/>
<path d="M-295.199 255.465L-295.2 432.463L-468.445 361.849C-468.328 362.213 -468.21 362.578 -468.091 362.942C-423.672 499.004 -271.497 599.25 -90.5995 599.25C-30.6928 599.25 26.0639 588.256 76.8004 568.608L76.8004 265.801C13.2146 246.123 -55.7494 235.35 -127.8 235.35C-186.018 235.35 -242.221 242.383 -295.199 255.465Z" fill="url(#paint4_linear)"/>
<path d="M-295.199 192.41C-241.785 180.856 -185.674 174.7 -127.8 174.7C-56.3245 174.7 12.4607 184.09 76.8004 201.439L76.8 159.537L284.774 192.503C237.802 59.6216 87.5255 -37.575 -90.5995 -37.575C-165.618 -37.5751 -235.697 -20.3351 -295.199 9.54991L-295.199 192.41Z" fill="url(#paint5_linear)"/>
<path d="M-890.4 339.321L-546.064 539.82L76.8 902.5C-87.8786 789.989 -426.843 524.919 -468.091 362.942C-468.21 362.578 -468.328 362.213 -468.445 361.849L-630 296L-890.4 189.862L-890.4 339.321Z" fill="url(#paint6_linear)"/>
<path d="M-295.2 -124.865L-295.2 432.463L-295.199 255.465C-242.221 242.383 -186.018 235.35 -127.8 235.35C-55.7494 235.35 13.2146 246.123 76.8004 265.801L76.8004 201.439C12.4607 184.09 -56.3245 174.7 -127.8 174.7C-185.674 174.7 -241.785 180.856 -295.199 192.41L-295.199 9.54991C-235.697 -20.3351 -165.618 -37.5751 -90.5995 -37.575C87.5255 -37.575 237.802 59.6216 284.774 192.503L440.8 217.235C396.312 1.11037 171.886 -158.875 -90.6003 -158.875C-162.645 -158.875 -231.823 -146.823 -295.2 -124.865Z" fill="url(#paint7_linear)"/>
<path d="M-890.4 339.321L-890.4 189.862L-985.26 151.198C-990.434 170.099 -1000.9 221.259 -1001.39 274.694L-890.4 339.321Z" fill="url(#paint8_linear)"/>
</g>
<g opacity="0.3">
<path d="M1957.06 612.033L1816.27 735.095C1816.63 735.175 1816.98 735.254 1817.34 735.332C1980.6 771.168 2369.6 587.223 2544.05 490.557L2124.01 279.602L1957.06 612.033Z" fill="url(#paint9_linear)"/>
<path fill-rule="evenodd" clip-rule="evenodd" d="M2101.79 -439.233L2670.85 -944.368L2253.52 -363.031L2101.79 -439.233ZM1499.13 1172.3C1451.6 1147.88 1410.58 1115.57 1396.01 1102.46L777.497 1643.12L1499.13 1172.3Z" fill="url(#paint10_linear)"/>
<path d="M2319.25 -454.599C2271.98 -476.644 2222.93 -492.456 2172.87 -502.328L1293.12 278.589L1459.01 361.903C1467.83 295.413 1488.11 228.184 1520.45 163.802C1638.25 -70.7635 1881.94 -199.515 2095.04 -142.274L2319.25 -454.599Z" fill="url(#paint11_linear)"/>
<path d="M1798.89 532.595L1957.06 612.033L1816.2 735.158C1816.58 735.217 1816.96 735.275 1817.34 735.332C1958.86 756.704 2116.74 665.706 2197.93 504.05C2224.82 450.516 2240.46 394.862 2245.68 340.705L1975.08 204.804C1928.96 252.794 1888.38 309.588 1856.04 373.974C1829.91 426 1810.97 479.381 1798.89 532.595Z" fill="url(#paint12_linear)"/>
<path d="M1742.54 504.296C1756.19 451.378 1775.87 398.473 1801.84 346.755C1833.92 282.882 1873.18 225.628 1917.56 175.918L1880.12 157.113L2002.92 -13.9441C1863.09 -31.6064 1708.79 59.0634 1628.84 218.241C1595.17 285.28 1579.13 355.642 1579.13 422.228L1742.54 504.296Z" fill="url(#paint13_linear)"/>
<path d="M1606.7 1102.12L1940.41 884.396L2544.05 490.557C2369.6 587.223 1980.6 771.168 1817.34 735.332C1816.96 735.275 1816.58 735.217 1816.2 735.158L1684.85 849.976L1473.14 1035.04L1606.7 1102.12Z" fill="url(#paint14_linear)"/>
<path d="M1459.01 361.903L1957.06 612.033L1798.89 532.595C1810.97 479.381 1829.91 426 1856.04 373.974C1888.38 309.588 1928.96 252.794 1975.08 204.804L1917.56 175.918C1873.18 225.628 1833.92 282.882 1801.84 346.755C1775.87 398.473 1756.19 451.378 1742.54 504.296L1579.13 422.228C1579.13 355.642 1595.17 285.28 1628.84 218.241C1708.79 59.0634 1863.09 -31.6064 2002.92 -13.9441L2095.04 -142.274C1881.94 -199.515 1638.25 -70.7635 1520.45 163.802C1488.11 228.184 1467.83 295.413 1459.01 361.903Z" fill="url(#paint15_linear)"/>
<path d="M1606.7 1102.12L1473.14 1035.04L1396.01 1102.46C1410.58 1115.57 1451.6 1147.88 1499.13 1172.3L1606.7 1102.12Z" fill="url(#paint16_linear)"/>
</g>
<path d="M-120.7 357.963L-293.856 287.385C-293.769 287.737 -293.68 288.089 -293.591 288.442C-252.343 450.419 86.6214 715.489 251.3 828L251.3 357.963L-120.7 357.963Z" fill="url(#paint17_linear)"/>
<path fill-rule="evenodd" clip-rule="evenodd" d="M883.7 15.4878L1590.5 297.313L883.7 185.278L883.7 15.4878ZM-826.891 200.194C-826.404 146.759 -815.934 95.5987 -810.76 76.6981L-1571.5 -233.375L-826.891 200.194Z" fill="url(#paint18_linear)"/>
<path d="M995.03 202.925C993.513 150.785 985.63 99.8577 971.984 50.6895L-120.7 -385L-120.7 -199.365C-57.3234 -221.323 11.8546 -233.375 83.8997 -233.375C346.386 -233.375 570.812 -73.3896 615.3 142.735L995.03 202.925Z" fill="url(#paint19_linear)"/>
<path d="M-120.699 180.965L-120.7 357.963L-293.945 287.349C-293.828 287.713 -293.71 288.078 -293.591 288.442C-249.172 424.504 -96.9966 524.75 83.9005 524.75C143.807 524.75 200.564 513.756 251.3 494.108L251.3 191.301C187.715 171.623 118.751 160.85 46.6999 160.85C-11.5181 160.85 -67.7208 167.883 -120.699 180.965Z" fill="url(#paint20_linear)"/>
<path d="M-120.699 117.91C-67.2847 106.356 -11.1743 100.2 46.6999 100.2C118.176 100.2 186.961 109.59 251.3 126.939L251.3 85.0375L459.274 118.003C412.302 -14.8784 262.026 -112.075 83.9005 -112.075C8.88207 -112.075 -61.1968 -94.8351 -120.699 -64.9501L-120.699 117.91Z" fill="url(#paint21_linear)"/>
<path d="M-715.9 264.821L-371.564 465.32L251.3 828C86.6214 715.489 -252.343 450.419 -293.591 288.442C-293.71 288.078 -293.828 287.713 -293.945 287.349L-455.5 221.5L-715.9 115.362L-715.9 264.821Z" fill="url(#paint22_linear)"/>
<path d="M-120.7 -199.365L-120.7 357.963L-120.699 180.965C-67.7208 167.883 -11.5181 160.85 46.6999 160.85C118.751 160.85 187.715 171.623 251.3 191.301L251.3 126.939C186.961 109.59 118.176 100.2 46.6999 100.2C-11.1743 100.2 -67.2847 106.356 -120.699 117.91L-120.699 -64.9501C-61.1968 -94.8351 8.88207 -112.075 83.9005 -112.075C262.026 -112.075 412.302 -14.8784 459.274 118.003L615.3 142.735C570.812 -73.3896 346.386 -233.375 83.8997 -233.375C11.8546 -233.375 -57.3234 -221.323 -120.7 -199.365Z" fill="url(#paint23_linear)"/>
<path d="M-715.9 264.821L-715.9 115.362L-810.76 76.6981C-815.934 95.5987 -826.404 146.759 -826.891 200.194L-715.9 264.821Z" fill="url(#paint24_linear)"/>
<path d="M1968.8 422.658L1828.02 545.72C1828.37 545.8 1828.72 545.879 1829.08 545.957C1992.34 581.793 2381.34 397.848 2555.79 301.182L2135.75 90.2273L1968.8 422.658Z" fill="url(#paint25_linear)"/>
<path fill-rule="evenodd" clip-rule="evenodd" d="M2113.53 -628.608L2682.59 -1133.74L2265.26 -552.406L2113.53 -628.608ZM1510.87 982.925C1463.34 958.508 1422.32 926.191 1407.75 913.085L789.238 1453.74L1510.87 982.925Z" fill="url(#paint26_linear)"/>
<path d="M2331 -643.974C2283.72 -666.019 2234.67 -681.831 2184.61 -691.703L1304.86 89.2141L1470.75 172.528C1479.58 106.038 1499.85 38.8089 1532.19 -25.5727C1649.99 -260.138 1893.68 -388.89 2106.78 -331.649L2331 -643.974Z" fill="url(#paint27_linear)"/>
<path d="M1810.63 343.22L1968.8 422.658L1827.94 545.783C1828.32 545.842 1828.7 545.9 1829.08 545.957C1970.6 567.329 2128.48 476.331 2209.67 314.675C2236.56 261.141 2252.2 205.487 2257.42 151.33L1986.82 15.4286C1940.7 63.4194 1900.12 120.213 1867.78 184.599C1841.65 236.625 1822.72 290.006 1810.63 343.22Z" fill="url(#paint28_linear)"/>
<path d="M1754.28 314.921C1767.93 262.003 1787.61 209.098 1813.58 157.38C1845.66 93.5068 1884.92 36.2526 1929.3 -13.4569L1891.86 -32.2623L2014.66 -203.319C1874.83 -220.981 1720.53 -130.312 1640.58 28.8663C1606.92 95.9051 1590.87 166.267 1590.87 232.853L1754.28 314.921Z" fill="url(#paint29_linear)"/>
<path d="M1618.44 912.745L1952.15 695.021L2555.79 301.182C2381.34 397.848 1992.34 581.793 1829.08 545.957C1828.7 545.9 1828.32 545.842 1827.94 545.783L1696.59 660.601L1484.88 845.667L1618.44 912.745Z" fill="url(#paint30_linear)"/>
<path d="M1470.75 172.528L1968.8 422.658L1810.63 343.22C1822.72 290.006 1841.65 236.625 1867.78 184.599C1900.12 120.213 1940.7 63.4194 1986.82 15.4286L1929.3 -13.4569C1884.92 36.2526 1845.66 93.5068 1813.58 157.38C1787.61 209.098 1767.93 262.003 1754.28 314.921L1590.87 232.853C1590.87 166.267 1606.92 95.9051 1640.58 28.8663C1720.53 -130.312 1874.83 -220.981 2014.66 -203.319L2106.78 -331.649C1893.68 -388.89 1649.99 -260.138 1532.19 -25.5727C1499.85 38.8089 1479.58 106.038 1470.75 172.528Z" fill="url(#paint31_linear)"/>
<path d="M1618.44 912.745L1484.88 845.667L1407.75 913.085C1422.32 926.191 1463.34 958.508 1510.87 982.925L1618.44 912.745Z" fill="url(#paint32_linear)"/>
</g>
<defs>
<linearGradient id="paint0_linear" x1="217.946" y1="-4.60699" x2="366.247" y2="561.727" gradientUnits="userSpaceOnUse">
<stop stop-color="#F9F9F9"/>
<stop offset="1" stop-color="#F4F4F4"/>
</linearGradient>
<linearGradient id="paint1_linear" x1="449.286" y1="-151.294" x2="-686.761" y2="654.34" gradientUnits="userSpaceOnUse">
<stop stop-color="#ECECEC"/>
<stop offset="1" stop-color="#DFDFDF"/>
</linearGradient>
<linearGradient id="paint2_linear" x1="449.286" y1="-151.294" x2="-686.761" y2="654.34" gradientUnits="userSpaceOnUse">
<stop stop-color="#ECECEC"/>
<stop offset="1" stop-color="#DFDFDF"/>
</linearGradient>
<linearGradient id="paint3_linear" x1="449.286" y1="-151.294" x2="-686.761" y2="654.34" gradientUnits="userSpaceOnUse">
<stop stop-color="#ECECEC"/>
<stop offset="1" stop-color="#DFDFDF"/>
</linearGradient>
<linearGradient id="paint4_linear" x1="449.286" y1="-151.294" x2="-686.761" y2="654.34" gradientUnits="userSpaceOnUse">
<stop stop-color="#ECECEC"/>
<stop offset="1" stop-color="#DFDFDF"/>
</linearGradient>
<linearGradient id="paint5_linear" x1="449.286" y1="-151.294" x2="-686.761" y2="654.34" gradientUnits="userSpaceOnUse">
<stop stop-color="#ECECEC"/>
<stop offset="1" stop-color="#DFDFDF"/>
</linearGradient>
<linearGradient id="paint6_linear" x1="449.286" y1="-151.294" x2="-686.761" y2="654.34" gradientUnits="userSpaceOnUse">
<stop stop-color="#ECECEC"/>
<stop offset="1" stop-color="#DFDFDF"/>
</linearGradient>
<linearGradient id="paint7_linear" x1="449.286" y1="-151.294" x2="-686.761" y2="654.34" gradientUnits="userSpaceOnUse">
<stop stop-color="#ECECEC"/>
<stop offset="1" stop-color="#DFDFDF"/>
</linearGradient>
<linearGradient id="paint8_linear" x1="449.286" y1="-151.294" x2="-686.761" y2="654.34" gradientUnits="userSpaceOnUse">
<stop stop-color="#ECECEC"/>
<stop offset="1" stop-color="#DFDFDF"/>
</linearGradient>
<linearGradient id="paint9_linear" x1="1769.52" y1="-315.255" x2="1979.6" y2="1061.52" gradientUnits="userSpaceOnUse">
<stop stop-color="#ECECEC"/>
<stop offset="1" stop-color="#DFDFDF"/>
</linearGradient>
<linearGradient id="paint10_linear" x1="1769.52" y1="-315.255" x2="1979.6" y2="1061.52" gradientUnits="userSpaceOnUse">
<stop stop-color="#ECECEC"/>
<stop offset="1" stop-color="#DFDFDF"/>
</linearGradient>
<linearGradient id="paint11_linear" x1="1769.52" y1="-315.255" x2="1979.6" y2="1061.52" gradientUnits="userSpaceOnUse">
<stop stop-color="#ECECEC"/>
<stop offset="1" stop-color="#DFDFDF"/>
</linearGradient>
<linearGradient id="paint12_linear" x1="1769.52" y1="-315.255" x2="1979.6" y2="1061.52" gradientUnits="userSpaceOnUse">
<stop stop-color="#ECECEC"/>
<stop offset="1" stop-color="#DFDFDF"/>
</linearGradient>
<linearGradient id="paint13_linear" x1="1769.52" y1="-315.255" x2="1979.6" y2="1061.52" gradientUnits="userSpaceOnUse">
<stop stop-color="#ECECEC"/>
<stop offset="1" stop-color="#DFDFDF"/>
</linearGradient>
<linearGradient id="paint14_linear" x1="1769.52" y1="-315.255" x2="1979.6" y2="1061.52" gradientUnits="userSpaceOnUse">
<stop stop-color="#ECECEC"/>
<stop offset="1" stop-color="#DFDFDF"/>
</linearGradient>
<linearGradient id="paint15_linear" x1="1769.52" y1="-315.255" x2="1979.6" y2="1061.52" gradientUnits="userSpaceOnUse">
<stop stop-color="#ECECEC"/>
<stop offset="1" stop-color="#DFDFDF"/>
</linearGradient>
<linearGradient id="paint16_linear" x1="1769.52" y1="-315.255" x2="1979.6" y2="1061.52" gradientUnits="userSpaceOnUse">
<stop stop-color="#ECECEC"/>
<stop offset="1" stop-color="#DFDFDF"/>
</linearGradient>
<linearGradient id="paint17_linear" x1="-379.5" y1="-461" x2="-501.434" y2="408.847" gradientUnits="userSpaceOnUse">
<stop stop-color="#E6E6E6"/>
<stop offset="1" stop-color="#FAFAFA"/>
</linearGradient>
<linearGradient id="paint18_linear" x1="-379.5" y1="-461" x2="-501.434" y2="408.847" gradientUnits="userSpaceOnUse">
<stop stop-color="#E6E6E6"/>
<stop offset="1" stop-color="#FAFAFA"/>
</linearGradient>
<linearGradient id="paint19_linear" x1="-379.5" y1="-461" x2="-501.434" y2="408.847" gradientUnits="userSpaceOnUse">
<stop stop-color="#E6E6E6"/>
<stop offset="1" stop-color="#FAFAFA"/>
</linearGradient>
<linearGradient id="paint20_linear" x1="-379.5" y1="-461" x2="-501.434" y2="408.847" gradientUnits="userSpaceOnUse">
<stop stop-color="#E6E6E6"/>
<stop offset="1" stop-color="#FAFAFA"/>
</linearGradient>
<linearGradient id="paint21_linear" x1="-379.5" y1="-461" x2="-501.434" y2="408.847" gradientUnits="userSpaceOnUse">
<stop stop-color="#E6E6E6"/>
<stop offset="1" stop-color="#FAFAFA"/>
</linearGradient>
<linearGradient id="paint22_linear" x1="-379.5" y1="-461" x2="-501.434" y2="408.847" gradientUnits="userSpaceOnUse">
<stop stop-color="#E6E6E6"/>
<stop offset="1" stop-color="#FAFAFA"/>
</linearGradient>
<linearGradient id="paint23_linear" x1="-379.5" y1="-461" x2="-501.434" y2="408.847" gradientUnits="userSpaceOnUse">
<stop stop-color="#E6E6E6"/>
<stop offset="1" stop-color="#FAFAFA"/>
</linearGradient>
<linearGradient id="paint24_linear" x1="-379.5" y1="-461" x2="-501.434" y2="408.847" gradientUnits="userSpaceOnUse">
<stop stop-color="#E6E6E6"/>
<stop offset="1" stop-color="#FAFAFA"/>
</linearGradient>
<linearGradient id="paint25_linear" x1="1781.26" y1="-504.63" x2="1991.34" y2="872.148" gradientUnits="userSpaceOnUse">
<stop stop-color="#E6E6E6"/>
<stop offset="1" stop-color="#FAFAFA"/>
</linearGradient>
<linearGradient id="paint26_linear" x1="1781.26" y1="-504.63" x2="1991.34" y2="872.148" gradientUnits="userSpaceOnUse">
<stop stop-color="#E6E6E6"/>
<stop offset="1" stop-color="#FAFAFA"/>
</linearGradient>
<linearGradient id="paint27_linear" x1="1781.26" y1="-504.63" x2="1991.34" y2="872.148" gradientUnits="userSpaceOnUse">
<stop stop-color="#E6E6E6"/>
<stop offset="1" stop-color="#FAFAFA"/>
</linearGradient>
<linearGradient id="paint28_linear" x1="1781.26" y1="-504.63" x2="1991.34" y2="872.148" gradientUnits="userSpaceOnUse">
<stop stop-color="#E6E6E6"/>
<stop offset="1" stop-color="#FAFAFA"/>
</linearGradient>
<linearGradient id="paint29_linear" x1="1781.26" y1="-504.63" x2="1991.34" y2="872.148" gradientUnits="userSpaceOnUse">
<stop stop-color="#E6E6E6"/>
<stop offset="1" stop-color="#FAFAFA"/>
</linearGradient>
<linearGradient id="paint30_linear" x1="1781.26" y1="-504.63" x2="1991.34" y2="872.148" gradientUnits="userSpaceOnUse">
<stop stop-color="#E6E6E6"/>
<stop offset="1" stop-color="#FAFAFA"/>
</linearGradient>
<linearGradient id="paint31_linear" x1="1781.26" y1="-504.63" x2="1991.34" y2="872.148" gradientUnits="userSpaceOnUse">
<stop stop-color="#E6E6E6"/>
<stop offset="1" stop-color="#FAFAFA"/>
</linearGradient>
<linearGradient id="paint32_linear" x1="1781.26" y1="-504.63" x2="1991.34" y2="872.148" gradientUnits="userSpaceOnUse">
<stop stop-color="#E6E6E6"/>
<stop offset="1" stop-color="#FAFAFA"/>
</linearGradient>
<clipPath id="clip0">
<rect width="1920" height="253" fill="white"/>
</clipPath>
</defs>
</svg>
