<svg width="113" height="113" viewBox="0 0 113 113" fill="none" xmlns="http://www.w3.org/2000/svg">
<path d="M42.375 0H0V42.375H42.375V0ZM35.3125 35.3125H7.0625V7.0625H35.3125V35.3125Z" fill="black"/>
<path d="M14.125 14.125H28.25V28.25H14.125V14.125Z" fill="black"/>
<path d="M0 113H42.375V70.625H0V113ZM7.0625 77.6875H35.3125V105.938H7.0625V77.6875Z" fill="black"/>
<path d="M14.125 84.75H28.25V98.875H14.125V84.75Z" fill="black"/>
<path d="M70.625 0V42.375H113V0H70.625ZM105.938 35.3125H77.6875V7.0625H105.938V35.3125Z" fill="black"/>
<path d="M84.75 14.125H98.875V28.25H84.75V14.125Z" fill="black"/>
<path d="M14.125 49.4375H0V63.5625H21.1875V56.5H14.125V49.4375Z" fill="black"/>
<path d="M49.4375 63.5625H63.5625V77.6875H49.4375V63.5625Z" fill="black"/>
<path d="M21.1875 49.4375H35.3125V56.5H21.1875V49.4375Z" fill="black"/>
<path d="M63.5625 84.75H49.4375V91.8125H56.5V98.875H63.5625V91.8125V84.75Z" fill="black"/>
<path d="M42.375 49.4375V56.5H35.3125V63.5625H49.4375V49.4375H42.375Z" fill="black"/>
<path d="M56.5 28.25H63.5625V42.375H56.5V28.25Z" fill="black"/>
<path d="M63.5625 56.5V63.5625H77.6875V49.4375H56.5V56.5H63.5625Z" fill="black"/>
<path d="M49.4375 42.375H56.5V49.4375H49.4375V42.375Z" fill="black"/>
<path d="M63.5625 98.875H77.6875V113H63.5625V98.875Z" fill="black"/>
<path d="M49.4375 98.875H56.5V113H49.4375V98.875Z" fill="black"/>
<path d="M63.5625 77.6875H70.625V84.75H63.5625V77.6875Z" fill="black"/>
<path d="M63.5625 21.1875V7.0625H56.5V0H49.4375V28.25H56.5V21.1875H63.5625Z" fill="black"/>
<path d="M84.75 98.875H91.8125V113H84.75V98.875Z" fill="black"/>
<path d="M84.75 84.75H98.875V91.8125H84.75V84.75Z" fill="black"/>
<path d="M77.6875 91.8125H84.75V98.875H77.6875V91.8125Z" fill="black"/>
<path d="M70.625 84.75H77.6875V91.8125H70.625V84.75Z" fill="black"/>
<path d="M98.875 70.625V77.6875H105.938V84.75H113V70.625H105.938H98.875Z" fill="black"/>
<path d="M105.938 91.8125H98.875V113H113V98.875H105.938V91.8125Z" fill="black"/>
<path d="M70.625 70.625V77.6875H91.8125V63.5625H77.6875V70.625H70.625Z" fill="black"/>
<path d="M84.75 49.4375V56.5H98.875V63.5625H113V49.4375H98.875H84.75Z" fill="black"/>
</svg>
