<svg width="806" height="337" viewBox="0 0 806 337" fill="none" xmlns="http://www.w3.org/2000/svg">
<path d="M272 -27.9999C196.8 15.6001 171 158.5 167.5 224.5C397.5 208.5 555.667 49.5001 606 -27.9999C526 -46.1666 347.2 -71.5999 272 -27.9999Z" fill="url(#paint0_linear)"/>
<path fill-rule="evenodd" clip-rule="evenodd" d="M806 -16H462.734C435.731 30.5764 378 112 223 157C100.665 192.516 23.0481 286.221 0 337H806V-16Z" fill="url(#paint1_linear)"/>
<path d="M792.396 417.184C813.284 394.813 812.298 421.805 856.807 348.201C872.613 322.063 882.38 306.13 886.672 292.332M792.396 417.184C797.135 402.586 802.133 383.06 806.216 360.289M792.396 417.184C770.756 402.256 734.861 355.82 747.922 282.147M775.442 90.7578C790.375 117.425 800.287 146.485 806.448 176.118M775.442 90.7578C777.193 100.356 778.239 119.863 775.795 147.497M775.442 90.7578C789.169 92.9607 821.86 112.485 850.988 171.767M806.448 176.118C802.408 167.884 790.623 150.632 775.795 147.497M806.448 176.118C809.739 191.949 811.959 207.943 813.302 223.824M775.795 147.497C774.211 165.402 771.163 186.719 765.892 210.963M813.302 223.824C815.215 213.977 825.43 189.781 850.988 171.767M813.302 223.824C814.237 234.876 814.747 245.873 814.898 256.722M850.988 171.767C853.784 177.458 856.547 183.515 859.258 189.959C865.133 203.925 870.194 215.601 874.396 225.619M813.835 297.607C820.553 285.659 842.072 254.534 874.396 225.619M813.835 297.607C813.049 309.77 811.88 321.559 810.434 332.82M813.835 297.607C814.691 284.357 815.091 270.662 814.898 256.722M874.396 225.619C888.037 258.137 892.631 273.177 886.672 292.332M806.216 360.289C818.504 361.293 851.798 349.108 886.672 292.332M806.216 360.289C807.778 351.576 809.206 342.389 810.434 332.82M810.434 332.82C801.07 329.208 775.456 314.016 747.922 282.147M747.922 282.147C749.255 274.627 751.098 266.823 753.519 258.739C758.595 241.789 762.661 225.826 765.892 210.963M814.898 256.722C808.117 246.9 788.822 223.998 765.892 210.963" stroke="#FF8600" stroke-width="2" stroke-linecap="round"/>
<path fill-rule="evenodd" clip-rule="evenodd" d="M661.643 159.966C646.275 183.916 647.189 209.436 663.882 234.681C672.502 247.716 669.866 254.263 667.09 261.16C664.49 267.619 661.766 274.385 668.051 287.074C673.208 297.486 672.826 304.704 672.51 310.692C672.028 319.793 671.697 326.049 691.202 336.35C717.072 350.011 752.806 398.415 767.439 420.91C734.888 356.323 668.157 213.712 661.643 159.966Z" fill="url(#paint2_linear)"/>
<path d="M661.643 159.966C668.157 213.712 734.888 356.323 767.439 420.91C765.949 415.364 764.809 415.671 788.075 379.689C811.34 343.707 783.295 266.016 772.644 241.131C761.993 216.245 736.968 219.005 717.571 198.451C702.053 182.008 673.82 165.943 661.643 159.966Z" fill="url(#paint3_linear)"/>
<path d="M766.662 420.728C761.97 410.927 756.605 399.59 750.839 387.228M661.662 160.728C662.454 173.528 670.468 198.487 682.068 228.728M750.839 387.228C757.447 374.894 770.262 341.628 768.662 307.228M750.839 387.228C748.43 382.061 745.949 376.715 743.419 371.228M724.352 329.228C729.622 313.061 739.962 271.528 739.162 234.728M724.352 329.228C730.817 343.708 737.267 357.887 743.419 371.228M724.352 329.228C719.778 318.982 715.197 308.585 710.708 298.228M691.764 253.228C694.965 243.728 699.446 218.328 691.764 192.728M691.764 253.228C697.661 267.736 704.083 282.939 710.708 298.228M691.764 253.228C688.333 244.785 685.08 236.579 682.068 228.728M743.419 371.228C736.333 362.728 717.362 342.428 698.162 329.228M710.708 298.228C704.026 294.561 688.662 284.728 680.662 274.728M682.068 228.728C675.6 222.561 661.762 206.728 658.162 192.728" stroke="#FF6E00" stroke-width="2" stroke-linecap="round"/>
<path d="M314.404 32.2691L306.82 8M302.27 39.8532L282.551 24.685M297.719 53.5046L278.001 58.0551" stroke="white" stroke-width="2" stroke-linecap="round"/>
<circle r="10.6177" transform="matrix(-1 0 0 1 320.47 53.5047)" fill="url(#paint4_linear)"/>
<path d="M299.234 94.4589C311.368 69.1785 336.548 17.4044 340.188 12.5505C349.289 25.6963 373.558 54.7181 397.827 65.6392C393.277 75.9437 382.054 99.2252 373.56 109.916C356.486 100.927 331.136 91.468 299.234 94.4589Z" fill="url(#paint5_linear)"/>
<path d="M375.077 149.064C385.695 139.963 390.246 136.93 400.863 123.278L388.729 114.177L369.01 135.413C367.999 135.919 364.763 143.907 365.976 147.548C367.19 151.188 372.549 149.57 375.077 149.064Z" fill="url(#paint6_linear)"/>
<path d="M442.978 103.56C437.416 114.683 428.112 135.11 423.258 133.896C418.404 132.683 412.134 127.323 409.606 124.795C408.09 126.312 402.629 127.829 392.921 121.762C388.762 119.162 382.109 114.603 373.205 109.916C381.699 99.2252 392.922 75.9437 397.472 65.6392C427.808 79.2906 429.325 85.3579 427.808 88.3916C434.887 91.9308 445.405 101.133 442.978 103.56Z" fill="url(#paint7_linear)"/>
<path d="M601.082 173.333C604.722 174.547 610.688 176.873 613.216 177.884C613.216 180.412 612.913 187.592 611.699 196.086C610.182 206.703 576.813 202.153 561.644 200.636C546.476 199.119 551.027 174.85 555.577 171.817C559.217 169.39 568.217 169.794 572.262 170.3L573.779 162.716C566.195 156.143 551.937 141.177 555.577 133.896C559.217 126.615 564.172 105.582 566.195 95.9756C581.363 101.537 612.913 114.784 617.767 123.278C622.621 131.773 610.688 142.997 604.116 147.547C602.093 156.143 598.655 173.333 601.082 173.333Z" fill="url(#paint8_linear)"/>
<path d="M397.818 147.548C399.031 151.188 403.895 158.165 405.411 161.199C409.962 167.266 390.233 188.502 385.683 173.333C382.043 161.199 377.088 152.098 375.065 149.064C378.604 146.031 386.29 139.357 388.717 136.93C391.75 133.896 384.166 121.762 388.717 123.279C393.267 124.795 396.301 142.997 397.818 147.548Z" fill="url(#paint9_linear)"/>
<path d="M382.651 120.245C377.089 124.795 365.966 135.109 365.966 139.963C365.966 146.031 378.1 144.514 381.134 141.48C384.167 138.447 388.719 135.413 382.651 120.245Z" fill="url(#paint10_linear)"/>
<path d="M672.373 262.826C699.069 302.87 719.9 372.542 726.979 402.373C719.698 403.587 709.788 405.912 705.743 406.924C685.114 353.532 654.677 304.791 642.037 287.095C642.037 334.116 640.216 429.676 632.936 435.743C603.813 450.305 535.859 420.575 505.523 403.89C521.298 369.913 528.275 270.41 529.792 224.905C507.545 237.545 458.501 261.006 440.299 253.725C422.098 246.444 396.312 197.097 385.694 173.333C394.188 173.333 402.379 163.221 405.413 158.165L458.501 211.254C484.287 201.647 538.893 180.614 551.027 173.333C553.868 171.629 557.507 170.456 561.645 169.746C555.578 173.333 553.758 184.558 570.746 193.052C587.734 201.546 606.138 186.19 613.217 177.451C615.494 178.535 617.54 179.696 619.284 180.917C634.452 191.535 639.003 212.771 672.373 262.826Z" fill="url(#paint11_linear)"/>
<path d="M611.699 132.38C612.912 139.66 607.148 141.48 604.115 141.48C603.804 143.654 603.443 146.274 603.074 149.064C614.169 147.548 629.9 130.862 626.867 100.526C623.833 70.1897 587.429 76.257 582.879 74.7401C579.239 73.5267 578.329 70.1897 578.329 68.6729C569.228 68.6729 551.026 76.257 554.059 86.8747C558.913 101.436 583.385 108.11 595.014 109.627C595.014 110.638 594.71 115.088 593.497 124.795C591.98 136.93 581.362 142.997 570.744 133.896C560.127 124.795 537.374 142.997 554.059 156.648C570.744 170.3 588.946 159.682 593.497 153.615C597.137 148.761 601.081 132.379 602.598 124.795C605.631 123.279 610.182 123.279 611.699 132.38Z" fill="url(#paint12_linear)"/>
<path fill-rule="evenodd" clip-rule="evenodd" d="M573.568 317.992C571.533 316.805 578.737 344.189 592.131 349.277C605.526 354.365 627.481 365.812 646.893 400.318C660.378 424.29 688.922 420.195 709.045 417.308C717.888 416.04 725.105 415.004 728.702 416.687C738.543 421.29 748.564 417.437 753.477 415.548C754.446 415.175 755.217 414.878 755.747 414.739C748.971 410.786 739.836 405.588 729.443 399.857C718.987 394.092 707.259 387.789 695.378 381.671C681.444 374.495 667.301 367.576 654.758 362.081C648.194 359.205 642.067 356.719 636.638 354.792C627.834 351.666 620.29 348.972 613.792 346.51C589.446 337.285 579.791 331.309 573.568 317.992Z" fill="url(#paint13_linear)"/>
<path fill-rule="evenodd" clip-rule="evenodd" d="M608.142 325.032C599.105 324.472 588.099 322.47 573.568 317.992C579.791 331.309 589.446 337.285 613.792 346.51C620.29 348.972 627.834 351.666 636.638 354.792C642.067 356.719 648.194 359.205 654.758 362.081C667.301 367.576 681.444 374.495 695.378 381.671C707.259 387.789 718.987 394.092 729.443 399.857C739.836 405.588 748.971 410.786 755.747 414.739C764.656 395.551 770.095 357.346 734.944 335.66C728.164 331.477 719.873 327.908 709.805 325.21C703.464 323.51 697.711 322.181 692.457 321.162C672.897 317.37 660.236 317.878 649.758 319.552C645.621 320.213 641.824 321.055 638.076 321.887C629.131 323.872 620.47 325.795 608.142 325.032Z" fill="url(#paint14_linear)"/>
<path d="M755.365 414.283C751.503 412.083 746.946 409.522 741.881 406.716M573.648 318.577C581.954 333.801 596.263 341.078 631.081 353.122M741.881 406.716C743.877 395.599 743.442 368.323 725.727 348.149M741.881 406.716C739.211 405.237 736.4 403.689 733.476 402.091M712.074 390.592C712.532 378.783 707.703 350.384 684.726 331.262M712.074 390.592C719.58 394.554 726.822 398.455 733.476 402.091M712.074 390.592C708.642 388.78 705.154 386.954 701.642 385.135M666.954 367.907C666.197 361.816 659.211 345.757 637.322 330.248M666.954 367.907C678.023 373.108 689.966 379.087 701.642 385.135M666.954 367.907C660.411 364.833 654.174 362.03 648.477 359.645M631.081 353.122C632.469 353.602 633.891 354.09 635.346 354.586C639.243 355.916 643.667 357.631 648.477 359.645M631.081 353.122C630.325 349.56 623.296 339.482 601.231 327.657M733.476 402.091C733.215 404.093 726.729 407.921 702.874 407.217M701.642 385.135C693.897 388.197 672.771 391.798 650.231 381.71M648.477 359.645C645.021 360.283 632.652 360.278 610.832 355.154" stroke="#FF630A" stroke-width="2"/>
<defs>
<linearGradient id="paint0_linear" x1="335.266" y1="-52.0737" x2="339.056" y2="225.152" gradientUnits="userSpaceOnUse">
<stop stop-color="#FFE600"/>
<stop offset="1" stop-color="#FFB13D"/>
</linearGradient>
<linearGradient id="paint1_linear" x1="6.26888" y1="-15.9999" x2="838.49" y2="96.3616" gradientUnits="userSpaceOnUse">
<stop stop-color="#FEE802"/>
<stop offset="1" stop-color="#FED602"/>
</linearGradient>
<linearGradient id="paint2_linear" x1="676.527" y1="155.966" x2="762.664" y2="422.193" gradientUnits="userSpaceOnUse">
<stop stop-color="#FFB800"/>
<stop offset="1" stop-color="#FF603D"/>
</linearGradient>
<linearGradient id="paint3_linear" x1="690.142" y1="152.308" x2="762.664" y2="422.193" gradientUnits="userSpaceOnUse">
<stop stop-color="#FFEC43"/>
<stop offset="1" stop-color="#FFAD31"/>
</linearGradient>
<linearGradient id="paint4_linear" x1="7.58125" y1="7.69458" x2="11.7651" y2="20.8712" gradientUnits="userSpaceOnUse">
<stop offset="0.0173309" stop-color="#FFB800"/>
<stop offset="1" stop-color="#FF6B00"/>
</linearGradient>
<linearGradient id="paint5_linear" x1="371.462" y1="12.5505" x2="371.462" y2="133.948" gradientUnits="userSpaceOnUse">
<stop stop-color="white"/>
<stop offset="1" stop-color="#FFE7C4"/>
</linearGradient>
<linearGradient id="paint6_linear" x1="393.279" y1="123.278" x2="380.881" y2="148.688" gradientUnits="userSpaceOnUse">
<stop offset="0.0173309" stop-color="#FF7D00"/>
<stop offset="1" stop-color="#FF0F00"/>
</linearGradient>
<linearGradient id="paint7_linear" x1="391.762" y1="56.5383" x2="371.106" y2="133.948" gradientUnits="userSpaceOnUse">
<stop offset="0.0173309" stop-color="#FFB800"/>
<stop offset="1" stop-color="#FF6B00"/>
</linearGradient>
<linearGradient id="paint8_linear" x1="585.052" y1="95.9756" x2="585.052" y2="202.911" gradientUnits="userSpaceOnUse">
<stop stop-color="#FFE5B3"/>
<stop offset="0.947917" stop-color="#F7DCBC"/>
</linearGradient>
<linearGradient id="paint9_linear" x1="386.027" y1="120.245" x2="386.027" y2="178.691" gradientUnits="userSpaceOnUse">
<stop stop-color="#FFE5B3"/>
<stop offset="0.947917" stop-color="#F7DCBC"/>
</linearGradient>
<linearGradient id="paint10_linear" x1="386.027" y1="120.245" x2="386.027" y2="178.691" gradientUnits="userSpaceOnUse">
<stop stop-color="#FFE5B3"/>
<stop offset="0.947917" stop-color="#F7DCBC"/>
</linearGradient>
<linearGradient id="paint11_linear" x1="608.667" y1="179.401" x2="556.336" y2="439.641" gradientUnits="userSpaceOnUse">
<stop stop-color="white"/>
<stop offset="1" stop-color="#DFDFDF"/>
</linearGradient>
<linearGradient id="paint12_linear" x1="567.713" y1="67.156" x2="587.691" y2="163.301" gradientUnits="userSpaceOnUse">
<stop stop-color="#524D45"/>
<stop offset="1" stop-color="#443F37"/>
</linearGradient>
<linearGradient id="paint13_linear" x1="635.16" y1="301.716" x2="673.485" y2="437.383" gradientUnits="userSpaceOnUse">
<stop stop-color="#FFE03F"/>
<stop offset="1" stop-color="#FF4D00"/>
</linearGradient>
<linearGradient id="paint14_linear" x1="654.301" y1="296.681" x2="690.082" y2="432.694" gradientUnits="userSpaceOnUse">
<stop stop-color="#FFCA43"/>
<stop offset="1" stop-color="#FF5631"/>
</linearGradient>
</defs>
</svg>
