<svg width="20" height="21" viewBox="0 0 20 21" fill="none" xmlns="http://www.w3.org/2000/svg">
<path d="M20 19.6273C20 19.7912 19.9121 19.9415 19.7363 20.078C19.5605 20.2146 19.2904 20.3273 18.9258 20.4161C18.5612 20.5049 18.1868 20.5868 17.8027 20.662C17.4186 20.7371 16.9271 20.7951 16.3281 20.8361C15.7292 20.8771 15.2083 20.9078 14.7656 20.9283C14.3229 20.9488 13.7533 20.9659 13.0566 20.9795C12.36 20.9932 11.8327 21 11.4746 21H8.52539L6.94336 20.9795L5.23438 20.9283L3.67188 20.8361L2.19727 20.662L1.07422 20.4161L0.263672 20.078L0 19.6273C0.0260417 18.4254 0.742188 17.3634 2.14844 16.4415C3.55469 15.5195 5.33854 14.9083 7.5 14.6078V13.9317C6.82292 13.6176 6.23698 13.1737 5.74219 12.6C5.2474 12.0263 4.85677 11.3537 4.57031 10.582C4.28385 9.81024 4.07552 8.9839 3.94531 8.10293C3.8151 7.22195 3.75 6.26927 3.75 5.24488C3.75 4.37073 3.91276 3.5922 4.23828 2.90927C4.5638 2.22634 5.01302 1.67659 5.58594 1.26C6.15885 0.843415 6.81641 0.529268 7.55859 0.317561C8.30078 0.105854 9.11458 0 10 0C10.8854 0 11.6992 0.105854 12.4414 0.317561C13.1836 0.529268 13.8411 0.843415 14.4141 1.26C14.987 1.67659 15.4362 2.22634 15.7617 2.90927C16.0872 3.5922 16.25 4.37073 16.25 5.24488C16.25 10.0254 15 12.9346 12.5 13.9727V14.6078C14.6615 14.9083 16.4453 15.5195 17.8516 16.4415C19.2578 17.3634 19.974 18.4254 20 19.6273Z" fill="black"/>
</svg>
