<svg width="18" height="20" viewBox="0 0 18 20" fill="none" xmlns="http://www.w3.org/2000/svg">
<path d="M14.1429 12.5C13.2345 12.5 12.3996 12.8054 11.7406 13.3162L7.62284 10.8141C7.74478 10.2778 7.74478 9.72213 7.62284 9.18586L11.7406 6.68375C12.3996 7.19457 13.2345 7.5 14.1429 7.5C16.2731 7.5 18 5.82105 18 3.75C18 1.67895 16.2731 0 14.1429 0C12.0126 0 10.2857 1.67895 10.2857 3.75C10.2857 4.02961 10.3175 4.30195 10.3772 4.5641L6.25942 7.06621C5.60037 6.55543 4.7655 6.25 3.85714 6.25C1.72692 6.25 0 7.92895 0 10C0 12.0711 1.72692 13.75 3.85714 13.75C4.7655 13.75 5.60037 13.4446 6.25942 12.9338L10.3772 15.4359C10.3163 15.7032 10.2856 15.9762 10.2857 16.25C10.2857 18.3211 12.0126 20 14.1429 20C16.2731 20 18 18.3211 18 16.25C18 14.1789 16.2731 12.5 14.1429 12.5Z" fill="#B3B3B3"/>
</svg>
