<svg width="54" height="54" viewBox="0 0 54 54" fill="none" xmlns="http://www.w3.org/2000/svg">
<g clip-path="url(#clip0)">
<path d="M22.6426 42.4858C20.0239 42.4858 17.8934 44.6163 17.8934 47.235C17.8934 49.8537 20.0239 51.9842 22.6426 51.9842C25.2613 51.9842 27.3918 49.8537 27.3918 47.235C27.3916 44.6163 25.2612 42.4858 22.6426 42.4858ZM22.6426 49.3323C21.486 49.3323 20.5451 48.3913 20.5451 47.2348C20.5451 46.0782 21.4861 45.1373 22.6426 45.1373C23.7991 45.1373 24.7401 46.0783 24.7401 47.2348C24.7401 48.3915 23.7991 49.3323 22.6426 49.3323Z" fill="#31363C"/>
<path d="M39.3009 42.4858C36.6822 42.4858 34.5517 44.6163 34.5517 47.235C34.5517 49.8537 36.6822 51.9842 39.3009 51.9842C41.9195 51.9842 44.05 49.8537 44.05 47.235C44.0499 44.6163 41.9194 42.4858 39.3009 42.4858ZM39.3009 49.3323C38.1443 49.3323 37.2034 48.3913 37.2034 47.2348C37.2034 46.0782 38.1444 45.1373 39.3009 45.1373C40.4574 45.1373 41.3983 46.0783 41.3983 47.2348C41.3983 48.3915 40.4573 49.3323 39.3009 49.3323Z" fill="#31363C"/>
<path d="M40.4701 17.4821H21.4699C20.7377 17.4821 20.1441 18.0756 20.1441 18.8079C20.1441 19.5402 20.7378 20.1338 21.4699 20.1338H40.4701C41.2023 20.1338 41.7959 19.5402 41.7959 18.8079C41.7959 18.0755 41.2023 17.4821 40.4701 17.4821Z" fill="#31363C"/>
<path d="M39.436 24.3671H22.5042C21.772 24.3671 21.1784 24.9606 21.1784 25.6929C21.1784 26.4252 21.772 27.0188 22.5042 27.0188H39.4359C40.1682 27.0188 40.7617 26.4252 40.7617 25.6929C40.7617 24.9608 40.1682 24.3671 39.436 24.3671Z" fill="#31363C"/>
<path d="M53.4033 11.5745C52.8976 10.9539 52.1484 10.5981 51.3478 10.5981H10.0489L9.21484 6.54924C9.04071 5.70465 8.46463 4.99547 7.67351 4.65196L1.85406 2.12598C1.18222 1.83415 0.401432 2.14243 0.110021 2.81406C-0.181706 3.4859 0.12658 4.26679 0.7981 4.5582L6.61766 7.08429L13.0329 38.2252C13.2856 39.4515 14.3779 40.3417 15.6301 40.3417H47.3937C48.126 40.3417 48.7196 39.7481 48.7196 39.0159C48.7196 38.2836 48.126 37.69 47.3937 37.69H15.6302L14.8498 33.902H47.6393C48.8914 33.902 49.9837 33.0118 50.2363 31.7854L53.9449 13.7845C54.1064 13.0007 53.909 12.195 53.4033 11.5745ZM47.6393 31.2505H14.3036L10.5952 13.2497L51.3477 13.2498L47.6393 31.2505Z" fill="#31363C"/>
</g>
<defs>
<clipPath id="clip0">
<rect width="54" height="54" fill="white"/>
</clipPath>
</defs>
</svg>
