<svg width="331" height="150" viewBox="0 0 331 150" fill="none" xmlns="http://www.w3.org/2000/svg">
<path d="M111.177 138V91.85H123.852V138H111.177ZM129.272 114.535C129.272 111.718 129.792 108.945 130.832 106.215C131.916 103.485 133.476 101.037 135.512 98.87C137.549 96.7033 140.019 94.9483 142.922 93.605C145.826 92.2617 149.141 91.59 152.867 91.59C157.331 91.59 161.187 92.5217 164.437 94.385C167.731 96.205 170.179 98.6317 171.782 101.665L162.097 108.555C161.664 107.428 161.079 106.497 160.342 105.76C159.649 105.023 158.869 104.438 158.002 104.005C157.136 103.572 156.226 103.268 155.272 103.095C154.362 102.922 153.474 102.835 152.607 102.835C150.787 102.835 149.206 103.203 147.862 103.94C146.562 104.633 145.479 105.565 144.612 106.735C143.789 107.862 143.161 109.162 142.727 110.635C142.337 112.065 142.142 113.495 142.142 114.925C142.142 116.528 142.381 118.067 142.857 119.54C143.334 121.013 144.027 122.313 144.937 123.44C145.847 124.567 146.952 125.477 148.252 126.17C149.596 126.82 151.091 127.145 152.737 127.145C153.604 127.145 154.492 127.058 155.402 126.885C156.312 126.668 157.179 126.343 158.002 125.91C158.869 125.433 159.627 124.848 160.277 124.155C160.971 123.418 161.512 122.53 161.902 121.49L172.237 127.665C171.544 129.355 170.482 130.872 169.052 132.215C167.666 133.558 166.062 134.685 164.242 135.595C162.466 136.505 160.537 137.198 158.457 137.675C156.421 138.152 154.427 138.39 152.477 138.39C149.054 138.39 145.912 137.718 143.052 136.375C140.236 134.988 137.787 133.168 135.707 130.915C133.671 128.662 132.089 126.105 130.962 123.245C129.836 120.385 129.272 117.482 129.272 114.535ZM196.85 138.39C193.34 138.39 190.155 137.718 187.295 136.375C184.435 135.032 181.987 133.277 179.95 131.11C177.914 128.9 176.332 126.387 175.205 123.57C174.079 120.753 173.515 117.85 173.515 114.86C173.515 111.827 174.1 108.902 175.27 106.085C176.44 103.268 178.065 100.798 180.145 98.675C182.269 96.5083 184.76 94.7967 187.62 93.54C190.524 92.24 193.687 91.59 197.11 91.59C200.62 91.59 203.805 92.2617 206.665 93.605C209.525 94.9483 211.974 96.725 214.01 98.935C216.047 101.145 217.607 103.658 218.69 106.475C219.817 109.292 220.38 112.173 220.38 115.12C220.38 118.153 219.795 121.078 218.625 123.895C217.455 126.668 215.83 129.138 213.75 131.305C211.67 133.428 209.179 135.14 206.275 136.44C203.415 137.74 200.274 138.39 196.85 138.39ZM186.385 114.99C186.385 116.55 186.602 118.067 187.035 119.54C187.469 120.97 188.119 122.248 188.985 123.375C189.852 124.502 190.935 125.412 192.235 126.105C193.579 126.798 195.16 127.145 196.98 127.145C198.8 127.145 200.382 126.798 201.725 126.105C203.069 125.368 204.152 124.437 204.975 123.31C205.842 122.14 206.47 120.818 206.86 119.345C207.294 117.872 207.51 116.377 207.51 114.86C207.51 113.3 207.294 111.805 206.86 110.375C206.427 108.902 205.755 107.623 204.845 106.54C203.979 105.413 202.874 104.525 201.53 103.875C200.23 103.182 198.692 102.835 196.915 102.835C195.095 102.835 193.514 103.182 192.17 103.875C190.87 104.568 189.787 105.5 188.92 106.67C188.054 107.797 187.404 109.097 186.97 110.57C186.58 112 186.385 113.473 186.385 114.99Z" fill="black"/>
<rect y="7" width="331" height="65" rx="15" fill="#54595F"/>
<path d="M101.58 57.5837C100.451 57.5837 99.3939 57.3927 98.4093 57.0106C97.4248 56.6286 96.5705 56.1143 95.8466 55.4678C95.1516 54.7918 94.6014 53.9984 94.196 53.0873C93.7906 52.1763 93.5879 51.1918 93.5879 50.1339C93.5879 48.9584 93.834 47.8857 94.3263 46.9159C94.8186 45.9461 95.4991 45.1086 96.3678 44.4033C97.2365 43.698 98.2645 43.1543 99.4518 42.7722C100.668 42.3902 102 42.1992 103.448 42.1992C105.301 42.1992 106.836 42.4931 108.052 43.0808V42.3755C108.052 41.2882 107.734 40.48 107.097 39.951C106.488 39.422 105.489 39.1575 104.099 39.1575C102.796 39.1575 101.595 39.378 100.494 39.8188C99.3939 40.2302 98.2356 40.8473 97.0193 41.6702L94.6304 36.4686C97.6419 34.4996 101.073 33.5151 104.925 33.5151C108.573 33.5151 111.382 34.338 113.351 35.9837C115.32 37.6294 116.305 40.098 116.305 43.3894V47.8857C116.305 48.6792 116.421 49.2375 116.652 49.5608C116.884 49.8547 117.29 50.031 117.869 50.0898V57.1429C117.203 57.2898 116.566 57.3927 115.957 57.4514C115.378 57.5396 114.857 57.5837 114.394 57.5837C112.917 57.5837 111.788 57.3192 111.006 56.7902C110.253 56.2318 109.761 55.4237 109.529 54.3657L109.355 53.5282C108.342 54.8506 107.169 55.8645 105.837 56.5698C104.505 57.2457 103.086 57.5837 101.58 57.5837ZM104.056 51.5886C104.548 51.5886 105.055 51.5151 105.576 51.3682C106.097 51.1918 106.561 50.9714 106.966 50.7069C107.285 50.4718 107.545 50.222 107.748 49.9576C107.951 49.6637 108.052 49.3698 108.052 49.0759V47.3567C107.56 47.1804 107.024 47.0335 106.445 46.9159C105.866 46.7984 105.345 46.7396 104.881 46.7396C103.868 46.7396 103.028 46.9894 102.362 47.489C101.696 47.9886 101.363 48.6204 101.363 49.3845C101.363 50.031 101.609 50.56 102.101 50.9714C102.623 51.3829 103.274 51.5886 104.056 51.5886Z" fill="white"/>
<path d="M130.275 57.5837C128.277 57.5837 126.323 57.2604 124.412 56.6139C122.5 55.938 120.879 54.9682 119.547 53.7045L122.37 48.6792C123.789 49.649 125.15 50.3984 126.453 50.9273C127.785 51.4563 129.001 51.7208 130.102 51.7208C131.26 51.7208 131.839 51.3535 131.839 50.6188C131.839 50.2073 131.607 49.8547 131.144 49.5608C130.71 49.2669 129.841 48.929 128.538 48.5469C126.916 48.0767 125.555 47.6212 124.455 47.1804C123.384 46.7102 122.5 46.2106 121.805 45.6816C121.139 45.1526 120.662 44.5649 120.372 43.9184C120.082 43.2718 119.938 42.5078 119.938 41.6261C119.938 40.4506 120.169 39.3633 120.633 38.3641C121.096 37.3649 121.733 36.498 122.544 35.7633C123.384 35.0286 124.368 34.4702 125.497 34.0882C126.656 33.6767 127.915 33.471 129.276 33.471C130.956 33.471 132.549 33.6914 134.054 34.1322C135.589 34.5731 137.124 35.4694 138.659 36.8212L135.531 41.8465C134.112 40.9061 132.925 40.2449 131.969 39.8629C131.014 39.4514 130.116 39.2457 129.276 39.2457C128.784 39.2457 128.379 39.3486 128.06 39.5543C127.742 39.7306 127.582 40.0245 127.582 40.4359C127.582 40.8767 127.814 41.2441 128.277 41.538C128.741 41.8024 129.653 42.111 131.014 42.4637C132.664 42.9045 134.054 43.3747 135.184 43.8743C136.313 44.3445 137.211 44.8735 137.877 45.4612C138.572 46.0196 139.064 46.6661 139.354 47.4008C139.643 48.1061 139.788 48.929 139.788 49.8694C139.788 51.0743 139.571 52.1469 139.136 53.0873C138.702 54.0278 138.065 54.8359 137.225 55.5118C136.414 56.1878 135.415 56.702 134.228 57.0547C133.07 57.4074 131.752 57.5837 130.275 57.5837Z" fill="white"/>
<path d="M165.588 57.1429H157.335V44.0947C157.335 42.9486 157.074 42.1257 156.553 41.6261C156.061 41.0971 155.438 40.8327 154.685 40.8327C154.425 40.8327 154.106 40.9208 153.73 41.0971C153.382 41.2441 153.02 41.4645 152.644 41.7584C152.296 42.0229 151.963 42.3608 151.645 42.7722C151.326 43.1837 151.066 43.6392 150.863 44.1388V57.1429H142.61V24.9633H150.863V37.3943C151.674 36.1306 152.731 35.1755 154.034 34.529C155.337 33.8531 156.799 33.5151 158.421 33.5151C160.014 33.5151 161.288 33.7943 162.243 34.3527C163.199 34.911 163.923 35.6163 164.415 36.4686C164.907 37.2914 165.226 38.1878 165.371 39.1575C165.516 40.1273 165.588 41.0384 165.588 41.8906V57.1429Z" fill="white"/>
<path d="M179.909 57.1429V25.8449H201.062V33.3388H188.379V38.5404H198.717V45.5053H188.379V57.1429H179.909Z" fill="white"/>
<path d="M203.646 24.9633H211.899V47.9298C211.899 49.6931 212.608 50.5747 214.027 50.5747C214.374 50.5747 214.751 50.5159 215.156 50.3984C215.562 50.2808 215.938 50.1192 216.286 49.9135L217.328 56.0849C216.344 56.5551 215.229 56.9224 213.984 57.1869C212.767 57.4514 211.609 57.5837 210.509 57.5837C208.308 57.5837 206.614 57.0106 205.427 55.8645C204.239 54.7184 203.646 53.058 203.646 50.8833V24.9633Z" fill="white"/>
<path d="M225.992 57.5837C224.863 57.5837 223.806 57.3927 222.821 57.0106C221.837 56.6286 220.983 56.1143 220.259 55.4678C219.564 54.7918 219.013 53.9984 218.608 53.0873C218.203 52.1763 218 51.1918 218 50.1339C218 48.9584 218.246 47.8857 218.738 46.9159C219.231 45.9461 219.911 45.1086 220.78 44.4033C221.649 43.698 222.677 43.1543 223.864 42.7722C225.08 42.3902 226.412 42.1992 227.86 42.1992C229.713 42.1992 231.248 42.4931 232.464 43.0808V42.3755C232.464 41.2882 232.146 40.48 231.509 39.951C230.901 39.422 229.901 39.1575 228.512 39.1575C227.208 39.1575 226.007 39.378 224.906 39.8188C223.806 40.2302 222.648 40.8473 221.431 41.6702L219.042 36.4686C222.054 34.4996 225.485 33.5151 229.337 33.5151C232.985 33.5151 235.794 34.338 237.763 35.9837C239.732 37.6294 240.717 40.098 240.717 43.3894V47.8857C240.717 48.6792 240.833 49.2375 241.065 49.5608C241.296 49.8547 241.702 50.031 242.281 50.0898V57.1429C241.615 57.2898 240.978 57.3927 240.37 57.4514C239.79 57.5396 239.269 57.5837 238.806 57.5837C237.329 57.5837 236.2 57.3192 235.418 56.7902C234.665 56.2318 234.173 55.4237 233.941 54.3657L233.767 53.5282C232.754 54.8506 231.581 55.8645 230.249 56.5698C228.917 57.2457 227.498 57.5837 225.992 57.5837ZM228.468 51.5886C228.96 51.5886 229.467 51.5151 229.988 51.3682C230.51 51.1918 230.973 50.9714 231.378 50.7069C231.697 50.4718 231.957 50.222 232.16 49.9576C232.363 49.6637 232.464 49.3698 232.464 49.0759V47.3567C231.972 47.1804 231.436 47.0335 230.857 46.9159C230.278 46.7984 229.757 46.7396 229.293 46.7396C228.28 46.7396 227.44 46.9894 226.774 47.489C226.108 47.9886 225.775 48.6204 225.775 49.3845C225.775 50.031 226.021 50.56 226.513 50.9714C227.035 51.3829 227.686 51.5886 228.468 51.5886Z" fill="white"/>
<path d="M254.688 57.5837C252.689 57.5837 250.735 57.2604 248.824 56.6139C246.912 55.938 245.291 54.9682 243.959 53.7045L246.782 48.6792C248.201 49.649 249.562 50.3984 250.865 50.9273C252.197 51.4563 253.413 51.7208 254.514 51.7208C255.672 51.7208 256.251 51.3535 256.251 50.6188C256.251 50.2073 256.02 49.8547 255.556 49.5608C255.122 49.2669 254.253 48.929 252.95 48.5469C251.328 48.0767 249.967 47.6212 248.867 47.1804C247.796 46.7102 246.912 46.2106 246.217 45.6816C245.551 45.1526 245.074 44.5649 244.784 43.9184C244.494 43.2718 244.35 42.5078 244.35 41.6261C244.35 40.4506 244.581 39.3633 245.045 38.3641C245.508 37.3649 246.145 36.498 246.956 35.7633C247.796 35.0286 248.78 34.4702 249.91 34.0882C251.068 33.6767 252.327 33.471 253.688 33.471C255.368 33.471 256.961 33.6914 258.466 34.1322C260.001 34.5731 261.536 35.4694 263.071 36.8212L259.943 41.8465C258.524 40.9061 257.337 40.2449 256.382 39.8629C255.426 39.4514 254.528 39.2457 253.688 39.2457C253.196 39.2457 252.791 39.3486 252.472 39.5543C252.154 39.7306 251.994 40.0245 251.994 40.4359C251.994 40.8767 252.226 41.2441 252.689 41.538C253.153 41.8024 254.065 42.111 255.426 42.4637C257.076 42.9045 258.466 43.3747 259.596 43.8743C260.725 44.3445 261.623 44.8735 262.289 45.4612C262.984 46.0196 263.476 46.6661 263.766 47.4008C264.055 48.1061 264.2 48.929 264.2 49.8694C264.2 51.0743 263.983 52.1469 263.548 53.0873C263.114 54.0278 262.477 54.8359 261.637 55.5118C260.826 56.1878 259.827 56.702 258.64 57.0547C257.482 57.4074 256.164 57.5837 254.688 57.5837Z" fill="white"/>
<path d="M290 57.1429H281.747V44.0947C281.747 42.9486 281.487 42.1257 280.965 41.6261C280.473 41.0971 279.85 40.8327 279.098 40.8327C278.837 40.8327 278.518 40.9208 278.142 41.0971C277.794 41.2441 277.433 41.4645 277.056 41.7584C276.709 42.0229 276.376 42.3608 276.057 42.7722C275.739 43.1837 275.478 43.6392 275.275 44.1388V57.1429H267.022V24.9633H275.275V37.3943C276.086 36.1306 277.143 35.1755 278.446 34.529C279.749 33.8531 281.211 33.5151 282.833 33.5151C284.426 33.5151 285.7 33.7943 286.655 34.3527C287.611 34.911 288.335 35.6163 288.827 36.4686C289.32 37.2914 289.638 38.1878 289.783 39.1575C289.928 40.1273 290 41.0384 290 41.8906V57.1429Z" fill="white"/>
<path fill-rule="evenodd" clip-rule="evenodd" d="M73.1311 25.7959C65.0189 25.7959 58.6525 32.2715 58.6525 40C58.6525 47.7285 65.0189 54.2041 73.1311 54.2041C77.1178 54.2041 80.702 52.6306 83.3099 50.1009L89.9793 57.1823C85.6229 61.4081 79.6674 64 73.1311 64C59.9198 64 49 53.371 49 40C49 26.629 59.9198 16 73.1311 16C79.6674 16 85.6229 18.5919 89.9793 22.8177L83.3099 29.8991C80.702 27.3694 77.1178 25.7959 73.1311 25.7959Z" fill="white"/>
<path d="M77.275 45.4588L75.064 50.0588C80.1352 48.9952 88.4677 39.9608 92 35.5765H77.275V45.4588Z" fill="#FEE802"/>
<path fill-rule="evenodd" clip-rule="evenodd" d="M66.5462 18.7765L75.375 0L71.8653 18.7765H66.5462ZM72.3325 64.2191C70.6586 64.2062 69.0559 63.928 68.4637 63.7906L58.75 84L72.3325 64.2191Z" fill="#FEE802"/>
<path d="M72.4181 15.8189C70.7847 15.8592 69.1893 16.0686 67.649 16.4312L54 45.4588L59.8154 45.4588C59.1276 43.7752 58.75 41.9375 58.75 40.0235C58.75 33.0505 63.7619 27.0885 70.5325 25.9066L72.4181 15.8189Z" fill="#FEE802"/>
<path d="M71.7302 45.4588L77.275 45.4588L75.0629 50.0612C79.3427 48.8934 82.5 44.842 82.5 40.0235C82.5 38.4321 82.1556 36.9243 81.5401 35.5765H72.0539C71.4375 37.2656 71.1 39.0977 71.1 41.0118C71.1 42.5584 71.3203 44.0514 71.7302 45.4588Z" fill="#FEE802"/>
<path d="M69.7548 45.4588C69.3929 44.0398 69.2 42.5492 69.2 41.0118C69.2 39.113 69.4942 37.2857 70.0377 35.5765L68.725 35.5765L69.7577 30.0515C65.5949 31.2994 62.55 35.2915 62.55 40.0235C62.55 42.0164 63.0901 43.8781 64.0263 45.4588H69.7548Z" fill="#FEE802"/>
<path d="M77.275 45.4588L75.064 50.0588C80.1352 48.9952 88.4677 39.9608 92 35.5765H77.275V45.4588Z" fill="#FEE802"/>
<path fill-rule="evenodd" clip-rule="evenodd" d="M66.5462 18.7765L75.375 0L71.8653 18.7765H66.5462ZM72.3325 64.2191C70.6586 64.2062 69.0559 63.928 68.4637 63.7906L58.75 84L72.3325 64.2191Z" fill="#FEE802"/>
<path d="M72.4181 15.8189C70.7847 15.8592 69.1893 16.0686 67.649 16.4312L54 45.4588L59.8154 45.4588C59.1276 43.7752 58.75 41.9375 58.75 40.0235C58.75 33.0505 63.7619 27.0885 70.5325 25.9066L72.4181 15.8189Z" fill="#FEE802"/>
<path d="M71.7302 45.4588L77.275 45.4588L75.0629 50.0612C79.3427 48.8934 82.5 44.842 82.5 40.0235C82.5 38.4321 82.1556 36.9243 81.5401 35.5765H72.0539C71.4375 37.2656 71.1 39.0977 71.1 41.0118C71.1 42.5584 71.3203 44.0514 71.7302 45.4588Z" fill="#FEE802"/>
<path d="M69.7548 45.4588C69.3929 44.0398 69.2 42.5492 69.2 41.0118C69.2 39.113 69.4942 37.2857 70.0377 35.5765L68.725 35.5765L69.7577 30.0515C65.5949 31.2994 62.55 35.2915 62.55 40.0235C62.55 42.0164 63.0901 43.8781 64.0263 45.4588H69.7548Z" fill="#FEE802"/>
</svg>
