<svg width="37" height="52" viewBox="0 0 37 52" fill="none" xmlns="http://www.w3.org/2000/svg">
<rect x="0.75" y="0.75" width="35.5" height="50.5" rx="2.25" stroke="#31363B" stroke-width="1.5"/>
<rect x="4.22852" y="5.2002" width="28.5429" height="37.44" rx="1" stroke="#31363B" stroke-width="1.5"/>
<rect x="14.7998" y="45.7598" width="7.4" height="3.12" rx="1" stroke="#31363B" stroke-width="1.5"/>
<path d="M20.6141 18.7201H17.7069M14.7998 28.6001H17.7069M17.7069 18.7201H17.1398C15.8475 18.7201 14.7998 19.7678 14.7998 21.0601V21.0601C14.7998 22.3525 15.8475 23.4001 17.1398 23.4001H18.0141C19.45 23.4001 20.6141 24.5642 20.6141 26.0001V26.0001C20.6141 27.4361 19.45 28.6001 18.0141 28.6001H17.7069M17.7069 18.7201V16.6401M17.7069 28.6001V31.2001" stroke="#31363B" stroke-width="1.5"/>
</svg>
