<svg width="54" height="54" viewBox="0 0 54 54" fill="none" xmlns="http://www.w3.org/2000/svg">
<path d="M50.625 5.90625H48.9375V5.0625C48.9375 3.66694 47.8018 2.53125 46.4062 2.53125H37.125C37.125 1.60059 36.3682 0.84375 35.4375 0.84375H18.5625C17.6318 0.84375 16.875 1.60059 16.875 2.53125H7.59375C6.19819 2.53125 5.0625 3.66694 5.0625 5.0625V5.90625H3.375C1.97944 5.90625 0.84375 7.04194 0.84375 8.4375V13.5V17.7188C0.84375 19.2873 1.92375 20.5968 3.375 20.9739V46.4062C1.97944 46.4062 0.84375 47.5419 0.84375 48.9375V52.3125C0.84375 52.7791 1.22175 53.1562 1.6875 53.1562H52.3125C52.7783 53.1562 53.1562 52.7791 53.1562 52.3125V48.9375C53.1562 47.5419 52.0206 46.4062 50.625 46.4062V20.9739C52.0762 20.5968 53.1562 19.2873 53.1562 17.7188V13.5V8.4375C53.1562 7.04194 52.0206 5.90625 50.625 5.90625ZM46.4062 4.21875C46.8712 4.21875 47.25 4.59675 47.25 5.0625V5.90625H37.125V4.21875H46.4062ZM18.5625 2.53125H35.4375L35.4383 9.28125H18.5625V2.53125ZM6.75 5.0625C6.75 4.59675 7.12884 4.21875 7.59375 4.21875H16.875V5.90625H6.75V5.0625ZM3.375 7.59375H16.875V9.28125C16.875 10.2119 17.6318 10.9688 18.5625 10.9688H35.4375C36.3682 10.9688 37.125 10.2119 37.125 9.28125V7.59375H50.625C51.0899 7.59375 51.4688 7.97175 51.4688 8.4375V12.6562H47.25H42.1875H37.125H32.0625H27H21.9375H16.875H11.8125H6.75H2.53125V8.4375C2.53125 7.97175 2.91009 7.59375 3.375 7.59375ZM43.0312 14.3438H46.4062V17.7188C46.4062 18.6494 45.6494 19.4062 44.7188 19.4062C43.7881 19.4062 43.0312 18.6494 43.0312 17.7188V14.3438ZM37.9688 14.3438H41.3438V17.7188C41.3438 18.6494 40.5869 19.4062 39.6562 19.4062C38.7256 19.4062 37.9688 18.6494 37.9688 17.7188V14.3438ZM32.9062 14.3438H36.2812V17.7188C36.2812 18.6494 35.5244 19.4062 34.5938 19.4062C33.6631 19.4062 32.9062 18.6494 32.9062 17.7188V14.3438ZM27.8438 14.3438H31.2188V17.7188C31.2188 18.6494 30.4619 19.4062 29.5312 19.4062C28.6006 19.4062 27.8438 18.6494 27.8438 17.7188V14.3438ZM22.7812 14.3438H26.1562V17.7188C26.1562 18.6494 25.3994 19.4062 24.4688 19.4062C23.5381 19.4062 22.7812 18.6494 22.7812 17.7188V14.3438ZM17.7188 14.3438H21.0938V17.7188C21.0938 18.6494 20.3369 19.4062 19.4062 19.4062C18.4756 19.4062 17.7188 18.6494 17.7188 17.7188V14.3438ZM12.6562 14.3438H16.0312V17.7188C16.0312 18.6494 15.2744 19.4062 14.3438 19.4062C13.4131 19.4062 12.6562 18.6494 12.6562 17.7188V14.3438ZM7.59375 14.3438H10.9688V17.7188C10.9688 18.6494 10.2119 19.4062 9.28125 19.4062C8.35059 19.4062 7.59375 18.6494 7.59375 17.7188V14.3438ZM2.53125 17.7188V14.3438H5.90625V17.7188C5.90625 18.6494 5.14941 19.4062 4.21875 19.4062C3.28809 19.4062 2.53125 18.6494 2.53125 17.7188ZM5.0625 27.8438H28.6875V39.6562H5.0625V27.8438ZM28.6875 26.1562H5.0625V24.4688H28.6875V26.1562ZM5.0625 41.3438H28.6875V46.4062H5.0625V41.3438ZM51.4688 48.9375V51.4688H2.53125V48.9375C2.53125 48.4717 2.91009 48.0938 3.375 48.0938H50.625C51.0899 48.0938 51.4688 48.4717 51.4688 48.9375ZM45.5625 26.1562H33.75V24.4688H45.5625V26.1562ZM33.75 27.8438H45.5625V46.4062H33.75V27.8438ZM47.25 46.4062V23.625C47.25 23.1584 46.872 22.7812 46.4062 22.7812H32.9062C32.4405 22.7812 32.0625 23.1584 32.0625 23.625V46.4062H30.375V23.625C30.375 23.1584 29.997 22.7812 29.5312 22.7812H5.0625V20.9739C5.72906 20.801 6.31041 20.4314 6.75 19.9277C7.36931 20.6364 8.26875 21.0938 9.28125 21.0938C10.2937 21.0938 11.1932 20.6364 11.8125 19.9277C12.4318 20.6364 13.3313 21.0938 14.3438 21.0938C15.3562 21.0938 16.2557 20.6364 16.875 19.9277C17.4943 20.6364 18.3937 21.0938 19.4062 21.0938C20.4188 21.0938 21.3182 20.6364 21.9375 19.9277C22.5568 20.6364 23.4562 21.0938 24.4688 21.0938C25.4813 21.0938 26.3807 20.6364 27 19.9277C27.6193 20.6364 28.5187 21.0938 29.5312 21.0938C30.5438 21.0938 31.4432 20.6364 32.0625 19.9277C32.6818 20.6364 33.5812 21.0938 34.5938 21.0938C35.6063 21.0938 36.5057 20.6364 37.125 19.9277C37.7443 20.6364 38.6437 21.0938 39.6562 21.0938C40.6688 21.0938 41.5682 20.6364 42.1875 19.9277C42.8068 20.6364 43.7062 21.0938 44.7188 21.0938C45.7313 21.0938 46.6307 20.6364 47.25 19.9277C47.6896 20.4314 48.2709 20.801 48.9375 20.9739V46.4062H47.25ZM51.4688 17.7188C51.4688 18.6494 50.7119 19.4062 49.7812 19.4062C48.8506 19.4062 48.0938 18.6494 48.0938 17.7188V14.3438H51.4688V17.7188Z" fill="#31363B"/>
<path d="M7.83618 36.5256L13.7412 30.6206L14.9343 31.8136L9.02925 37.7187L7.83618 36.5256Z" fill="#31363B"/>
<path d="M15.4291 36.5265L21.3342 30.6214L22.5273 31.8145L16.6222 37.7196L15.4291 36.5265Z" fill="#31363B"/>
<path d="M31.2188 3.375H22.7812C21.3857 3.375 20.25 4.51069 20.25 5.90625C20.25 7.30181 21.3857 8.4375 22.7812 8.4375H31.2188C32.6143 8.4375 33.75 7.30181 33.75 5.90625C33.75 4.51069 32.6143 3.375 31.2188 3.375ZM31.2188 6.75H22.7812C22.3163 6.75 21.9375 6.372 21.9375 5.90625C21.9375 5.4405 22.3163 5.0625 22.7812 5.0625H31.2188C31.6837 5.0625 32.0625 5.4405 32.0625 5.90625C32.0625 6.372 31.6837 6.75 31.2188 6.75Z" fill="#31363B"/>
<path d="M36.2812 37.125C37.2132 37.125 37.9688 36.3695 37.9688 35.4375C37.9688 34.5055 37.2132 33.75 36.2812 33.75C35.3493 33.75 34.5938 34.5055 34.5938 35.4375C34.5938 36.3695 35.3493 37.125 36.2812 37.125Z" fill="#31363B"/>
</svg>
