<svg width="604" height="394" viewBox="0 0 604 394" fill="none" xmlns="http://www.w3.org/2000/svg">
<path d="M19 60C19 26.8629 45.8629 0 79 0H528C561.137 0 588 26.8629 588 60V334C588 367.137 561.137 394 528 394H79C45.8629 394 19 367.137 19 334V60Z" fill="#EAEAEA"/>
<path d="M196.855 327V234.7H222.205V327H196.855ZM233.045 280.07C233.045 274.437 234.085 268.89 236.165 263.43C238.331 257.97 241.451 253.073 245.525 248.74C249.598 244.407 254.538 240.897 260.345 238.21C266.151 235.523 272.781 234.18 280.235 234.18C289.161 234.18 296.875 236.043 303.375 239.77C309.961 243.41 314.858 248.263 318.065 254.33L298.695 268.11C297.828 265.857 296.658 263.993 295.185 262.52C293.798 261.047 292.238 259.877 290.505 259.01C288.771 258.143 286.951 257.537 285.045 257.19C283.225 256.843 281.448 256.67 279.715 256.67C276.075 256.67 272.911 257.407 270.225 258.88C267.625 260.267 265.458 262.13 263.725 264.47C262.078 266.723 260.821 269.323 259.955 272.27C259.175 275.13 258.785 277.99 258.785 280.85C258.785 284.057 259.261 287.133 260.215 290.08C261.168 293.027 262.555 295.627 264.375 297.88C266.195 300.133 268.405 301.953 271.005 303.34C273.691 304.64 276.681 305.29 279.975 305.29C281.708 305.29 283.485 305.117 285.305 304.77C287.125 304.337 288.858 303.687 290.505 302.82C292.238 301.867 293.755 300.697 295.055 299.31C296.441 297.837 297.525 296.06 298.305 293.98L318.975 306.33C317.588 309.71 315.465 312.743 312.605 315.43C309.831 318.117 306.625 320.37 302.985 322.19C299.431 324.01 295.575 325.397 291.415 326.35C287.341 327.303 283.355 327.78 279.455 327.78C272.608 327.78 266.325 326.437 260.605 323.75C254.971 320.977 250.075 317.337 245.915 312.83C241.841 308.323 238.678 303.21 236.425 297.49C234.171 291.77 233.045 285.963 233.045 280.07ZM368.201 327.78C361.181 327.78 354.811 326.437 349.091 323.75C343.371 321.063 338.474 317.553 334.401 313.22C330.328 308.8 327.164 303.773 324.911 298.14C322.658 292.507 321.531 286.7 321.531 280.72C321.531 274.653 322.701 268.803 325.041 263.17C327.381 257.537 330.631 252.597 334.791 248.35C339.038 244.017 344.021 240.593 349.741 238.08C355.548 235.48 361.874 234.18 368.721 234.18C375.741 234.18 382.111 235.523 387.831 238.21C393.551 240.897 398.448 244.45 402.521 248.87C406.594 253.29 409.714 258.317 411.881 263.95C414.134 269.583 415.261 275.347 415.261 281.24C415.261 287.307 414.091 293.157 411.751 298.79C409.411 304.337 406.161 309.277 402.001 313.61C397.841 317.857 392.858 321.28 387.051 323.88C381.331 326.48 375.048 327.78 368.201 327.78ZM347.271 280.98C347.271 284.1 347.704 287.133 348.571 290.08C349.438 292.94 350.738 295.497 352.471 297.75C354.204 300.003 356.371 301.823 358.971 303.21C361.658 304.597 364.821 305.29 368.461 305.29C372.101 305.29 375.264 304.597 377.951 303.21C380.638 301.737 382.804 299.873 384.451 297.62C386.184 295.28 387.441 292.637 388.221 289.69C389.088 286.743 389.521 283.753 389.521 280.72C389.521 277.6 389.088 274.61 388.221 271.75C387.354 268.803 386.011 266.247 384.191 264.08C382.458 261.827 380.248 260.05 377.561 258.75C374.961 257.363 371.884 256.67 368.331 256.67C364.691 256.67 361.528 257.363 358.841 258.75C356.241 260.137 354.074 262 352.341 264.34C350.608 266.593 349.308 269.193 348.441 272.14C347.661 275 347.271 277.947 347.271 280.98Z" fill="black"/>
<path d="M0 100C0 83.4315 13.4315 70 30 70H574C590.569 70 604 83.4315 604 100V156C604 172.569 590.569 186 574 186H30C13.4314 186 0 172.569 0 156V100Z" fill="#54595F"/>
<path d="M164.255 162.735C161.949 162.735 159.791 162.359 157.781 161.608C155.77 160.856 154.026 159.845 152.548 158.573C151.129 157.243 150.005 155.682 149.178 153.89C148.35 152.098 147.936 150.162 147.936 148.08C147.936 145.768 148.439 143.658 149.444 141.75C150.449 139.843 151.838 138.195 153.612 136.808C155.386 135.42 157.485 134.351 159.909 133.599C162.392 132.848 165.112 132.472 168.069 132.472C171.853 132.472 174.986 133.05 177.47 134.206V132.819C177.47 130.68 176.819 129.09 175.519 128.05C174.277 127.009 172.237 126.489 169.399 126.489C166.738 126.489 164.284 126.923 162.038 127.79C159.791 128.599 157.426 129.813 154.942 131.432L150.065 121.199C156.214 117.326 163.22 115.39 171.084 115.39C178.534 115.39 184.269 117.008 188.29 120.246C192.311 123.483 194.321 128.339 194.321 134.813V143.658C194.321 145.219 194.557 146.317 195.03 146.953C195.503 147.531 196.331 147.878 197.514 147.994V161.868C196.154 162.157 194.853 162.359 193.611 162.475C192.429 162.648 191.365 162.735 190.418 162.735C187.403 162.735 185.097 162.215 183.501 161.174C181.963 160.076 180.958 158.486 180.485 156.405L180.13 154.757C178.061 157.359 175.666 159.353 172.947 160.741C170.227 162.07 167.33 162.735 164.255 162.735ZM169.31 150.942C170.315 150.942 171.35 150.797 172.414 150.508C173.479 150.162 174.425 149.728 175.252 149.208C175.903 148.745 176.435 148.254 176.849 147.734C177.263 147.156 177.47 146.577 177.47 145.999V142.618C176.465 142.271 175.371 141.982 174.188 141.75C173.006 141.519 171.941 141.404 170.995 141.404C168.926 141.404 167.211 141.895 165.851 142.878C164.491 143.86 163.811 145.103 163.811 146.606C163.811 147.878 164.314 148.919 165.319 149.728C166.383 150.537 167.714 150.942 169.31 150.942Z" fill="white"/>
<path d="M222.846 162.735C218.767 162.735 214.776 162.099 210.873 160.827C206.971 159.498 203.66 157.59 200.94 155.104L206.705 145.219C209.602 147.127 212.381 148.601 215.042 149.641C217.762 150.682 220.245 151.202 222.492 151.202C224.857 151.202 226.039 150.48 226.039 149.034C226.039 148.225 225.566 147.531 224.62 146.953C223.733 146.375 221.96 145.71 219.299 144.959C215.988 144.034 213.209 143.138 210.962 142.271C208.774 141.346 206.971 140.363 205.552 139.322C204.192 138.282 203.216 137.126 202.625 135.854C202.034 134.582 201.738 133.079 201.738 131.345C201.738 129.033 202.211 126.894 203.157 124.928C204.103 122.963 205.404 121.257 207.06 119.812C208.774 118.367 210.785 117.268 213.091 116.517C215.456 115.708 218.028 115.303 220.807 115.303C224.236 115.303 227.488 115.737 230.563 116.604C233.696 117.471 236.83 119.234 239.964 121.893L233.578 131.778C230.681 129.929 228.257 128.628 226.305 127.876C224.354 127.067 222.521 126.662 220.807 126.662C219.801 126.662 218.974 126.865 218.323 127.269C217.673 127.616 217.348 128.194 217.348 129.004C217.348 129.871 217.821 130.593 218.767 131.171C219.713 131.692 221.575 132.299 224.354 132.992C227.724 133.86 230.563 134.784 232.868 135.767C235.174 136.692 237.007 137.733 238.367 138.889C239.786 139.987 240.791 141.259 241.383 142.704C241.974 144.092 242.27 145.71 242.27 147.56C242.27 149.93 241.826 152.04 240.939 153.89C240.052 155.74 238.752 157.33 237.037 158.659C235.381 159.989 233.341 161.001 230.917 161.694C228.552 162.388 225.862 162.735 222.846 162.735Z" fill="white"/>
<path d="M294.949 161.868H278.098V136.201C278.098 133.946 277.566 132.328 276.502 131.345C275.497 130.304 274.226 129.784 272.688 129.784C272.156 129.784 271.506 129.957 270.737 130.304C270.028 130.593 269.288 131.027 268.52 131.605C267.81 132.125 267.13 132.79 266.48 133.599C265.83 134.409 265.297 135.305 264.883 136.288V161.868H248.032V98.5674H264.883V123.02C266.539 120.535 268.697 118.656 271.358 117.384C274.019 116.055 277.004 115.39 280.316 115.39C283.568 115.39 286.169 115.939 288.12 117.037C290.071 118.136 291.55 119.523 292.555 121.199C293.56 122.818 294.21 124.581 294.506 126.489C294.802 128.397 294.949 130.189 294.949 131.865V161.868Z" fill="white"/>
<path d="M324.191 161.868V100.302H367.383V115.043H341.485V125.275H362.594V138.976H341.485V161.868H324.191Z" fill="white"/>
<path d="M372.658 98.5674H389.509V143.745C389.509 147.213 390.958 148.948 393.855 148.948C394.564 148.948 395.333 148.832 396.161 148.601C396.988 148.37 397.757 148.052 398.467 147.647L400.595 159.787C398.585 160.712 396.309 161.434 393.766 161.955C391.283 162.475 388.918 162.735 386.671 162.735C382.177 162.735 378.718 161.608 376.294 159.353C373.87 157.099 372.658 153.832 372.658 149.555V98.5674Z" fill="white"/>
<path d="M418.286 162.735C415.98 162.735 413.822 162.359 411.812 161.608C409.801 160.856 408.057 159.845 406.579 158.573C405.16 157.243 404.037 155.682 403.209 153.89C402.381 152.098 401.967 150.162 401.967 148.08C401.967 145.768 402.47 143.658 403.475 141.75C404.48 139.843 405.869 138.195 407.643 136.808C409.417 135.42 411.516 134.351 413.94 133.599C416.424 132.848 419.143 132.472 422.1 132.472C425.884 132.472 429.018 133.05 431.501 134.206V132.819C431.501 130.68 430.851 129.09 429.55 128.05C428.308 127.009 426.268 126.489 423.43 126.489C420.769 126.489 418.316 126.923 416.069 127.79C413.822 128.599 411.457 129.813 408.974 131.432L404.096 121.199C410.245 117.326 417.251 115.39 425.115 115.39C432.565 115.39 438.3 117.008 442.321 120.246C446.342 123.483 448.352 128.339 448.352 134.813V143.658C448.352 145.219 448.589 146.317 449.062 146.953C449.535 147.531 450.362 147.878 451.545 147.994V161.868C450.185 162.157 448.884 162.359 447.642 162.475C446.46 162.648 445.396 162.735 444.45 162.735C441.434 162.735 439.128 162.215 437.532 161.174C435.995 160.076 434.989 158.486 434.516 156.405L434.162 154.757C432.092 157.359 429.698 159.353 426.978 160.741C424.258 162.07 421.361 162.735 418.286 162.735ZM423.341 150.942C424.347 150.942 425.381 150.797 426.446 150.508C427.51 150.162 428.456 149.728 429.284 149.208C429.934 148.745 430.466 148.254 430.88 147.734C431.294 147.156 431.501 146.577 431.501 145.999V142.618C430.496 142.271 429.402 141.982 428.219 141.75C427.037 141.519 425.973 141.404 425.027 141.404C422.957 141.404 421.242 141.895 419.883 142.878C418.523 143.86 417.843 145.103 417.843 146.606C417.843 147.878 418.345 148.919 419.35 149.728C420.415 150.537 421.745 150.942 423.341 150.942Z" fill="white"/>
<path d="M476.878 162.735C472.798 162.735 468.807 162.099 464.904 160.827C461.002 159.498 457.691 157.59 454.971 155.104L460.736 145.219C463.633 147.127 466.412 148.601 469.073 149.641C471.793 150.682 474.276 151.202 476.523 151.202C478.888 151.202 480.07 150.48 480.07 149.034C480.07 148.225 479.597 147.531 478.651 146.953C477.764 146.375 475.991 145.71 473.33 144.959C470.019 144.034 467.24 143.138 464.993 142.271C462.805 141.346 461.002 140.363 459.583 139.322C458.223 138.282 457.248 137.126 456.656 135.854C456.065 134.582 455.769 133.079 455.769 131.345C455.769 129.033 456.242 126.894 457.188 124.928C458.134 122.963 459.435 121.257 461.091 119.812C462.805 118.367 464.816 117.268 467.122 116.517C469.487 115.708 472.059 115.303 474.838 115.303C478.267 115.303 481.519 115.737 484.594 116.604C487.727 117.471 490.861 119.234 493.995 121.893L487.609 131.778C484.712 129.929 482.288 128.628 480.337 127.876C478.385 127.067 476.552 126.662 474.838 126.662C473.833 126.662 473.005 126.865 472.354 127.269C471.704 127.616 471.379 128.194 471.379 129.004C471.379 129.871 471.852 130.593 472.798 131.171C473.744 131.692 475.606 132.299 478.385 132.992C481.756 133.86 484.594 134.784 486.9 135.767C489.206 136.692 491.038 137.733 492.398 138.889C493.817 139.987 494.823 141.259 495.414 142.704C496.005 144.092 496.301 145.71 496.301 147.56C496.301 149.93 495.857 152.04 494.97 153.89C494.083 155.74 492.783 157.33 491.068 158.659C489.412 159.989 487.373 161.001 484.948 161.694C482.583 162.388 479.893 162.735 476.878 162.735Z" fill="white"/>
<path d="M548.981 161.868H532.129V136.201C532.129 133.946 531.597 132.328 530.533 131.345C529.528 130.304 528.257 129.784 526.719 129.784C526.187 129.784 525.537 129.957 524.768 130.304C524.059 130.593 523.32 131.027 522.551 131.605C521.841 132.125 521.161 132.79 520.511 133.599C519.861 134.409 519.329 135.305 518.915 136.288V161.868H502.064V98.5674H518.915V123.02C520.57 120.535 522.728 118.656 525.389 117.384C528.05 116.055 531.036 115.39 534.347 115.39C537.599 115.39 540.2 115.939 542.151 117.037C544.103 118.136 545.581 119.523 546.586 121.199C547.591 122.818 548.241 124.581 548.537 126.489C548.833 128.397 548.981 130.189 548.981 131.865V161.868Z" fill="white"/>
<path fill-rule="evenodd" clip-rule="evenodd" d="M106.166 100.205C89.6022 100.205 76.6029 112.943 76.6029 128.146C76.6029 143.349 89.6022 156.087 106.166 156.087C114.307 156.087 121.625 152.992 126.95 148.016L140.568 161.945C131.673 170.258 119.512 175.356 106.166 175.356C79.1907 175.356 56.894 154.448 56.894 128.146C56.894 101.844 79.1907 80.9358 106.166 80.9358C119.512 80.9358 131.673 86.0344 140.568 94.3468L126.95 108.277C121.625 103.301 114.307 100.205 106.166 100.205Z" fill="white"/>
<path d="M115.035 138.744L110.448 147.714C120.969 145.64 138.256 128.024 145.584 119.475H115.035V138.744Z" fill="#FEE802"/>
<path fill-rule="evenodd" clip-rule="evenodd" d="M92.7771 86.7166L111.094 50.1045L103.812 86.7166H92.7771ZM104.782 175.325C101.309 175.3 97.9837 174.757 96.7553 174.489L76.603 213.896L104.782 175.325Z" fill="#FEE802"/>
<path d="M104.959 80.9497C101.57 81.0283 98.2605 81.4366 95.065 82.1435L66.7485 138.744L78.8134 138.744C77.3863 135.461 76.603 131.878 76.603 128.146C76.603 114.549 87.0008 102.924 101.047 100.62L104.959 80.9497Z" fill="#FEE802"/>
<path d="M103.532 138.744L115.035 138.744L110.446 147.718C119.325 145.441 125.875 137.542 125.875 128.146C125.875 125.043 125.161 122.103 123.884 119.475H104.204C102.925 122.769 102.225 126.341 102.225 130.073C102.225 133.089 102.682 136 103.532 138.744Z" fill="#FEE802"/>
<path d="M99.4338 138.744C98.6829 135.977 98.2828 133.071 98.2828 130.073C98.2828 126.371 98.8931 122.808 100.021 119.475L97.2973 119.475L99.4398 108.702C90.8036 111.135 84.4865 118.919 84.4865 128.146C84.4865 132.032 85.607 135.662 87.5493 138.744H99.4338Z" fill="#FEE802"/>
<path d="M115.035 138.744L110.448 147.714C120.969 145.64 138.256 128.024 145.584 119.475H115.035V138.744Z" fill="#FEE802"/>
<path fill-rule="evenodd" clip-rule="evenodd" d="M92.7771 86.7166L111.094 50.1045L103.812 86.7166H92.7771ZM104.782 175.325C101.309 175.3 97.9837 174.757 96.7553 174.489L76.603 213.896L104.782 175.325Z" fill="#FEE802"/>
<path d="M104.959 80.9497C101.57 81.0283 98.2605 81.4366 95.065 82.1435L66.7485 138.744L78.8134 138.744C77.3863 135.461 76.603 131.878 76.603 128.146C76.603 114.549 87.0008 102.924 101.047 100.62L104.959 80.9497Z" fill="#FEE802"/>
<path d="M103.532 138.744L115.035 138.744L110.446 147.718C119.325 145.441 125.875 137.542 125.875 128.146C125.875 125.043 125.161 122.103 123.884 119.475H104.204C102.925 122.769 102.225 126.341 102.225 130.073C102.225 133.089 102.682 136 103.532 138.744Z" fill="#FEE802"/>
<path d="M99.4338 138.744C98.6829 135.977 98.2828 133.071 98.2828 130.073C98.2828 126.371 98.8931 122.808 100.021 119.475L97.2973 119.475L99.4398 108.702C90.8036 111.135 84.4865 118.919 84.4865 128.146C84.4865 132.032 85.607 135.662 87.5493 138.744H99.4338Z" fill="#FEE802"/>
</svg>
