<svg width="34" height="34" viewBox="0 0 34 34" fill="none" xmlns="http://www.w3.org/2000/svg">
<g clip-path="url(#clip0)">
<path d="M30.5065 10.0767C31.8892 9.095 33.0522 7.86958 34 6.45858V6.45717C32.7349 7.01108 31.3891 7.37942 29.9838 7.55792C31.4288 6.69517 32.5323 5.33942 33.0508 3.706C31.7036 4.50925 30.2161 5.07592 28.6308 5.39325C27.3516 4.03042 25.5283 3.1875 23.5393 3.1875C19.6803 3.1875 16.5736 6.31975 16.5736 10.1589C16.5736 10.7114 16.6203 11.2427 16.7351 11.7484C10.9409 11.4651 5.81258 8.68842 2.36725 4.45683C1.76658 5.50092 1.41242 6.69517 1.41242 7.98008C1.41242 10.3941 2.65483 12.5332 4.50925 13.7728C3.38867 13.7516 2.29075 13.4257 1.36 12.9143V12.9908C1.36 16.3781 3.77542 19.1916 6.9445 19.8404C6.37642 19.9963 5.75875 20.0699 5.117 20.0699C4.67075 20.0699 4.22025 20.0444 3.79808 19.9509C4.7005 22.7106 7.26467 24.7407 10.3105 24.8072C7.939 26.6617 4.92717 27.7794 1.66742 27.7794C1.0965 27.7794 0.54825 27.7539 0 27.6845C3.08833 29.6749 6.74617 30.8125 10.693 30.8125C22.9939 30.8125 31.0108 20.5502 30.5065 10.0767Z" fill="#54595F"/>
</g>
<defs>
<clipPath id="clip0">
<rect width="34" height="34" fill="white"/>
</clipPath>
</defs>
</svg>
