<svg width="34" height="34" viewBox="0 0 34 34" fill="none" xmlns="http://www.w3.org/2000/svg">
<g clip-path="url(#clip0)">
<path d="M33.9915 34.0001V33.9986H34V21.5291C34 15.4289 32.6868 10.7299 25.5553 10.7299C22.127 10.7299 19.8263 12.6112 18.887 14.3948H18.7879V11.2994H12.0261V33.9986H19.067V22.7588C19.067 19.7994 19.628 16.9377 23.2929 16.9377C26.904 16.9377 26.9578 20.315 26.9578 22.9486V34.0001H33.9915Z" fill="#8A9097"/>
<path d="M0.561035 11.3008H7.61037V34H0.561035V11.3008Z" fill="#8A9097"/>
<path d="M4.08283 0C1.82892 0 0 1.82892 0 4.08283C0 6.33675 1.82892 8.20392 4.08283 8.20392C6.33675 8.20392 8.16567 6.33675 8.16567 4.08283C8.16425 1.82892 6.33533 0 4.08283 0V0Z" fill="#8A9097"/>
</g>
<defs>
<clipPath id="clip0">
<rect width="34" height="34" fill="white"/>
</clipPath>
</defs>
</svg>
