<svg width="54" height="54" viewBox="0 0 54 54" fill="none" xmlns="http://www.w3.org/2000/svg">
<path fill-rule="evenodd" clip-rule="evenodd" d="M14.1096 17.9634C14.6629 18.1464 15.2595 17.8464 15.442 17.2931C17.0978 12.2854 21.7561 8.92114 27.0341 8.92114C33.7647 8.92114 39.2408 14.3969 39.2408 21.1279C39.2408 26.3301 36.9106 29.4381 35.0386 31.9356C33.6765 33.752 32.5003 35.3213 32.5003 37.2243C32.5003 37.3495 32.4987 37.4735 32.4958 37.5967H28.0888V35.1738C28.0888 34.5912 27.6166 34.1191 27.0341 34.1191C26.4515 34.1191 25.9794 34.5912 25.9794 35.1738V37.5967H21.5719C21.5691 37.4735 21.5674 37.3495 21.5674 37.2243C21.5674 35.3209 20.3912 33.752 19.0292 31.9352C17.6502 30.0956 16.0876 28.0106 15.3126 25.048C15.1651 24.4844 14.5883 24.147 14.0252 24.2945C13.462 24.4415 13.1246 25.0183 13.272 25.5815C14.1516 28.9446 15.9203 31.3044 17.3417 33.2004C18.5241 34.7779 19.458 36.0237 19.458 37.2243C19.458 37.7294 19.4795 38.2221 19.5211 38.6922V47.6133C19.5211 47.6418 19.5231 47.6694 19.5252 47.697C19.526 47.7036 19.5256 47.7106 19.5264 47.7172C19.5301 47.7563 19.5363 47.7942 19.5441 47.8321V47.8329C19.9104 49.5509 20.8481 51.1132 22.1854 52.2317C23.5482 53.3721 25.2704 54 27.0341 54C28.7978 54 30.5195 53.3721 31.8827 52.2317C33.2196 51.1132 34.1577 49.5509 34.5236 47.8329C34.5236 47.8325 34.524 47.8321 34.524 47.8317C34.5318 47.7942 34.5376 47.7563 34.5417 47.7172C34.5421 47.7106 34.5421 47.7036 34.5425 47.697C34.5446 47.669 34.5467 47.6414 34.5467 47.6129V38.6922C34.5883 38.2221 34.6101 37.7294 34.6101 37.2243C34.6101 36.0237 35.5441 34.7779 36.7265 33.2004C38.6777 30.5974 41.3502 27.0329 41.3502 21.1279C41.3502 13.2338 34.9277 6.81177 27.0341 6.81177C20.8444 6.81177 15.3814 10.7578 13.4393 16.6311C13.2564 17.184 13.5567 17.7805 14.1096 17.9634ZM27.0341 51.8906C24.8897 51.8906 22.9558 50.5937 22.0395 48.6676H32.0286C31.1119 50.5937 29.1781 51.8906 27.0341 51.8906ZM32.4377 46.5582H21.6304V44.1868H32.4377V46.5582ZM32.4377 42.0775H21.6304V39.7061H32.4377V42.0775Z" fill="#31363B"/>
<path fill-rule="evenodd" clip-rule="evenodd" d="M27.0342 4.91954C27.6167 4.91954 28.0889 4.4474 28.0889 3.86485V1.05469C28.0889 0.472137 27.6167 0 27.0342 0C26.4516 0 25.9795 0.472137 25.9795 1.05469V3.86485C25.9795 4.4474 26.4516 4.91954 27.0342 4.91954Z" fill="#31363B"/>
<path fill-rule="evenodd" clip-rule="evenodd" d="M6.96094 22.1826H9.7711C10.3537 22.1826 10.8258 21.7105 10.8258 21.1279C10.8258 20.5454 10.3537 20.0732 9.7711 20.0732H6.96094C6.37839 20.0732 5.90625 20.5454 5.90625 21.1279C5.90625 21.7105 6.37839 22.1826 6.96094 22.1826Z" fill="#31363B"/>
<path fill-rule="evenodd" clip-rule="evenodd" d="M31.8631 23.2588C31.8631 22.6762 31.391 22.2041 30.8084 22.2041H23.26C22.6775 22.2041 22.2053 22.6762 22.2053 23.2588C22.2053 23.8413 22.6775 24.3135 23.26 24.3135H25.9795V26.7364C25.9795 27.3189 26.4517 27.7911 27.0342 27.7911C27.6168 27.7911 28.0889 27.3189 28.0889 26.7364V24.3135H30.8084C31.391 24.3135 31.8631 23.8413 31.8631 23.2588Z" fill="#31363B"/>
<path fill-rule="evenodd" clip-rule="evenodd" d="M14.0818 9.66692C14.2877 9.87291 14.5576 9.97591 14.8274 9.97591C15.0973 9.97591 15.3672 9.87291 15.5731 9.66692C15.9851 9.25493 15.9851 8.5871 15.5731 8.17552L13.5861 6.18851C13.1741 5.77652 12.5063 5.77652 12.0943 6.18851C11.6828 6.60008 11.6828 7.26791 12.0943 7.6799L14.0818 9.66692Z" fill="#31363B"/>
<path fill-rule="evenodd" clip-rule="evenodd" d="M12.1128 37.104C12.3826 37.104 12.6525 37.001 12.8585 36.795L14.8455 34.808C15.2575 34.396 15.2575 33.7285 14.8455 33.3166C14.4335 32.9046 13.7657 32.9046 13.3541 33.3166L11.3667 35.3036C10.9551 35.7156 10.9551 36.3834 11.3667 36.795C11.5727 37.001 11.8425 37.104 12.1128 37.104Z" fill="#31363B"/>
<path fill-rule="evenodd" clip-rule="evenodd" d="M39.241 9.9758C39.5109 9.9758 39.7807 9.8728 39.9867 9.66681L41.9737 7.67979C42.3857 7.26781 42.3857 6.59997 41.9737 6.18799C41.5622 5.776 40.8943 5.77641 40.4823 6.18799L38.4953 8.175C38.0833 8.58699 38.0833 9.25482 38.4949 9.66681C38.7009 9.8728 38.9712 9.9758 39.241 9.9758Z" fill="#31363B"/>
<path fill-rule="evenodd" clip-rule="evenodd" d="M39.2228 33.3166C38.8108 33.7281 38.8108 34.396 39.2228 34.808L41.2098 36.795C41.4158 37.001 41.6857 37.104 41.9555 37.104C42.2254 37.104 42.4952 37.001 42.7012 36.795C43.1132 36.3834 43.1132 35.7156 42.7012 35.3036L40.7142 33.3166C40.3022 32.9046 39.6344 32.9046 39.2228 33.3166Z" fill="#31363B"/>
<path fill-rule="evenodd" clip-rule="evenodd" d="M44.2972 22.1826H47.1074C47.69 22.1826 48.1621 21.7105 48.1621 21.1279C48.1621 20.5454 47.69 20.0732 47.1074 20.0732H44.2972C43.7147 20.0732 43.2426 20.5454 43.2426 21.1279C43.2426 21.7105 43.7147 22.1826 44.2972 22.1826Z" fill="#31363B"/>
<path fill-rule="evenodd" clip-rule="evenodd" d="M27.0342 29.9004C26.4533 29.9004 25.9795 30.3742 25.9795 30.9551C25.9795 31.536 26.4533 32.0098 27.0342 32.0098C27.6151 32.0098 28.0889 31.536 28.0889 30.9551C28.0889 30.3742 27.6151 29.9004 27.0342 29.9004Z" fill="#31363B"/>
<path fill-rule="evenodd" clip-rule="evenodd" d="M14.8274 21.1279C14.8274 20.547 14.3536 20.0732 13.7727 20.0732C13.1914 20.0732 12.718 20.547 12.718 21.1279C12.718 21.7088 13.1914 22.1826 13.7727 22.1826C14.3536 22.1826 14.8274 21.7088 14.8274 21.1279Z" fill="#31363B"/>
</svg>
