<svg width="54" height="54" viewBox="0 0 54 54" fill="none" xmlns="http://www.w3.org/2000/svg">
<path d="M36.5806 3.48389C31.2983 3.48389 27 7.78216 27 13.0645H28.7419C28.7419 8.74201 32.2581 5.22582 36.5806 5.22582V3.48389Z" fill="#31363B"/>
<path d="M44.4194 13.0646C44.4194 17.3871 40.9032 20.9033 36.5807 20.9033V22.6452C41.8631 22.6452 46.1613 18.3469 46.1613 13.0646H44.4194Z" fill="#31363B"/>
<path d="M49.6452 13.0645C49.6452 5.86075 43.7844 0 36.5807 0C31.5777 0 27.2292 2.82894 25.0344 6.96774H5.22583C4.74399 6.96774 4.35486 7.35687 4.35486 7.83871V53.129C4.35486 53.6109 4.74399 54 5.22583 54H43.5484C44.0303 54 44.4194 53.6109 44.4194 53.129V23.4919C47.5851 21.1052 49.6452 17.3262 49.6452 13.0645ZM26.1533 20.9032H9.58067V12.1935H23.5604C23.5412 12.4827 23.5161 12.7702 23.5161 13.0645C23.5161 16.0074 24.5058 18.7173 26.1533 20.9032ZM42.6774 52.2581H6.09679V8.70968H24.2782C24.0771 9.27572 23.901 9.85325 23.779 10.4516H8.7097C8.22786 10.4516 7.83873 10.8407 7.83873 11.3226V21.7742C7.83873 22.256 8.22786 22.6452 8.7097 22.6452H27.7281C30.059 24.8 33.1631 26.129 36.5807 26.129C38.7823 26.129 40.8556 25.577 42.6774 24.6108V52.2581ZM36.5807 24.3871C30.3376 24.3871 25.2581 19.3076 25.2581 13.0645C25.2581 6.82145 30.3376 1.74194 36.5807 1.74194C42.8237 1.74194 47.9032 6.82145 47.9032 13.0645C47.9032 19.3076 42.8237 24.3871 36.5807 24.3871Z" fill="#31363B"/>
<path d="M37.4516 17.4194C38.8921 17.4194 40.0645 16.2469 40.0645 14.8065C40.0645 13.3661 38.8921 12.1936 37.4516 12.1936H35.7097C35.2291 12.1936 34.8387 11.8032 34.8387 11.3226C34.8387 10.842 35.2291 10.4516 35.7097 10.4516H40.0645V8.70971H37.4516V6.96777H35.7097V8.70971C34.2693 8.70971 33.0968 9.8822 33.0968 11.3226C33.0968 12.763 34.2693 13.9355 35.7097 13.9355H37.4516C37.9322 13.9355 38.3226 14.3259 38.3226 14.8065C38.3226 15.287 37.9322 15.6775 37.4516 15.6775H33.0968V17.4194H35.7097V19.1613H37.4516V17.4194Z" fill="#31363B"/>
<path d="M13.9355 26.129H8.70971C8.22787 26.129 7.83875 26.5182 7.83875 27V32.2258C7.83875 32.7076 8.22787 33.0968 8.70971 33.0968H13.9355C14.4174 33.0968 14.8065 32.7076 14.8065 32.2258V27C14.8065 26.5182 14.4174 26.129 13.9355 26.129ZM13.0646 31.3548H9.58068V27.871H13.0646V31.3548Z" fill="#31363B"/>
<path d="M22.6451 26.129H17.4193C16.9375 26.129 16.5483 26.5182 16.5483 27V32.2258C16.5483 32.7076 16.9375 33.0968 17.4193 33.0968H22.6451C23.127 33.0968 23.5161 32.7076 23.5161 32.2258V27C23.5161 26.5182 23.127 26.129 22.6451 26.129ZM21.7741 31.3548H18.2903V27.871H21.7741V31.3548Z" fill="#31363B"/>
<path d="M31.3548 26.129H26.129C25.6472 26.129 25.2581 26.5182 25.2581 27V32.2258C25.2581 32.7076 25.6472 33.0968 26.129 33.0968H31.3548C31.8367 33.0968 32.2258 32.7076 32.2258 32.2258V27C32.2258 26.5182 31.8367 26.129 31.3548 26.129ZM30.4839 31.3548H27V27.871H30.4839V31.3548Z" fill="#31363B"/>
<path d="M13.9355 34.8387H8.70971C8.22787 34.8387 7.83875 35.2279 7.83875 35.7097V40.9355C7.83875 41.4174 8.22787 41.8065 8.70971 41.8065H13.9355C14.4174 41.8065 14.8065 41.4174 14.8065 40.9355V35.7097C14.8065 35.2279 14.4174 34.8387 13.9355 34.8387ZM13.0646 40.0645H9.58068V36.5807H13.0646V40.0645Z" fill="#31363B"/>
<path d="M22.6451 34.8387H17.4193C16.9375 34.8387 16.5483 35.2279 16.5483 35.7097V40.9355C16.5483 41.4174 16.9375 41.8065 17.4193 41.8065H22.6451C23.127 41.8065 23.5161 41.4174 23.5161 40.9355V35.7097C23.5161 35.2279 23.127 34.8387 22.6451 34.8387ZM21.7741 40.0645H18.2903V36.5807H21.7741V40.0645Z" fill="#31363B"/>
<path d="M31.3548 34.8387H26.129C25.6472 34.8387 25.2581 35.2279 25.2581 35.7097V40.9355C25.2581 41.4174 25.6472 41.8065 26.129 41.8065H31.3548C31.8367 41.8065 32.2258 41.4174 32.2258 40.9355V35.7097C32.2258 35.2279 31.8367 34.8387 31.3548 34.8387ZM30.4839 40.0645H27V36.5807H30.4839V40.0645Z" fill="#31363B"/>
<path d="M33.9678 35.7097V49.6452C33.9678 50.127 34.3569 50.5162 34.8387 50.5162H40.0646C40.5464 50.5162 40.9355 50.127 40.9355 49.6452V35.7097C40.9355 35.2279 40.5464 34.8387 40.0646 34.8387H34.8387C34.3569 34.8387 33.9678 35.2279 33.9678 35.7097ZM35.7097 36.5807H39.1936V48.7742H35.7097V36.5807Z" fill="#31363B"/>
<path d="M13.9355 43.5483H8.70971C8.22787 43.5483 7.83875 43.9375 7.83875 44.4193V49.6451C7.83875 50.1269 8.22787 50.5161 8.70971 50.5161H13.9355C14.4174 50.5161 14.8065 50.1269 14.8065 49.6451V44.4193C14.8065 43.9375 14.4174 43.5483 13.9355 43.5483ZM13.0646 48.7741H9.58068V45.2903H13.0646V48.7741Z" fill="#31363B"/>
<path d="M22.6451 43.5483H17.4193C16.9375 43.5483 16.5483 43.9375 16.5483 44.4193V49.6451C16.5483 50.1269 16.9375 50.5161 17.4193 50.5161H22.6451C23.127 50.5161 23.5161 50.1269 23.5161 49.6451V44.4193C23.5161 43.9375 23.127 43.5483 22.6451 43.5483ZM21.7741 48.7741H18.2903V45.2903H21.7741V48.7741Z" fill="#31363B"/>
<path d="M31.3548 43.5483H26.129C25.6472 43.5483 25.2581 43.9375 25.2581 44.4193V49.6451C25.2581 50.1269 25.6472 50.5161 26.129 50.5161H31.3548C31.8367 50.5161 32.2258 50.1269 32.2258 49.6451V44.4193C32.2258 43.9375 31.8367 43.5483 31.3548 43.5483ZM30.4839 48.7741H27V45.2903H30.4839V48.7741Z" fill="#31363B"/>
</svg>
