<svg width="54" height="54" viewBox="0 0 54 54" fill="none" xmlns="http://www.w3.org/2000/svg">
<path d="M27 1.80005H25.2V7.20005H27V1.80005Z" fill="#31363C"/>
<path d="M47.7 31.5V22.5C47.7 22.003 47.297 21.6 46.8 21.6H43.2V17.1C43.2 16.603 42.797 16.2 42.3 16.2H36.747C36.1674 12.667 33.8608 9.65731 30.6 8.17918V5.39998H28.8V8.77498C28.7998 9.14578 29.027 9.47878 29.3724 9.61378C33.9983 11.4146 36.2886 16.6246 34.4877 21.2504C34.4419 21.3679 34.3937 21.4844 34.3431 21.6H28.17C29.098 20.5409 28.9917 18.93 27.9326 18.002C27.7658 17.8558 27.5805 17.732 27.3816 17.6337L25.6275 16.7562C25.2477 16.5665 25.0937 16.1049 25.2834 15.7251C25.4131 15.4654 25.6782 15.3009 25.9686 15.3H26.2314C26.6556 15.3004 26.9996 15.6443 27 16.0686V16.2H28.8V16.0686C28.7958 14.9503 28.0675 13.9637 27 13.6305V12.6H25.2V13.6305C23.8501 14.0503 23.0963 15.4849 23.5161 16.8348C23.7236 17.5018 24.1947 18.0551 24.8202 18.3663L26.5743 19.2438C26.9541 19.4335 27.1081 19.895 26.9184 20.2748C26.7884 20.5352 26.5224 20.6998 26.2314 20.7H25.9686C25.5444 20.6995 25.2005 20.3556 25.2 19.9314V19.8H23.4V19.9314C23.4021 20.5453 23.6258 21.1378 24.03 21.6H17.8569C17.3561 20.466 17.0982 19.2396 17.1 18C17.1066 14.4837 19.1536 11.2909 22.3461 9.81718C22.5045 9.74518 22.6653 9.67711 22.8285 9.61288C23.1732 9.47776 23.4 9.14521 23.4 8.77498V3.59998H21.6V8.18008H21.5946C18.3525 9.67869 16.057 12.6787 15.4584 16.2H7.20001C5.21179 16.2 3.60001 17.8118 3.60001 19.8V50.4C3.60001 52.3882 5.21179 54 7.20001 54H46.8C47.297 54 47.7 53.597 47.7 53.1V44.1C49.1912 44.1 50.4 42.8912 50.4 41.4V34.2C50.4 32.7088 49.1912 31.5 47.7 31.5ZM36.9 18H41.4V21.6H36.27C36.6858 20.4452 36.8989 19.2274 36.9 18ZM7.20001 52.2C6.20584 52.2 5.40001 51.3941 5.40001 50.4V22.8996C5.94484 23.2235 6.56618 23.3963 7.20001 23.4V52.2ZM5.40001 19.8C5.40001 18.8058 6.20584 18 7.20001 18H15.3C15.3011 19.2274 15.5142 20.4452 15.93 21.6H7.20001C6.20584 21.6 5.40001 20.7941 5.40001 19.8ZM45.9 52.2H9.00001V23.4H45.9V31.5H34.2C30.7206 31.5 27.9 34.3206 27.9 37.8C27.9 41.2794 30.7206 44.1 34.2 44.1H45.9V52.2ZM48.6 41.4C48.6 41.897 48.197 42.3 47.7 42.3H34.2C31.7148 42.3 29.7 40.2852 29.7 37.8C29.7 35.3147 31.7148 33.3 34.2 33.3H47.7C48.197 33.3 48.6 33.703 48.6 34.2V41.4Z" fill="#31363C"/>
<path d="M34.2 35.1C32.7088 35.1 31.5 36.3088 31.5 37.8C31.5 39.2912 32.7088 40.5 34.2 40.5C35.6912 40.5 36.9 39.2912 36.9 37.8C36.9 36.3088 35.6912 35.1 34.2 35.1ZM34.2 38.7C33.703 38.7 33.3 38.297 33.3 37.8C33.3 37.303 33.703 36.9 34.2 36.9C34.697 36.9 35.1 37.303 35.1 37.8C35.1 38.297 34.697 38.7 34.2 38.7Z" fill="#31363C"/>
<path d="M30.6 1.80005H28.8V3.60005H30.6V1.80005Z" fill="#31363C"/>
<path d="M23.4 0H21.6V1.8H23.4V0Z" fill="#31363C"/>
<path d="M32.4 17.1H30.6V18.9H32.4V17.1Z" fill="#31363C"/>
<path d="M21.6 17.1H19.8V18.9H21.6V17.1Z" fill="#31363C"/>
</svg>
