<svg width="54" height="54" viewBox="0 0 54 54" fill="none" xmlns="http://www.w3.org/2000/svg">
<g clip-path="url(#clip0)">
<path d="M51.1341 16.6613H41.9768C40.3965 16.6613 39.1109 17.9476 39.1109 19.5288V30.0687H35.6857C35.876 29.3767 35.9466 28.5605 35.9003 27.6107V27.6106C35.8259 23.5965 35.0976 20.2135 33.7352 17.5555C32.6774 15.4918 31.4429 14.2545 30.3835 13.5149C31.6269 12.2365 32.3458 10.4179 32.3458 8.32043C32.3458 4.54665 29.3354 1.47656 25.6352 1.47656C21.9351 1.47656 18.9247 4.54665 18.9247 8.32043C18.9247 8.75739 19.2788 9.11145 19.7157 9.11145H20.2532C20.2037 9.40992 20.1773 9.71409 20.1773 10.023C20.1773 12.6825 22.0777 14.9053 24.5901 15.4034C24.3268 16.3813 24.1959 17.5344 24.1964 18.8443L22.2235 20.5412L17.4231 20.9294L11.8857 19.0989C11.3782 18.9302 10.803 18.7395 10.3039 19.0993C9.81207 19.4542 9.81207 20.0756 9.81207 20.2796V24.3966C9.81207 24.8336 10.1662 25.1876 10.6031 25.1876H11.5448L10.1004 30.1788C9.97903 30.5984 10.2208 31.0371 10.6404 31.1585C11.0603 31.2806 11.4987 31.0382 11.6202 30.6186L13.1919 25.1876H15.4407C12.6437 33.7171 14.2397 39.4105 16.6928 45.1724H15.2708L9.34843 38.5504L10.6008 34.2241C10.7223 33.8044 10.4805 33.3658 10.0609 33.2444C9.64121 33.123 9.20257 33.3647 9.08107 33.7843L7.88326 37.9226C4.17857 37.8608 0.864739 40.415 0.0202512 44.0898C-0.0775184 44.5155 0.188157 44.9399 0.613724 45.0378L1.73665 45.2962C1.44977 48.2759 3.41202 51.0872 6.40459 51.776C6.85906 51.8807 7.31742 51.9324 7.77262 51.9324C8.89523 51.9324 9.99812 51.6177 10.9736 51.0063C12.1185 50.2889 12.9715 49.2342 13.4331 47.9878L14.3192 48.1916C14.5832 48.2527 14.8335 48.2836 15.0837 48.1489C15.3165 48.0236 15.4712 47.7974 15.5292 47.542C15.5849 47.2831 15.6273 47.02 15.6567 46.7544H32.2003C32.7294 50.0437 35.528 52.5231 38.8704 52.5231C42.2128 52.5231 45.0115 50.0437 45.5406 46.7544H46.1443C46.1443 46.7544 46.2641 46.7558 46.2914 46.7558C46.5176 46.7558 46.8444 46.7307 47.1127 46.4577C47.2469 46.3211 47.4045 46.0768 47.3924 45.6885C47.3701 44.9457 47.2586 44.228 47.0684 43.5458C47.6985 39.7207 47.0922 37.391 46.1935 35.5678C46.7617 35.1953 47.1384 34.5537 47.1384 33.8247V31.6506H51.1339C52.7141 31.6506 53.9998 30.3643 53.9998 28.7832V19.5287C54 17.9476 52.7144 16.6613 51.1341 16.6613ZM10.1335 49.666C9.12094 50.3006 7.92281 50.5023 6.7597 50.2346H6.7596C4.61879 49.7418 3.19054 47.7787 3.29463 45.6561L11.8748 47.6308C11.5198 48.4667 10.9192 49.1736 10.1335 49.666ZM14.0916 46.516L1.78706 43.6846C2.7366 41.0844 5.29189 39.3632 8.08502 39.5112L14.1127 46.2508C14.1074 46.3397 14.1004 46.4281 14.0916 46.516ZM26.0396 32.7318C25.81 33.3374 25.81 34.084 25.81 35.1175V38.1025H22.9135V34.0073C22.9135 29.3775 25.4403 28.5524 26.5743 28.4162H34.3293C34.2981 29.467 34.061 30.2139 33.6109 30.688C33.0863 31.2405 32.1886 31.5096 30.8665 31.5109L28.0272 31.5139C27.0147 31.514 26.346 31.9236 26.0396 32.7318ZM25.81 39.6844V41.5731C25.8028 41.5731 25.7954 41.5731 25.7878 41.5731H20.1692C20.2324 40.9874 20.4148 40.5341 20.7145 40.2204C21.1602 39.754 21.7879 39.6844 22.1225 39.6844H25.81ZM34.2944 26.8343H27.1007C26.8118 25.9253 26.5543 24.9299 26.3425 23.9068L28.5296 22.4872C29.7235 21.7119 30.3446 20.6164 30.2337 19.4814C30.1354 18.4754 29.4514 17.5767 28.4912 17.192C27.6144 16.8408 26.6705 16.9511 25.8364 17.4845C25.9051 16.7279 26.0332 16.0524 26.2184 15.4791C26.5556 15.4443 26.8904 15.3784 27.2193 15.2817C27.8887 15.1262 28.5073 14.8785 29.0657 14.5499C30.5892 15.4601 33.9399 18.4124 34.2944 26.8343ZM20.5646 7.52952C20.9377 5.00207 23.0694 3.0587 25.6352 3.0587C28.4631 3.0587 30.7638 5.4192 30.7638 8.32054C30.7638 10.6803 29.6322 12.5822 27.8076 13.4192V9.2571C27.8076 8.53643 27.5318 7.65239 26.2183 7.53279C26.1944 7.53057 26.1705 7.52952 26.1465 7.52952H20.5646ZM21.7595 10.0231C21.7595 9.71093 21.795 9.40602 21.8649 9.11155H26.1077C26.1566 9.11682 26.1922 9.12252 26.2177 9.12769C26.2219 9.15701 26.2254 9.1992 26.2254 9.2571V13.8846C26.037 13.9124 25.8473 13.9264 25.6578 13.9265C25.656 13.9265 25.6542 13.9265 25.6525 13.9265C23.5056 13.9245 21.7595 12.1743 21.7595 10.0231ZM20.734 22.2491L22.6075 22.0975C22.7745 22.0841 22.9328 22.018 23.0599 21.9088L26.4412 19.0005L26.4418 19C26.7687 18.7183 27.1177 18.5738 27.4575 18.5738C27.6088 18.5738 27.7582 18.6025 27.903 18.6605C28.321 18.8279 28.6178 19.2105 28.6593 19.6351C28.7115 20.1695 28.3595 20.7112 27.6684 21.1601L23.9005 23.6057H20.7342V22.2491H20.734ZM17.3911 22.5195L19.152 22.3771V23.6059H17.1058C16.8405 23.6059 16.7759 23.3855 16.7683 23.2006C16.7639 23.0958 16.7739 22.5701 17.3911 22.5195ZM15.5189 21.9734C15.2806 22.364 15.1694 22.821 15.1876 23.2654C15.1924 23.3804 15.207 23.4913 15.2275 23.5993C15.2275 23.6015 15.2262 23.6037 15.2266 23.6058H11.3943V20.6028L15.5219 21.9672C15.5207 21.9694 15.52 21.9714 15.5189 21.9734ZM17.1102 25.1878H24.1345C24.2873 25.1878 24.437 25.1435 24.5651 25.0603L24.9232 24.8279C25.0954 25.5891 25.2916 26.33 25.5053 27.0296C23.892 27.5058 21.3314 29.0447 21.3314 34.0072V38.1818C20.7764 38.2938 20.1199 38.5526 19.5707 39.1273C18.9918 39.7331 18.6611 40.554 18.5818 41.573H16.9861C15.3781 36.939 14.7666 32.0077 17.1102 25.1878ZM18.414 45.1697C18.1216 44.4974 17.8398 43.8275 17.5745 43.1552H25.7877C26.8522 43.1552 27.3919 42.6705 27.3919 41.7149V38.8934V35.9084H33.6356C34.0725 35.9084 34.4266 35.5544 34.4266 35.1174C34.4266 34.6804 34.0725 34.3264 33.6356 34.3264H27.3976C27.4077 33.8771 27.4365 33.5096 27.5189 33.2926C27.5589 33.187 27.5935 33.0959 28.0279 33.0959L30.868 33.0929C32.6467 33.0912 33.9192 32.6609 34.7582 31.7773C34.797 31.7364 34.8337 31.6935 34.8705 31.6508H39.902H45.5567V33.8248C45.5567 34.0967 45.3275 34.3264 45.0562 34.3264H37.1814C36.7445 34.3264 36.3904 34.6804 36.3904 35.1174C36.3904 35.5544 36.7445 35.9084 37.1814 35.9084H44.5914C45.2167 37.0689 45.779 38.5129 45.7456 40.7943C44.1806 38.6204 41.6472 37.2227 38.7719 37.2227C36.4628 37.2227 34.296 38.1284 32.6706 39.7732C31.2283 41.2326 30.3621 43.1267 30.1839 45.1724L18.414 45.1697ZM38.8705 50.9413C36.3977 50.9413 34.3121 49.1596 33.8076 46.7546H43.9334C43.4288 49.1594 41.3432 50.9413 38.8705 50.9413ZM44.832 45.1726H32.9092H31.7728C32.1611 41.5958 35.1518 38.8047 38.7719 38.8047C41.9502 38.8047 44.6193 40.9005 45.5032 43.8343C45.5061 43.8436 45.5089 43.8529 45.5121 43.862C45.6371 44.283 45.7253 44.7211 45.7731 45.1726H44.832ZM52.418 28.7833C52.418 29.4921 51.842 30.0687 51.1341 30.0687H40.6929V25.9838H52.418V28.7833ZM52.418 24.4018H40.6929V22.7194H52.418V24.4018ZM52.418 21.1374H40.6929V19.5288C40.6929 18.82 41.2689 18.2434 41.9768 18.2434H51.1341C51.842 18.2434 52.418 18.8201 52.418 19.5288V21.1374Z" fill="#31363B"/>
</g>
<defs>
<clipPath id="clip0">
<rect width="54" height="54" fill="white"/>
</clipPath>
</defs>
</svg>
