<svg width="12" height="12" viewBox="0 0 12 12" fill="none" xmlns="http://www.w3.org/2000/svg">
<path d="M8.96617 5.46975C8.90542 5.3355 8.77192 5.25 8.62492 5.25H7.12492V0.375C7.12492 0.168 6.95692 0 6.74992 0H5.24992C5.04292 0 4.87492 0.168 4.87492 0.375V5.25H3.37492C3.22792 5.25 3.09442 5.33625 3.03367 5.46975C2.97217 5.604 2.99617 5.76075 3.09292 5.87175L5.71792 8.87175C5.78917 8.9535 5.89192 9 5.99992 9C6.10792 9 6.21067 8.95275 6.28192 8.87175L8.90692 5.87175C9.00442 5.7615 9.02692 5.604 8.96617 5.46975Z" fill="#54595F"/>
<path d="M10.125 8.25V10.5H1.875V8.25H0.375V11.25C0.375 11.6648 0.711 12 1.125 12H10.875C11.2898 12 11.625 11.6648 11.625 11.25V8.25H10.125Z" fill="#54595F"/>
</svg>
