<svg width="35" height="35" viewBox="0 0 35 35" fill="none" xmlns="http://www.w3.org/2000/svg">
<path d="M11.6667 34.0085V25.9585L5.65833 30.3918C7.34999 31.9668 9.39166 33.1918 11.6667 34.0085Z" fill="#2A5F9E"/>
<path d="M23.3333 34.0087C25.6083 33.1921 27.65 31.9671 29.3416 30.3921L23.3333 25.9004V34.0087Z" fill="#2A5F9E"/>
<path d="M0.991638 23.3335C1.16664 23.9168 1.39997 24.4418 1.69164 25.0252L3.96664 23.3335H0.991638Z" fill="#2A5F9E"/>
<path d="M31.0333 23.3335L33.3083 25.0252C33.5417 24.5002 33.775 23.9168 34.0083 23.3335H31.0333Z" fill="#2A5F9E"/>
<path d="M12.5416 21H0.349976C0.524976 21.8167 0.758309 22.575 0.991642 23.3333H3.96664L1.69164 25.025C2.15831 26.0167 2.68331 26.8917 3.32498 27.7667L9.33331 23.3333H11.6666V24.5L4.84164 29.5167L5.65831 30.3333L11.6666 25.9583V34.0083C12.425 34.3 13.1833 34.475 14 34.65V21H12.5416Z" fill="white"/>
<path d="M34.65 21H21V34.65C21.8167 34.475 22.575 34.2417 23.3333 34.0083V25.9583L29.3417 30.3333C30.1583 29.575 30.8583 28.7583 31.5583 27.8833L25.3167 23.3333H29.2833L32.8417 25.9583C33.0167 25.6667 33.1917 25.3167 33.3083 25.025L31.0333 23.3333H34.0083C34.2417 22.575 34.475 21.8167 34.65 21Z" fill="white"/>
<path d="M3.32501 27.7666C3.79168 28.4083 4.25835 28.9916 4.78335 29.5749L11.6667 24.5583V23.3916H9.33335L3.32501 27.7666Z" fill="#ED4C5C"/>
<path d="M25.375 23.3335L31.6167 27.8835C31.85 27.5918 32.025 27.3002 32.2583 27.0085C32.3167 26.9502 32.3167 26.8918 32.375 26.8918C32.55 26.6002 32.7833 26.2502 32.9583 25.9585L29.2833 23.3335H25.375Z" fill="#ED4C5C"/>
<path d="M23.3333 0.991699V9.0417L29.3416 4.60837C27.65 3.03337 25.6083 1.80837 23.3333 0.991699Z" fill="#2A5F9E"/>
<path d="M11.6667 0.991699C9.39166 1.80837 7.34999 3.03337 5.65833 4.60837L11.6667 9.10003V0.991699Z" fill="#2A5F9E"/>
<path d="M34.0083 11.6668C33.8333 11.0834 33.6 10.5584 33.3083 9.9751L31.0333 11.6668H34.0083Z" fill="#2A5F9E"/>
<path d="M3.96664 11.6668L1.69164 9.9751C1.4583 10.5584 1.22497 11.0834 0.991638 11.6668H3.96664Z" fill="#2A5F9E"/>
<path d="M22.4583 14.0001H34.5917C34.4167 13.1834 34.1833 12.4251 33.95 11.6668H30.975L33.25 9.9751C32.7833 8.98343 32.2583 8.10843 31.6167 7.23343L25.6667 11.6668H23.3333V10.5001L30.1583 5.48343L29.3417 4.66676L23.3333 9.04176V0.991764C22.575 0.700098 21.8167 0.525098 21 0.350098V14.0001H22.4583Z" fill="white"/>
<path d="M0.349976 14.0001H14V0.350098C13.1833 0.525098 12.425 0.758431 11.6666 0.991764V9.04176L5.65831 4.66676C4.84164 5.4251 4.14164 6.24176 3.44164 7.11676L9.68331 11.6668H5.71664L2.15831 9.04176C1.98331 9.33343 1.80831 9.68343 1.69164 9.9751L3.96664 11.6668H0.991642C0.758309 12.4251 0.524976 13.1834 0.349976 14.0001Z" fill="white"/>
<path d="M31.675 7.23314C31.2083 6.59147 30.7416 6.00814 30.2166 5.4248L23.3333 10.4415V11.6081H25.6666L31.675 7.23314Z" fill="#ED4C5C"/>
<path d="M9.62498 11.6667L3.44164 7.1167C3.20831 7.40837 3.03331 7.70003 2.79998 7.9917C2.74164 8.05003 2.74164 8.10837 2.68331 8.10837C2.50831 8.40003 2.27498 8.75003 2.09998 9.0417L5.65831 11.6667H9.62498Z" fill="#ED4C5C"/>
<path d="M34.65 14H21V0.35C19.8917 0.116667 18.725 0 17.5 0C16.275 0 15.1083 0.116667 14 0.35V14H0.35C0.116667 15.1083 0 16.275 0 17.5C0 18.725 0.116667 19.8917 0.35 21H14V34.65C15.1083 34.8833 16.275 35 17.5 35C18.725 35 19.8917 34.8833 21 34.65V21H34.65C34.8833 19.8917 35 18.725 35 17.5C35 16.275 34.8833 15.1083 34.65 14Z" fill="#ED4C5C"/>
</svg>
