<svg width="14" height="14" viewBox="0 0 14 14" fill="none" xmlns="http://www.w3.org/2000/svg">
<path d="M10.052 8.4C10.108 7.938 10.15 7.476 10.15 7C10.15 6.524 10.108 6.062 10.052 5.6H12.418C12.53 6.048 12.6 6.517 12.6 7C12.6 7.483 12.53 7.952 12.418 8.4H10.052ZM8.813 12.292C9.233 11.515 9.555 10.675 9.779 9.8H11.844C11.1658 10.9678 10.0899 11.8524 8.813 12.292ZM8.638 8.4H5.362C5.292 7.938 5.25 7.476 5.25 7C5.25 6.524 5.292 6.055 5.362 5.6H8.638C8.701 6.055 8.75 6.524 8.75 7C8.75 7.476 8.701 7.938 8.638 8.4ZM7 12.572C6.419 11.732 5.95 10.801 5.663 9.8H8.337C8.05 10.801 7.581 11.732 7 12.572ZM4.2 4.2H2.156C2.8272 3.02905 3.90236 2.14304 5.18 1.708C4.76 2.485 4.445 3.325 4.2 4.2ZM2.156 9.8H4.2C4.445 10.675 4.76 11.515 5.18 12.292C3.90504 11.8522 2.83139 10.9674 2.156 9.8ZM1.582 8.4C1.47 7.952 1.4 7.483 1.4 7C1.4 6.517 1.47 6.048 1.582 5.6H3.948C3.892 6.062 3.85 6.524 3.85 7C3.85 7.476 3.892 7.938 3.948 8.4H1.582ZM7 1.421C7.581 2.261 8.05 3.199 8.337 4.2H5.663C5.95 3.199 6.419 2.261 7 1.421ZM11.844 4.2H9.779C9.55992 3.33302 9.2355 2.49613 8.813 1.708C10.101 2.149 11.172 3.038 11.844 4.2ZM7 0C3.129 0 0 3.15 0 7C0 8.85651 0.737498 10.637 2.05025 11.9497C2.70026 12.5998 3.47194 13.1154 4.32122 13.4672C5.17049 13.8189 6.08075 14 7 14C8.85651 14 10.637 13.2625 11.9497 11.9497C13.2625 10.637 14 8.85651 14 7C14 6.08075 13.8189 5.17049 13.4672 4.32122C13.1154 3.47194 12.5998 2.70026 11.9497 2.05025C11.2997 1.40024 10.5281 0.884626 9.67878 0.532843C8.8295 0.18106 7.91925 0 7 0Z" fill="#54595F"/>
</svg>
