<svg width="35" height="35" viewBox="0 0 35 35" fill="none" xmlns="http://www.w3.org/2000/svg">
<path d="M0.401611 17.4628C0.401611 25.0881 5.22128 31.5493 11.877 33.9358V0.989746C5.22128 3.3763 0.401611 9.83745 0.401611 17.4628Z" fill="#75A843"/>
<path d="M34.8279 17.4628C34.8279 9.83745 30.0082 3.3763 23.3525 0.989746V33.9358C30.0656 31.5493 34.8279 25.0881 34.8279 17.4628Z" fill="#ED4C5C"/>
<path d="M11.8771 33.9356C13.6558 34.5759 15.6066 34.9252 17.6148 34.9252C19.623 34.9252 21.5738 34.5759 23.3525 33.9356V0.989546C21.5738 0.349252 19.623 0 17.6148 0C15.6066 0 13.6558 0.349252 11.8771 0.989546V33.9356Z" fill="white"/>
</svg>
