<svg width="1283" height="3226" viewBox="0 0 1283 3226" fill="none" xmlns="http://www.w3.org/2000/svg">
<g opacity="0.3">
<path d="M812.963 1775.2L742.385 1948.36C742.737 1948.27 743.089 1948.18 743.442 1948.09C905.419 1906.84 1170.49 1567.88 1283 1403.2H812.963V1775.2Z" fill="url(#paint0_linear)"/>
<path fill-rule="evenodd" clip-rule="evenodd" d="M470.488 770.8L752.313 64L640.279 770.8H470.488ZM655.194 2481.39C601.759 2480.9 550.599 2470.43 531.698 2465.26L221.625 3226L655.194 2481.39Z" fill="url(#paint1_linear)"/>
<path d="M657.925 659.47C605.785 660.987 554.858 668.87 505.69 682.516L70 1775.2L255.635 1775.2C233.678 1711.82 221.625 1642.65 221.625 1570.6C221.625 1308.11 381.61 1083.69 597.735 1039.2L657.925 659.47Z" fill="url(#paint2_linear)"/>
<path d="M635.965 1775.2L812.963 1775.2L742.349 1948.45C742.713 1948.33 743.078 1948.21 743.442 1948.09C879.505 1903.67 979.75 1751.5 979.75 1570.6C979.75 1510.69 968.756 1453.94 949.108 1403.2H646.301C626.623 1466.79 615.85 1535.75 615.85 1607.8C615.85 1666.02 622.884 1722.22 635.965 1775.2Z" fill="url(#paint3_linear)"/>
<path d="M572.91 1775.2C561.356 1721.78 555.2 1665.67 555.2 1607.8C555.2 1536.32 564.59 1467.54 581.939 1403.2L540.038 1403.2L573.003 1195.23C440.122 1242.2 342.925 1392.47 342.925 1570.6C342.925 1645.62 360.165 1715.7 390.05 1775.2H572.91Z" fill="url(#paint4_linear)"/>
<path d="M719.821 2370.4L920.32 2026.06L1283 1403.2C1170.49 1567.88 905.419 1906.84 743.442 1948.09C743.078 1948.21 742.713 1948.33 742.349 1948.45L676.5 2110L570.363 2370.4H719.821Z" fill="url(#paint5_linear)"/>
<path d="M255.635 1775.2L812.963 1775.2L635.965 1775.2C622.884 1722.22 615.85 1666.02 615.85 1607.8C615.85 1535.75 626.623 1466.79 646.301 1403.2H581.939C564.59 1467.54 555.2 1536.32 555.2 1607.8C555.2 1665.67 561.356 1721.78 572.91 1775.2H390.05C360.165 1715.7 342.925 1645.62 342.925 1570.6C342.925 1392.47 440.122 1242.2 573.003 1195.23L597.735 1039.2C381.61 1083.69 221.625 1308.11 221.625 1570.6C221.625 1642.65 233.678 1711.82 255.635 1775.2Z" fill="url(#paint6_linear)"/>
<path d="M719.821 2370.4H570.363L531.698 2465.26C550.599 2470.43 601.759 2480.9 655.194 2481.39L719.821 2370.4Z" fill="url(#paint7_linear)"/>
</g>
<path d="M742.963 1711.2L672.385 1884.36C672.737 1884.27 673.089 1884.18 673.442 1884.09C835.419 1842.84 1100.49 1503.88 1213 1339.2H742.963V1711.2Z" fill="url(#paint8_linear)"/>
<path fill-rule="evenodd" clip-rule="evenodd" d="M400.488 706.8L682.313 0L570.279 706.8H400.488ZM585.194 2417.39C531.759 2416.9 480.599 2406.43 461.698 2401.26L151.625 3162L585.194 2417.39Z" fill="url(#paint9_linear)"/>
<path d="M587.925 595.47C535.785 596.987 484.858 604.87 435.69 618.516L0 1711.2L185.635 1711.2C163.678 1647.82 151.625 1578.65 151.625 1506.6C151.625 1244.11 311.61 1019.69 527.735 975.2L587.925 595.47Z" fill="url(#paint10_linear)"/>
<path d="M565.965 1711.2L742.963 1711.2L672.349 1884.45C672.713 1884.33 673.078 1884.21 673.442 1884.09C809.505 1839.67 909.75 1687.5 909.75 1506.6C909.75 1446.69 898.756 1389.94 879.108 1339.2H576.301C556.623 1402.79 545.85 1471.75 545.85 1543.8C545.85 1602.02 552.884 1658.22 565.965 1711.2Z" fill="url(#paint11_linear)"/>
<path d="M502.91 1711.2C491.356 1657.78 485.2 1601.67 485.2 1543.8C485.2 1472.32 494.59 1403.54 511.939 1339.2L470.038 1339.2L503.003 1131.23C370.122 1178.2 272.925 1328.47 272.925 1506.6C272.925 1581.62 290.165 1651.7 320.05 1711.2H502.91Z" fill="url(#paint12_linear)"/>
<path d="M649.821 2306.4L850.32 1962.06L1213 1339.2C1100.49 1503.88 835.419 1842.84 673.442 1884.09C673.078 1884.21 672.713 1884.33 672.349 1884.45L606.5 2046L500.363 2306.4H649.821Z" fill="url(#paint13_linear)"/>
<path d="M185.635 1711.2L742.963 1711.2L565.965 1711.2C552.884 1658.22 545.85 1602.02 545.85 1543.8C545.85 1471.75 556.623 1402.79 576.301 1339.2H511.939C494.59 1403.54 485.2 1472.32 485.2 1543.8C485.2 1601.67 491.356 1657.78 502.91 1711.2H320.05C290.165 1651.7 272.925 1581.62 272.925 1506.6C272.925 1328.47 370.122 1178.2 503.003 1131.23L527.735 975.2C311.61 1019.69 151.625 1244.11 151.625 1506.6C151.625 1578.65 163.678 1647.82 185.635 1711.2Z" fill="url(#paint14_linear)"/>
<path d="M649.821 2306.4H500.363L461.698 2401.26C480.599 2406.43 531.759 2416.9 585.194 2417.39L649.821 2306.4Z" fill="url(#paint15_linear)"/>
<defs>
<linearGradient id="paint0_linear" x1="229.206" y1="1030.71" x2="1034.84" y2="2166.76" gradientUnits="userSpaceOnUse">
<stop stop-color="#ECECEC"/>
<stop offset="1" stop-color="#DFDFDF"/>
</linearGradient>
<linearGradient id="paint1_linear" x1="229.206" y1="1030.71" x2="1034.84" y2="2166.76" gradientUnits="userSpaceOnUse">
<stop stop-color="#ECECEC"/>
<stop offset="1" stop-color="#DFDFDF"/>
</linearGradient>
<linearGradient id="paint2_linear" x1="229.206" y1="1030.71" x2="1034.84" y2="2166.76" gradientUnits="userSpaceOnUse">
<stop stop-color="#ECECEC"/>
<stop offset="1" stop-color="#DFDFDF"/>
</linearGradient>
<linearGradient id="paint3_linear" x1="229.206" y1="1030.71" x2="1034.84" y2="2166.76" gradientUnits="userSpaceOnUse">
<stop stop-color="#ECECEC"/>
<stop offset="1" stop-color="#DFDFDF"/>
</linearGradient>
<linearGradient id="paint4_linear" x1="229.206" y1="1030.71" x2="1034.84" y2="2166.76" gradientUnits="userSpaceOnUse">
<stop stop-color="#ECECEC"/>
<stop offset="1" stop-color="#DFDFDF"/>
</linearGradient>
<linearGradient id="paint5_linear" x1="229.206" y1="1030.71" x2="1034.84" y2="2166.76" gradientUnits="userSpaceOnUse">
<stop stop-color="#ECECEC"/>
<stop offset="1" stop-color="#DFDFDF"/>
</linearGradient>
<linearGradient id="paint6_linear" x1="229.206" y1="1030.71" x2="1034.84" y2="2166.76" gradientUnits="userSpaceOnUse">
<stop stop-color="#ECECEC"/>
<stop offset="1" stop-color="#DFDFDF"/>
</linearGradient>
<linearGradient id="paint7_linear" x1="229.206" y1="1030.71" x2="1034.84" y2="2166.76" gradientUnits="userSpaceOnUse">
<stop stop-color="#ECECEC"/>
<stop offset="1" stop-color="#DFDFDF"/>
</linearGradient>
<linearGradient id="paint8_linear" x1="159.206" y1="966.714" x2="964.84" y2="2102.76" gradientUnits="userSpaceOnUse">
<stop stop-color="#E6E6E6"/>
<stop offset="1" stop-color="#FAFAFA"/>
</linearGradient>
<linearGradient id="paint9_linear" x1="159.206" y1="966.714" x2="964.84" y2="2102.76" gradientUnits="userSpaceOnUse">
<stop stop-color="#E6E6E6"/>
<stop offset="1" stop-color="#FAFAFA"/>
</linearGradient>
<linearGradient id="paint10_linear" x1="159.206" y1="966.714" x2="964.84" y2="2102.76" gradientUnits="userSpaceOnUse">
<stop stop-color="#E6E6E6"/>
<stop offset="1" stop-color="#FAFAFA"/>
</linearGradient>
<linearGradient id="paint11_linear" x1="159.206" y1="966.714" x2="964.84" y2="2102.76" gradientUnits="userSpaceOnUse">
<stop stop-color="#E6E6E6"/>
<stop offset="1" stop-color="#FAFAFA"/>
</linearGradient>
<linearGradient id="paint12_linear" x1="159.206" y1="966.714" x2="964.84" y2="2102.76" gradientUnits="userSpaceOnUse">
<stop stop-color="#E6E6E6"/>
<stop offset="1" stop-color="#FAFAFA"/>
</linearGradient>
<linearGradient id="paint13_linear" x1="159.206" y1="966.714" x2="964.84" y2="2102.76" gradientUnits="userSpaceOnUse">
<stop stop-color="#E6E6E6"/>
<stop offset="1" stop-color="#FAFAFA"/>
</linearGradient>
<linearGradient id="paint14_linear" x1="159.206" y1="966.714" x2="964.84" y2="2102.76" gradientUnits="userSpaceOnUse">
<stop stop-color="#E6E6E6"/>
<stop offset="1" stop-color="#FAFAFA"/>
</linearGradient>
<linearGradient id="paint15_linear" x1="159.206" y1="966.714" x2="964.84" y2="2102.76" gradientUnits="userSpaceOnUse">
<stop stop-color="#E6E6E6"/>
<stop offset="1" stop-color="#FAFAFA"/>
</linearGradient>
</defs>
</svg>
