<svg width="837" height="663" viewBox="0 0 837 663" fill="none" xmlns="http://www.w3.org/2000/svg">
<g filter="url(#filter0_d)">
<path d="M429.714 590.949V612.177L805.474 520.43C806.37 520.212 807 519.409 807 518.488V498.831L429.714 590.949Z" fill="url(#paint0_linear)"/>
<path d="M30 421.131V441.035C30 441.837 30.4795 442.562 31.218 442.875L429.714 612.177V590.949L229.857 506.04L30 421.131Z" fill="url(#paint1_linear)"/>
<path d="M429.714 590.949L807 498.831L607.143 413.921L589.32 406.349L571.497 398.777L553.674 391.205L544.801 387.58C544.401 389.256 543.995 390.937 543.582 392.622C540.678 404.472 537.445 416.534 533.848 428.74C500.526 541.846 450.541 584.007 429.714 590.949Z" fill="url(#paint2_linear)"/>
<path d="M429.714 590.949V612.177L805.474 520.43C806.37 520.212 807 519.409 807 518.488V498.831L429.714 590.949Z" fill="url(#paint3_linear)"/>
<path d="M463.974 564.894L569.328 539.196L561.275 535.778L458.619 560.818C457.684 561.047 457.579 562.334 458.465 562.711L463.524 564.858C463.666 564.918 463.824 564.931 463.974 564.894Z" fill="#DAD0BB"/>
<path d="M442.154 553.831C441.219 554.059 441.115 555.347 442.001 555.723L447.004 557.846C447.203 557.93 447.423 557.948 447.632 557.897L566.435 528.897L558.412 525.472L442.154 553.831Z" fill="#DAD0BB"/>
<path d="M425.869 546.919C424.934 547.147 424.83 548.435 425.716 548.811L430.689 550.921C430.887 551.006 431.107 551.023 431.316 550.972L559.664 519.665L551.611 516.247L425.869 546.919Z" fill="#DAD0BB"/>
<path d="M410.658 540.463C409.723 540.691 409.618 541.979 410.504 542.355L415.496 544.473C415.694 544.557 415.915 544.575 416.124 544.524L536.221 515.217L528.168 511.799L410.658 540.463Z" fill="#DAD0BB"/>
<path d="M395.626 534.082C394.69 534.31 394.586 535.598 395.472 535.974L400.445 538.085C400.643 538.169 400.863 538.187 401.072 538.136L541.948 503.773L533.895 500.355L395.626 534.082Z" fill="#DAD0BB"/>
<path d="M377.387 528.298L385.44 531.717L511.704 500.918L503.651 497.5L377.387 528.298Z" fill="#DAD0BB"/>
<path d="M614.568 525.644L719.922 499.946L711.869 496.528L609.212 521.568C608.277 521.797 608.173 523.084 609.059 523.461L614.118 525.608C614.26 525.668 614.418 525.681 614.568 525.644Z" fill="#DAD0BB"/>
<path d="M592.748 514.581C591.813 514.809 591.709 516.097 592.595 516.473L597.598 518.596C597.796 518.68 598.017 518.698 598.226 518.647L717.028 489.647L709.006 486.222L592.748 514.581Z" fill="#DAD0BB"/>
<path d="M576.463 507.669C575.528 507.897 575.423 509.185 576.309 509.561L581.282 511.671C581.481 511.756 581.701 511.773 581.91 511.722L710.258 480.415L702.205 476.997L576.463 507.669Z" fill="#DAD0BB"/>
<path d="M561.252 501.213C560.317 501.441 560.212 502.729 561.098 503.105L566.09 505.223C566.288 505.307 566.508 505.325 566.718 505.274L686.815 475.967L678.762 472.549L561.252 501.213Z" fill="#DAD0BB"/>
<path d="M546.219 494.832C545.284 495.06 545.18 496.348 546.066 496.724L551.038 498.835C551.237 498.919 551.457 498.937 551.666 498.886L692.541 464.523L684.488 461.105L546.219 494.832Z" fill="#DAD0BB"/>
<path d="M527.98 489.048L536.034 492.467L662.298 461.668L654.244 458.25L527.98 489.048Z" fill="#DAD0BB"/>
<path d="M520.045 479.985L625.399 454.287L617.346 450.869L514.69 475.909C513.755 476.137 513.65 477.425 514.536 477.801L519.596 479.949C519.738 480.009 519.895 480.022 520.045 479.985Z" fill="#DAD0BB"/>
<path d="M498.226 468.921C497.291 469.149 497.186 470.437 498.072 470.813L503.076 472.937C503.274 473.021 503.494 473.039 503.703 472.988L622.506 443.988L614.483 440.563L498.226 468.921Z" fill="#DAD0BB"/>
<path d="M481.941 462.01C481.006 462.238 480.901 463.526 481.787 463.902L486.76 466.012C486.958 466.096 487.178 466.114 487.388 466.063L615.736 434.756L607.683 431.338L481.941 462.01Z" fill="#DAD0BB"/>
<path d="M466.729 455.553C465.794 455.781 465.69 457.069 466.576 457.445L471.567 459.564C471.766 459.648 471.986 459.666 472.195 459.615L592.292 430.308L584.239 426.89L466.729 455.553Z" fill="#DAD0BB"/>
<path d="M451.697 449.173C450.762 449.401 450.657 450.689 451.543 451.065L456.516 453.176C456.714 453.26 456.934 453.278 457.144 453.227L598.019 418.864L589.966 415.446L451.697 449.173Z" fill="#DAD0BB"/>
<path d="M433.458 443.389L441.511 446.807L567.775 416.009L559.722 412.591L433.458 443.389Z" fill="#DAD0BB"/>
<path fill-rule="evenodd" clip-rule="evenodd" d="M229.857 506.04L429.714 590.949C450.541 584.007 500.526 541.846 533.848 428.74C537.956 414.798 541.591 401.045 544.801 387.58L544.806 387.556C567.357 292.944 568.946 212.495 566.386 179.986C566.327 179.247 565.863 178.637 565.181 178.347L366.433 93.9092L169.631 10.2982C168.245 9.70903 166.725 10.7944 166.828 12.2975C169.494 51.0079 166.494 149.085 134.134 258.922C100.811 372.027 50.8268 414.188 30 421.131L229.857 506.04Z" fill="url(#paint4_linear)"/>
<path d="M30 421.131V441.035C30 441.837 30.4795 442.562 31.218 442.875L429.714 612.177V590.949L229.857 506.04L30 421.131Z" fill="url(#paint5_linear)"/>
<path d="M343.233 217.716C298.663 202.355 246.699 235.843 227.168 292.513C207.637 349.183 227.935 407.575 272.504 422.936C317.074 438.297 369.038 404.81 388.569 348.14C408.1 291.47 387.803 233.077 343.233 217.716Z" fill="url(#paint6_linear)"/>
<path d="M337.011 235.368C373.764 248.034 390.502 296.148 374.417 342.82C358.331 389.492 315.504 417.076 278.751 404.41C241.998 391.743 225.259 343.629 241.345 296.957C257.43 250.285 300.258 222.701 337.011 235.368Z" stroke="url(#paint7_linear)" stroke-width="24"/>
<path d="M236.524 368.812L244.484 363.568C244.682 363.438 244.908 363.503 245.002 363.714C248.643 371.812 250.837 376.031 255.607 381.999C255.736 382.162 255.728 382.438 255.584 382.634L250.613 389.437C250.457 389.651 250.203 389.691 250.053 389.525C247.411 386.592 245.916 384.46 243.639 380.371C243.53 380.176 243.584 379.887 243.76 379.719L245.09 378.452C245.272 378.279 245.515 378.299 245.632 378.495C246.672 380.234 247.397 381.244 248.619 382.648C248.755 382.804 248.985 382.787 249.145 382.609L250.473 381.144C250.638 380.961 250.672 380.674 250.552 380.492C248.337 377.153 247.096 375.132 245.272 371.756C245.168 371.562 244.942 371.524 244.757 371.669L238.592 376.55C238.392 376.708 238.322 377.021 238.436 377.231C242.926 385.515 245.606 390.262 252.526 396.611C252.676 396.748 252.907 396.708 253.056 396.517L260.299 387.207C260.447 387.017 260.678 386.977 260.828 387.111C266.902 392.551 269.722 394.726 276.259 397.805C276.437 397.888 276.514 398.134 276.433 398.37L273.637 406.555C273.549 406.812 273.311 406.961 273.112 406.883C269.606 405.505 267.475 404.313 263.971 401.759C263.804 401.637 263.767 401.36 263.889 401.134L264.808 399.429C264.934 399.196 265.179 399.104 265.355 399.223C266.916 400.277 267.942 400.834 269.578 401.512C269.76 401.588 269.981 401.47 270.084 401.242L270.939 399.364C271.046 399.13 270.991 398.863 270.816 398.758C267.605 396.833 265.759 395.623 262.922 393.491C262.759 393.368 262.524 393.436 262.388 393.646L257.822 400.686C257.674 400.914 257.642 401.376 257.819 401.509C264.796 406.735 268.959 409.524 277.729 411.968C277.921 412.021 278.139 411.878 278.225 411.64L282.281 400.266C282.364 400.032 282.576 399.888 282.766 399.933C290.493 401.74 294.033 402.307 301.447 401.853C301.648 401.841 301.804 402.017 301.802 402.258L301.733 410.649C301.731 410.912 301.547 411.154 301.327 411.181C297.444 411.659 294.968 411.643 290.703 411.106C290.5 411.08 290.374 410.858 290.419 410.605L290.762 408.697C290.809 408.436 291.02 408.24 291.231 408.259C293.103 408.427 294.289 408.42 296.113 408.228C296.316 408.206 296.494 407.999 296.521 407.754L296.746 405.727C296.774 405.475 296.633 405.27 296.428 405.263C292.655 405.128 290.452 404.962 286.978 404.47C286.778 404.442 286.57 404.612 286.505 404.858L284.331 413.102C284.261 413.369 284.387 413.62 284.603 413.65C293.143 414.843 298.124 415.435 307.514 413.373C307.716 413.328 307.882 413.105 307.892 412.862L308.344 401.004C308.354 400.761 308.518 400.539 308.72 400.493C316.884 398.601 320.468 397.51 327.623 393.787C327.817 393.686 328.025 393.77 328.097 393.982L330.619 401.351C330.699 401.583 330.592 401.877 330.383 401.999C326.706 404.162 324.263 405.261 319.897 406.708C319.689 406.777 319.496 406.639 319.463 406.398L319.212 404.574C319.178 404.325 319.325 404.059 319.539 403.981C321.434 403.286 322.6 402.747 324.337 401.759C324.531 401.649 324.642 401.388 324.593 401.161L324.188 399.288C324.138 399.055 323.937 398.939 323.732 399.025C319.975 400.603 317.754 401.447 314.181 402.579C313.975 402.644 313.823 402.886 313.836 403.131L314.238 411.318C314.251 411.583 314.453 411.745 314.675 411.674C323.452 408.88 328.539 407.16 337.147 401.139C337.334 401.008 337.429 400.734 337.359 400.516L333.986 390.096C333.917 389.884 334.006 389.616 334.186 389.479C341.551 383.924 344.79 381.179 350.564 374.529C350.721 374.348 350.951 374.321 351.092 374.468L355.991 379.595C356.144 379.756 356.137 380.06 355.974 380.266C353.091 383.894 351.065 386.014 347.272 389.357C347.091 389.517 346.857 389.491 346.745 389.299L345.899 387.851C345.782 387.653 345.838 387.354 346.022 387.184C347.647 385.675 348.609 384.651 349.982 382.966C350.134 382.778 350.156 382.5 350.034 382.329L349.02 380.912C348.893 380.735 348.659 380.733 348.487 380.905C345.333 384.068 343.44 385.862 340.318 388.554C340.139 388.709 340.07 388.989 340.163 389.194L343.259 396.043C343.359 396.265 343.609 396.308 343.804 396.14C351.468 389.516 355.875 385.59 362.308 376.269C362.447 376.068 362.451 375.79 362.315 375.635L355.682 368.084C355.546 367.929 355.55 367.653 355.687 367.452C361.221 359.288 363.499 355.547 367.13 347.145C367.228 346.916 367.447 346.788 367.632 346.854L374.038 349.136C374.238 349.208 374.326 349.477 374.228 349.73C372.51 354.2 371.167 356.964 368.464 361.593C368.335 361.814 368.097 361.896 367.928 361.779L366.647 360.893C366.472 360.772 366.434 360.485 366.563 360.254C367.696 358.204 368.329 356.876 369.16 354.786C369.253 354.553 369.189 354.299 369.015 354.204L367.579 353.42C367.401 353.323 367.168 353.426 367.052 353.654C364.922 357.839 363.611 360.258 361.368 364.015C361.238 364.231 361.258 364.508 361.413 364.645L366.575 369.245C366.742 369.393 367.125 369.368 367.264 369.134C372.765 359.898 375.772 354.433 379.232 343.394C379.307 343.153 379.222 342.907 379.037 342.835L370.16 339.457C369.978 339.388 369.893 339.149 369.961 338.911C372.718 329.233 373.764 324.835 374.578 315.851C374.599 315.607 374.772 315.393 374.974 315.362L381.992 314.286C382.213 314.253 382.386 314.444 382.372 314.709C382.148 319.381 381.736 322.404 380.599 327.683C380.544 327.934 380.338 328.119 380.133 328.098L378.59 327.943C378.379 327.921 378.249 327.692 378.299 327.431C378.741 325.124 378.925 323.677 379.059 321.479C379.074 321.234 378.929 321.046 378.727 321.046L377.065 321.052C376.859 321.053 376.665 321.253 376.626 321.505C375.904 326.127 375.411 328.837 374.44 333.146C374.384 333.393 374.493 333.622 374.688 333.668L381.245 335.182C381.457 335.231 381.688 335.043 381.748 334.774C384.122 324.189 385.42 318.03 385.205 306.857C385.2 306.616 385.04 306.444 384.838 306.466L374.976 307.552C374.775 307.574 374.616 307.404 374.608 307.164C374.338 297.464 374.002 293.241 372.035 285.025C371.981 284.802 372.085 284.537 372.274 284.419L378.854 280.324C379.061 280.196 379.29 280.285 379.358 280.523C380.579 284.71 381.106 287.54 381.615 292.667C381.639 292.911 381.493 293.165 381.285 293.239L379.718 293.797C379.503 293.873 379.304 293.731 379.273 293.48C378.997 291.264 378.732 289.915 378.185 287.933C378.123 287.712 377.923 287.613 377.724 287.704L376.09 288.456C375.886 288.549 375.757 288.811 375.796 289.049C376.513 293.416 376.863 296.008 377.236 300.213C377.257 300.454 377.435 300.606 377.642 300.558L384.565 298.936C384.789 298.883 384.958 298.615 384.935 298.353C384.008 288.03 383.385 282.061 379.728 272.389C379.648 272.177 379.434 272.1 379.24 272.215L371.123 277.096C370.928 277.212 370.713 277.144 370.621 276.942C366.957 268.846 364.754 264.635 359.966 258.679C359.836 258.518 359.844 258.241 359.987 258.045L364.945 251.229C365.101 251.014 365.355 250.974 365.505 251.139C368.154 254.064 369.655 256.189 371.942 260.27C372.051 260.465 371.998 260.754 371.822 260.922L370.494 262.193C370.312 262.367 370.069 262.347 369.952 262.151C368.908 260.416 368.18 259.409 366.955 258.009C366.819 257.854 366.589 257.872 366.428 258.05L365.104 259.518C364.939 259.702 364.905 259.989 365.026 260.17C367.248 263.503 368.494 265.518 370.326 268.887C370.431 269.08 370.658 269.118 370.842 268.971L376.998 264.074C377.198 263.915 377.268 263.601 377.154 263.392C372.644 255.125 369.952 250.39 363.016 244.063C362.866 243.927 362.634 243.969 362.486 244.16L355.26 253.489C355.112 253.68 354.882 253.721 354.732 253.586C348.643 248.168 345.817 246.003 339.271 242.946C339.093 242.863 339.015 242.618 339.095 242.382L341.875 234.191C341.963 233.934 342.201 233.784 342.399 233.861C345.91 235.228 348.044 236.413 351.555 238.954C351.723 239.075 351.76 239.352 351.639 239.578L350.723 241.286C350.598 241.519 350.352 241.613 350.176 241.494C348.612 240.446 347.585 239.892 345.947 239.218C345.764 239.145 345.544 239.263 345.441 239.491L344.589 241.371C344.483 241.605 344.538 241.872 344.713 241.976C347.93 243.891 349.779 245.094 352.623 247.216C352.786 247.339 353.021 247.27 353.157 247.059L357.709 240.007C357.857 239.779 357.887 239.318 357.71 239.184C350.719 233.982 346.549 231.208 337.77 228.793C337.578 228.741 337.36 228.885 337.275 229.122L333.242 240.506C333.159 240.739 332.947 240.883 332.757 240.839C325.023 239.057 321.48 238.502 314.065 238.978C313.863 238.992 313.708 238.816 313.709 238.574L313.759 230.187C313.76 229.924 313.944 229.682 314.165 229.654C318.048 229.164 320.525 229.173 324.792 229.697C324.996 229.721 325.123 229.943 325.077 230.196L324.738 232.105C324.692 232.365 324.482 232.561 324.27 232.543C322.397 232.381 321.211 232.391 319.387 232.59C319.184 232.612 319.006 232.819 318.98 233.065L318.759 235.092C318.732 235.344 318.873 235.548 319.079 235.554C322.853 235.678 325.057 235.836 328.534 236.317C328.734 236.345 328.941 236.174 329.006 235.928L331.163 227.68C331.233 227.413 331.106 227.162 330.889 227.133C322.344 225.968 317.36 225.392 307.971 227.483C307.768 227.529 307.603 227.751 307.594 227.995L307.167 239.849C307.158 240.092 306.993 240.314 306.792 240.362C298.629 242.278 295.046 243.38 287.896 247.125C287.702 247.226 287.494 247.144 287.421 246.931L284.882 239.573C284.803 239.342 284.909 239.048 285.117 238.924C288.791 236.751 291.232 235.644 295.597 234.184C295.805 234.115 295.998 234.252 296.032 234.493L296.286 236.315C296.321 236.564 296.175 236.83 295.961 236.91C294.067 237.609 292.901 238.151 291.166 239.146C290.973 239.256 290.862 239.516 290.911 239.744L291.32 241.615C291.371 241.848 291.572 241.964 291.777 241.877C295.533 240.288 297.752 239.436 301.324 238.294C301.53 238.228 301.681 237.985 301.669 237.741L301.248 229.559C301.234 229.294 301.033 229.131 300.81 229.203C292.036 232.024 286.951 233.76 278.353 239.806C278.165 239.937 278.072 240.211 278.141 240.429L281.539 250.834C281.608 251.046 281.52 251.314 281.34 251.451C273.984 257.028 270.75 259.782 264.989 266.448C264.832 266.629 264.602 266.657 264.46 266.51L259.549 261.401C259.394 261.241 259.401 260.936 259.564 260.73C262.44 257.094 264.463 254.969 268.249 251.615C268.43 251.455 268.664 251.48 268.777 251.671L269.627 253.116C269.743 253.313 269.688 253.613 269.505 253.784C267.883 255.297 266.922 256.324 265.553 258.012C265.4 258.2 265.378 258.478 265.502 258.649L266.519 260.063C266.646 260.239 266.881 260.241 267.052 260.068C270.201 256.896 272.09 255.097 275.207 252.396C275.387 252.241 275.455 251.96 275.362 251.755L272.25 244.919C272.149 244.697 271.898 244.655 271.704 244.823C264.052 251.469 259.651 255.408 253.235 264.746C253.097 264.947 253.094 265.224 253.23 265.379L259.882 272.907C260.018 273.061 260.015 273.336 259.879 273.538C254.359 281.716 252.09 285.463 248.475 293.874C248.377 294.102 248.159 294.231 247.974 294.166L241.56 291.905C241.359 291.834 241.272 291.565 241.369 291.311C243.078 286.839 244.415 284.071 247.109 279.436C247.238 279.214 247.476 279.131 247.646 279.248L248.929 280.129C249.105 280.25 249.142 280.536 249.015 280.768C247.885 282.82 247.256 284.15 246.428 286.242C246.336 286.475 246.4 286.728 246.574 286.823L248.012 287.602C248.191 287.698 248.423 287.595 248.539 287.366C250.661 283.177 251.966 280.754 254.203 276.991C254.332 276.775 254.312 276.498 254.157 276.362L248.983 271.781C248.815 271.633 248.433 271.659 248.293 271.893C242.81 281.143 239.814 286.615 236.377 297.661C236.302 297.902 236.387 298.148 236.573 298.219L245.46 301.567C245.642 301.636 245.729 301.875 245.662 302.113C242.923 311.796 241.888 316.196 241.093 325.179C241.071 325.422 240.9 325.637 240.697 325.669L233.679 326.766C233.458 326.801 233.285 326.61 233.297 326.345C233.512 321.674 233.918 318.65 235.044 313.371C235.098 313.119 235.303 312.934 235.508 312.954L237.052 313.104C237.264 313.125 237.394 313.354 237.345 313.615C236.908 315.923 236.726 317.369 236.598 319.567C236.584 319.812 236.729 320 236.93 319.999L238.593 319.987C238.8 319.986 238.993 319.786 239.032 319.534C239.743 314.911 240.231 312.2 241.193 307.891C241.248 307.643 241.139 307.414 240.943 307.369L234.381 305.876C234.169 305.828 233.938 306.017 233.879 306.286C231.526 316.874 230.241 323.035 230.481 334.203C230.486 334.443 230.647 334.615 230.849 334.592L240.712 333.475C240.914 333.453 241.073 333.623 241.081 333.862C241.372 343.558 241.718 347.778 243.704 355.984C243.758 356.207 243.655 356.472 243.465 356.591L236.892 360.705C236.686 360.834 236.456 360.745 236.386 360.508C235.157 356.326 234.623 353.5 234.103 348.376C234.078 348.131 234.224 347.877 234.431 347.803L235.999 347.24C236.213 347.163 236.412 347.305 236.444 347.555C236.726 349.77 236.993 351.117 237.545 353.097C237.607 353.318 237.808 353.417 238.006 353.325L239.639 352.568C239.843 352.474 239.971 352.212 239.932 351.974C239.206 347.611 238.85 345.021 238.468 340.819C238.446 340.577 238.267 340.426 238.06 340.475L231.137 342.119C230.913 342.172 230.745 342.441 230.769 342.703C231.72 353.019 232.355 358.984 236.035 368.64C236.116 368.851 236.33 368.928 236.524 368.812Z" stroke="url(#paint8_linear)" stroke-width="2"/>
<path d="M342.689 219.296C386.641 234.445 406.669 291.993 387.424 347.834C368.178 403.674 316.947 436.663 272.994 421.515C229.042 406.367 209.014 348.818 228.259 292.978C247.505 237.137 298.736 204.148 342.689 219.296Z" stroke="#CFA31F" stroke-width="9"/>
<path d="M342.308 220.402C385.779 235.385 405.589 292.303 386.554 347.534C367.519 402.764 316.847 435.391 273.376 420.409C229.904 405.426 210.094 348.508 229.129 293.277C248.164 238.047 298.836 205.42 342.308 220.402Z" stroke="#EACD75"/>
<path d="M255.222 300.416C255.544 300.562 255.752 300.808 255.845 301.157C255.94 301.504 255.907 301.907 255.749 302.368C255.575 302.872 255.305 303.223 254.939 303.421C254.572 303.617 254.156 303.635 253.69 303.474L253.501 303.409C253.204 303.307 252.965 303.15 252.784 302.938C252.604 302.727 252.496 302.477 252.46 302.189C252.424 301.899 252.463 301.59 252.576 301.263C252.732 300.809 252.953 300.477 253.24 300.265C253.527 300.054 253.85 299.986 254.211 300.062L253.931 300.872C253.725 300.823 253.556 300.844 253.425 300.936C253.292 301.025 253.184 301.194 253.098 301.443C253.005 301.713 253.012 301.941 253.118 302.129C253.223 302.314 253.436 302.464 253.754 302.578L253.988 302.659C254.322 302.774 254.588 302.794 254.787 302.719C254.985 302.643 255.133 302.466 255.228 302.189C255.315 301.939 255.334 301.737 255.287 301.584C255.239 301.428 255.124 301.309 254.942 301.226L255.222 300.416Z" fill="url(#paint9_radial)"/>
<path d="M258.12 294.32L257.522 295.694L258.014 296.255L257.651 297.089L255.326 294.22L255.642 293.494L259.204 293.521L258.841 294.355L258.12 294.32ZM257.123 295.24L257.537 294.289L256.228 294.224L257.123 295.24Z" fill="url(#paint10_radial)"/>
<path d="M260.856 288.41C260.749 288.339 260.64 288.335 260.53 288.398C260.418 288.459 260.262 288.599 260.06 288.818C259.857 289.035 259.684 289.199 259.541 289.31C259.151 289.612 258.813 289.668 258.525 289.479C258.376 289.38 258.273 289.237 258.215 289.05C258.157 288.861 258.15 288.641 258.195 288.391C258.24 288.139 258.331 287.884 258.469 287.626C258.608 287.365 258.767 287.157 258.948 287.002C259.127 286.845 259.312 286.754 259.501 286.728C259.692 286.701 259.87 286.742 260.036 286.851L259.636 287.601C259.51 287.518 259.383 287.506 259.258 287.565C259.131 287.623 259.017 287.747 258.916 287.937C258.818 288.121 258.772 288.283 258.777 288.424C258.781 288.564 258.831 288.666 258.927 288.729C259.017 288.789 259.124 288.779 259.248 288.701C259.372 288.621 259.523 288.482 259.699 288.286C260.024 287.923 260.311 287.692 260.559 287.592C260.807 287.492 261.039 287.513 261.254 287.655C261.493 287.813 261.617 288.056 261.626 288.384C261.635 288.712 261.531 289.078 261.316 289.482C261.167 289.762 260.993 289.991 260.793 290.171C260.592 290.349 260.391 290.454 260.191 290.487C259.992 290.518 259.803 290.474 259.624 290.356L260.026 289.603C260.33 289.805 260.611 289.665 260.867 289.185C260.962 289.006 261.009 288.849 261.008 288.713C261.005 288.576 260.955 288.475 260.856 288.41Z" fill="url(#paint11_radial)"/>
<path d="M265.903 281.735L265.449 282.444L264.353 281.511L263.467 282.894L264.562 283.828L264.108 284.537L261.553 282.36L262.007 281.651L263.043 282.533L263.929 281.15L262.893 280.268L263.348 279.558L265.903 281.735Z" fill="url(#paint12_radial)"/>
<path d="M268.752 275.564L267.783 276.833L268.732 277.858L268.228 278.519L265.905 276.011L267.5 273.922L267.888 274.34L266.797 275.768L267.397 276.416L268.366 275.147L268.752 275.564Z" fill="url(#paint13_radial)"/>
<path d="M272.375 272.59L273.542 271.303L273.885 271.769L272.167 273.663L270.1 270.847L270.65 270.241L272.375 272.59Z" fill="url(#paint14_radial)"/>
<path d="M278.107 266.651L277.073 267.607L277.246 268.427L276.619 269.007L275.893 264.927L276.439 264.421L279.301 266.525L278.674 267.105L278.107 266.651ZM276.933 266.944L277.649 266.282L276.619 265.456L276.933 266.944Z" fill="url(#paint15_radial)"/>
<path d="M282.683 262.635C282.625 262.505 282.539 262.438 282.424 262.433C282.31 262.426 282.127 262.468 281.877 262.557C281.626 262.646 281.421 262.7 281.261 262.722C280.826 262.782 280.53 262.637 280.374 262.29C280.293 262.109 280.267 261.913 280.296 261.702C280.325 261.488 280.407 261.276 280.543 261.064C280.681 260.851 280.857 260.662 281.072 260.497C281.288 260.331 281.5 260.227 281.708 260.184C281.915 260.14 282.101 260.161 282.264 260.247C282.429 260.332 282.556 260.475 282.646 260.676L282.023 261.155C281.954 261.002 281.857 260.917 281.732 260.9C281.607 260.881 281.465 260.933 281.307 261.054C281.155 261.171 281.052 261.298 281 261.435C280.947 261.571 280.947 261.696 280.999 261.813C281.047 261.921 281.137 261.975 281.269 261.973C281.401 261.969 281.578 261.926 281.8 261.842C282.207 261.687 282.531 261.635 282.771 261.685C283.011 261.734 283.19 261.889 283.306 262.15C283.436 262.439 283.439 262.743 283.315 263.06C283.19 263.376 282.96 263.663 282.625 263.921C282.392 264.1 282.159 264.216 281.926 264.27C281.693 264.322 281.488 264.305 281.314 264.219C281.141 264.132 281.006 263.98 280.909 263.765L281.535 263.284C281.7 263.653 281.982 263.684 282.381 263.377C282.529 263.263 282.63 263.141 282.684 263.011C282.737 262.88 282.736 262.755 282.683 262.635Z" fill="url(#paint16_radial)"/>
<path d="M289.429 259.241L288.778 259.65L288.269 258.125L286.999 258.921L287.509 260.446L286.858 260.854L285.669 257.296L286.32 256.888L286.802 258.33L288.071 257.533L287.589 256.092L288.24 255.683L289.429 259.241Z" fill="url(#paint17_radial)"/>
<path d="M299.596 251.133L298.575 251.513L299.025 254.745L298.338 254.999L297.889 251.767L296.882 252.142L296.792 251.494L299.506 250.485L299.596 251.133Z" fill="url(#paint18_radial)"/>
<path d="M305.233 251.14L303.899 251.476L303.954 252.543L305.519 252.15L305.553 252.809L303.294 253.376L303.089 249.392L305.343 248.825L305.377 249.491L303.818 249.882L303.867 250.832L305.2 250.497L305.233 251.14Z" fill="url(#paint19_radial)"/>
<path d="M311.437 250.5C311.397 250.938 311.251 251.3 311.001 251.581C310.751 251.865 310.429 252.031 310.034 252.082C309.601 252.14 309.266 252.011 309.029 251.695C308.793 251.377 308.686 250.913 308.705 250.304L308.713 250.056C308.726 249.666 308.794 249.317 308.918 249.004C309.042 248.693 309.212 248.445 309.429 248.259C309.647 248.071 309.897 247.959 310.178 247.922C310.567 247.871 310.877 247.954 311.107 248.173C311.336 248.392 311.462 248.725 311.485 249.173L310.79 249.264C310.781 249.005 310.726 248.825 310.625 248.721C310.526 248.616 310.369 248.578 310.156 248.606C309.924 248.637 309.747 248.76 309.625 248.976C309.504 249.189 309.436 249.504 309.419 249.924L309.409 250.23C309.395 250.667 309.439 250.98 309.542 251.167C309.647 251.355 309.818 251.434 310.056 251.402C310.27 251.374 310.432 251.294 310.541 251.163C310.651 251.032 310.718 250.841 310.742 250.591L311.437 250.5Z" fill="url(#paint20_radial)"/>
<path d="M317.425 251.606L316.736 251.614L316.936 249.868L315.593 249.884L315.392 251.63L314.704 251.638L315.171 247.564L315.86 247.556L315.67 249.207L317.014 249.191L317.202 247.542L317.891 247.533L317.425 251.606Z" fill="url(#paint21_radial)"/>
<path d="M322.96 252.098L322.284 252.022L321.493 249.206L320.969 251.874L320.293 251.799L321.09 247.743L321.766 247.819L322.558 250.641L323.084 247.966L323.757 248.042L322.96 252.098Z" fill="url(#paint22_radial)"/>
<path d="M328.536 251.275C328.426 251.668 328.274 251.999 328.08 252.27C327.886 252.541 327.663 252.731 327.411 252.842C327.16 252.953 326.902 252.977 326.635 252.912C326.371 252.849 326.158 252.712 325.996 252.502C325.833 252.293 325.736 252.028 325.705 251.706C325.675 251.381 325.712 251.026 325.818 250.642L325.874 250.444C325.984 250.05 326.137 249.718 326.333 249.446C326.531 249.173 326.755 248.982 327.005 248.872C327.257 248.761 327.516 248.737 327.781 248.802C328.046 248.867 328.259 249.004 328.42 249.214C328.583 249.423 328.678 249.692 328.706 250.02C328.736 250.345 328.696 250.704 328.587 251.096L328.536 251.275ZM327.923 250.932C328.04 250.513 328.069 250.181 328.011 249.934C327.952 249.686 327.812 249.537 327.59 249.484C327.371 249.429 327.17 249.496 326.99 249.683C326.811 249.869 326.662 250.169 326.544 250.585L326.49 250.78C326.375 251.189 326.346 251.52 326.402 251.775C326.459 252.028 326.6 252.182 326.824 252.237C327.044 252.289 327.244 252.222 327.422 252.034C327.602 251.845 327.75 251.543 327.868 251.127L327.923 250.932Z" fill="url(#paint23_radial)"/>
<path d="M331.871 253.735L333.208 254.244L332.971 254.891L331.004 254.142L332.435 250.239L333.066 250.478L331.871 253.735Z" fill="url(#paint24_radial)"/>
<path d="M338.963 255.619C338.793 255.99 338.594 256.287 338.364 256.514C338.135 256.739 337.892 256.877 337.634 256.928C337.377 256.981 337.126 256.943 336.884 256.813C336.644 256.684 336.464 256.495 336.344 256.245C336.224 255.994 336.177 255.701 336.2 255.368C336.225 255.034 336.32 254.685 336.484 254.323L336.57 254.137C336.741 253.764 336.941 253.466 337.172 253.24C337.405 253.012 337.65 252.872 337.906 252.823C338.165 252.77 338.414 252.81 338.656 252.938C338.898 253.067 339.077 253.258 339.195 253.509C339.314 253.76 339.361 254.054 339.333 254.391C339.307 254.728 339.21 255.08 339.041 255.449L338.963 255.619ZM338.436 255.125C338.618 254.729 338.701 254.401 338.686 254.138C338.672 253.873 338.563 253.689 338.362 253.58C338.161 253.474 337.96 253.493 337.757 253.639C337.556 253.782 337.365 254.05 337.184 254.44L337.099 254.625C336.923 255.009 336.841 255.336 336.852 255.607C336.864 255.876 336.971 256.067 337.176 256.176C337.376 256.283 337.577 256.264 337.778 256.117C337.979 255.969 338.171 255.699 338.352 255.308L338.436 255.125Z" fill="url(#paint25_radial)"/>
<path d="M343.311 260.225C343.121 260.313 342.909 260.337 342.676 260.296C342.443 260.254 342.215 260.155 341.992 259.996C341.757 259.831 341.589 259.617 341.486 259.357C341.386 259.097 341.36 258.803 341.407 258.476C341.456 258.15 341.577 257.812 341.769 257.461L341.906 257.217C342.106 256.858 342.325 256.58 342.562 256.381C342.801 256.182 343.045 256.075 343.293 256.058C343.545 256.039 343.786 256.111 344.017 256.274C344.338 256.501 344.533 256.78 344.6 257.113C344.668 257.444 344.611 257.815 344.427 258.227L343.883 257.843C343.973 257.62 344.002 257.43 343.97 257.274C343.938 257.12 343.848 256.99 343.699 256.884C343.51 256.749 343.312 256.743 343.107 256.862C342.901 256.982 342.694 257.227 342.484 257.6L342.356 257.829C342.145 258.206 342.04 258.53 342.04 258.799C342.041 259.068 342.145 259.275 342.354 259.423C342.564 259.57 342.747 259.617 342.903 259.561L343.249 258.941L342.74 258.582L343.045 258.037L344.112 258.79L343.311 260.225Z" fill="url(#paint26_radial)"/>
<path d="M347.569 261.604L349.111 260.55L349.674 261.059L347.408 262.475L346.585 263.704L346.061 263.23L346.884 262.001L347.51 259.101L348.074 259.612L347.569 261.604Z" fill="url(#paint27_radial)"/>
<path d="M353.127 271.191L355.847 268.319L356.547 269.331C356.79 269.681 356.91 270.015 356.909 270.329C356.909 270.643 356.786 270.93 356.542 271.187C356.409 271.328 356.266 271.415 356.114 271.451C355.963 271.484 355.818 271.462 355.681 271.382C355.749 271.567 355.76 271.757 355.712 271.954C355.666 272.152 355.566 272.332 355.413 272.493C355.152 272.769 354.892 272.889 354.635 272.854C354.378 272.82 354.134 272.639 353.905 272.314L353.127 271.191ZM354.724 270.535L353.989 271.311L354.343 271.82C354.439 271.961 354.546 272.037 354.663 272.049C354.781 272.061 354.896 272.009 355.007 271.891C355.255 271.629 355.287 271.359 355.101 271.081L354.724 270.535ZM355.12 270.117L355.424 270.558C355.637 270.852 355.854 270.884 356.074 270.651C356.198 270.52 356.259 270.389 356.26 270.255C356.262 270.123 356.207 269.974 356.093 269.811L355.805 269.393L355.12 270.117Z" fill="url(#paint28_radial)"/>
<path d="M357.054 276.253L357.806 277.635L357.325 278.061L356.219 276.027L359.124 273.457L359.478 274.109L357.054 276.253Z" fill="url(#paint29_radial)"/>
<path d="M361.428 282.841C361.127 283.062 360.838 283.196 360.561 283.244C360.285 283.292 360.038 283.251 359.823 283.12C359.608 282.991 359.44 282.784 359.321 282.499C359.203 282.217 359.159 281.921 359.189 281.611C359.218 281.301 359.321 281.002 359.496 280.715C359.672 280.428 359.907 280.175 360.201 279.958L360.352 279.847C360.653 279.626 360.943 279.492 361.222 279.445C361.503 279.398 361.75 279.439 361.964 279.569C362.179 279.7 362.347 279.907 362.465 280.191C362.583 280.474 362.627 280.771 362.595 281.08C362.566 281.391 362.461 281.69 362.281 281.978C362.104 282.267 361.865 282.521 361.565 282.741L361.428 282.841ZM361.27 282.03C361.591 281.795 361.808 281.552 361.922 281.302C362.035 281.052 362.043 280.809 361.944 280.572C361.845 280.337 361.687 280.217 361.468 280.21C361.251 280.203 360.982 280.315 360.664 280.546L360.514 280.656C360.202 280.885 359.986 281.126 359.867 281.38C359.748 281.634 359.738 281.881 359.839 282.12C359.937 282.356 360.095 282.475 360.313 282.48C360.533 282.484 360.802 282.371 361.121 282.139L361.27 282.03Z" fill="url(#paint30_radial)"/>
<path d="M363.012 289.221C362.661 289.397 362.346 289.413 362.069 289.271C361.793 289.131 361.59 288.849 361.46 288.426C361.318 287.964 361.343 287.518 361.535 287.089C361.73 286.661 362.067 286.305 362.547 286.02L362.742 285.904C363.049 285.722 363.338 285.623 363.609 285.606C363.88 285.59 364.112 285.658 364.306 285.811C364.502 285.964 364.646 286.191 364.738 286.491C364.866 286.907 364.871 287.301 364.752 287.673C364.633 288.044 364.402 288.355 364.058 288.606L363.829 287.863C364.03 287.723 364.158 287.569 364.216 287.402C364.275 287.236 364.27 287.039 364.2 286.811C364.124 286.563 363.988 286.424 363.792 286.394C363.598 286.365 363.336 286.446 363.005 286.639L362.764 286.782C362.419 286.986 362.186 287.194 362.063 287.406C361.94 287.62 361.918 287.853 361.996 288.108C362.067 288.337 362.165 288.481 362.292 288.539C362.42 288.597 362.584 288.577 362.783 288.478L363.012 289.221Z" fill="url(#paint31_radial)"/>
<path d="M364.367 293.79L363.904 293.561L362.966 293.996L362.804 293.218L366.087 291.694L366.249 292.472L364.761 293.163L365.24 293.316L366.52 293.777L366.72 294.734L364.982 294.07L363.446 296.297L363.253 295.371L364.367 293.79Z" fill="url(#paint32_radial)"/>
<path d="M365.434 302.27C365.07 302.362 364.769 302.304 364.529 302.093C364.289 301.884 364.143 301.55 364.09 301.092C364.031 300.591 364.129 300.147 364.383 299.761C364.639 299.376 365.019 299.097 365.523 298.925L365.728 298.856C366.049 298.746 366.34 298.716 366.601 298.765C366.861 298.813 367.071 298.938 367.23 299.139C367.39 299.341 367.489 299.605 367.527 299.931C367.58 300.382 367.519 300.781 367.344 301.127C367.171 301.474 366.898 301.732 366.529 301.902L366.436 301.096C366.649 301.003 366.797 300.879 366.88 300.724C366.963 300.571 366.992 300.371 366.963 300.124C366.932 299.855 366.825 299.682 366.644 299.604C366.465 299.528 366.201 299.546 365.855 299.661L365.603 299.747C365.24 299.87 364.985 300.024 364.832 300.208C364.68 300.394 364.62 300.625 364.653 300.901C364.682 301.149 364.751 301.318 364.862 301.407C364.975 301.497 365.133 301.516 365.34 301.465L365.434 302.27Z" fill="url(#paint33_radial)"/>
<path d="M364.68 309.819L364.655 308.994L366.101 308.675L366.053 307.066L364.607 307.385L364.582 306.56L367.956 305.815L367.98 306.64L366.614 306.942L366.661 308.55L368.029 308.248L368.053 309.073L364.68 309.819Z" fill="url(#paint34_radial)"/>
<path d="M365.163 315.643L365.242 314.177L364.562 313.968L364.61 313.079L367.898 314.247L367.857 315.022L364.408 316.884L364.454 315.995L365.163 315.643ZM365.791 314.345L365.738 315.36L367.026 314.721L365.791 314.345Z" fill="url(#paint35_radial)"/>
<path d="M363.836 321.723L363.948 320.883L367.28 320.946L367.166 321.785L363.836 321.723Z" fill="url(#paint36_radial)"/>
<path d="M362.222 330.285L362.403 329.451L364.9 328.136L362.755 327.828L362.937 326.995L366.196 327.462L366.015 328.296L363.512 329.613L365.662 329.922L365.481 330.753L362.222 330.285Z" fill="url(#paint37_radial)"/>
<path d="M358.966 343.315L360.912 344.733L360.603 345.529L357.917 343.409L358.23 342.606L360.496 342.819L358.72 341.345L359.033 340.542L362.388 340.943L362.078 341.738L359.73 341.367L361.626 342.9L361.362 343.576L358.966 343.315Z" fill="url(#paint38_radial)"/>
<path d="M356.484 350.241C356.202 350.079 355.988 349.873 355.838 349.622C355.688 349.37 355.615 349.09 355.617 348.782C355.619 348.475 355.695 348.166 355.846 347.853C355.995 347.544 356.185 347.301 356.415 347.124C356.646 346.947 356.899 346.853 357.173 346.84C357.45 346.829 357.725 346.901 358.001 347.057L358.142 347.138C358.423 347.299 358.638 347.507 358.788 347.761C358.938 348.017 359.012 348.298 359.009 348.604C359.007 348.912 358.931 349.222 358.781 349.533C358.631 349.843 358.44 350.086 358.209 350.261C357.978 350.438 357.724 350.53 357.446 350.539C357.169 350.55 356.891 350.475 356.61 350.314L356.484 350.241ZM356.989 349.537C357.288 349.709 357.55 349.769 357.773 349.719C357.996 349.668 358.169 349.513 358.295 349.253C358.42 348.996 358.438 348.752 358.352 348.524C358.266 348.296 358.076 348.096 357.78 347.924L357.641 347.844C357.349 347.677 357.089 347.617 356.86 347.664C356.632 347.712 356.455 347.868 356.327 348.13C356.203 348.388 356.185 348.63 356.272 348.857C356.361 349.085 356.553 349.285 356.85 349.457L356.989 349.537Z" fill="url(#paint39_radial)"/>
<path d="M353.315 355.21L353.656 354.628L352.682 353.895L353.11 353.165L355.771 355.167L355 356.485C354.754 356.904 354.496 357.174 354.223 357.296C353.949 357.418 353.684 357.383 353.428 357.19C353.247 357.054 353.127 356.887 353.066 356.689C353.006 356.494 353.002 356.264 353.055 355.997L351.519 355.946L351.493 355.927L351.951 355.142L353.315 355.21ZM354.1 354.962L353.755 355.552C353.649 355.736 353.599 355.903 353.61 356.057C353.622 356.211 353.69 356.334 353.812 356.426C353.938 356.521 354.065 356.547 354.192 356.505C354.32 356.466 354.44 356.347 354.556 356.151L354.899 355.563L354.1 354.962Z" fill="url(#paint40_radial)"/>
<path d="M349.525 359.876L348.504 361.332L348.1 360.944L349.6 358.801L352.042 361.147L351.562 361.833L349.525 359.876Z" fill="url(#paint41_radial)"/>
<path d="M345.425 364.42L347.623 367.086L346.834 368.033C346.608 368.303 346.364 368.492 346.099 368.599C345.835 368.708 345.572 368.725 345.312 368.65C345.051 368.576 344.819 368.414 344.615 368.167L344.514 368.044C344.31 367.797 344.177 367.517 344.116 367.206C344.055 366.896 344.07 366.581 344.16 366.26C344.251 365.939 344.408 365.644 344.631 365.373L345.425 364.42ZM346.728 367.275L345.26 365.495L345.006 365.802C344.799 366.05 344.699 366.31 344.705 366.581C344.712 366.853 344.822 367.121 345.036 367.385L345.151 367.526C345.375 367.797 345.598 367.937 345.821 367.946C346.044 367.957 346.26 367.838 346.467 367.588L346.728 367.275Z" fill="url(#paint42_radial)"/>
<path d="M339.83 372.021L340.832 374.503L340.264 375.078L338.945 371.498L339.521 370.918L341.263 372.442L340.421 370.007L340.995 369.426L343.541 371.764L342.973 372.339L341.226 370.616L342.141 373.179L341.659 373.667L339.83 372.021Z" fill="url(#paint43_radial)"/>
<path d="M335.215 374.809L335.822 374.296L337.468 377.519L336.86 378.032L335.215 374.809Z" fill="url(#paint44_radial)"/>
<path d="M331.184 377.94L332.529 381.395L331.576 382.058C331.304 382.248 331.034 382.349 330.766 382.36C330.498 382.374 330.254 382.297 330.035 382.127C329.817 381.96 329.645 381.715 329.52 381.394L329.458 381.235C329.333 380.914 329.281 380.587 329.303 380.254C329.324 379.922 329.415 379.613 329.577 379.325C329.738 379.037 329.955 378.798 330.225 378.608L331.184 377.94ZM331.666 381.263L330.768 378.956L330.46 379.171C330.211 379.345 330.055 379.569 329.994 379.842C329.933 380.116 329.967 380.423 330.096 380.764L330.167 380.946C330.304 381.298 330.473 381.518 330.673 381.607C330.875 381.698 331.101 381.657 331.352 381.482L331.666 381.263Z" fill="url(#paint45_radial)"/>
<path d="M324.627 383.905L325.899 383.192L325.623 382.214L324.13 383.051L323.96 382.446L326.115 381.238L327.145 384.891L324.994 386.096L324.822 385.487L326.31 384.652L326.065 383.782L324.793 384.495L324.627 383.905Z" fill="url(#paint46_radial)"/>
<path d="M313 390.29L314.028 389.971L313.718 386.691L314.409 386.476L314.719 389.756L315.733 389.441L315.795 390.098L313.063 390.947L313 390.29Z" fill="url(#paint47_radial)"/>
<path d="M307.946 389.567L308.5 389.461L308.486 387.989L309.182 387.856L309.218 391.877L307.964 392.117C307.565 392.193 307.257 392.146 307.039 391.976C306.82 391.805 306.709 391.527 306.706 391.14C306.703 390.866 306.752 390.627 306.85 390.424C306.948 390.222 307.097 390.048 307.298 389.901L306.553 388.397L306.553 388.359L307.299 388.216L307.946 389.567ZM308.506 390.132L307.945 390.239C307.77 390.273 307.635 390.351 307.541 390.474C307.446 390.6 307.399 390.755 307.401 390.941C307.402 391.131 307.449 391.271 307.542 391.362C307.632 391.454 307.771 391.482 307.958 391.446L308.517 391.339L308.506 390.132Z" fill="url(#paint48_radial)"/>
<path d="M301.633 389.665L302.848 389.578L303.141 388.723L303.877 388.67L302.326 392.826L301.684 392.872L300.725 388.897L301.462 388.844L301.633 389.665ZM302.611 390.269L301.77 390.33L302.081 391.822L302.611 390.269Z" fill="url(#paint49_radial)"/>
<path d="M295.529 390.106C295.623 389.669 295.809 389.331 296.087 389.091C296.363 388.851 296.695 388.741 297.083 388.76C297.509 388.781 297.816 388.973 298.006 389.335C298.194 389.7 298.241 390.188 298.145 390.801L298.107 391.05C298.046 391.442 297.936 391.783 297.777 392.076C297.618 392.369 297.423 392.589 297.19 392.737C296.956 392.887 296.7 392.955 296.424 392.941C296.042 392.922 295.753 392.781 295.558 392.518C295.364 392.255 295.283 391.895 295.318 391.439L296.001 391.473C295.977 391.736 296.007 391.929 296.092 392.052C296.175 392.176 296.322 392.243 296.531 392.254C296.759 392.265 296.945 392.173 297.09 391.977C297.234 391.783 297.34 391.476 297.408 391.055L297.456 390.748C297.524 390.308 297.52 389.984 297.444 389.775C297.367 389.567 297.211 389.457 296.977 389.445C296.766 389.435 296.6 389.486 296.478 389.598C296.355 389.712 296.266 389.893 296.213 390.14L295.529 390.106Z" fill="url(#paint50_radial)"/>
<path d="M290.232 389.782L291.513 390.007L291.77 388.927L290.267 388.663L290.426 387.995L292.595 388.376L291.636 392.409L289.471 392.029L289.631 391.356L291.129 391.619L291.358 390.658L290.077 390.433L290.232 389.782Z" fill="url(#paint51_radial)"/>
<path d="M285.032 387.428L286.16 387.778L286.638 387.029L287.323 387.241L284.882 390.837L284.286 390.652L284.394 386.334L285.078 386.546L285.032 387.428ZM285.773 388.384L284.992 388.142L284.907 389.745L285.773 388.384Z" fill="url(#paint52_radial)"/>
<path d="M281.815 385.273L280.233 389.113L279.189 388.638C278.827 388.474 278.59 388.259 278.477 387.995C278.363 387.732 278.377 387.429 278.519 387.084C278.596 386.896 278.702 386.747 278.837 386.637C278.97 386.528 279.118 386.471 279.279 386.465C279.147 386.346 279.067 386.192 279.042 386.003C279.014 385.813 279.045 385.61 279.134 385.394C279.287 385.025 279.493 384.787 279.754 384.68C280.016 384.573 280.316 384.595 280.656 384.746L281.815 385.273ZM280.512 386.666L280.939 385.629L280.413 385.39C280.268 385.324 280.137 385.317 280.021 385.368C279.902 385.421 279.81 385.525 279.746 385.682C279.601 386.033 279.669 386.276 279.949 386.41L280.512 386.666ZM280.282 387.225L279.827 387.018C279.514 386.884 279.294 386.973 279.166 387.284C279.094 387.458 279.082 387.601 279.13 387.713C279.176 387.826 279.284 387.92 279.453 387.998L279.883 388.193L280.282 387.225Z" fill="url(#paint53_radial)"/>
<path d="M275.961 382.182L276.54 382.539L274.668 386.225L274.09 385.868L275.961 382.182Z" fill="url(#paint54_radial)"/>
<path d="M271.564 379.903L270.422 378.989L270.777 378.41L272.456 379.755L270.314 383.251L269.777 382.82L271.564 379.903Z" fill="url(#paint55_radial)"/>
<path d="M267.251 375.096L267.741 375.596L265.351 378.866L264.86 378.366L267.251 375.096Z" fill="url(#paint56_radial)"/>
<path d="M260.651 372.393L261.304 373.233L263.484 370.724L263.923 371.289L261.744 373.798L262.389 374.627L261.952 375.129L260.214 372.896L260.651 372.393Z" fill="url(#paint57_radial)"/>
<path d="M258.557 367.262L256.901 367.859L256.481 367.177L258.887 366.435L259.908 365.447L260.298 366.082L259.277 367.069L258.094 369.8L257.673 369.115L258.557 367.262Z" fill="url(#paint58_radial)"/>
<path d="M254.028 354.476L254.486 355.743L255.218 355.558L255.496 356.326L251.895 357.09L251.653 356.421L254.308 353.038L254.585 353.806L254.028 354.476ZM253.894 355.894L253.577 355.017L252.565 356.232L253.894 355.894Z" fill="url(#paint59_radial)"/>
<path d="M252.693 347.101L252.888 347.863L251.138 350.471L253.269 349.346L253.465 350.107L250.225 351.818L250.03 351.056L251.784 348.443L249.648 349.571L249.453 348.812L252.693 347.101Z" fill="url(#paint60_radial)"/>
<path d="M252.027 343.654L248.709 344.988L248.518 343.804C248.463 343.466 248.48 343.137 248.569 342.818C248.657 342.498 248.81 342.214 249.029 341.966C249.246 341.719 249.509 341.534 249.817 341.41L249.97 341.349C250.278 341.225 250.564 341.188 250.828 341.24C251.092 341.29 251.312 341.422 251.487 341.637C251.663 341.851 251.778 342.126 251.834 342.462L252.027 343.654ZM249.135 343.973L251.35 343.082L251.288 342.699C251.237 342.389 251.112 342.187 250.911 342.093C250.709 342 250.446 342.017 250.12 342.144L249.945 342.214C249.608 342.35 249.366 342.534 249.219 342.765C249.07 342.998 249.021 343.27 249.071 343.582L249.135 343.973Z" fill="url(#paint61_radial)"/>
<path d="M249.718 329.753L250.907 329.561L250.897 330.393L247.522 330.938L247.54 329.363C247.544 329.06 247.593 328.786 247.689 328.542C247.784 328.296 247.919 328.098 248.092 327.946C248.263 327.795 248.458 327.702 248.676 327.666C249.006 327.613 249.266 327.707 249.454 327.947C249.641 328.186 249.732 328.545 249.726 329.024L249.718 329.753ZM249.154 329.844L249.163 329.101C249.166 328.881 249.124 328.721 249.039 328.62C248.954 328.518 248.831 328.48 248.67 328.506C248.505 328.532 248.371 328.612 248.267 328.745C248.164 328.878 248.109 329.047 248.104 329.253L248.095 330.015L249.154 329.844Z" fill="url(#paint62_radial)"/>
<path d="M250.697 321.393L250.559 322.864L251.223 323.114L251.139 324.006L247.928 322.631L248.002 321.854L251.499 320.19L251.415 321.082L250.697 321.393ZM250.02 322.661L250.116 321.643L248.813 322.207L250.02 322.661Z" fill="url(#paint63_radial)"/>
<path d="M250.472 315.116L249.134 314.151L249.296 313.235L251.163 314.739L252.36 314.835L252.21 315.686L251.013 315.59L248.676 316.755L248.838 315.837L250.472 315.116Z" fill="url(#paint64_radial)"/>
<path d="M289.027 308.524C284.525 321.587 289.18 334.677 298.973 338.052C308.766 341.427 320.497 333.985 324.999 320.922C327.152 314.677 327.21 308.394 325.598 303.173L337.242 296.134C339.937 304.625 339.856 314.829 336.401 324.852C329.302 345.45 310.418 357.983 294.048 352.341C277.678 346.699 270.526 325.193 277.625 304.594C281.079 294.572 287.302 286.485 294.656 281.457L299.491 294.175C295.005 297.294 291.179 302.279 289.027 308.524Z" fill="url(#paint65_linear)" stroke="url(#paint66_linear)" stroke-width="2"/>
<path d="M315.966 309.427L316.317 309.862L320.278 314.773C320.481 312.859 320.341 310.554 319.952 308.028C319.503 305.117 318.729 301.948 317.798 298.803C316.051 292.897 313.761 287.105 312.07 283.316L304.221 306.089L315.966 309.427ZM315.966 309.427L315.747 310.062L312.784 318.659L315.966 309.427ZM315.966 309.427L312.784 318.659L315.966 309.427ZM312.784 318.659C310.943 318.689 309.104 318.411 307.314 317.794C305.075 317.022 303.101 315.785 301.43 314.188L312.784 318.659ZM305.992 321.631C307.768 322.243 309.588 322.569 311.415 322.63L308.501 331.087C306.157 331.84 303.702 331.891 301.373 331.088C295.879 329.195 292.757 323.124 293.24 316.367L298.992 320.063L299.33 320.28L299.495 319.802L300.035 318.236C301.78 319.71 303.775 320.867 305.992 321.631ZM299 337.973C301.233 338.742 303.568 338.947 305.894 338.65L303.098 346.763L261.075 295.699L287.912 312.944C285.716 324.388 290.345 334.99 299 337.973ZM350.68 352.481L334.001 331.901L336.322 326.711L350.68 352.481Z" fill="url(#paint67_linear)" stroke="url(#paint68_linear)" stroke-width="2"/>
<path d="M343.233 217.716C298.663 202.355 246.699 235.843 227.168 292.513C207.637 349.183 227.935 407.575 272.504 422.936C317.074 438.297 369.038 404.81 388.569 348.14C408.1 291.47 387.803 233.077 343.233 217.716Z" stroke="#FFFAE9" stroke-width="8"/>
</g>
<defs>
<filter id="filter0_d" x="0" y="0.135254" width="837" height="662.042" filterUnits="userSpaceOnUse" color-interpolation-filters="sRGB">
<feFlood flood-opacity="0" result="BackgroundImageFix"/>
<feColorMatrix in="SourceAlpha" type="matrix" values="0 0 0 0 0 0 0 0 0 0 0 0 0 0 0 0 0 0 127 0"/>
<feOffset dy="20"/>
<feGaussianBlur stdDeviation="15"/>
<feColorMatrix type="matrix" values="0 0 0 0 0 0 0 0 0 0 0 0 0 0 0 0 0 0 0.15 0"/>
<feBlend mode="normal" in2="BackgroundImageFix" result="effect1_dropShadow"/>
<feBlend mode="normal" in="SourceGraphic" in2="effect1_dropShadow" result="shape"/>
</filter>
<linearGradient id="paint0_linear" x1="517.427" y1="445.161" x2="549.068" y2="582.538" gradientUnits="userSpaceOnUse">
<stop stop-color="#ECE1CC"/>
<stop offset="1" stop-color="white"/>
</linearGradient>
<linearGradient id="paint1_linear" x1="517.427" y1="445.161" x2="549.068" y2="582.538" gradientUnits="userSpaceOnUse">
<stop stop-color="#ECE1CC"/>
<stop offset="1" stop-color="white"/>
</linearGradient>
<linearGradient id="paint2_linear" x1="517.427" y1="445.161" x2="549.068" y2="582.538" gradientUnits="userSpaceOnUse">
<stop stop-color="#ECE1CC"/>
<stop offset="1" stop-color="white"/>
</linearGradient>
<linearGradient id="paint3_linear" x1="233.061" y1="463.185" x2="791.205" y2="553.828" gradientUnits="userSpaceOnUse">
<stop offset="0.011732" stop-color="#FFB800"/>
<stop offset="1" stop-color="#EEA200"/>
</linearGradient>
<linearGradient id="paint4_linear" x1="194.691" y1="149.005" x2="704.855" y2="471.778" gradientUnits="userSpaceOnUse">
<stop offset="0.011732" stop-color="#FFD100"/>
<stop offset="1" stop-color="#FFC548"/>
</linearGradient>
<linearGradient id="paint5_linear" x1="158.165" y1="397.901" x2="567.54" y2="620.201" gradientUnits="userSpaceOnUse">
<stop offset="0.011732" stop-color="#FFB800"/>
<stop offset="1" stop-color="#EEA200"/>
</linearGradient>
<linearGradient id="paint6_linear" x1="257.432" y1="415.444" x2="352.646" y2="221.506" gradientUnits="userSpaceOnUse">
<stop stop-color="#FBE458"/>
<stop offset="1" stop-color="#E8BA20"/>
</linearGradient>
<linearGradient id="paint7_linear" x1="275.511" y1="413.81" x2="340.251" y2="225.968" gradientUnits="userSpaceOnUse">
<stop stop-color="#FFF6B9"/>
<stop offset="1" stop-color="#E8C96D"/>
</linearGradient>
<linearGradient id="paint8_linear" x1="276.398" y1="411.641" x2="339.286" y2="229.17" gradientUnits="userSpaceOnUse">
<stop stop-color="#F8DC38"/>
<stop offset="1" stop-color="#DFB115"/>
</linearGradient>
<radialGradient id="paint9_radial" cx="0" cy="0" r="1" gradientUnits="userSpaceOnUse" gradientTransform="translate(243.025 298.034) rotate(19.0164) scale(14.4653 10.4907)">
<stop stop-color="#CFA029"/>
<stop offset="1" stop-color="#9B7D2F"/>
</radialGradient>
<radialGradient id="paint10_radial" cx="0" cy="0" r="1" gradientUnits="userSpaceOnUse" gradientTransform="translate(246.425 289.383) rotate(26.2674) scale(14.5625 8.93892)">
<stop stop-color="#CFA029"/>
<stop offset="1" stop-color="#9B7D2F"/>
</radialGradient>
<radialGradient id="paint11_radial" cx="0" cy="0" r="1" gradientUnits="userSpaceOnUse" gradientTransform="translate(249.971 282.087) rotate(33.4321) scale(14.693 8.33841)">
<stop stop-color="#CFA029"/>
<stop offset="1" stop-color="#9B7D2F"/>
</radialGradient>
<radialGradient id="paint12_radial" cx="0" cy="0" r="1" gradientUnits="userSpaceOnUse" gradientTransform="translate(254.582 274.25) rotate(40.4317) scale(14.9021 8.73514)">
<stop stop-color="#CFA029"/>
<stop offset="1" stop-color="#9B7D2F"/>
</radialGradient>
<radialGradient id="paint13_radial" cx="0" cy="0" r="1" gradientUnits="userSpaceOnUse" gradientTransform="translate(259.476 267.333) rotate(47.2063) scale(15.1786 5.54915)">
<stop stop-color="#CFA029"/>
<stop offset="1" stop-color="#9B7D2F"/>
</radialGradient>
<radialGradient id="paint14_radial" cx="0" cy="0" r="1" gradientUnits="userSpaceOnUse" gradientTransform="translate(264.511 261.314) rotate(53.7155) scale(15.5084 3.95)">
<stop stop-color="#CFA029"/>
<stop offset="1" stop-color="#9B7D2F"/>
</radialGradient>
<radialGradient id="paint15_radial" cx="0" cy="0" r="1" gradientUnits="userSpaceOnUse" gradientTransform="translate(270.65 255.139) rotate(59.9387) scale(15.8755 8.19973)">
<stop stop-color="#CFA029"/>
<stop offset="1" stop-color="#9B7D2F"/>
</radialGradient>
<radialGradient id="paint16_radial" cx="0" cy="0" r="1" gradientUnits="userSpaceOnUse" gradientTransform="translate(276.436 250.279) rotate(65.8707) scale(16.2631 7.53343)">
<stop stop-color="#CFA029"/>
<stop offset="1" stop-color="#9B7D2F"/>
</radialGradient>
<radialGradient id="paint17_radial" cx="0" cy="0" r="1" gradientUnits="userSpaceOnUse" gradientTransform="translate(283.296 245.527) rotate(71.5238) scale(16.6551 7.81583)">
<stop stop-color="#CFA029"/>
<stop offset="1" stop-color="#9B7D2F"/>
</radialGradient>
<radialGradient id="paint18_radial" cx="0" cy="0" r="1" gradientUnits="userSpaceOnUse" gradientTransform="translate(296.49 239.035) rotate(82.0876) scale(17.3925 4.40256)">
<stop stop-color="#CFA029"/>
<stop offset="1" stop-color="#9B7D2F"/>
</radialGradient>
<radialGradient id="paint19_radial" cx="0" cy="0" r="1" gradientUnits="userSpaceOnUse" gradientTransform="translate(303.491 236.859) rotate(87.057) scale(17.712 6.91715)">
<stop stop-color="#CFA029"/>
<stop offset="1" stop-color="#9B7D2F"/>
</radialGradient>
<radialGradient id="paint20_radial" cx="0" cy="0" r="1" gradientUnits="userSpaceOnUse" gradientTransform="translate(310.533 235.513) rotate(91.8623) scale(17.9838 6.81258)">
<stop stop-color="#CFA029"/>
<stop offset="1" stop-color="#9B7D2F"/>
</radialGradient>
<radialGradient id="paint21_radial" cx="0" cy="0" r="1" gradientUnits="userSpaceOnUse" gradientTransform="translate(317.973 235.003) rotate(96.5393) scale(18.1998 7.15246)">
<stop stop-color="#CFA029"/>
<stop offset="1" stop-color="#9B7D2F"/>
</radialGradient>
<radialGradient id="paint22_radial" cx="0" cy="0" r="1" gradientUnits="userSpaceOnUse" gradientTransform="translate(324.882 235.398) rotate(101.121) scale(18.3533 7.09263)">
<stop stop-color="#CFA029"/>
<stop offset="1" stop-color="#9B7D2F"/>
</radialGradient>
<radialGradient id="paint23_radial" cx="0" cy="0" r="1" gradientUnits="userSpaceOnUse" gradientTransform="translate(331.218 236.537) rotate(105.643) scale(18.4403 7.47443)">
<stop stop-color="#CFA029"/>
<stop offset="1" stop-color="#9B7D2F"/>
</radialGradient>
<radialGradient id="paint24_radial" cx="0" cy="0" r="1" gradientUnits="userSpaceOnUse" gradientTransform="translate(337.738 238.554) rotate(110.14) scale(18.4577 3.31885)">
<stop stop-color="#CFA029"/>
<stop offset="1" stop-color="#9B7D2F"/>
</radialGradient>
<radialGradient id="paint25_radial" cx="0" cy="0" r="1" gradientUnits="userSpaceOnUse" gradientTransform="translate(343.96 241.384) rotate(114.645) scale(18.4053 7.48856)">
<stop stop-color="#CFA029"/>
<stop offset="1" stop-color="#9B7D2F"/>
</radialGradient>
<radialGradient id="paint26_radial" cx="0" cy="0" r="1" gradientUnits="userSpaceOnUse" gradientTransform="translate(350.166 245.241) rotate(119.193) scale(18.2846 7.1193)">
<stop stop-color="#CFA029"/>
<stop offset="1" stop-color="#9B7D2F"/>
</radialGradient>
<radialGradient id="paint27_radial" cx="0" cy="0" r="1" gradientUnits="userSpaceOnUse" gradientTransform="translate(355.582 249.647) rotate(123.818) scale(18.0992 6.34606)">
<stop stop-color="#CFA029"/>
<stop offset="1" stop-color="#9B7D2F"/>
</radialGradient>
<radialGradient id="paint28_radial" cx="0" cy="0" r="1" gradientUnits="userSpaceOnUse" gradientTransform="translate(364.942 260.513) rotate(133.438) scale(17.5577 7.41403)">
<stop stop-color="#CFA029"/>
<stop offset="1" stop-color="#9B7D2F"/>
</radialGradient>
<radialGradient id="paint29_radial" cx="0" cy="0" r="1" gradientUnits="userSpaceOnUse" gradientTransform="translate(368.573 266.464) rotate(138.502) scale(17.2184 3.55772)">
<stop stop-color="#CFA029"/>
<stop offset="1" stop-color="#9B7D2F"/>
</radialGradient>
<radialGradient id="paint30_radial" cx="0" cy="0" r="1" gradientUnits="userSpaceOnUse" gradientTransform="translate(371.855 273.316) rotate(143.78) scale(16.8479 8.18083)">
<stop stop-color="#CFA029"/>
<stop offset="1" stop-color="#9B7D2F"/>
</radialGradient>
<radialGradient id="paint31_radial" cx="0" cy="0" r="1" gradientUnits="userSpaceOnUse" gradientTransform="translate(374.499 280.635) rotate(149.302) scale(16.4594 7.44345)">
<stop stop-color="#CFA029"/>
<stop offset="1" stop-color="#9B7D2F"/>
</radialGradient>
<radialGradient id="paint32_radial" cx="0" cy="0" r="1" gradientUnits="userSpaceOnUse" gradientTransform="translate(376.479 288.348) rotate(155.093) scale(16.0676 7.62497)">
<stop stop-color="#CFA029"/>
<stop offset="1" stop-color="#9B7D2F"/>
</radialGradient>
<radialGradient id="paint33_radial" cx="0" cy="0" r="1" gradientUnits="userSpaceOnUse" gradientTransform="translate(377.778 296.377) rotate(161.169) scale(15.6884 7.80939)">
<stop stop-color="#CFA029"/>
<stop offset="1" stop-color="#9B7D2F"/>
</radialGradient>
<radialGradient id="paint34_radial" cx="0" cy="0" r="1" gradientUnits="userSpaceOnUse" gradientTransform="translate(378.396 305.152) rotate(167.537) scale(15.3378 8.48704)">
<stop stop-color="#CFA029"/>
<stop offset="1" stop-color="#9B7D2F"/>
</radialGradient>
<radialGradient id="paint35_radial" cx="0" cy="0" r="1" gradientUnits="userSpaceOnUse" gradientTransform="translate(378.253 313.58) rotate(174.182) scale(15.0328 8.6593)">
<stop stop-color="#CFA029"/>
<stop offset="1" stop-color="#9B7D2F"/>
</radialGradient>
<radialGradient id="paint36_radial" cx="0" cy="0" r="1" gradientUnits="userSpaceOnUse" gradientTransform="translate(377.482 321.559) rotate(-178.924) scale(14.7885 4.14236)">
<stop stop-color="#CFA029"/>
<stop offset="1" stop-color="#9B7D2F"/>
</radialGradient>
<radialGradient id="paint37_radial" cx="0" cy="0" r="1" gradientUnits="userSpaceOnUse" gradientTransform="translate(375.876 330.551) rotate(-171.833) scale(14.6174 8.9054)">
<stop stop-color="#CFA029"/>
<stop offset="1" stop-color="#9B7D2F"/>
</radialGradient>
<radialGradient id="paint38_radial" cx="0" cy="0" r="1" gradientUnits="userSpaceOnUse" gradientTransform="translate(370.8 347.115) rotate(-157.353) scale(14.5294 12.1214)">
<stop stop-color="#CFA029"/>
<stop offset="1" stop-color="#9B7D2F"/>
</radialGradient>
<radialGradient id="paint39_radial" cx="0" cy="0" r="1" gradientUnits="userSpaceOnUse" gradientTransform="translate(367.535 354.563) rotate(-150.135) scale(14.6174 9.42925)">
<stop stop-color="#CFA029"/>
<stop offset="1" stop-color="#9B7D2F"/>
</radialGradient>
<radialGradient id="paint40_radial" cx="0" cy="0" r="1" gradientUnits="userSpaceOnUse" gradientTransform="translate(363.224 362.612) rotate(-143.044) scale(14.7884 5.6957)">
<stop stop-color="#CFA029"/>
<stop offset="1" stop-color="#9B7D2F"/>
</radialGradient>
<radialGradient id="paint41_radial" cx="0" cy="0" r="1" gradientUnits="userSpaceOnUse" gradientTransform="translate(358.883 369.345) rotate(-136.15) scale(15.0328 4.07493)">
<stop stop-color="#CFA029"/>
<stop offset="1" stop-color="#9B7D2F"/>
</radialGradient>
<radialGradient id="paint42_radial" cx="0" cy="0" r="1" gradientUnits="userSpaceOnUse" gradientTransform="translate(353.449 376.43) rotate(-129.504) scale(15.3379 8.48708)">
<stop stop-color="#CFA029"/>
<stop offset="1" stop-color="#9B7D2F"/>
</radialGradient>
<radialGradient id="paint43_radial" cx="0" cy="0" r="1" gradientUnits="userSpaceOnUse" gradientTransform="translate(347.854 382.534) rotate(-123.136) scale(15.6883 11.226)">
<stop stop-color="#CFA029"/>
<stop offset="1" stop-color="#9B7D2F"/>
</radialGradient>
<radialGradient id="paint44_radial" cx="0" cy="0" r="1" gradientUnits="userSpaceOnUse" gradientTransform="translate(342.236 387.703) rotate(-117.06) scale(16.0677 3.8125)">
<stop stop-color="#CFA029"/>
<stop offset="1" stop-color="#9B7D2F"/>
</radialGradient>
<radialGradient id="paint45_radial" cx="0" cy="0" r="1" gradientUnits="userSpaceOnUse" gradientTransform="translate(335.531 392.831) rotate(-111.269) scale(16.4596 7.90873)">
<stop stop-color="#CFA029"/>
<stop offset="1" stop-color="#9B7D2F"/>
</radialGradient>
<radialGradient id="paint46_radial" cx="0" cy="0" r="1" gradientUnits="userSpaceOnUse" gradientTransform="translate(329.332 396.694) rotate(-105.747) scale(16.848 7.27189)">
<stop stop-color="#CFA029"/>
<stop offset="1" stop-color="#9B7D2F"/>
</radialGradient>
<radialGradient id="paint47_radial" cx="0" cy="0" r="1" gradientUnits="userSpaceOnUse" gradientTransform="translate(315.574 402.651) rotate(-95.4049) scale(17.5576 4.36118)">
<stop stop-color="#CFA029"/>
<stop offset="1" stop-color="#9B7D2F"/>
</radialGradient>
<radialGradient id="paint48_radial" cx="0" cy="0" r="1" gradientUnits="userSpaceOnUse" gradientTransform="translate(308.116 404.497) rotate(-90.5218) scale(17.8543 4.71757)">
<stop stop-color="#CFA029"/>
<stop offset="1" stop-color="#9B7D2F"/>
</radialGradient>
<radialGradient id="paint49_radial" cx="0" cy="0" r="1" gradientUnits="userSpaceOnUse" gradientTransform="translate(301.08 405.373) rotate(-85.7852) scale(18.0992 7.1922)">
<stop stop-color="#CFA029"/>
<stop offset="1" stop-color="#9B7D2F"/>
</radialGradient>
<radialGradient id="paint50_radial" cx="0" cy="0" r="1" gradientUnits="userSpaceOnUse" gradientTransform="translate(294.531 405.424) rotate(-81.1602) scale(18.2847 6.70049)">
<stop stop-color="#CFA029"/>
<stop offset="1" stop-color="#9B7D2F"/>
</radialGradient>
<radialGradient id="paint51_radial" cx="0" cy="0" r="1" gradientUnits="userSpaceOnUse" gradientTransform="translate(287.687 404.658) rotate(-76.6124) scale(18.4053 6.65655)">
<stop stop-color="#CFA029"/>
<stop offset="1" stop-color="#9B7D2F"/>
</radialGradient>
<radialGradient id="paint52_radial" cx="0" cy="0" r="1" gradientUnits="userSpaceOnUse" gradientTransform="translate(280.647 402.931) rotate(-72.1072) scale(18.4576 7.05251)">
<stop stop-color="#CFA029"/>
<stop offset="1" stop-color="#9B7D2F"/>
</radialGradient>
<radialGradient id="paint53_radial" cx="0" cy="0" r="1" gradientUnits="userSpaceOnUse" gradientTransform="translate(274.287 400.455) rotate(-67.6105) scale(18.4401 7.05926)">
<stop stop-color="#CFA029"/>
<stop offset="1" stop-color="#9B7D2F"/>
</radialGradient>
<radialGradient id="paint54_radial" cx="0" cy="0" r="1" gradientUnits="userSpaceOnUse" gradientTransform="translate(268.615 397.402) rotate(-63.0883) scale(18.3534 3.3377)">
<stop stop-color="#CFA029"/>
<stop offset="1" stop-color="#9B7D2F"/>
</radialGradient>
<radialGradient id="paint55_radial" cx="0" cy="0" r="1" gradientUnits="userSpaceOnUse" gradientTransform="translate(262.956 393.408) rotate(-58.5062) scale(18.1998 3.36586)">
<stop stop-color="#CFA029"/>
<stop offset="1" stop-color="#9B7D2F"/>
</radialGradient>
<radialGradient id="paint56_radial" cx="0" cy="0" r="1" gradientUnits="userSpaceOnUse" gradientTransform="translate(257.741 388.689) rotate(-53.8298) scale(17.9838 3.40627)">
<stop stop-color="#CFA029"/>
<stop offset="1" stop-color="#9B7D2F"/>
</radialGradient>
<radialGradient id="paint57_radial" cx="0" cy="0" r="1" gradientUnits="userSpaceOnUse" gradientTransform="translate(253.023 383.289) rotate(-49.024) scale(17.7119 4.32321)">
<stop stop-color="#CFA029"/>
<stop offset="1" stop-color="#9B7D2F"/>
</radialGradient>
<radialGradient id="paint58_radial" cx="0" cy="0" r="1" gradientUnits="userSpaceOnUse" gradientTransform="translate(248.614 376.878) rotate(-44.0547) scale(17.3926 6.60388)">
<stop stop-color="#CFA029"/>
<stop offset="1" stop-color="#9B7D2F"/>
</radialGradient>
<radialGradient id="paint59_radial" cx="0" cy="0" r="1" gradientUnits="userSpaceOnUse" gradientTransform="translate(242.136 363.13) rotate(-33.4915) scale(16.6551 7.8158)">
<stop stop-color="#CFA029"/>
<stop offset="1" stop-color="#9B7D2F"/>
</radialGradient>
<radialGradient id="paint60_radial" cx="0" cy="0" r="1" gradientUnits="userSpaceOnUse" gradientTransform="translate(239.861 355.581) rotate(-27.8376) scale(16.263 8.00422)">
<stop stop-color="#CFA029"/>
<stop offset="1" stop-color="#9B7D2F"/>
</radialGradient>
<radialGradient id="paint61_radial" cx="0" cy="0" r="1" gradientUnits="userSpaceOnUse" gradientTransform="translate(238.261 347.681) rotate(-21.9051) scale(15.8753 8.19965)">
<stop stop-color="#CFA029"/>
<stop offset="1" stop-color="#9B7D2F"/>
</radialGradient>
<radialGradient id="paint62_radial" cx="0" cy="0" r="1" gradientUnits="userSpaceOnUse" gradientTransform="translate(237.142 331.145) rotate(-9.17388) scale(15.1787 8.57606)">
<stop stop-color="#CFA029"/>
<stop offset="1" stop-color="#9B7D2F"/>
</radialGradient>
<radialGradient id="paint63_radial" cx="0" cy="0" r="1" gradientUnits="userSpaceOnUse" gradientTransform="translate(237.635 322.673) rotate(-2.39896) scale(14.9021 8.73523)">
<stop stop-color="#CFA029"/>
<stop offset="1" stop-color="#9B7D2F"/>
</radialGradient>
<radialGradient id="paint64_radial" cx="0" cy="0" r="1" gradientUnits="userSpaceOnUse" gradientTransform="translate(238.824 314.176) rotate(4.60125) scale(14.693 7.81727)">
<stop stop-color="#CFA029"/>
<stop offset="1" stop-color="#9B7D2F"/>
</radialGradient>
<linearGradient id="paint65_linear" x1="271.798" y1="338.472" x2="331.308" y2="304.192" gradientUnits="userSpaceOnUse">
<stop stop-color="#F0C32C"/>
<stop offset="1" stop-color="#E8B71C"/>
</linearGradient>
<linearGradient id="paint66_linear" x1="279.578" y1="344.335" x2="333.235" y2="303.468" gradientUnits="userSpaceOnUse">
<stop stop-color="#FFEF86"/>
<stop offset="1" stop-color="#FFEF87" stop-opacity="0.6"/>
</linearGradient>
<linearGradient id="paint67_linear" x1="297.618" y1="341.803" x2="327.741" y2="311.318" gradientUnits="userSpaceOnUse">
<stop stop-color="#F0C42D"/>
<stop offset="0.300674" stop-color="#E0AD11"/>
<stop offset="0.673528" stop-color="#F0C32C"/>
<stop offset="0.95457" stop-color="#E0AC11"/>
</linearGradient>
<linearGradient id="paint68_linear" x1="290.487" y1="336.076" x2="321.815" y2="286.995" gradientUnits="userSpaceOnUse">
<stop stop-color="#FDF2B1"/>
<stop offset="0.330225" stop-color="#E2CA68"/>
<stop offset="0.620659" stop-color="#FDF2B1"/>
<stop offset="1" stop-color="#E2CA68"/>
</linearGradient>
</defs>
</svg>
