<svg width="990" height="733" viewBox="0 0 990 733" fill="none" xmlns="http://www.w3.org/2000/svg">
<path d="M890 60C890 26.8629 863.137 0 830 0H-60V642H830C863.137 642 890 615.137 890 582V60Z" fill="#F2F2F2"/>
<g filter="url(#filter0_d)">
<path d="M582.714 660.949V682.177L958.474 590.43C959.37 590.212 960 589.409 960 588.488V568.831L582.714 660.949Z" fill="url(#paint0_linear)"/>
<path d="M183 491.131V511.035C183 511.837 183.479 512.562 184.218 512.875L582.714 682.177V660.949L382.857 576.04L183 491.131Z" fill="url(#paint1_linear)"/>
<path d="M582.714 660.949L960 568.831L760.143 483.921L742.32 476.349L724.497 468.777L706.674 461.205L697.801 457.58C697.401 459.256 696.995 460.937 696.582 462.622C693.678 474.472 690.445 486.534 686.848 498.74C653.526 611.846 603.541 654.007 582.714 660.949Z" fill="url(#paint2_linear)"/>
<path d="M582.714 660.949V682.177L958.474 590.43C959.37 590.212 960 589.409 960 588.488V568.831L582.714 660.949Z" fill="url(#paint3_linear)"/>
<path d="M616.974 634.894L722.328 609.196L714.275 605.778L611.619 630.818C610.684 631.047 610.579 632.334 611.465 632.711L616.524 634.858C616.666 634.918 616.824 634.931 616.974 634.894Z" fill="#DAD0BB"/>
<path d="M595.154 623.831C594.219 624.059 594.115 625.347 595.001 625.723L600.004 627.846C600.203 627.93 600.423 627.948 600.632 627.897L719.435 598.897L711.412 595.472L595.154 623.831Z" fill="#DAD0BB"/>
<path d="M578.869 616.919C577.934 617.147 577.83 618.435 578.716 618.811L583.689 620.921C583.887 621.006 584.107 621.023 584.316 620.972L712.664 589.665L704.611 586.247L578.869 616.919Z" fill="#DAD0BB"/>
<path d="M563.658 610.463C562.723 610.691 562.618 611.979 563.504 612.355L568.496 614.473C568.694 614.557 568.915 614.575 569.124 614.524L689.221 585.217L681.168 581.799L563.658 610.463Z" fill="#DAD0BB"/>
<path d="M548.626 604.082C547.69 604.31 547.586 605.598 548.472 605.974L553.445 608.085C553.643 608.169 553.863 608.187 554.072 608.136L694.948 573.773L686.895 570.355L548.626 604.082Z" fill="#DAD0BB"/>
<path d="M530.387 598.298L538.44 601.717L664.704 570.918L656.651 567.5L530.387 598.298Z" fill="#DAD0BB"/>
<path d="M767.568 595.644L872.922 569.946L864.869 566.528L762.212 591.568C761.277 591.797 761.173 593.084 762.059 593.461L767.118 595.608C767.26 595.668 767.418 595.681 767.568 595.644Z" fill="#DAD0BB"/>
<path d="M745.748 584.581C744.813 584.809 744.709 586.097 745.595 586.473L750.598 588.596C750.796 588.68 751.017 588.698 751.226 588.647L870.028 559.647L862.006 556.222L745.748 584.581Z" fill="#DAD0BB"/>
<path d="M729.463 577.669C728.528 577.897 728.423 579.185 729.309 579.561L734.282 581.671C734.481 581.756 734.701 581.773 734.91 581.722L863.258 550.415L855.205 546.997L729.463 577.669Z" fill="#DAD0BB"/>
<path d="M714.252 571.213C713.317 571.441 713.212 572.729 714.098 573.105L719.09 575.223C719.288 575.307 719.508 575.325 719.718 575.274L839.815 545.967L831.762 542.549L714.252 571.213Z" fill="#DAD0BB"/>
<path d="M699.219 564.832C698.284 565.06 698.18 566.348 699.066 566.724L704.038 568.835C704.237 568.919 704.457 568.937 704.666 568.886L845.541 534.523L837.488 531.105L699.219 564.832Z" fill="#DAD0BB"/>
<path d="M680.98 559.048L689.034 562.467L815.298 531.668L807.244 528.25L680.98 559.048Z" fill="#DAD0BB"/>
<path d="M673.045 549.985L778.399 524.287L770.346 520.869L667.69 545.909C666.755 546.137 666.65 547.425 667.536 547.801L672.596 549.949C672.738 550.009 672.895 550.022 673.045 549.985Z" fill="#DAD0BB"/>
<path d="M651.226 538.921C650.291 539.149 650.186 540.437 651.072 540.813L656.076 542.937C656.274 543.021 656.494 543.039 656.703 542.988L775.506 513.988L767.483 510.563L651.226 538.921Z" fill="#DAD0BB"/>
<path d="M634.941 532.01C634.006 532.238 633.901 533.526 634.787 533.902L639.76 536.012C639.958 536.096 640.178 536.114 640.388 536.063L768.736 504.756L760.683 501.338L634.941 532.01Z" fill="#DAD0BB"/>
<path d="M619.729 525.553C618.794 525.781 618.69 527.069 619.576 527.445L624.567 529.564C624.766 529.648 624.986 529.666 625.195 529.615L745.292 500.308L737.239 496.89L619.729 525.553Z" fill="#DAD0BB"/>
<path d="M604.697 519.173C603.762 519.401 603.657 520.689 604.543 521.065L609.516 523.176C609.714 523.26 609.934 523.278 610.144 523.227L751.019 488.864L742.966 485.446L604.697 519.173Z" fill="#DAD0BB"/>
<path d="M586.458 513.389L594.511 516.807L720.775 486.009L712.722 482.591L586.458 513.389Z" fill="#DAD0BB"/>
<path fill-rule="evenodd" clip-rule="evenodd" d="M382.857 576.04L582.714 660.949C603.541 654.007 653.526 611.846 686.848 498.74C690.956 484.798 694.591 471.045 697.801 457.58L697.806 457.556C720.357 362.944 721.946 282.495 719.386 249.986C719.327 249.247 718.863 248.637 718.181 248.347L519.433 163.909L322.631 80.2982C321.245 79.709 319.725 80.7944 319.828 82.2975C322.494 121.008 319.494 219.085 287.134 328.922C253.811 442.027 203.827 484.188 183 491.131L382.857 576.04Z" fill="url(#paint4_linear)"/>
<path d="M183 491.131V511.035C183 511.837 183.479 512.562 184.218 512.875L582.714 682.177V660.949L382.857 576.04L183 491.131Z" fill="url(#paint5_linear)"/>
<path d="M496.233 287.716C451.663 272.355 399.699 305.843 380.168 362.513C360.637 419.183 380.935 477.575 425.504 492.936C470.074 508.297 522.038 474.81 541.569 418.14C561.1 361.47 540.803 303.077 496.233 287.716Z" fill="url(#paint6_linear)"/>
<path d="M490.011 305.368C526.764 318.034 543.502 366.148 527.417 412.82C511.331 459.492 468.504 487.076 431.751 474.41C394.998 461.743 378.259 413.629 394.345 366.957C410.43 320.285 453.258 292.701 490.011 305.368Z" stroke="url(#paint7_linear)" stroke-width="24"/>
<path d="M389.524 438.812L397.484 433.568C397.682 433.438 397.908 433.503 398.002 433.714C401.643 441.812 403.837 446.031 408.607 451.999C408.736 452.162 408.728 452.438 408.584 452.634L403.613 459.437C403.457 459.651 403.203 459.691 403.053 459.525C400.411 456.592 398.916 454.46 396.639 450.371C396.53 450.176 396.584 449.887 396.76 449.719L398.09 448.452C398.272 448.279 398.515 448.299 398.632 448.495C399.672 450.234 400.397 451.244 401.619 452.648C401.755 452.804 401.985 452.787 402.145 452.609L403.473 451.144C403.638 450.961 403.672 450.674 403.552 450.492C401.337 447.153 400.096 445.132 398.272 441.756C398.168 441.562 397.942 441.524 397.757 441.669L391.592 446.55C391.392 446.708 391.322 447.021 391.436 447.231C395.926 455.515 398.606 460.262 405.526 466.611C405.676 466.748 405.907 466.708 406.056 466.517L413.299 457.207C413.447 457.017 413.678 456.977 413.828 457.111C419.902 462.551 422.722 464.726 429.259 467.805C429.437 467.888 429.514 468.134 429.433 468.37L426.637 476.555C426.549 476.812 426.311 476.961 426.112 476.883C422.606 475.505 420.475 474.313 416.971 471.759C416.804 471.637 416.767 471.36 416.889 471.134L417.808 469.429C417.934 469.196 418.179 469.104 418.355 469.223C419.916 470.277 420.942 470.834 422.578 471.512C422.76 471.588 422.981 471.47 423.084 471.242L423.939 469.364C424.046 469.13 423.991 468.863 423.816 468.758C420.605 466.833 418.759 465.623 415.922 463.491C415.759 463.368 415.524 463.436 415.388 463.646L410.822 470.686C410.674 470.914 410.642 471.376 410.819 471.509C417.796 476.735 421.959 479.524 430.729 481.968C430.921 482.021 431.139 481.878 431.225 481.64L435.281 470.266C435.364 470.032 435.576 469.888 435.766 469.933C443.493 471.74 447.033 472.307 454.447 471.853C454.648 471.841 454.804 472.017 454.802 472.258L454.733 480.649C454.731 480.912 454.547 481.154 454.327 481.181C450.444 481.659 447.968 481.643 443.703 481.106C443.5 481.08 443.374 480.858 443.419 480.605L443.762 478.697C443.809 478.436 444.02 478.24 444.231 478.259C446.103 478.427 447.289 478.42 449.113 478.228C449.316 478.206 449.494 477.999 449.521 477.754L449.746 475.727C449.774 475.475 449.633 475.27 449.428 475.263C445.655 475.128 443.452 474.962 439.978 474.47C439.778 474.442 439.57 474.612 439.505 474.858L437.331 483.102C437.261 483.369 437.387 483.62 437.603 483.65C446.143 484.843 451.124 485.435 460.514 483.373C460.716 483.328 460.882 483.105 460.892 482.862L461.344 471.004C461.354 470.761 461.518 470.539 461.72 470.493C469.884 468.601 473.468 467.51 480.623 463.787C480.817 463.686 481.025 463.77 481.097 463.982L483.619 471.351C483.699 471.583 483.592 471.877 483.383 471.999C479.706 474.162 477.263 475.261 472.897 476.708C472.689 476.777 472.496 476.639 472.463 476.398L472.212 474.574C472.178 474.325 472.325 474.059 472.539 473.981C474.434 473.286 475.6 472.747 477.337 471.759C477.531 471.649 477.642 471.388 477.593 471.161L477.188 469.288C477.138 469.055 476.937 468.939 476.732 469.025C472.975 470.603 470.754 471.447 467.181 472.579C466.975 472.644 466.823 472.886 466.836 473.131L467.238 481.318C467.251 481.583 467.453 481.745 467.675 481.674C476.452 478.88 481.539 477.16 490.147 471.139C490.334 471.008 490.429 470.734 490.359 470.516L486.986 460.096C486.917 459.884 487.006 459.616 487.186 459.479C494.551 453.924 497.79 451.179 503.564 444.529C503.721 444.348 503.951 444.321 504.092 444.468L508.991 449.595C509.144 449.756 509.137 450.06 508.974 450.266C506.091 453.894 504.065 456.014 500.272 459.357C500.091 459.517 499.857 459.491 499.745 459.299L498.899 457.851C498.782 457.653 498.838 457.354 499.022 457.184C500.647 455.675 501.609 454.651 502.982 452.966C503.134 452.778 503.156 452.5 503.034 452.329L502.02 450.912C501.893 450.735 501.659 450.733 501.487 450.905C498.333 454.068 496.44 455.862 493.318 458.554C493.139 458.709 493.07 458.989 493.163 459.194L496.259 466.043C496.359 466.265 496.609 466.308 496.804 466.14C504.468 459.516 508.875 455.59 515.308 446.269C515.447 446.068 515.451 445.79 515.315 445.635L508.682 438.084C508.546 437.929 508.55 437.653 508.687 437.452C514.221 429.288 516.499 425.547 520.13 417.145C520.228 416.916 520.447 416.788 520.632 416.854L527.038 419.136C527.238 419.208 527.326 419.477 527.228 419.73C525.51 424.2 524.167 426.964 521.464 431.593C521.335 431.814 521.097 431.896 520.928 431.779L519.647 430.893C519.472 430.772 519.434 430.485 519.563 430.254C520.696 428.204 521.329 426.876 522.16 424.786C522.253 424.553 522.189 424.299 522.015 424.204L520.579 423.42C520.401 423.323 520.168 423.426 520.052 423.654C517.922 427.839 516.611 430.258 514.368 434.015C514.238 434.231 514.258 434.508 514.413 434.645L519.575 439.245C519.742 439.393 520.125 439.368 520.264 439.134C525.765 429.898 528.772 424.433 532.232 413.394C532.307 413.153 532.222 412.907 532.037 412.835L523.16 409.457C522.978 409.388 522.893 409.149 522.961 408.911C525.718 399.233 526.764 394.835 527.578 385.851C527.599 385.607 527.772 385.393 527.974 385.362L534.992 384.286C535.213 384.253 535.386 384.444 535.372 384.709C535.148 389.381 534.736 392.404 533.599 397.683C533.544 397.934 533.338 398.119 533.133 398.098L531.59 397.943C531.379 397.921 531.249 397.692 531.299 397.431C531.741 395.124 531.925 393.677 532.059 391.479C532.074 391.234 531.929 391.046 531.727 391.046L530.065 391.052C529.859 391.053 529.665 391.253 529.626 391.505C528.904 396.127 528.411 398.837 527.44 403.146C527.384 403.393 527.493 403.622 527.688 403.668L534.245 405.182C534.457 405.231 534.688 405.043 534.748 404.774C537.122 394.189 538.42 388.03 538.205 376.857C538.2 376.616 538.04 376.444 537.838 376.466L527.976 377.552C527.775 377.574 527.616 377.404 527.608 377.164C527.338 367.464 527.002 363.241 525.035 355.025C524.981 354.802 525.085 354.537 525.274 354.419L531.854 350.324C532.061 350.196 532.29 350.285 532.358 350.523C533.579 354.71 534.106 357.54 534.615 362.667C534.639 362.911 534.493 363.165 534.285 363.239L532.718 363.797C532.503 363.873 532.304 363.731 532.273 363.48C531.997 361.264 531.732 359.915 531.185 357.933C531.123 357.712 530.923 357.613 530.724 357.704L529.09 358.456C528.886 358.549 528.757 358.811 528.796 359.049C529.513 363.416 529.863 366.008 530.236 370.213C530.257 370.454 530.435 370.606 530.642 370.558L537.565 368.936C537.789 368.883 537.958 368.615 537.935 368.353C537.008 358.03 536.385 352.061 532.728 342.389C532.648 342.177 532.434 342.1 532.24 342.215L524.123 347.096C523.928 347.212 523.713 347.144 523.621 346.942C519.957 338.846 517.754 334.635 512.966 328.679C512.836 328.518 512.844 328.241 512.987 328.045L517.945 321.229C518.101 321.014 518.355 320.974 518.505 321.139C521.154 324.064 522.655 326.189 524.942 330.27C525.051 330.465 524.998 330.754 524.822 330.922L523.494 332.193C523.312 332.367 523.069 332.347 522.952 332.151C521.908 330.416 521.18 329.409 519.955 328.009C519.819 327.854 519.589 327.872 519.428 328.05L518.104 329.518C517.939 329.702 517.905 329.989 518.026 330.17C520.248 333.503 521.494 335.518 523.326 338.887C523.431 339.08 523.658 339.118 523.842 338.971L529.998 334.074C530.198 333.915 530.268 333.601 530.154 333.392C525.644 325.125 522.952 320.39 516.016 314.063C515.866 313.927 515.634 313.969 515.486 314.16L508.26 323.489C508.112 323.68 507.882 323.721 507.732 323.586C501.643 318.168 498.817 316.003 492.271 312.946C492.093 312.863 492.015 312.618 492.095 312.382L494.875 304.191C494.963 303.934 495.201 303.784 495.399 303.861C498.91 305.228 501.044 306.413 504.555 308.954C504.723 309.075 504.76 309.352 504.639 309.578L503.723 311.286C503.598 311.519 503.352 311.613 503.176 311.494C501.612 310.446 500.585 309.892 498.947 309.218C498.764 309.145 498.544 309.263 498.441 309.491L497.589 311.371C497.483 311.605 497.538 311.872 497.713 311.976C500.93 313.891 502.779 315.094 505.623 317.216C505.786 317.339 506.021 317.27 506.157 317.059L510.709 310.007C510.857 309.779 510.887 309.318 510.71 309.184C503.719 303.982 499.549 301.208 490.77 298.793C490.578 298.741 490.36 298.885 490.275 299.122L486.242 310.506C486.159 310.739 485.947 310.883 485.757 310.839C478.023 309.057 474.48 308.502 467.065 308.978C466.863 308.992 466.708 308.816 466.709 308.574L466.759 300.187C466.76 299.924 466.944 299.682 467.165 299.654C471.048 299.164 473.525 299.173 477.792 299.697C477.996 299.721 478.123 299.943 478.077 300.196L477.738 302.105C477.692 302.365 477.482 302.561 477.27 302.543C475.397 302.381 474.211 302.391 472.387 302.59C472.184 302.612 472.006 302.819 471.98 303.065L471.759 305.092C471.732 305.344 471.873 305.548 472.079 305.554C475.853 305.678 478.057 305.836 481.534 306.317C481.734 306.345 481.941 306.174 482.006 305.928L484.163 297.68C484.233 297.413 484.106 297.162 483.889 297.133C475.344 295.968 470.36 295.392 460.971 297.483C460.768 297.529 460.603 297.751 460.594 297.995L460.167 309.849C460.158 310.092 459.993 310.314 459.792 310.362C451.629 312.278 448.046 313.38 440.896 317.125C440.702 317.226 440.494 317.144 440.421 316.931L437.882 309.573C437.803 309.342 437.909 309.048 438.117 308.924C441.791 306.751 444.232 305.644 448.597 304.184C448.805 304.115 448.998 304.252 449.032 304.493L449.286 306.315C449.321 306.564 449.175 306.83 448.961 306.91C447.067 307.609 445.901 308.151 444.166 309.146C443.973 309.256 443.862 309.516 443.911 309.744L444.32 311.615C444.371 311.848 444.572 311.964 444.777 311.877C448.533 310.288 450.752 309.436 454.324 308.294C454.53 308.228 454.681 307.985 454.669 307.741L454.248 299.559C454.234 299.294 454.033 299.131 453.81 299.203C445.036 302.024 439.951 303.76 431.353 309.806C431.165 309.937 431.072 310.211 431.141 310.429L434.539 320.834C434.608 321.046 434.52 321.314 434.34 321.451C426.984 327.028 423.75 329.782 417.989 336.448C417.832 336.629 417.602 336.657 417.46 336.51L412.549 331.401C412.394 331.241 412.401 330.936 412.564 330.73C415.44 327.094 417.463 324.969 421.249 321.615C421.43 321.455 421.664 321.48 421.777 321.671L422.627 323.116C422.743 323.313 422.688 323.613 422.505 323.784C420.883 325.297 419.922 326.324 418.553 328.012C418.4 328.2 418.378 328.478 418.502 328.649L419.519 330.063C419.646 330.239 419.881 330.241 420.052 330.068C423.201 326.896 425.09 325.097 428.207 322.396C428.387 322.241 428.455 321.96 428.362 321.755L425.25 314.919C425.149 314.697 424.898 314.655 424.704 314.823C417.052 321.469 412.651 325.408 406.235 334.746C406.097 334.947 406.094 335.224 406.23 335.379L412.882 342.907C413.018 343.061 413.015 343.336 412.879 343.538C407.359 351.716 405.09 355.463 401.475 363.874C401.377 364.102 401.159 364.231 400.974 364.166L394.56 361.905C394.359 361.834 394.272 361.565 394.369 361.311C396.078 356.839 397.415 354.071 400.109 349.436C400.238 349.214 400.476 349.131 400.646 349.248L401.929 350.129C402.105 350.25 402.142 350.536 402.015 350.768C400.885 352.82 400.256 354.15 399.428 356.242C399.336 356.475 399.4 356.728 399.574 356.823L401.012 357.602C401.191 357.698 401.423 357.595 401.539 357.366C403.661 353.177 404.966 350.754 407.203 346.991C407.332 346.775 407.312 346.498 407.157 346.362L401.983 341.781C401.815 341.633 401.433 341.659 401.293 341.893C395.81 351.143 392.814 356.615 389.377 367.661C389.302 367.902 389.387 368.148 389.573 368.219L398.46 371.567C398.642 371.636 398.729 371.875 398.662 372.113C395.923 381.796 394.888 386.196 394.093 395.179C394.071 395.422 393.9 395.637 393.697 395.669L386.679 396.766C386.458 396.801 386.285 396.61 386.297 396.345C386.512 391.674 386.918 388.65 388.044 383.371C388.098 383.119 388.303 382.934 388.508 382.954L390.052 383.104C390.264 383.125 390.394 383.354 390.345 383.615C389.908 385.923 389.726 387.369 389.598 389.567C389.584 389.812 389.729 390 389.93 389.999L391.593 389.987C391.8 389.986 391.993 389.786 392.032 389.534C392.743 384.911 393.231 382.2 394.193 377.891C394.248 377.643 394.139 377.414 393.943 377.369L387.381 375.876C387.169 375.828 386.938 376.017 386.879 376.286C384.526 386.874 383.241 393.035 383.481 404.203C383.486 404.443 383.647 404.615 383.849 404.592L393.712 403.475C393.914 403.453 394.073 403.623 394.081 403.862C394.372 413.558 394.718 417.778 396.704 425.984C396.758 426.207 396.655 426.472 396.465 426.591L389.892 430.705C389.686 430.834 389.456 430.745 389.386 430.508C388.157 426.326 387.623 423.5 387.103 418.376C387.078 418.131 387.224 417.877 387.431 417.803L388.999 417.24C389.213 417.163 389.412 417.305 389.444 417.555C389.726 419.77 389.993 421.117 390.545 423.097C390.607 423.318 390.808 423.417 391.006 423.325L392.639 422.568C392.843 422.474 392.971 422.212 392.932 421.974C392.206 417.611 391.85 415.021 391.468 410.819C391.446 410.577 391.267 410.426 391.06 410.475L384.137 412.119C383.913 412.172 383.745 412.441 383.769 412.703C384.72 423.019 385.355 428.984 389.035 438.64C389.116 438.851 389.33 438.928 389.524 438.812Z" stroke="url(#paint8_linear)" stroke-width="2"/>
<path d="M495.689 289.296C539.641 304.445 559.669 361.993 540.424 417.834C521.178 473.674 469.947 506.663 425.994 491.515C382.042 476.367 362.014 418.818 381.259 362.978C400.505 307.137 451.736 274.148 495.689 289.296Z" stroke="#CFA31F" stroke-width="9"/>
<path d="M495.308 290.402C538.779 305.385 558.589 362.303 539.554 417.534C520.519 472.764 469.847 505.391 426.376 490.409C382.904 475.426 363.094 418.508 382.129 363.277C401.164 308.047 451.836 275.42 495.308 290.402Z" stroke="#EACD75"/>
<path d="M408.222 370.416C408.544 370.562 408.752 370.808 408.845 371.157C408.94 371.504 408.907 371.907 408.749 372.368C408.575 372.872 408.305 373.223 407.939 373.421C407.572 373.617 407.156 373.635 406.69 373.474L406.501 373.409C406.204 373.307 405.965 373.15 405.784 372.938C405.604 372.727 405.496 372.477 405.46 372.189C405.424 371.899 405.463 371.59 405.576 371.263C405.732 370.809 405.953 370.477 406.24 370.265C406.527 370.054 406.85 369.986 407.211 370.062L406.931 370.872C406.725 370.823 406.556 370.844 406.425 370.936C406.292 371.025 406.184 371.194 406.098 371.443C406.005 371.713 406.012 371.941 406.118 372.129C406.223 372.314 406.436 372.464 406.754 372.578L406.988 372.659C407.322 372.774 407.588 372.794 407.787 372.719C407.985 372.643 408.133 372.466 408.228 372.189C408.315 371.939 408.334 371.737 408.287 371.584C408.239 371.428 408.124 371.309 407.942 371.226L408.222 370.416Z" fill="url(#paint9_radial)"/>
<path d="M411.12 364.32L410.522 365.694L411.014 366.255L410.651 367.089L408.326 364.22L408.642 363.494L412.204 363.521L411.841 364.355L411.12 364.32ZM410.123 365.24L410.537 364.289L409.228 364.224L410.123 365.24Z" fill="url(#paint10_radial)"/>
<path d="M413.856 358.41C413.749 358.339 413.64 358.335 413.53 358.398C413.418 358.459 413.262 358.599 413.06 358.818C412.857 359.035 412.684 359.199 412.541 359.31C412.151 359.612 411.813 359.668 411.525 359.479C411.376 359.38 411.273 359.237 411.215 359.05C411.157 358.861 411.15 358.641 411.195 358.391C411.24 358.139 411.331 357.884 411.469 357.626C411.608 357.365 411.767 357.157 411.948 357.002C412.127 356.845 412.312 356.754 412.501 356.728C412.692 356.701 412.87 356.742 413.036 356.851L412.636 357.601C412.51 357.518 412.383 357.506 412.258 357.565C412.131 357.623 412.017 357.747 411.916 357.937C411.818 358.121 411.772 358.283 411.777 358.424C411.781 358.564 411.831 358.666 411.927 358.729C412.017 358.789 412.124 358.779 412.248 358.701C412.372 358.621 412.523 358.482 412.699 358.286C413.024 357.923 413.311 357.692 413.559 357.592C413.807 357.492 414.039 357.513 414.254 357.655C414.493 357.813 414.617 358.056 414.626 358.384C414.635 358.712 414.531 359.078 414.316 359.482C414.167 359.762 413.993 359.991 413.793 360.171C413.592 360.349 413.391 360.454 413.191 360.487C412.992 360.518 412.803 360.474 412.624 360.356L413.026 359.603C413.33 359.805 413.611 359.665 413.867 359.185C413.962 359.006 414.009 358.849 414.008 358.713C414.005 358.576 413.955 358.475 413.856 358.41Z" fill="url(#paint11_radial)"/>
<path d="M418.903 351.735L418.449 352.444L417.353 351.511L416.467 352.894L417.562 353.828L417.108 354.537L414.553 352.36L415.007 351.651L416.043 352.533L416.929 351.15L415.893 350.268L416.348 349.558L418.903 351.735Z" fill="url(#paint12_radial)"/>
<path d="M421.752 345.564L420.783 346.833L421.732 347.858L421.228 348.519L418.905 346.011L420.5 343.922L420.888 344.34L419.797 345.768L420.397 346.416L421.366 345.147L421.752 345.564Z" fill="url(#paint13_radial)"/>
<path d="M425.375 342.59L426.542 341.303L426.885 341.769L425.167 343.663L423.1 340.847L423.65 340.241L425.375 342.59Z" fill="url(#paint14_radial)"/>
<path d="M431.107 336.651L430.073 337.607L430.246 338.427L429.619 339.007L428.893 334.927L429.439 334.421L432.301 336.525L431.674 337.105L431.107 336.651ZM429.933 336.944L430.649 336.282L429.619 335.456L429.933 336.944Z" fill="url(#paint15_radial)"/>
<path d="M435.683 332.635C435.625 332.505 435.539 332.438 435.424 332.433C435.31 332.426 435.127 332.468 434.877 332.557C434.626 332.646 434.421 332.7 434.261 332.722C433.826 332.782 433.53 332.637 433.374 332.29C433.293 332.109 433.267 331.913 433.296 331.702C433.325 331.488 433.407 331.276 433.543 331.064C433.681 330.851 433.857 330.662 434.072 330.497C434.288 330.331 434.5 330.227 434.708 330.184C434.915 330.14 435.101 330.161 435.264 330.247C435.429 330.332 435.556 330.475 435.646 330.676L435.023 331.155C434.954 331.002 434.857 330.917 434.732 330.9C434.607 330.881 434.465 330.933 434.307 331.054C434.155 331.171 434.052 331.298 434 331.435C433.947 331.571 433.947 331.696 433.999 331.813C434.047 331.921 434.137 331.975 434.269 331.973C434.401 331.969 434.578 331.926 434.8 331.842C435.207 331.687 435.531 331.635 435.771 331.685C436.011 331.734 436.19 331.889 436.306 332.15C436.436 332.439 436.439 332.743 436.315 333.06C436.19 333.376 435.96 333.663 435.625 333.921C435.392 334.1 435.159 334.216 434.926 334.27C434.693 334.322 434.488 334.305 434.314 334.219C434.141 334.132 434.006 333.98 433.909 333.765L434.535 333.284C434.7 333.653 434.982 333.684 435.381 333.377C435.529 333.263 435.63 333.141 435.684 333.011C435.737 332.88 435.736 332.755 435.683 332.635Z" fill="url(#paint16_radial)"/>
<path d="M442.429 329.241L441.778 329.65L441.269 328.125L439.999 328.921L440.509 330.446L439.858 330.854L438.669 327.296L439.32 326.888L439.802 328.33L441.071 327.533L440.589 326.092L441.24 325.683L442.429 329.241Z" fill="url(#paint17_radial)"/>
<path d="M452.596 321.133L451.575 321.513L452.025 324.745L451.338 324.999L450.889 321.767L449.882 322.142L449.792 321.494L452.506 320.485L452.596 321.133Z" fill="url(#paint18_radial)"/>
<path d="M458.233 321.14L456.899 321.476L456.954 322.543L458.519 322.15L458.553 322.809L456.294 323.376L456.089 319.392L458.343 318.825L458.377 319.491L456.818 319.882L456.867 320.832L458.2 320.497L458.233 321.14Z" fill="url(#paint19_radial)"/>
<path d="M464.437 320.5C464.397 320.938 464.251 321.3 464.001 321.581C463.751 321.865 463.429 322.031 463.034 322.082C462.601 322.14 462.266 322.011 462.029 321.695C461.793 321.377 461.686 320.913 461.705 320.304L461.713 320.056C461.726 319.666 461.794 319.317 461.918 319.004C462.042 318.693 462.212 318.445 462.429 318.259C462.647 318.071 462.897 317.959 463.178 317.922C463.567 317.871 463.877 317.954 464.107 318.173C464.336 318.392 464.462 318.725 464.485 319.173L463.79 319.264C463.781 319.005 463.726 318.825 463.625 318.721C463.526 318.616 463.369 318.578 463.156 318.606C462.924 318.637 462.747 318.76 462.625 318.976C462.504 319.189 462.436 319.504 462.419 319.924L462.409 320.23C462.395 320.667 462.439 320.98 462.542 321.167C462.647 321.355 462.818 321.434 463.056 321.402C463.27 321.374 463.432 321.294 463.541 321.163C463.651 321.032 463.718 320.841 463.742 320.591L464.437 320.5Z" fill="url(#paint20_radial)"/>
<path d="M470.425 321.606L469.736 321.614L469.936 319.868L468.593 319.884L468.392 321.63L467.704 321.638L468.171 317.564L468.86 317.556L468.67 319.207L470.014 319.191L470.202 317.542L470.891 317.533L470.425 321.606Z" fill="url(#paint21_radial)"/>
<path d="M475.96 322.098L475.284 322.022L474.493 319.206L473.969 321.874L473.293 321.799L474.09 317.743L474.766 317.819L475.558 320.641L476.084 317.966L476.757 318.042L475.96 322.098Z" fill="url(#paint22_radial)"/>
<path d="M481.536 321.275C481.426 321.668 481.274 321.999 481.08 322.27C480.886 322.541 480.663 322.731 480.411 322.842C480.16 322.953 479.902 322.977 479.635 322.912C479.371 322.849 479.158 322.712 478.996 322.502C478.833 322.293 478.736 322.028 478.705 321.706C478.675 321.381 478.712 321.026 478.818 320.642L478.874 320.444C478.984 320.05 479.137 319.718 479.333 319.446C479.531 319.173 479.755 318.982 480.005 318.872C480.257 318.761 480.516 318.737 480.781 318.802C481.046 318.867 481.259 319.004 481.42 319.214C481.583 319.423 481.678 319.692 481.706 320.02C481.736 320.345 481.696 320.704 481.587 321.096L481.536 321.275ZM480.923 320.932C481.04 320.513 481.069 320.181 481.011 319.934C480.952 319.686 480.812 319.537 480.59 319.484C480.371 319.429 480.17 319.496 479.99 319.683C479.811 319.869 479.662 320.169 479.544 320.585L479.49 320.78C479.375 321.189 479.346 321.52 479.402 321.775C479.459 322.028 479.6 322.182 479.824 322.237C480.044 322.289 480.244 322.222 480.422 322.034C480.602 321.845 480.75 321.543 480.868 321.127L480.923 320.932Z" fill="url(#paint23_radial)"/>
<path d="M484.871 323.735L486.208 324.244L485.971 324.891L484.004 324.142L485.435 320.239L486.066 320.478L484.871 323.735Z" fill="url(#paint24_radial)"/>
<path d="M491.963 325.619C491.793 325.99 491.594 326.287 491.364 326.514C491.135 326.739 490.892 326.877 490.634 326.928C490.377 326.981 490.126 326.943 489.884 326.813C489.644 326.684 489.464 326.495 489.344 326.245C489.224 325.994 489.177 325.701 489.2 325.368C489.225 325.034 489.32 324.685 489.484 324.323L489.57 324.137C489.741 323.764 489.941 323.466 490.172 323.24C490.405 323.012 490.65 322.872 490.906 322.823C491.165 322.77 491.414 322.81 491.656 322.938C491.898 323.067 492.077 323.258 492.195 323.509C492.314 323.76 492.361 324.054 492.333 324.391C492.307 324.728 492.21 325.08 492.041 325.449L491.963 325.619ZM491.436 325.125C491.618 324.729 491.701 324.401 491.686 324.138C491.672 323.873 491.563 323.689 491.362 323.58C491.161 323.474 490.96 323.493 490.757 323.639C490.556 323.782 490.365 324.05 490.184 324.44L490.099 324.625C489.923 325.009 489.841 325.336 489.852 325.607C489.864 325.876 489.971 326.067 490.176 326.176C490.376 326.283 490.577 326.264 490.778 326.117C490.979 325.969 491.171 325.699 491.352 325.308L491.436 325.125Z" fill="url(#paint25_radial)"/>
<path d="M496.311 330.225C496.121 330.313 495.909 330.337 495.676 330.296C495.443 330.254 495.215 330.155 494.992 329.996C494.757 329.831 494.589 329.617 494.486 329.357C494.386 329.097 494.36 328.803 494.407 328.476C494.456 328.15 494.577 327.812 494.769 327.461L494.906 327.217C495.106 326.858 495.325 326.58 495.562 326.381C495.801 326.182 496.045 326.075 496.293 326.058C496.545 326.039 496.786 326.111 497.017 326.274C497.338 326.501 497.533 326.78 497.6 327.113C497.668 327.444 497.611 327.815 497.427 328.227L496.883 327.843C496.973 327.62 497.002 327.43 496.97 327.274C496.938 327.12 496.848 326.99 496.699 326.884C496.51 326.749 496.312 326.743 496.107 326.862C495.901 326.982 495.694 327.227 495.484 327.6L495.356 327.829C495.145 328.206 495.04 328.53 495.04 328.799C495.041 329.068 495.145 329.275 495.354 329.423C495.564 329.57 495.747 329.617 495.903 329.561L496.249 328.941L495.74 328.582L496.045 328.037L497.112 328.79L496.311 330.225Z" fill="url(#paint26_radial)"/>
<path d="M500.569 331.604L502.111 330.55L502.674 331.059L500.408 332.475L499.585 333.704L499.061 333.23L499.884 332.001L500.51 329.101L501.074 329.612L500.569 331.604Z" fill="url(#paint27_radial)"/>
<path d="M506.127 341.191L508.847 338.319L509.547 339.331C509.79 339.681 509.91 340.015 509.909 340.329C509.909 340.643 509.786 340.93 509.542 341.187C509.409 341.328 509.266 341.415 509.114 341.451C508.963 341.484 508.818 341.462 508.681 341.382C508.749 341.567 508.76 341.757 508.712 341.954C508.666 342.152 508.566 342.332 508.413 342.493C508.152 342.769 507.892 342.889 507.635 342.854C507.378 342.82 507.134 342.639 506.905 342.314L506.127 341.191ZM507.724 340.535L506.989 341.311L507.343 341.82C507.439 341.961 507.546 342.037 507.663 342.049C507.781 342.061 507.896 342.009 508.007 341.891C508.255 341.629 508.287 341.359 508.101 341.081L507.724 340.535ZM508.12 340.117L508.424 340.558C508.637 340.852 508.854 340.884 509.074 340.651C509.198 340.52 509.259 340.389 509.26 340.255C509.262 340.123 509.207 339.974 509.093 339.811L508.805 339.393L508.12 340.117Z" fill="url(#paint28_radial)"/>
<path d="M510.054 346.253L510.806 347.635L510.325 348.061L509.219 346.027L512.124 343.457L512.478 344.109L510.054 346.253Z" fill="url(#paint29_radial)"/>
<path d="M514.428 352.841C514.127 353.062 513.838 353.196 513.561 353.244C513.285 353.292 513.038 353.251 512.823 353.12C512.608 352.991 512.44 352.784 512.321 352.499C512.203 352.217 512.159 351.921 512.189 351.611C512.218 351.301 512.321 351.002 512.496 350.715C512.672 350.428 512.907 350.175 513.201 349.958L513.352 349.847C513.653 349.626 513.943 349.492 514.222 349.445C514.503 349.398 514.75 349.439 514.964 349.569C515.179 349.7 515.347 349.907 515.465 350.191C515.583 350.474 515.627 350.771 515.595 351.08C515.566 351.391 515.461 351.69 515.281 351.978C515.104 352.267 514.865 352.521 514.565 352.741L514.428 352.841ZM514.27 352.03C514.591 351.795 514.808 351.552 514.922 351.302C515.035 351.052 515.043 350.809 514.944 350.572C514.845 350.337 514.687 350.217 514.468 350.21C514.251 350.203 513.982 350.315 513.664 350.546L513.514 350.656C513.202 350.885 512.986 351.126 512.867 351.38C512.748 351.634 512.738 351.881 512.839 352.12C512.937 352.356 513.095 352.475 513.313 352.48C513.533 352.484 513.802 352.371 514.121 352.139L514.27 352.03Z" fill="url(#paint30_radial)"/>
<path d="M516.012 359.221C515.661 359.397 515.346 359.413 515.069 359.271C514.793 359.131 514.59 358.849 514.46 358.426C514.318 357.964 514.343 357.518 514.535 357.089C514.73 356.661 515.067 356.305 515.547 356.02L515.742 355.904C516.049 355.722 516.338 355.623 516.609 355.606C516.88 355.59 517.112 355.658 517.306 355.811C517.502 355.964 517.646 356.191 517.738 356.491C517.866 356.907 517.871 357.301 517.752 357.673C517.633 358.044 517.402 358.355 517.058 358.606L516.829 357.863C517.03 357.723 517.158 357.569 517.216 357.402C517.275 357.236 517.27 357.039 517.2 356.811C517.124 356.563 516.988 356.424 516.792 356.394C516.598 356.365 516.336 356.446 516.005 356.639L515.764 356.782C515.419 356.986 515.186 357.194 515.063 357.406C514.94 357.62 514.918 357.853 514.996 358.108C515.067 358.337 515.165 358.481 515.292 358.539C515.42 358.597 515.584 358.577 515.783 358.478L516.012 359.221Z" fill="url(#paint31_radial)"/>
<path d="M517.367 363.79L516.904 363.561L515.966 363.996L515.804 363.218L519.087 361.694L519.249 362.472L517.761 363.163L518.24 363.316L519.52 363.777L519.72 364.734L517.982 364.07L516.446 366.297L516.253 365.371L517.367 363.79Z" fill="url(#paint32_radial)"/>
<path d="M518.434 372.27C518.07 372.362 517.769 372.304 517.529 372.093C517.289 371.884 517.143 371.55 517.09 371.092C517.031 370.591 517.129 370.147 517.383 369.761C517.639 369.376 518.019 369.097 518.523 368.925L518.728 368.856C519.049 368.746 519.34 368.716 519.601 368.765C519.861 368.813 520.071 368.938 520.23 369.139C520.39 369.341 520.489 369.605 520.527 369.931C520.58 370.382 520.519 370.781 520.344 371.127C520.171 371.474 519.898 371.732 519.529 371.902L519.436 371.096C519.649 371.003 519.797 370.879 519.88 370.724C519.963 370.571 519.992 370.371 519.963 370.124C519.932 369.855 519.825 369.682 519.644 369.604C519.465 369.528 519.201 369.546 518.855 369.661L518.603 369.747C518.24 369.87 517.985 370.024 517.832 370.208C517.68 370.394 517.62 370.625 517.653 370.901C517.682 371.149 517.751 371.318 517.862 371.407C517.975 371.497 518.133 371.516 518.34 371.465L518.434 372.27Z" fill="url(#paint33_radial)"/>
<path d="M517.68 379.819L517.655 378.994L519.101 378.675L519.053 377.066L517.607 377.385L517.582 376.56L520.956 375.815L520.98 376.64L519.614 376.942L519.661 378.55L521.029 378.248L521.053 379.073L517.68 379.819Z" fill="url(#paint34_radial)"/>
<path d="M518.163 385.643L518.242 384.177L517.562 383.968L517.61 383.079L520.898 384.247L520.857 385.022L517.408 386.884L517.454 385.995L518.163 385.643ZM518.791 384.345L518.738 385.36L520.026 384.721L518.791 384.345Z" fill="url(#paint35_radial)"/>
<path d="M516.836 391.723L516.948 390.883L520.28 390.946L520.166 391.785L516.836 391.723Z" fill="url(#paint36_radial)"/>
<path d="M515.222 400.285L515.403 399.451L517.9 398.136L515.755 397.828L515.937 396.995L519.196 397.462L519.015 398.296L516.512 399.613L518.662 399.922L518.481 400.753L515.222 400.285Z" fill="url(#paint37_radial)"/>
<path d="M511.966 413.315L513.912 414.733L513.603 415.529L510.917 413.409L511.23 412.606L513.496 412.819L511.72 411.345L512.033 410.542L515.388 410.943L515.078 411.738L512.73 411.367L514.626 412.9L514.362 413.576L511.966 413.315Z" fill="url(#paint38_radial)"/>
<path d="M509.484 420.241C509.202 420.079 508.988 419.873 508.838 419.622C508.688 419.37 508.615 419.09 508.617 418.782C508.619 418.475 508.695 418.166 508.846 417.853C508.995 417.544 509.185 417.301 509.415 417.124C509.646 416.947 509.899 416.853 510.173 416.84C510.45 416.829 510.725 416.901 511.001 417.057L511.142 417.138C511.423 417.299 511.638 417.507 511.788 417.761C511.938 418.017 512.012 418.298 512.009 418.604C512.007 418.912 511.931 419.222 511.781 419.533C511.631 419.843 511.44 420.086 511.209 420.261C510.978 420.438 510.724 420.53 510.446 420.539C510.169 420.55 509.891 420.475 509.61 420.314L509.484 420.241ZM509.989 419.537C510.288 419.709 510.55 419.769 510.773 419.719C510.996 419.668 511.169 419.513 511.295 419.253C511.42 418.996 511.438 418.752 511.352 418.524C511.266 418.296 511.076 418.096 510.78 417.924L510.641 417.844C510.349 417.677 510.089 417.617 509.86 417.664C509.632 417.712 509.455 417.868 509.327 418.13C509.203 418.388 509.185 418.63 509.272 418.857C509.361 419.085 509.553 419.285 509.85 419.457L509.989 419.537Z" fill="url(#paint39_radial)"/>
<path d="M506.315 425.21L506.656 424.628L505.682 423.895L506.11 423.165L508.771 425.167L508 426.485C507.754 426.904 507.496 427.174 507.223 427.296C506.949 427.418 506.684 427.383 506.428 427.19C506.247 427.054 506.127 426.887 506.066 426.689C506.006 426.494 506.002 426.264 506.055 425.997L504.519 425.946L504.493 425.927L504.951 425.142L506.315 425.21ZM507.1 424.962L506.755 425.552C506.649 425.736 506.599 425.903 506.61 426.057C506.622 426.211 506.69 426.334 506.812 426.426C506.938 426.521 507.065 426.547 507.192 426.505C507.32 426.466 507.44 426.347 507.556 426.151L507.899 425.563L507.1 424.962Z" fill="url(#paint40_radial)"/>
<path d="M502.525 429.876L501.504 431.332L501.1 430.944L502.6 428.801L505.042 431.147L504.562 431.833L502.525 429.876Z" fill="url(#paint41_radial)"/>
<path d="M498.425 434.42L500.623 437.086L499.834 438.033C499.608 438.303 499.364 438.492 499.099 438.599C498.835 438.708 498.572 438.725 498.312 438.65C498.051 438.576 497.819 438.414 497.615 438.167L497.514 438.044C497.31 437.797 497.177 437.517 497.116 437.206C497.055 436.896 497.07 436.581 497.16 436.26C497.251 435.939 497.408 435.644 497.631 435.373L498.425 434.42ZM499.728 437.275L498.26 435.495L498.006 435.802C497.799 436.05 497.699 436.31 497.705 436.581C497.712 436.853 497.822 437.121 498.036 437.385L498.151 437.526C498.375 437.797 498.598 437.937 498.821 437.946C499.044 437.957 499.26 437.838 499.467 437.588L499.728 437.275Z" fill="url(#paint42_radial)"/>
<path d="M492.83 442.021L493.832 444.503L493.264 445.078L491.945 441.498L492.521 440.918L494.263 442.442L493.421 440.007L493.995 439.426L496.541 441.764L495.973 442.339L494.226 440.616L495.141 443.179L494.659 443.667L492.83 442.021Z" fill="url(#paint43_radial)"/>
<path d="M488.215 444.809L488.822 444.296L490.468 447.519L489.86 448.032L488.215 444.809Z" fill="url(#paint44_radial)"/>
<path d="M484.184 447.94L485.529 451.395L484.576 452.058C484.304 452.248 484.034 452.349 483.766 452.36C483.498 452.374 483.254 452.297 483.035 452.127C482.817 451.96 482.645 451.715 482.52 451.394L482.458 451.235C482.333 450.914 482.281 450.587 482.303 450.254C482.324 449.922 482.415 449.613 482.577 449.325C482.738 449.037 482.955 448.798 483.225 448.608L484.184 447.94ZM484.666 451.263L483.768 448.956L483.46 449.171C483.211 449.345 483.055 449.569 482.994 449.842C482.933 450.116 482.967 450.423 483.096 450.764L483.167 450.946C483.304 451.298 483.473 451.518 483.673 451.607C483.875 451.698 484.101 451.657 484.352 451.482L484.666 451.263Z" fill="url(#paint45_radial)"/>
<path d="M477.627 453.905L478.899 453.192L478.623 452.214L477.13 453.051L476.96 452.446L479.115 451.238L480.145 454.891L477.994 456.096L477.822 455.487L479.31 454.652L479.065 453.782L477.793 454.495L477.627 453.905Z" fill="url(#paint46_radial)"/>
<path d="M466 460.29L467.028 459.971L466.718 456.691L467.409 456.476L467.719 459.756L468.733 459.441L468.795 460.098L466.063 460.947L466 460.29Z" fill="url(#paint47_radial)"/>
<path d="M460.946 459.567L461.5 459.461L461.486 457.989L462.182 457.856L462.218 461.877L460.964 462.117C460.565 462.193 460.257 462.146 460.039 461.976C459.82 461.805 459.709 461.527 459.706 461.14C459.703 460.866 459.752 460.627 459.85 460.424C459.948 460.222 460.097 460.048 460.298 459.901L459.553 458.397L459.553 458.359L460.299 458.216L460.946 459.567ZM461.506 460.132L460.945 460.239C460.77 460.273 460.635 460.351 460.541 460.474C460.446 460.6 460.399 460.755 460.401 460.941C460.402 461.131 460.449 461.271 460.542 461.362C460.632 461.454 460.771 461.482 460.958 461.446L461.517 461.339L461.506 460.132Z" fill="url(#paint48_radial)"/>
<path d="M454.633 459.665L455.848 459.578L456.141 458.723L456.877 458.67L455.326 462.826L454.684 462.872L453.725 458.897L454.462 458.844L454.633 459.665ZM455.611 460.269L454.77 460.33L455.081 461.822L455.611 460.269Z" fill="url(#paint49_radial)"/>
<path d="M448.529 460.106C448.623 459.669 448.809 459.331 449.087 459.091C449.363 458.851 449.695 458.741 450.083 458.76C450.509 458.781 450.816 458.973 451.006 459.335C451.194 459.7 451.241 460.188 451.145 460.801L451.107 461.05C451.046 461.442 450.936 461.783 450.777 462.076C450.618 462.369 450.423 462.589 450.19 462.737C449.956 462.887 449.7 462.955 449.424 462.941C449.042 462.922 448.753 462.781 448.558 462.518C448.364 462.255 448.283 461.895 448.318 461.439L449.001 461.473C448.977 461.736 449.007 461.929 449.092 462.052C449.175 462.176 449.322 462.243 449.531 462.254C449.759 462.265 449.945 462.173 450.09 461.977C450.234 461.783 450.34 461.476 450.408 461.055L450.456 460.748C450.524 460.308 450.52 459.984 450.444 459.775C450.367 459.567 450.211 459.457 449.977 459.445C449.766 459.435 449.6 459.486 449.478 459.598C449.355 459.712 449.266 459.893 449.213 460.14L448.529 460.106Z" fill="url(#paint50_radial)"/>
<path d="M443.232 459.782L444.513 460.007L444.77 458.927L443.267 458.663L443.426 457.995L445.595 458.376L444.636 462.409L442.471 462.029L442.631 461.356L444.129 461.619L444.358 460.658L443.077 460.433L443.232 459.782Z" fill="url(#paint51_radial)"/>
<path d="M438.032 457.428L439.16 457.778L439.638 457.029L440.323 457.241L437.882 460.837L437.286 460.652L437.394 456.334L438.078 456.546L438.032 457.428ZM438.773 458.384L437.992 458.142L437.907 459.745L438.773 458.384Z" fill="url(#paint52_radial)"/>
<path d="M434.815 455.273L433.233 459.113L432.189 458.638C431.827 458.474 431.59 458.259 431.477 457.995C431.363 457.732 431.377 457.429 431.519 457.084C431.596 456.896 431.702 456.747 431.837 456.637C431.97 456.528 432.118 456.471 432.279 456.465C432.147 456.346 432.067 456.192 432.042 456.003C432.014 455.813 432.045 455.61 432.134 455.394C432.287 455.025 432.493 454.787 432.754 454.68C433.016 454.573 433.316 454.595 433.656 454.746L434.815 455.273ZM433.512 456.666L433.939 455.629L433.413 455.39C433.268 455.324 433.137 455.317 433.021 455.368C432.902 455.421 432.81 455.525 432.746 455.682C432.601 456.033 432.669 456.276 432.949 456.41L433.512 456.666ZM433.282 457.225L432.827 457.018C432.514 456.884 432.294 456.973 432.166 457.284C432.094 457.458 432.082 457.601 432.13 457.713C432.176 457.826 432.284 457.92 432.453 457.998L432.883 458.193L433.282 457.225Z" fill="url(#paint53_radial)"/>
<path d="M428.961 452.182L429.54 452.539L427.668 456.225L427.09 455.868L428.961 452.182Z" fill="url(#paint54_radial)"/>
<path d="M424.564 449.903L423.422 448.989L423.777 448.41L425.456 449.755L423.314 453.251L422.777 452.82L424.564 449.903Z" fill="url(#paint55_radial)"/>
<path d="M420.251 445.096L420.741 445.596L418.351 448.866L417.86 448.366L420.251 445.096Z" fill="url(#paint56_radial)"/>
<path d="M413.651 442.393L414.304 443.233L416.484 440.724L416.923 441.289L414.744 443.798L415.389 444.627L414.952 445.129L413.214 442.896L413.651 442.393Z" fill="url(#paint57_radial)"/>
<path d="M411.557 437.262L409.901 437.859L409.481 437.177L411.887 436.435L412.908 435.447L413.298 436.082L412.277 437.069L411.094 439.8L410.673 439.115L411.557 437.262Z" fill="url(#paint58_radial)"/>
<path d="M407.028 424.476L407.486 425.743L408.218 425.558L408.496 426.326L404.895 427.09L404.653 426.421L407.308 423.038L407.585 423.806L407.028 424.476ZM406.894 425.894L406.577 425.017L405.565 426.232L406.894 425.894Z" fill="url(#paint59_radial)"/>
<path d="M405.693 417.101L405.888 417.863L404.138 420.471L406.269 419.346L406.465 420.107L403.225 421.818L403.03 421.056L404.784 418.443L402.648 419.571L402.453 418.812L405.693 417.101Z" fill="url(#paint60_radial)"/>
<path d="M405.027 413.654L401.709 414.988L401.518 413.804C401.463 413.466 401.48 413.137 401.569 412.818C401.657 412.498 401.81 412.214 402.029 411.966C402.246 411.719 402.509 411.534 402.817 411.41L402.97 411.349C403.278 411.225 403.564 411.188 403.828 411.24C404.092 411.29 404.312 411.422 404.487 411.637C404.663 411.851 404.778 412.126 404.834 412.462L405.027 413.654ZM402.135 413.973L404.35 413.082L404.288 412.699C404.237 412.389 404.112 412.187 403.911 412.093C403.709 412 403.446 412.017 403.12 412.144L402.945 412.214C402.608 412.35 402.366 412.534 402.219 412.765C402.07 412.998 402.021 413.27 402.071 413.582L402.135 413.973Z" fill="url(#paint61_radial)"/>
<path d="M402.718 399.753L403.907 399.561L403.897 400.393L400.522 400.938L400.54 399.363C400.544 399.06 400.593 398.786 400.689 398.542C400.784 398.296 400.919 398.098 401.092 397.946C401.263 397.795 401.458 397.702 401.676 397.666C402.006 397.613 402.266 397.707 402.454 397.947C402.641 398.186 402.732 398.545 402.726 399.024L402.718 399.753ZM402.154 399.844L402.163 399.101C402.166 398.881 402.124 398.721 402.039 398.62C401.954 398.518 401.831 398.48 401.67 398.506C401.505 398.532 401.371 398.612 401.267 398.745C401.164 398.878 401.109 399.047 401.104 399.253L401.095 400.015L402.154 399.844Z" fill="url(#paint62_radial)"/>
<path d="M403.697 391.393L403.559 392.864L404.223 393.114L404.139 394.006L400.928 392.631L401.002 391.854L404.499 390.19L404.415 391.082L403.697 391.393ZM403.02 392.661L403.116 391.643L401.813 392.207L403.02 392.661Z" fill="url(#paint63_radial)"/>
<path d="M403.472 385.116L402.134 384.151L402.296 383.235L404.163 384.739L405.36 384.835L405.21 385.686L404.013 385.59L401.676 386.755L401.838 385.837L403.472 385.116Z" fill="url(#paint64_radial)"/>
<path d="M442.027 378.524C437.525 391.587 442.18 404.677 451.973 408.052C461.766 411.427 473.497 403.985 477.999 390.922C480.152 384.677 480.21 378.394 478.598 373.173L490.242 366.134C492.937 374.625 492.856 384.829 489.401 394.852C482.302 415.45 463.418 427.983 447.048 422.341C430.678 416.699 423.526 395.193 430.625 374.594C434.079 364.572 440.302 356.485 447.656 351.457L452.491 364.175C448.005 367.294 444.179 372.279 442.027 378.524Z" fill="url(#paint65_linear)" stroke="url(#paint66_linear)" stroke-width="2"/>
<path d="M468.966 379.427L469.317 379.862L473.278 384.773C473.481 382.859 473.341 380.554 472.952 378.028C472.503 375.117 471.729 371.948 470.798 368.803C469.051 362.897 466.761 357.105 465.07 353.316L457.221 376.089L468.966 379.427ZM468.966 379.427L468.747 380.062L465.784 388.659L468.966 379.427ZM468.966 379.427L465.784 388.659L468.966 379.427ZM465.784 388.659C463.943 388.689 462.104 388.411 460.314 387.794C458.075 387.022 456.101 385.785 454.43 384.188L465.784 388.659ZM458.992 391.631C460.768 392.243 462.588 392.569 464.415 392.63L461.501 401.087C459.157 401.84 456.702 401.891 454.373 401.088C448.879 399.195 445.757 393.124 446.24 386.367L451.992 390.063L452.33 390.28L452.495 389.802L453.035 388.236C454.78 389.71 456.775 390.867 458.992 391.631ZM452 407.973C454.233 408.742 456.568 408.947 458.894 408.65L456.098 416.763L414.075 365.699L440.912 382.944C438.716 394.388 443.345 404.99 452 407.973ZM503.68 422.481L487.001 401.901L489.322 396.711L503.68 422.481Z" fill="url(#paint67_linear)" stroke="url(#paint68_linear)" stroke-width="2"/>
<path d="M496.233 287.716C451.663 272.355 399.699 305.843 380.168 362.513C360.637 419.183 380.935 477.575 425.504 492.936C470.074 508.297 522.038 474.81 541.569 418.14C561.1 361.47 540.803 303.077 496.233 287.716Z" stroke="#FFFAE9" stroke-width="8"/>
</g>
<defs>
<filter id="filter0_d" x="153" y="70.1353" width="837" height="662.042" filterUnits="userSpaceOnUse" color-interpolation-filters="sRGB">
<feFlood flood-opacity="0" result="BackgroundImageFix"/>
<feColorMatrix in="SourceAlpha" type="matrix" values="0 0 0 0 0 0 0 0 0 0 0 0 0 0 0 0 0 0 127 0"/>
<feOffset dy="20"/>
<feGaussianBlur stdDeviation="15"/>
<feColorMatrix type="matrix" values="0 0 0 0 0 0 0 0 0 0 0 0 0 0 0 0 0 0 0.15 0"/>
<feBlend mode="normal" in2="BackgroundImageFix" result="effect1_dropShadow"/>
<feBlend mode="normal" in="SourceGraphic" in2="effect1_dropShadow" result="shape"/>
</filter>
<linearGradient id="paint0_linear" x1="670.427" y1="515.161" x2="702.068" y2="652.538" gradientUnits="userSpaceOnUse">
<stop stop-color="#ECE1CC"/>
<stop offset="1" stop-color="white"/>
</linearGradient>
<linearGradient id="paint1_linear" x1="670.427" y1="515.161" x2="702.068" y2="652.538" gradientUnits="userSpaceOnUse">
<stop stop-color="#ECE1CC"/>
<stop offset="1" stop-color="white"/>
</linearGradient>
<linearGradient id="paint2_linear" x1="670.427" y1="515.161" x2="702.068" y2="652.538" gradientUnits="userSpaceOnUse">
<stop stop-color="#ECE1CC"/>
<stop offset="1" stop-color="white"/>
</linearGradient>
<linearGradient id="paint3_linear" x1="386.061" y1="533.185" x2="944.205" y2="623.828" gradientUnits="userSpaceOnUse">
<stop offset="0.011732" stop-color="#FFB800"/>
<stop offset="1" stop-color="#EEA200"/>
</linearGradient>
<linearGradient id="paint4_linear" x1="347.691" y1="219.005" x2="857.855" y2="541.778" gradientUnits="userSpaceOnUse">
<stop offset="0.011732" stop-color="#FFD100"/>
<stop offset="1" stop-color="#FFC548"/>
</linearGradient>
<linearGradient id="paint5_linear" x1="311.165" y1="467.901" x2="720.54" y2="690.201" gradientUnits="userSpaceOnUse">
<stop offset="0.011732" stop-color="#FFB800"/>
<stop offset="1" stop-color="#EEA200"/>
</linearGradient>
<linearGradient id="paint6_linear" x1="410.432" y1="485.444" x2="505.646" y2="291.506" gradientUnits="userSpaceOnUse">
<stop stop-color="#FBE458"/>
<stop offset="1" stop-color="#E8BA20"/>
</linearGradient>
<linearGradient id="paint7_linear" x1="428.511" y1="483.81" x2="493.251" y2="295.968" gradientUnits="userSpaceOnUse">
<stop stop-color="#FFF6B9"/>
<stop offset="1" stop-color="#E8C96D"/>
</linearGradient>
<linearGradient id="paint8_linear" x1="429.398" y1="481.641" x2="492.286" y2="299.17" gradientUnits="userSpaceOnUse">
<stop stop-color="#F8DC38"/>
<stop offset="1" stop-color="#DFB115"/>
</linearGradient>
<radialGradient id="paint9_radial" cx="0" cy="0" r="1" gradientUnits="userSpaceOnUse" gradientTransform="translate(396.025 368.034) rotate(19.0164) scale(14.4653 10.4907)">
<stop stop-color="#CFA029"/>
<stop offset="1" stop-color="#9B7D2F"/>
</radialGradient>
<radialGradient id="paint10_radial" cx="0" cy="0" r="1" gradientUnits="userSpaceOnUse" gradientTransform="translate(399.425 359.383) rotate(26.2674) scale(14.5625 8.93892)">
<stop stop-color="#CFA029"/>
<stop offset="1" stop-color="#9B7D2F"/>
</radialGradient>
<radialGradient id="paint11_radial" cx="0" cy="0" r="1" gradientUnits="userSpaceOnUse" gradientTransform="translate(402.971 352.087) rotate(33.4321) scale(14.693 8.33841)">
<stop stop-color="#CFA029"/>
<stop offset="1" stop-color="#9B7D2F"/>
</radialGradient>
<radialGradient id="paint12_radial" cx="0" cy="0" r="1" gradientUnits="userSpaceOnUse" gradientTransform="translate(407.582 344.25) rotate(40.4317) scale(14.9021 8.73514)">
<stop stop-color="#CFA029"/>
<stop offset="1" stop-color="#9B7D2F"/>
</radialGradient>
<radialGradient id="paint13_radial" cx="0" cy="0" r="1" gradientUnits="userSpaceOnUse" gradientTransform="translate(412.476 337.333) rotate(47.2063) scale(15.1786 5.54915)">
<stop stop-color="#CFA029"/>
<stop offset="1" stop-color="#9B7D2F"/>
</radialGradient>
<radialGradient id="paint14_radial" cx="0" cy="0" r="1" gradientUnits="userSpaceOnUse" gradientTransform="translate(417.511 331.314) rotate(53.7155) scale(15.5084 3.95)">
<stop stop-color="#CFA029"/>
<stop offset="1" stop-color="#9B7D2F"/>
</radialGradient>
<radialGradient id="paint15_radial" cx="0" cy="0" r="1" gradientUnits="userSpaceOnUse" gradientTransform="translate(423.65 325.139) rotate(59.9387) scale(15.8755 8.19973)">
<stop stop-color="#CFA029"/>
<stop offset="1" stop-color="#9B7D2F"/>
</radialGradient>
<radialGradient id="paint16_radial" cx="0" cy="0" r="1" gradientUnits="userSpaceOnUse" gradientTransform="translate(429.436 320.279) rotate(65.8707) scale(16.2631 7.53343)">
<stop stop-color="#CFA029"/>
<stop offset="1" stop-color="#9B7D2F"/>
</radialGradient>
<radialGradient id="paint17_radial" cx="0" cy="0" r="1" gradientUnits="userSpaceOnUse" gradientTransform="translate(436.296 315.527) rotate(71.5238) scale(16.6551 7.81583)">
<stop stop-color="#CFA029"/>
<stop offset="1" stop-color="#9B7D2F"/>
</radialGradient>
<radialGradient id="paint18_radial" cx="0" cy="0" r="1" gradientUnits="userSpaceOnUse" gradientTransform="translate(449.49 309.035) rotate(82.0876) scale(17.3925 4.40256)">
<stop stop-color="#CFA029"/>
<stop offset="1" stop-color="#9B7D2F"/>
</radialGradient>
<radialGradient id="paint19_radial" cx="0" cy="0" r="1" gradientUnits="userSpaceOnUse" gradientTransform="translate(456.491 306.859) rotate(87.057) scale(17.712 6.91715)">
<stop stop-color="#CFA029"/>
<stop offset="1" stop-color="#9B7D2F"/>
</radialGradient>
<radialGradient id="paint20_radial" cx="0" cy="0" r="1" gradientUnits="userSpaceOnUse" gradientTransform="translate(463.533 305.513) rotate(91.8623) scale(17.9838 6.81258)">
<stop stop-color="#CFA029"/>
<stop offset="1" stop-color="#9B7D2F"/>
</radialGradient>
<radialGradient id="paint21_radial" cx="0" cy="0" r="1" gradientUnits="userSpaceOnUse" gradientTransform="translate(470.973 305.003) rotate(96.5393) scale(18.1998 7.15246)">
<stop stop-color="#CFA029"/>
<stop offset="1" stop-color="#9B7D2F"/>
</radialGradient>
<radialGradient id="paint22_radial" cx="0" cy="0" r="1" gradientUnits="userSpaceOnUse" gradientTransform="translate(477.882 305.398) rotate(101.121) scale(18.3533 7.09263)">
<stop stop-color="#CFA029"/>
<stop offset="1" stop-color="#9B7D2F"/>
</radialGradient>
<radialGradient id="paint23_radial" cx="0" cy="0" r="1" gradientUnits="userSpaceOnUse" gradientTransform="translate(484.218 306.537) rotate(105.643) scale(18.4403 7.47443)">
<stop stop-color="#CFA029"/>
<stop offset="1" stop-color="#9B7D2F"/>
</radialGradient>
<radialGradient id="paint24_radial" cx="0" cy="0" r="1" gradientUnits="userSpaceOnUse" gradientTransform="translate(490.738 308.554) rotate(110.14) scale(18.4577 3.31885)">
<stop stop-color="#CFA029"/>
<stop offset="1" stop-color="#9B7D2F"/>
</radialGradient>
<radialGradient id="paint25_radial" cx="0" cy="0" r="1" gradientUnits="userSpaceOnUse" gradientTransform="translate(496.96 311.384) rotate(114.645) scale(18.4053 7.48856)">
<stop stop-color="#CFA029"/>
<stop offset="1" stop-color="#9B7D2F"/>
</radialGradient>
<radialGradient id="paint26_radial" cx="0" cy="0" r="1" gradientUnits="userSpaceOnUse" gradientTransform="translate(503.166 315.241) rotate(119.193) scale(18.2846 7.1193)">
<stop stop-color="#CFA029"/>
<stop offset="1" stop-color="#9B7D2F"/>
</radialGradient>
<radialGradient id="paint27_radial" cx="0" cy="0" r="1" gradientUnits="userSpaceOnUse" gradientTransform="translate(508.582 319.647) rotate(123.818) scale(18.0992 6.34606)">
<stop stop-color="#CFA029"/>
<stop offset="1" stop-color="#9B7D2F"/>
</radialGradient>
<radialGradient id="paint28_radial" cx="0" cy="0" r="1" gradientUnits="userSpaceOnUse" gradientTransform="translate(517.942 330.513) rotate(133.438) scale(17.5577 7.41403)">
<stop stop-color="#CFA029"/>
<stop offset="1" stop-color="#9B7D2F"/>
</radialGradient>
<radialGradient id="paint29_radial" cx="0" cy="0" r="1" gradientUnits="userSpaceOnUse" gradientTransform="translate(521.573 336.464) rotate(138.502) scale(17.2184 3.55772)">
<stop stop-color="#CFA029"/>
<stop offset="1" stop-color="#9B7D2F"/>
</radialGradient>
<radialGradient id="paint30_radial" cx="0" cy="0" r="1" gradientUnits="userSpaceOnUse" gradientTransform="translate(524.855 343.316) rotate(143.78) scale(16.8479 8.18083)">
<stop stop-color="#CFA029"/>
<stop offset="1" stop-color="#9B7D2F"/>
</radialGradient>
<radialGradient id="paint31_radial" cx="0" cy="0" r="1" gradientUnits="userSpaceOnUse" gradientTransform="translate(527.499 350.635) rotate(149.302) scale(16.4594 7.44345)">
<stop stop-color="#CFA029"/>
<stop offset="1" stop-color="#9B7D2F"/>
</radialGradient>
<radialGradient id="paint32_radial" cx="0" cy="0" r="1" gradientUnits="userSpaceOnUse" gradientTransform="translate(529.479 358.348) rotate(155.093) scale(16.0676 7.62497)">
<stop stop-color="#CFA029"/>
<stop offset="1" stop-color="#9B7D2F"/>
</radialGradient>
<radialGradient id="paint33_radial" cx="0" cy="0" r="1" gradientUnits="userSpaceOnUse" gradientTransform="translate(530.778 366.377) rotate(161.169) scale(15.6884 7.80939)">
<stop stop-color="#CFA029"/>
<stop offset="1" stop-color="#9B7D2F"/>
</radialGradient>
<radialGradient id="paint34_radial" cx="0" cy="0" r="1" gradientUnits="userSpaceOnUse" gradientTransform="translate(531.396 375.152) rotate(167.537) scale(15.3378 8.48704)">
<stop stop-color="#CFA029"/>
<stop offset="1" stop-color="#9B7D2F"/>
</radialGradient>
<radialGradient id="paint35_radial" cx="0" cy="0" r="1" gradientUnits="userSpaceOnUse" gradientTransform="translate(531.253 383.58) rotate(174.182) scale(15.0328 8.6593)">
<stop stop-color="#CFA029"/>
<stop offset="1" stop-color="#9B7D2F"/>
</radialGradient>
<radialGradient id="paint36_radial" cx="0" cy="0" r="1" gradientUnits="userSpaceOnUse" gradientTransform="translate(530.482 391.559) rotate(-178.924) scale(14.7885 4.14236)">
<stop stop-color="#CFA029"/>
<stop offset="1" stop-color="#9B7D2F"/>
</radialGradient>
<radialGradient id="paint37_radial" cx="0" cy="0" r="1" gradientUnits="userSpaceOnUse" gradientTransform="translate(528.876 400.551) rotate(-171.833) scale(14.6174 8.9054)">
<stop stop-color="#CFA029"/>
<stop offset="1" stop-color="#9B7D2F"/>
</radialGradient>
<radialGradient id="paint38_radial" cx="0" cy="0" r="1" gradientUnits="userSpaceOnUse" gradientTransform="translate(523.8 417.115) rotate(-157.353) scale(14.5294 12.1214)">
<stop stop-color="#CFA029"/>
<stop offset="1" stop-color="#9B7D2F"/>
</radialGradient>
<radialGradient id="paint39_radial" cx="0" cy="0" r="1" gradientUnits="userSpaceOnUse" gradientTransform="translate(520.535 424.563) rotate(-150.135) scale(14.6174 9.42925)">
<stop stop-color="#CFA029"/>
<stop offset="1" stop-color="#9B7D2F"/>
</radialGradient>
<radialGradient id="paint40_radial" cx="0" cy="0" r="1" gradientUnits="userSpaceOnUse" gradientTransform="translate(516.224 432.612) rotate(-143.044) scale(14.7884 5.6957)">
<stop stop-color="#CFA029"/>
<stop offset="1" stop-color="#9B7D2F"/>
</radialGradient>
<radialGradient id="paint41_radial" cx="0" cy="0" r="1" gradientUnits="userSpaceOnUse" gradientTransform="translate(511.883 439.345) rotate(-136.15) scale(15.0328 4.07493)">
<stop stop-color="#CFA029"/>
<stop offset="1" stop-color="#9B7D2F"/>
</radialGradient>
<radialGradient id="paint42_radial" cx="0" cy="0" r="1" gradientUnits="userSpaceOnUse" gradientTransform="translate(506.449 446.43) rotate(-129.504) scale(15.3379 8.48708)">
<stop stop-color="#CFA029"/>
<stop offset="1" stop-color="#9B7D2F"/>
</radialGradient>
<radialGradient id="paint43_radial" cx="0" cy="0" r="1" gradientUnits="userSpaceOnUse" gradientTransform="translate(500.854 452.534) rotate(-123.136) scale(15.6883 11.226)">
<stop stop-color="#CFA029"/>
<stop offset="1" stop-color="#9B7D2F"/>
</radialGradient>
<radialGradient id="paint44_radial" cx="0" cy="0" r="1" gradientUnits="userSpaceOnUse" gradientTransform="translate(495.236 457.703) rotate(-117.06) scale(16.0677 3.8125)">
<stop stop-color="#CFA029"/>
<stop offset="1" stop-color="#9B7D2F"/>
</radialGradient>
<radialGradient id="paint45_radial" cx="0" cy="0" r="1" gradientUnits="userSpaceOnUse" gradientTransform="translate(488.531 462.831) rotate(-111.269) scale(16.4596 7.90873)">
<stop stop-color="#CFA029"/>
<stop offset="1" stop-color="#9B7D2F"/>
</radialGradient>
<radialGradient id="paint46_radial" cx="0" cy="0" r="1" gradientUnits="userSpaceOnUse" gradientTransform="translate(482.332 466.694) rotate(-105.747) scale(16.848 7.27189)">
<stop stop-color="#CFA029"/>
<stop offset="1" stop-color="#9B7D2F"/>
</radialGradient>
<radialGradient id="paint47_radial" cx="0" cy="0" r="1" gradientUnits="userSpaceOnUse" gradientTransform="translate(468.574 472.651) rotate(-95.4049) scale(17.5576 4.36118)">
<stop stop-color="#CFA029"/>
<stop offset="1" stop-color="#9B7D2F"/>
</radialGradient>
<radialGradient id="paint48_radial" cx="0" cy="0" r="1" gradientUnits="userSpaceOnUse" gradientTransform="translate(461.116 474.497) rotate(-90.5218) scale(17.8543 4.71757)">
<stop stop-color="#CFA029"/>
<stop offset="1" stop-color="#9B7D2F"/>
</radialGradient>
<radialGradient id="paint49_radial" cx="0" cy="0" r="1" gradientUnits="userSpaceOnUse" gradientTransform="translate(454.08 475.373) rotate(-85.7852) scale(18.0992 7.1922)">
<stop stop-color="#CFA029"/>
<stop offset="1" stop-color="#9B7D2F"/>
</radialGradient>
<radialGradient id="paint50_radial" cx="0" cy="0" r="1" gradientUnits="userSpaceOnUse" gradientTransform="translate(447.531 475.424) rotate(-81.1602) scale(18.2847 6.70049)">
<stop stop-color="#CFA029"/>
<stop offset="1" stop-color="#9B7D2F"/>
</radialGradient>
<radialGradient id="paint51_radial" cx="0" cy="0" r="1" gradientUnits="userSpaceOnUse" gradientTransform="translate(440.687 474.658) rotate(-76.6124) scale(18.4053 6.65655)">
<stop stop-color="#CFA029"/>
<stop offset="1" stop-color="#9B7D2F"/>
</radialGradient>
<radialGradient id="paint52_radial" cx="0" cy="0" r="1" gradientUnits="userSpaceOnUse" gradientTransform="translate(433.647 472.931) rotate(-72.1072) scale(18.4576 7.05251)">
<stop stop-color="#CFA029"/>
<stop offset="1" stop-color="#9B7D2F"/>
</radialGradient>
<radialGradient id="paint53_radial" cx="0" cy="0" r="1" gradientUnits="userSpaceOnUse" gradientTransform="translate(427.287 470.455) rotate(-67.6105) scale(18.4401 7.05926)">
<stop stop-color="#CFA029"/>
<stop offset="1" stop-color="#9B7D2F"/>
</radialGradient>
<radialGradient id="paint54_radial" cx="0" cy="0" r="1" gradientUnits="userSpaceOnUse" gradientTransform="translate(421.615 467.402) rotate(-63.0883) scale(18.3534 3.3377)">
<stop stop-color="#CFA029"/>
<stop offset="1" stop-color="#9B7D2F"/>
</radialGradient>
<radialGradient id="paint55_radial" cx="0" cy="0" r="1" gradientUnits="userSpaceOnUse" gradientTransform="translate(415.956 463.408) rotate(-58.5062) scale(18.1998 3.36586)">
<stop stop-color="#CFA029"/>
<stop offset="1" stop-color="#9B7D2F"/>
</radialGradient>
<radialGradient id="paint56_radial" cx="0" cy="0" r="1" gradientUnits="userSpaceOnUse" gradientTransform="translate(410.741 458.689) rotate(-53.8298) scale(17.9838 3.40627)">
<stop stop-color="#CFA029"/>
<stop offset="1" stop-color="#9B7D2F"/>
</radialGradient>
<radialGradient id="paint57_radial" cx="0" cy="0" r="1" gradientUnits="userSpaceOnUse" gradientTransform="translate(406.023 453.289) rotate(-49.024) scale(17.7119 4.32321)">
<stop stop-color="#CFA029"/>
<stop offset="1" stop-color="#9B7D2F"/>
</radialGradient>
<radialGradient id="paint58_radial" cx="0" cy="0" r="1" gradientUnits="userSpaceOnUse" gradientTransform="translate(401.614 446.878) rotate(-44.0547) scale(17.3926 6.60388)">
<stop stop-color="#CFA029"/>
<stop offset="1" stop-color="#9B7D2F"/>
</radialGradient>
<radialGradient id="paint59_radial" cx="0" cy="0" r="1" gradientUnits="userSpaceOnUse" gradientTransform="translate(395.136 433.13) rotate(-33.4915) scale(16.6551 7.8158)">
<stop stop-color="#CFA029"/>
<stop offset="1" stop-color="#9B7D2F"/>
</radialGradient>
<radialGradient id="paint60_radial" cx="0" cy="0" r="1" gradientUnits="userSpaceOnUse" gradientTransform="translate(392.861 425.581) rotate(-27.8376) scale(16.263 8.00422)">
<stop stop-color="#CFA029"/>
<stop offset="1" stop-color="#9B7D2F"/>
</radialGradient>
<radialGradient id="paint61_radial" cx="0" cy="0" r="1" gradientUnits="userSpaceOnUse" gradientTransform="translate(391.261 417.681) rotate(-21.9051) scale(15.8753 8.19965)">
<stop stop-color="#CFA029"/>
<stop offset="1" stop-color="#9B7D2F"/>
</radialGradient>
<radialGradient id="paint62_radial" cx="0" cy="0" r="1" gradientUnits="userSpaceOnUse" gradientTransform="translate(390.142 401.145) rotate(-9.17388) scale(15.1787 8.57606)">
<stop stop-color="#CFA029"/>
<stop offset="1" stop-color="#9B7D2F"/>
</radialGradient>
<radialGradient id="paint63_radial" cx="0" cy="0" r="1" gradientUnits="userSpaceOnUse" gradientTransform="translate(390.635 392.673) rotate(-2.39896) scale(14.9021 8.73523)">
<stop stop-color="#CFA029"/>
<stop offset="1" stop-color="#9B7D2F"/>
</radialGradient>
<radialGradient id="paint64_radial" cx="0" cy="0" r="1" gradientUnits="userSpaceOnUse" gradientTransform="translate(391.824 384.176) rotate(4.60125) scale(14.693 7.81727)">
<stop stop-color="#CFA029"/>
<stop offset="1" stop-color="#9B7D2F"/>
</radialGradient>
<linearGradient id="paint65_linear" x1="424.798" y1="408.472" x2="484.308" y2="374.192" gradientUnits="userSpaceOnUse">
<stop stop-color="#F0C32C"/>
<stop offset="1" stop-color="#E8B71C"/>
</linearGradient>
<linearGradient id="paint66_linear" x1="432.578" y1="414.335" x2="486.235" y2="373.468" gradientUnits="userSpaceOnUse">
<stop stop-color="#FFEF86"/>
<stop offset="1" stop-color="#FFEF87" stop-opacity="0.6"/>
</linearGradient>
<linearGradient id="paint67_linear" x1="450.618" y1="411.803" x2="480.741" y2="381.318" gradientUnits="userSpaceOnUse">
<stop stop-color="#F0C42D"/>
<stop offset="0.300674" stop-color="#E0AD11"/>
<stop offset="0.673528" stop-color="#F0C32C"/>
<stop offset="0.95457" stop-color="#E0AC11"/>
</linearGradient>
<linearGradient id="paint68_linear" x1="443.487" y1="406.076" x2="474.815" y2="356.995" gradientUnits="userSpaceOnUse">
<stop stop-color="#FDF2B1"/>
<stop offset="0.330225" stop-color="#E2CA68"/>
<stop offset="0.620659" stop-color="#FDF2B1"/>
<stop offset="1" stop-color="#E2CA68"/>
</linearGradient>
</defs>
</svg>
