<svg width="24" height="30" viewBox="0 0 24 30" fill="none" xmlns="http://www.w3.org/2000/svg">
<path d="M14.8334 0.833252H3.50002C2.74857 0.833252 2.0279 1.13176 1.49655 1.66312C0.965198 2.19447 0.666687 2.91514 0.666687 3.66659V26.3333C0.666687 27.0847 0.965198 27.8054 1.49655 28.3367C2.0279 28.8681 2.74857 29.1666 3.50002 29.1666H20.5C21.2515 29.1666 21.9721 28.8681 22.5035 28.3367C23.0348 27.8054 23.3334 27.0847 23.3334 26.3333V9.33325L14.8334 0.833252ZM8.45552 20.9358C8.01777 21.3466 7.37177 21.5308 6.61952 21.5308C6.47366 21.5323 6.32787 21.5238 6.18319 21.5053V23.5254H4.91669V17.9494C5.48825 17.8642 6.06577 17.8253 6.6436 17.8333C7.43269 17.8333 7.99369 17.9834 8.37194 18.2852C8.73177 18.5713 8.97544 19.0403 8.97544 19.5928C8.97402 20.1481 8.78985 20.617 8.45552 20.9358ZM13.8488 22.8553C13.2538 23.3498 12.3485 23.5849 11.2421 23.5849C10.5791 23.5849 10.1102 23.5424 9.79144 23.4999V17.9508C10.3632 17.8674 10.9405 17.8281 11.5184 17.8333C12.5908 17.8333 13.2878 18.0259 13.8318 18.4368C14.4197 18.8731 14.788 19.5687 14.788 20.5674C14.788 21.6483 14.3928 22.3949 13.8488 22.8553ZM19.0834 18.9241H16.913V20.2147H18.9417V21.2545H16.913V23.5268H15.6295V17.8758H19.0834V18.9241ZM14.8334 10.7499H13.4167V3.66659L20.5 10.7499H14.8334Z" fill="#54595F"/>
</svg>
