<svg width="27" height="27" viewBox="0 0 27 27" fill="none" xmlns="http://www.w3.org/2000/svg">
<g clip-path="url(#clip0)">
<path d="M24.2257 8.00212C25.3237 7.2225 26.2474 6.24938 27 5.12888V5.12775C25.9954 5.56763 24.9266 5.86013 23.8106 6.00187C24.9581 5.31675 25.8345 4.24012 26.2463 2.943C25.1764 3.58087 23.9951 4.03087 22.7362 4.28287C21.7204 3.20062 20.2725 2.53125 18.693 2.53125C15.6285 2.53125 13.1614 5.01863 13.1614 8.06738C13.1614 8.50612 13.1985 8.928 13.2896 9.32963C8.68837 9.10463 4.61587 6.89962 1.87987 3.53925C1.40288 4.36837 1.12162 5.31675 1.12162 6.33712C1.12162 8.25412 2.10825 9.95288 3.58088 10.9373C2.691 10.9204 1.81912 10.6616 1.08 10.2555V10.3162C1.08 13.0061 2.99813 15.2404 5.51475 15.7556C5.06362 15.8794 4.57312 15.9379 4.0635 15.9379C3.70913 15.9379 3.35138 15.9176 3.01612 15.8434C3.73275 18.0349 5.769 19.647 8.18775 19.6999C6.3045 21.1725 3.91275 22.0601 1.32413 22.0601C0.87075 22.0601 0.435375 22.0399 0 21.9847C2.4525 23.5654 5.35725 24.4688 8.4915 24.4688C18.2599 24.4688 24.6263 16.3193 24.2257 8.00212Z" fill="#8A9097"/>
</g>
<defs>
<clipPath id="clip0">
<rect width="27" height="27" fill="white"/>
</clipPath>
</defs>
</svg>
