<svg width="27" height="27" viewBox="0 0 27 27" fill="none" xmlns="http://www.w3.org/2000/svg">
<path d="M25.8525 6.0075C25.1201 4.70475 24.3253 4.46513 22.707 4.374C21.0904 4.26431 17.0252 4.21875 13.5034 4.21875C9.97481 4.21875 5.90794 4.26431 4.293 4.37231C2.67806 4.46513 1.88156 4.70306 1.14244 6.0075C0.388125 7.30856 0 9.54956 0 13.4949C0 13.4983 0 13.5 0 13.5C0 13.5034 0 13.5051 0 13.5051V13.5084C0 17.4369 0.388125 19.6948 1.14244 20.9824C1.88156 22.2851 2.67637 22.5214 4.29131 22.6311C5.90794 22.7256 9.97481 22.7812 13.5034 22.7812C17.0252 22.7812 21.0904 22.7256 22.7087 22.6327C24.327 22.5231 25.1218 22.2868 25.8542 20.9841C26.6152 19.6965 27 17.4386 27 13.5101C27 13.5101 27 13.5051 27 13.5017C27 13.5017 27 13.4983 27 13.4966C27 9.54956 26.6152 7.30856 25.8525 6.0075ZM10.125 18.5625V8.4375L18.5625 13.5L10.125 18.5625Z" fill="#8A9097"/>
</svg>
