<svg width="797" height="698" viewBox="0 0 797 698" fill="none" xmlns="http://www.w3.org/2000/svg">
<g filter="url(#filter0_f)">
<ellipse rx="324.594" ry="154.222" transform="matrix(0.931273 -0.345814 0.36956 0.94613 428.583 453.108)" fill="#1C1C1C" fill-opacity="0.2"/>
</g>
<path d="M650.226 303.792C707.742 140.035 624.231 10.8688 463.699 15.2915C303.167 19.7141 126.405 156.051 68.8889 319.808C11.3731 483.565 94.8843 612.731 255.416 608.309C415.948 603.886 592.711 467.55 650.226 303.792Z" fill="#D8A91A" stroke="#D6A412" stroke-width="9"/>
<path d="M632.97 291.501C689.056 131.816 605.692 5.91501 446.771 10.2932C287.851 14.6715 113.554 147.671 57.469 307.356C1.38361 467.04 84.7478 592.941 243.668 588.563C402.589 584.185 576.885 451.185 632.97 291.501Z" fill="url(#paint0_linear)"/>
<path d="M583.507 292.422C537.258 424.1 393.64 533.732 262.756 537.338C131.873 540.944 63.2116 437.16 109.46 305.482C155.709 173.804 299.327 64.1721 430.211 60.5663C561.094 56.9604 629.756 160.744 583.507 292.422Z" stroke="url(#paint1_linear)" stroke-width="119"/>
<path d="M223.504 129.509L236.604 148.664C236.929 149.138 236.682 149.934 236.048 150.481C211.66 171.551 198.878 183.472 180.359 205.632C179.856 206.235 179.057 206.532 178.527 206.306L160.134 198.482C159.557 198.236 159.508 197.476 160.028 196.806C169.205 184.969 175.765 177.715 188.194 165.682C188.788 165.107 189.61 164.939 190.05 165.302L193.369 168.044C193.824 168.419 193.701 169.215 193.103 169.819C187.798 175.162 184.687 178.652 180.306 184.181C179.818 184.796 179.808 185.507 180.28 185.81L184.175 188.31C184.659 188.621 185.482 188.395 186.04 187.798C196.283 176.842 202.455 170.528 212.701 160.771C213.29 160.21 213.46 159.447 213.086 159.033L200.57 145.158C200.164 144.709 199.277 144.852 198.639 145.46C173.491 169.449 159.055 183.535 138.872 212.978C138.437 213.613 138.492 214.303 139.006 214.551L164.061 226.656C164.573 226.903 164.63 227.589 164.202 228.224C146.873 253.912 139.842 265.426 129.227 289.816C128.938 290.479 128.206 291.012 127.544 291.032L104.586 291.741C103.866 291.763 103.496 291.182 103.774 290.459C108.676 277.697 112.683 269.527 120.987 255.394C121.383 254.719 122.195 254.279 122.817 254.401L127.514 255.321C128.156 255.447 128.357 256.12 127.966 256.82C124.509 263.015 122.63 266.929 120.239 272.926C119.973 273.593 120.258 274.157 120.889 274.219L126.102 274.734C126.751 274.799 127.537 274.313 127.886 273.633C134.297 261.168 138.279 253.882 145.192 242.361C145.59 241.698 145.454 241.033 144.881 240.846L125.699 234.588C125.078 234.386 123.746 234.827 123.316 235.546C106.37 263.852 97.2118 280.355 87.8522 311.098C87.6478 311.77 88.0049 312.296 88.6705 312.289L120.533 311.841C121.188 311.832 121.548 312.338 121.37 312.995C114.124 339.675 111.559 351.593 110.938 374.626C110.921 375.251 110.372 375.951 109.673 376.229L85.4064 385.852C84.6448 386.154 83.9936 385.852 83.9728 385.184C83.6025 373.401 84.2951 365.513 86.9628 351.326C87.0901 350.649 87.7648 349.989 88.4851 349.837L93.9186 348.69C94.6616 348.533 95.173 348.973 95.063 349.667C94.0893 355.814 93.7998 359.576 93.8805 365.148C93.8894 365.768 94.4426 366.09 95.146 365.889L100.954 364.225C101.676 364.018 102.304 363.332 102.379 362.67C103.755 350.518 104.81 343.324 107.139 331.702C107.273 331.033 106.834 330.574 106.139 330.656L82.847 333.413C82.0933 333.502 81.3345 334.197 81.1903 334.921C75.5094 363.465 72.4975 379.99 76.0155 407.419C76.0913 408.01 76.693 408.277 77.3948 408.021L111.597 395.553C112.296 395.299 112.896 395.563 112.979 396.149C116.324 419.88 118.546 429.993 127.454 448.369C127.697 448.868 127.4 449.626 126.767 450.106L104.781 466.763C104.09 467.289 103.267 467.294 102.967 466.773C97.665 457.623 95.1232 451.146 92.0747 438.966C91.9292 438.384 92.3771 437.611 93.0849 437.222L98.428 434.287C99.1581 433.886 99.8893 434.041 100.06 434.629C101.576 439.839 102.832 442.913 105.238 447.275C105.506 447.761 106.233 447.808 106.902 447.386L112.43 443.904C113.118 443.47 113.505 442.695 113.31 442.145C109.724 432.051 107.86 425.985 105.516 415.953C105.381 415.375 104.72 415.177 104.009 415.502L80.2087 426.383C79.4386 426.735 78.9148 427.567 79.0623 428.192C84.8591 452.812 88.512 466.964 103.69 487.266C104.023 487.707 104.79 487.685 105.439 487.209L136.477 464.267C137.11 463.8 137.862 463.766 138.21 464.18C152.368 481.076 159.466 488.15 177.207 498.704C177.689 498.991 177.708 499.691 177.245 500.313L161.13 521.896C160.624 522.571 159.744 522.908 159.192 522.628C149.443 517.721 143.837 513.767 135.151 505.63C134.735 505.244 134.871 504.469 135.455 503.889L139.866 499.5C140.47 498.897 141.322 498.723 141.767 499.108C145.709 502.504 148.423 504.36 152.94 506.749C153.444 507.012 154.243 506.757 154.77 506.169L159.137 501.283C159.681 500.673 159.749 499.926 159.295 499.581C150.962 493.264 146.265 489.351 139.289 482.586C138.888 482.196 138.093 482.306 137.476 482.844L116.845 500.716C116.178 501.294 115.988 502.141 116.424 502.561C133.595 519.154 143.808 528.558 169.108 538.076C169.654 538.281 170.456 537.968 170.939 537.355L194.526 507.415C195.009 506.802 195.807 506.489 196.353 506.69C218.538 514.706 228.771 517.559 252.142 519.247C252.778 519.291 253.09 519.838 252.851 520.502L244.576 543.54C244.316 544.261 243.512 544.856 242.806 544.841C230.32 544.62 222.669 543.597 209.978 540.433C209.372 540.282 209.195 539.621 209.579 538.945L212.476 533.835C212.872 533.136 213.713 532.681 214.349 532.818C219.986 534.016 223.665 534.47 229.497 534.662C230.147 534.684 230.897 534.182 231.218 533.517L233.861 528.035C234.189 527.355 233.951 526.736 233.321 526.634C221.766 524.77 215.107 523.442 204.817 520.719C204.226 520.558 203.42 520.947 202.982 521.598L188.324 543.401C187.85 544.106 187.823 545.293 188.465 545.46C213.76 552.117 228.791 555.265 259.839 553.316C260.517 553.271 261.253 552.713 261.508 552.04L273.6 519.864C273.848 519.205 274.562 518.652 275.234 518.589C302.526 516.003 314.981 514.17 340.769 506.221C341.47 506.003 342.044 506.3 342.08 506.907L343.364 527.954C343.404 528.614 342.804 529.389 342.043 529.657C328.577 534.423 319.935 536.658 304.955 539.236C304.241 539.357 303.762 538.916 303.874 538.243L304.727 533.154C304.843 532.458 305.542 531.778 306.283 531.629C312.845 530.329 316.984 529.218 323.312 527.065C324.017 526.825 324.6 526.143 324.651 525.502L325.067 520.227C325.118 519.573 324.591 519.191 323.872 519.361C310.683 522.488 302.967 524.098 290.751 526.066C290.049 526.178 289.357 526.792 289.175 527.467L283.081 550.084C282.884 550.817 283.369 551.328 284.131 551.205C314.148 546.336 331.634 543.24 364.027 529.452C364.726 529.155 365.266 528.444 365.254 527.827L364.684 497.754C364.672 497.142 365.208 496.435 365.904 496.129C394.048 483.896 406.357 477.874 430.649 461.986C431.31 461.554 432.049 461.573 432.341 462.037L442.477 478.149C442.795 478.656 442.476 479.489 441.771 479.984C429.332 488.774 421.006 493.769 406.034 501.398C405.32 501.762 404.623 501.596 404.463 501.023L403.257 496.696C403.093 496.101 403.557 495.303 404.29 494.908C410.777 491.432 414.749 489.008 420.629 484.945C421.285 484.49 421.625 483.736 421.414 483.212L419.662 478.901C419.446 478.36 418.722 478.256 418.023 478.659C405.196 486.062 397.603 490.212 385.337 496.33C384.632 496.68 384.146 497.425 384.232 498.027L387.121 518.13C387.214 518.78 387.947 519.002 388.712 518.619C418.83 503.567 436.269 494.587 465.216 471.619C465.849 471.117 466.128 470.346 465.846 469.865L453.838 449.788C453.551 449.307 453.806 448.542 454.413 448.012C478.8 426.872 491.564 414.928 510.05 392.726C510.551 392.123 511.349 391.825 511.88 392.049L530.313 399.816C530.894 400.06 530.943 400.82 530.427 401.491C521.272 413.34 514.728 420.604 502.321 432.658C501.728 433.233 500.905 433.404 500.466 433.042L497.134 430.311C496.677 429.938 496.799 429.143 497.397 428.538C502.69 423.186 505.795 419.692 510.166 414.157C510.65 413.54 510.658 412.83 510.185 412.529L506.28 410.041C505.792 409.732 504.971 409.96 504.414 410.558C494.19 421.53 488.033 427.854 477.804 437.628C477.216 438.19 477.049 438.953 477.426 439.366L489.993 453.192C490.402 453.639 491.29 453.496 491.925 452.887C517.029 428.855 531.436 414.746 551.556 385.279C551.99 384.644 551.929 383.954 551.415 383.707L526.3 371.681C525.785 371.435 525.727 370.75 526.156 370.115C543.425 344.407 550.429 332.886 560.984 308.493C561.27 307.829 562.001 307.295 562.663 307.273L585.642 306.505C586.366 306.481 586.737 307.06 586.461 307.783C581.589 320.545 577.604 328.718 569.333 342.859C568.938 343.534 568.129 343.976 567.504 343.856L562.8 342.948C562.159 342.824 561.951 342.152 562.342 341.452C565.783 335.254 567.653 331.339 570.032 325.342C570.293 324.675 570.008 324.112 569.375 324.052L564.154 323.551C563.505 323.488 562.719 323.976 562.371 324.655C555.991 337.126 552.027 344.414 545.144 355.942C544.744 356.605 544.883 357.269 545.459 357.455L564.679 363.656C565.302 363.856 566.629 363.412 567.061 362.693C583.942 334.37 593.057 317.86 602.339 287.123C602.54 286.451 602.18 285.927 601.514 285.936L569.62 286.467C568.966 286.478 568.604 285.973 568.782 285.316C575.956 258.643 578.486 246.731 579.044 223.72C579.057 223.095 579.606 222.393 580.305 222.115L604.567 212.437C605.327 212.133 605.981 212.434 606.005 213.1C606.408 224.871 605.737 232.753 603.108 246.932C602.985 247.609 602.309 248.271 601.588 248.425L596.153 249.584C595.413 249.743 594.9 249.305 595.007 248.611C595.963 242.468 596.243 238.708 596.145 233.143C596.134 232.523 595.58 232.202 594.877 232.406L589.067 234.083C588.344 234.292 587.717 234.979 587.647 235.64C586.304 247.784 585.27 254.974 582.971 266.59C582.837 267.259 583.278 267.717 583.974 267.633L607.282 264.817C608.038 264.727 608.796 264.03 608.936 263.306C614.538 234.776 617.505 218.259 613.902 190.867C613.824 190.276 613.224 190.011 612.52 190.269L578.322 202.814C577.622 203.071 577.021 202.809 576.937 202.223C573.52 178.524 571.266 168.427 562.292 150.093C562.05 149.595 562.343 148.838 562.977 148.356L584.936 131.657C585.624 131.133 586.447 131.125 586.753 131.642C592.085 140.77 594.65 147.233 597.736 159.394C597.883 159.975 597.436 160.748 596.729 161.138L591.39 164.085C590.661 164.487 589.929 164.334 589.753 163.747C588.224 158.546 586.958 155.479 584.533 151.128C584.265 150.643 583.539 150.598 582.868 151.021L577.346 154.515C576.658 154.949 576.272 155.725 576.469 156.274C580.087 166.348 581.975 172.403 584.349 182.419C584.485 182.995 585.148 183.192 585.86 182.865L609.649 171.933C610.419 171.579 610.943 170.747 610.794 170.123C604.918 145.543 601.219 131.415 585.965 111.175C585.633 110.733 584.866 110.756 584.216 111.234L553.215 134.235C552.583 134.704 551.83 134.74 551.481 134.327C537.26 117.485 530.134 110.436 512.344 99.94C511.86 99.6553 511.839 98.9558 512.302 98.3334L528.37 76.7286C528.874 76.0508 529.753 75.7154 530.307 75.9915C540.081 80.867 545.703 84.8055 554.422 92.9081C554.839 93.2952 554.706 94.0673 554.122 94.6503L549.719 99.0479C549.117 99.6491 548.265 99.8237 547.818 99.4424C543.862 96.0624 541.14 94.2131 536.612 91.8399C536.107 91.5761 535.308 91.8322 534.781 92.4242L530.424 97.3161C529.883 97.9244 529.815 98.6744 530.271 99.0172C538.63 105.305 543.344 109.201 550.347 115.942C550.75 116.33 551.546 116.216 552.161 115.681L572.758 97.7717C573.427 97.1921 573.615 96.3444 573.179 95.9248C555.939 79.3968 545.688 70.0266 520.337 60.5835C519.79 60.3795 518.988 60.6948 518.505 61.3098L494.982 91.2829C494.502 91.8952 493.704 92.21 493.155 92.0135C470.926 84.0591 460.673 81.241 437.275 79.6143C436.639 79.5701 436.324 79.0269 436.561 78.363L444.778 55.3249C445.036 54.6018 445.837 54.0088 446.545 54.0198C459.044 54.2088 466.706 55.2115 479.419 58.3392C480.026 58.4886 480.205 59.1467 479.822 59.8243L476.937 64.9371C476.542 65.6361 475.703 66.0926 475.065 65.959C469.421 64.7734 465.735 64.3335 459.896 64.1558C459.246 64.1363 458.497 64.637 458.178 65.3013L455.549 70.7857C455.222 71.4679 455.462 72.0843 456.093 72.1842C467.664 74.0159 474.335 75.3248 484.642 78.0206C485.235 78.1758 486.041 77.7881 486.476 77.1364L501.085 55.3175C501.557 54.6115 501.581 53.4254 500.938 53.2584C475.599 46.6748 460.544 43.5684 429.471 45.5995C428.792 45.6439 428.057 46.2038 427.803 46.8768L415.795 79.052C415.548 79.713 414.834 80.2687 414.161 80.334C386.851 82.9856 374.388 84.853 348.598 92.8619C347.898 93.0792 347.322 92.7847 347.283 92.1787L345.937 71.1564C345.895 70.4967 346.492 69.7224 347.255 69.451C360.719 64.6552 369.363 62.3992 384.35 59.786C385.065 59.6614 385.547 60.0982 385.436 60.7727L384.598 65.8577C384.483 66.5531 383.785 67.2371 383.044 67.3858C376.479 68.7032 372.34 69.8206 366.01 71.9925C365.306 72.2341 364.724 72.9167 364.675 73.5551L364.275 78.826C364.225 79.4816 364.754 79.8621 365.473 79.6897C378.668 76.5281 386.386 74.9003 398.606 72.9051C399.31 72.7901 400.001 72.1732 400.181 71.4977L406.215 48.889C406.41 48.1574 405.923 47.6478 405.16 47.7732C375.128 52.7133 357.633 55.8547 325.248 69.7139C324.55 70.013 324.012 70.7235 324.026 71.3399L324.684 101.381C324.697 101.995 324.163 102.703 323.468 103.007C295.331 115.303 283.028 121.352 258.758 137.288C258.098 137.721 257.358 137.705 257.065 137.241L246.871 121.173C246.552 120.668 246.869 119.835 247.573 119.335C259.998 110.521 268.318 105.511 283.283 97.8483C283.997 97.4826 284.695 97.6467 284.856 98.2198L286.076 102.542C286.243 103.132 285.78 103.933 285.048 104.327C278.564 107.82 274.596 110.249 268.72 114.327C268.066 114.781 267.727 115.536 267.941 116.058L269.706 120.363C269.926 120.898 270.651 121 271.349 120.596C284.166 113.17 291.755 109.002 304.015 102.86C304.721 102.507 305.204 101.761 305.116 101.162L302.166 81.0838C302.071 80.4339 301.336 80.2144 300.572 80.5982C270.467 95.7171 253.036 104.734 224.129 127.756C223.498 128.258 223.219 129.03 223.504 129.509Z" stroke="url(#paint2_linear)" stroke-width="6"/>
<path d="M628.54 291.622C573.232 449.095 401.449 580.248 244.854 584.562C88.2598 588.876 6.14781 464.718 61.4563 307.246C116.765 149.772 288.548 18.6198 445.142 14.3057C601.737 9.99152 683.849 134.149 628.54 291.622Z" stroke="#CFA31F" stroke-width="11"/>
<path d="M625.439 291.708C570.735 447.458 400.833 577.179 245.948 581.446C91.0657 585.713 9.85415 462.91 64.5575 307.16C119.262 151.408 289.166 21.6889 444.048 17.4219C598.933 13.1548 680.143 135.956 625.439 291.708Z" stroke="#EDCA61" stroke-width="3"/>
<path d="M416.58 108.732C416.076 109.926 415.307 110.876 414.274 111.583C413.246 112.289 412.086 112.66 410.794 112.696C409.38 112.735 408.435 112.289 407.957 111.357C407.486 110.421 407.544 109.119 408.13 107.45L408.368 106.773C408.742 105.708 409.258 104.764 409.917 103.942C410.575 103.121 411.326 102.485 412.169 102.034C413.019 101.579 413.903 101.339 414.821 101.314C416.093 101.279 416.998 101.593 417.535 102.256C418.071 102.919 418.183 103.868 417.87 105.102L415.598 105.165C415.794 104.451 415.776 103.939 415.545 103.629C415.321 103.314 414.861 103.166 414.164 103.185C413.407 103.206 412.743 103.495 412.172 104.053C411.608 104.606 411.119 105.456 410.707 106.603L410.413 107.44C409.992 108.637 409.864 109.507 410.029 110.05C410.198 110.592 410.671 110.853 411.448 110.832C412.15 110.812 412.729 110.638 413.184 110.309C413.646 109.975 414.021 109.47 414.309 108.794L416.58 108.732Z" fill="url(#paint3_radial)"/>
<path d="M433.469 110.794L429.646 110.505L427.895 112.727L425.577 112.552L434.485 101.798L436.505 101.951L435.497 113.302L433.179 113.127L433.469 110.794ZM431.063 108.705L433.709 108.905L434.239 104.667L431.063 108.705Z" fill="url(#paint4_radial)"/>
<path d="M449.858 112.562C450.092 112.137 450.132 111.786 449.98 111.509C449.831 111.227 449.466 110.893 448.887 110.507C448.31 110.117 447.88 109.76 447.596 109.436C446.825 108.551 446.751 107.541 447.374 106.406C447.699 105.816 448.138 105.32 448.694 104.917C449.257 104.51 449.895 104.231 450.608 104.079C451.325 103.927 452.04 103.919 452.752 104.054C453.469 104.189 454.029 104.452 454.433 104.843C454.839 105.229 455.055 105.709 455.081 106.282C455.11 106.856 454.945 107.47 454.585 108.125L452.518 107.734C452.792 107.234 452.86 106.819 452.722 106.49C452.586 106.155 452.257 105.938 451.733 105.839C451.227 105.744 450.77 105.787 450.361 105.969C449.954 106.146 449.647 106.424 449.438 106.804C449.243 107.159 449.242 107.487 449.437 107.789C449.636 108.092 449.997 108.408 450.52 108.739C451.485 109.346 452.079 109.986 452.304 110.657C452.529 111.328 452.407 112.089 451.941 112.939C451.422 113.884 450.685 114.564 449.732 114.979C448.781 115.39 447.75 115.49 446.637 115.28C445.866 115.134 445.246 114.849 444.78 114.424C444.316 113.994 444.063 113.48 444.022 112.882C443.985 112.285 444.16 111.633 444.547 110.928L446.621 111.321C445.96 112.526 446.29 113.253 447.614 113.503C448.106 113.596 448.548 113.561 448.942 113.398C449.338 113.23 449.644 112.952 449.858 112.562Z" fill="url(#paint5_radial)"/>
<path d="M467.861 120.775L465.926 120.162L468.912 115.587L465.141 114.392L462.154 118.967L460.22 118.354L467.187 107.68L469.122 108.292L466.298 112.618L470.07 113.813L472.893 109.488L474.827 110.101L467.861 120.775Z" fill="url(#paint6_radial)"/>
<path d="M484.978 122.596L481.557 121.004L478.342 125.223L476.56 124.395L484.427 114.07L490.058 116.689L488.745 118.412L484.897 116.622L482.865 119.288L486.286 120.879L484.978 122.596Z" fill="url(#paint7_radial)"/>
<path d="M492.639 130.622L496.061 132.823L494.623 134.457L489.59 131.22L498.278 121.346L499.89 122.383L492.639 130.622Z" fill="url(#paint8_radial)"/>
<path d="M508.334 141.876L505.835 139.712L503.418 141.221L501.903 139.909L513.902 132.816L515.223 133.959L508.388 145.524L506.872 144.212L508.334 141.876ZM507.793 138.489L509.522 139.986L512.181 135.744L507.793 138.489Z" fill="url(#paint9_radial)"/>
<path d="M518.762 151.711C519.154 151.374 519.372 151.021 519.416 150.652C519.465 150.28 519.392 149.749 519.198 149.058C519.008 148.364 518.903 147.775 518.881 147.294C518.823 145.979 519.318 144.871 520.364 143.968C520.908 143.499 521.482 143.186 522.085 143.029C522.696 142.87 523.29 142.883 523.867 143.068C524.448 143.255 524.949 143.593 525.37 144.082C525.795 144.574 526.042 145.126 526.111 145.737C526.185 146.344 526.076 146.958 525.783 147.579C525.494 148.203 525.047 148.775 524.443 149.296L523.219 147.876C523.679 147.479 523.951 147.072 524.033 146.654C524.12 146.233 524.008 145.843 523.697 145.483C523.398 145.136 523.057 144.96 522.674 144.954C522.296 144.945 521.932 145.091 521.582 145.394C521.255 145.676 521.077 146.024 521.049 146.439C521.024 146.857 521.104 147.368 521.288 147.974C521.63 149.087 521.697 150.055 521.491 150.876C521.284 151.699 520.788 152.448 520.005 153.123C519.133 153.874 518.255 154.239 517.368 154.218C516.485 154.192 515.715 153.798 515.056 153.035C514.599 152.504 514.323 151.901 514.228 151.223C514.139 150.542 514.241 149.873 514.535 149.217C514.833 148.565 515.307 147.959 515.956 147.398L517.185 148.822C516.074 149.78 515.911 150.713 516.695 151.621C516.986 151.959 517.312 152.136 517.674 152.155C518.04 152.169 518.403 152.021 518.762 151.711Z" fill="url(#paint10_radial)"/>
<path d="M526.825 169.176L525.813 167.586L530.359 164.178L528.386 161.077L523.84 164.485L522.827 162.895L533.436 154.943L534.447 156.533L530.149 159.755L532.123 162.856L536.421 159.634L537.433 161.224L526.825 169.176Z" fill="url(#paint11_radial)"/>
<path d="M547.64 191.984L546.807 189.184L537.336 194.403L536.778 192.52L546.249 187.301L545.429 184.539L547.328 183.493L549.539 190.938L547.64 191.984Z" fill="url(#paint12_radial)"/>
<path d="M546.149 209.908L545.525 206.063L542.423 207.489L543.15 212.002L541.235 212.883L540.184 206.368L551.768 201.044L552.819 207.545L550.883 208.434L550.16 203.935L547.398 205.204L548.018 209.049L546.149 209.908Z" fill="url(#paint13_radial)"/>
<path d="M546.384 228.877C545.125 229.263 544.117 229.224 543.368 228.758C542.613 228.297 542.215 227.469 542.17 226.273C542.116 224.966 542.578 223.749 543.552 222.625C544.534 221.503 545.907 220.616 547.663 219.963L548.379 219.699C549.504 219.282 550.498 219.089 551.37 219.117C552.237 219.145 552.913 219.395 553.392 219.867C553.88 220.341 554.138 221.003 554.173 221.853C554.221 223.03 553.898 224.112 553.204 225.098C552.511 226.085 551.514 226.877 550.212 227.472L550.13 225.371C550.882 225.04 551.417 224.653 551.744 224.211C552.074 223.771 552.225 223.229 552.201 222.584C552.171 221.884 551.861 221.465 551.268 221.329C550.683 221.196 549.788 221.348 548.576 221.787L547.693 222.114C546.432 222.582 545.517 223.09 544.947 223.637C544.376 224.19 544.104 224.825 544.132 225.545C544.159 226.194 544.349 226.615 544.698 226.807C545.05 227.003 545.585 226.992 546.302 226.775L546.384 228.877Z" fill="url(#paint14_radial)"/>
<path d="M541.622 249.207L541.778 247.026L546.779 245.615L547.084 241.364L542.082 242.775L542.238 240.595L553.907 237.303L553.751 239.483L549.022 240.817L548.718 245.068L553.442 243.734L553.286 245.914L541.622 249.207Z" fill="url(#paint15_radial)"/>
<path d="M538.754 267.379L539.149 265.143L547.505 259.326L539.919 260.788L540.314 258.551L551.844 256.329L551.449 258.566L543.076 264.393L550.68 262.928L550.283 265.157L538.754 267.379Z" fill="url(#paint16_radial)"/>
<path d="M539.68 284.141C538.571 284.253 537.652 284.158 536.919 283.859C536.186 283.559 535.694 283.074 535.439 282.402C535.181 281.736 535.179 280.941 535.438 280.018C535.689 279.104 536.141 278.267 536.79 277.505C537.439 276.743 538.232 276.124 539.171 275.646C540.12 275.169 541.137 274.873 542.221 274.76L542.78 274.704C543.89 274.592 544.812 274.689 545.548 274.993C546.286 275.302 546.782 275.789 547.035 276.456C547.29 277.127 547.292 277.922 547.035 278.841C546.778 279.759 546.326 280.597 545.674 281.354C545.029 282.116 544.224 282.734 543.268 283.208C542.319 283.686 541.29 283.98 540.185 284.091L539.68 284.141ZM540.831 281.789C542.014 281.67 542.969 281.373 543.698 280.897C544.431 280.422 544.899 279.801 545.112 279.033C545.327 278.271 545.185 277.714 544.69 277.361C544.2 277.008 543.369 276.887 542.197 277L541.647 277.055C540.492 277.17 539.541 277.467 538.79 277.945C538.043 278.422 537.559 279.049 537.343 279.827C537.133 280.589 537.276 281.144 537.772 281.491C538.273 281.839 539.11 281.956 540.281 281.843L540.831 281.789Z" fill="url(#paint17_radial)"/>
<path d="M531.689 297.626L529.867 302.474L528.058 302.479L530.738 295.348L541.66 295.32L540.805 297.603L531.689 297.626Z" fill="url(#paint18_radial)"/>
<path d="M524.386 322.377C523.357 322.271 522.549 321.986 521.953 321.522C521.361 321.059 521.023 320.447 520.944 319.686C520.858 318.931 521.034 318.091 521.473 317.167C521.908 316.253 522.503 315.459 523.257 314.785C524.016 314.111 524.874 313.616 525.832 313.301C526.793 312.988 527.779 312.88 528.784 312.978L529.301 313.031C530.334 313.137 531.145 313.425 531.74 313.894C532.336 314.369 532.678 314.983 532.755 315.738C532.839 316.499 532.658 317.339 532.225 318.257C531.788 319.177 531.189 319.97 530.432 320.639C529.673 321.314 528.812 321.805 527.844 322.113C526.874 322.426 525.881 322.53 524.856 322.425L524.386 322.377ZM525.954 320.123C527.051 320.236 527.98 320.114 528.745 319.759C529.515 319.403 530.076 318.842 530.443 318.074C530.803 317.312 530.8 316.695 530.43 316.222C530.07 315.751 529.344 315.456 528.262 315.339L527.749 315.287C526.682 315.177 525.758 315.299 524.971 315.652C524.189 316.006 523.608 316.571 523.239 317.349C522.879 318.112 522.882 318.726 523.253 319.194C523.629 319.661 524.36 319.954 525.446 320.07L525.954 320.123Z" fill="url(#paint19_radial)"/>
<path d="M509.922 341.598C509.716 341.099 509.701 340.454 509.882 339.664C510.063 338.875 510.411 338.033 510.927 337.137C511.468 336.197 512.13 335.412 512.909 334.782C513.689 334.158 514.546 333.729 515.479 333.497C516.41 333.27 517.358 333.256 518.323 333.457L518.995 333.604C519.981 333.821 520.729 334.19 521.243 334.711C521.756 335.238 522.002 335.886 521.986 336.657C521.977 337.433 521.704 338.283 521.173 339.209C520.431 340.497 519.572 341.443 518.592 342.047C517.617 342.651 516.558 342.903 515.413 342.803L516.666 340.624C517.289 340.649 517.831 340.518 518.291 340.232C518.745 339.952 519.145 339.513 519.49 338.915C519.929 338.154 519.999 337.518 519.709 337.005C519.415 336.493 518.76 336.122 517.736 335.892L517.104 335.753C516.07 335.525 515.159 335.57 514.381 335.887C513.603 336.203 512.975 336.78 512.492 337.616C512.013 338.457 511.829 339.092 511.95 339.522L513.653 339.895L514.825 337.858L516.324 338.187L513.865 342.464L509.922 341.598Z" fill="url(#paint20_radial)"/>
<path d="M504.819 356.753L507.467 360.418L505.848 362.805L502.341 357.261L498.998 356.086L500.506 353.866L503.849 355.041L512.081 353.627L510.454 356.022L504.819 356.753Z" fill="url(#paint21_radial)"/>
<path d="M475.624 385.661L483.226 390.936L480.114 394.35C479.036 395.532 478.041 396.306 477.131 396.671C476.222 397.038 475.424 396.985 474.744 396.512C474.369 396.253 474.155 395.902 474.091 395.459C474.036 395.018 474.136 394.533 474.405 394.004C473.849 394.436 473.299 394.692 472.74 394.772C472.179 394.857 471.685 394.751 471.259 394.454C470.529 393.946 470.247 393.263 470.417 392.405C470.582 391.546 471.17 390.561 472.17 389.449L475.624 385.661ZM477.104 389.966L475.051 388.542L473.486 390.262C473.052 390.735 472.805 391.164 472.74 391.548C472.673 391.939 472.795 392.242 473.105 392.457C473.8 392.94 474.574 392.723 475.426 391.807L477.104 389.966ZM478.212 390.734L476.856 392.22C475.949 393.243 475.799 393.968 476.417 394.395C476.763 394.634 477.126 394.676 477.514 394.522C477.895 394.374 478.342 394.023 478.844 393.47L480.127 392.064L478.212 390.734Z" fill="url(#paint22_radial)"/>
<path d="M459.947 404.081L455.749 408.093L454.644 407.064L460.818 401.162L467.499 407.382L465.519 409.271L459.947 404.081Z" fill="url(#paint23_radial)"/>
<path d="M439.738 425.71C439.178 425.011 438.864 424.25 438.798 423.427C438.731 422.605 438.915 421.773 439.349 420.934C439.779 420.099 440.422 419.325 441.278 418.612C442.124 417.907 442.992 417.42 443.883 417.15C444.774 416.879 445.611 416.854 446.395 417.074C447.182 417.297 447.851 417.748 448.404 418.427L448.685 418.778C449.245 419.477 449.557 420.242 449.622 421.072C449.685 421.909 449.5 422.743 449.068 423.576C448.633 424.415 447.99 425.189 447.139 425.898C446.288 426.606 445.418 427.092 444.53 427.355C443.639 427.625 442.8 427.644 442.013 427.41C441.223 427.184 440.55 426.723 439.992 426.027L439.738 425.71ZM442.128 424.256C442.725 425.001 443.37 425.407 444.064 425.475C444.757 425.542 445.459 425.28 446.17 424.688C446.876 424.1 447.267 423.454 447.342 422.751C447.421 422.051 447.167 421.33 446.58 420.588L446.302 420.242C445.721 419.517 445.079 419.114 444.375 419.033C443.671 418.953 442.959 419.212 442.239 419.812C441.533 420.4 441.144 421.044 441.073 421.743C441.004 422.446 441.264 423.168 441.851 423.91L442.128 424.256Z" fill="url(#paint24_radial)"/>
<path d="M420.86 438.228C420.444 437.316 420.477 436.337 420.961 435.29C421.44 434.247 422.308 433.271 423.566 432.362C424.941 431.367 426.224 430.924 427.415 431.034C428.603 431.15 429.547 431.805 430.247 432.997L430.531 433.48C430.978 434.241 431.189 435.043 431.166 435.886C431.143 436.728 430.886 437.547 430.394 438.341C429.899 439.143 429.205 439.867 428.311 440.514C427.073 441.409 425.932 441.885 424.888 441.943C423.845 442.001 423.004 441.63 422.368 440.831L424.578 439.233C424.932 439.705 425.343 439.934 425.811 439.921C426.276 439.915 426.847 439.666 427.525 439.176C428.262 438.644 428.7 438.049 428.838 437.391C428.974 436.741 428.807 436.002 428.336 435.176L427.985 434.578C427.483 433.723 426.941 433.224 426.361 433.082C425.775 432.942 425.104 433.146 424.348 433.693C423.665 434.187 423.224 434.668 423.024 435.138C422.821 435.615 422.836 436.113 423.07 436.63L420.86 438.228Z" fill="url(#paint25_radial)"/>
<path d="M407.285 447.893L408.068 446.153L407.052 443.682L409.347 442.255L412.901 450.903L410.608 452.328L408.996 448.41L408.428 450.113L406.76 454.722L403.938 456.479L406.312 450.177L400.268 447.905L402.999 446.205L407.285 447.893Z" fill="url(#paint26_radial)"/>
<path d="M382.462 461.229C382.29 460.18 382.539 459.154 383.212 458.144C383.879 457.138 384.882 456.282 386.223 455.575C387.688 454.802 388.948 454.591 390 454.946C391.047 455.309 391.755 456.189 392.12 457.59L392.268 458.159C392.502 459.052 392.514 459.942 392.303 460.83C392.095 461.713 391.678 462.526 391.056 463.267C390.429 464.011 389.639 464.637 388.687 465.139C387.367 465.837 386.229 466.111 385.273 465.961C384.315 465.815 383.639 465.252 383.242 464.28L385.598 463.038C385.813 463.605 386.133 463.931 386.559 464.012C386.981 464.097 387.553 463.954 388.275 463.572C389.06 463.158 389.59 462.615 389.862 461.95C390.131 461.291 390.145 460.475 389.905 459.507L389.721 458.807C389.459 457.8 389.08 457.167 388.588 456.898C388.089 456.634 387.437 456.714 386.63 457.142C385.903 457.523 385.397 457.943 385.11 458.4C384.82 458.862 384.723 459.39 384.817 459.987L382.462 461.229Z" fill="url(#paint27_radial)"/>
<path d="M360.811 467.684L363.205 466.639L363.752 470.861L368.422 468.819L367.874 464.597L370.268 463.553L371.545 473.402L369.152 474.446L368.633 470.457L363.966 472.495L364.483 476.488L362.089 477.533L360.811 467.684Z" fill="url(#paint28_radial)"/>
<path d="M343.828 476.052L348.051 474.582L348.831 472.176L351.391 471.285L347.155 483.107L344.922 483.887L340.432 475.105L342.995 474.21L343.828 476.052ZM347.421 476.526L344.498 477.546L346.01 480.89L347.421 476.526Z" fill="url(#paint29_radial)"/>
<path d="M326.578 478.961L328.978 478.335L327.927 488.997L325.529 489.619L326.578 478.961Z" fill="url(#paint30_radial)"/>
<path d="M302.219 483.873L304.583 483.473L307.738 489.867L309.189 482.689L311.554 482.289L309.35 493.195L306.984 493.6L303.826 487.188L302.371 494.383L300.014 494.783L302.219 483.873Z" fill="url(#paint31_radial)"/>
<path d="M265.355 488.808L260.744 496.654L258.522 496.605L265.357 485.581L267.6 485.633L266.394 493.086L271.122 485.713L273.365 485.766L271.329 496.901L269.109 496.847L270.794 488.949L265.862 496.773L263.976 496.728L265.355 488.808Z" fill="url(#paint32_radial)"/>
<path d="M245.957 489.038C246.499 487.952 247.151 487.03 247.918 486.259C248.685 485.489 249.514 484.928 250.406 484.573C251.293 484.218 252.169 484.097 253.034 484.21C253.889 484.323 254.544 484.64 254.996 485.165C255.449 485.69 255.656 486.386 255.621 487.242C255.582 488.107 255.301 489.067 254.778 490.126L254.505 490.672C253.965 491.753 253.309 492.68 252.535 493.455C251.755 494.23 250.921 494.795 250.036 495.146C249.144 495.501 248.268 495.622 247.408 495.509C246.548 495.396 245.896 495.075 245.451 494.545C244.998 494.02 244.796 493.32 244.845 492.446C244.884 491.58 245.174 490.607 245.713 489.525L245.957 489.038ZM247.863 489.819C247.288 490.972 247.044 491.874 247.132 492.524C247.221 493.174 247.625 493.542 248.344 493.636C249.057 493.731 249.756 493.505 250.44 492.961C251.122 492.422 251.749 491.585 252.325 490.441L252.593 489.904C253.153 488.782 253.394 487.885 253.317 487.213C253.238 486.545 252.834 486.164 252.108 486.065C251.393 485.974 250.696 486.2 250.017 486.744C249.336 487.292 248.707 488.138 248.131 489.282L247.863 489.819Z" fill="url(#paint33_radial)"/>
<path d="M232.402 484.796L233.997 485.197L236.374 481.239L238.376 481.744L231.887 492.551L228.274 491.646C227.126 491.356 226.41 490.851 226.128 490.127C225.848 489.398 226.019 488.516 226.643 487.476C227.085 486.741 227.599 486.163 228.187 485.736C228.766 485.319 229.435 485.036 230.193 484.892L230.742 479.948L230.804 479.845L232.955 480.381L232.402 484.796ZM232.915 486.999L231.299 486.594C230.795 486.471 230.322 486.511 229.876 486.726C229.426 486.945 229.053 487.304 228.753 487.802C228.446 488.313 228.337 488.748 228.425 489.102C228.507 489.462 228.819 489.704 229.356 489.844L230.967 490.245L232.915 486.999Z" fill="url(#paint34_radial)"/>
<path d="M219.888 478.219L215.939 476.683L217.169 474.943L222.978 477.199L215.552 487.711L213.692 486.991L219.888 478.219Z" fill="url(#paint35_radial)"/>
<path d="M207.807 470.515L199.518 480.628L196.983 479.229C196.258 478.83 195.776 478.275 195.536 477.559C195.288 476.847 195.307 476.031 195.593 475.115C195.877 474.199 196.404 473.272 197.174 472.333L197.555 471.869C198.325 470.931 199.169 470.18 200.086 469.621C200.999 469.063 201.906 468.742 202.811 468.651C203.715 468.565 204.529 468.719 205.254 469.109L207.807 470.515ZM199.204 478.004L204.737 471.252L203.916 470.803C203.251 470.438 202.526 470.423 201.739 470.762C200.952 471.101 200.147 471.767 199.327 472.755L198.889 473.287C198.047 474.315 197.583 475.188 197.497 475.909C197.409 476.63 197.697 477.177 198.366 477.542L199.204 478.004Z" fill="url(#paint36_radial)"/>
<path d="M187.266 461.647L179.821 467.742L178.305 466.611L189.011 458.222L190.539 459.37L185.675 466.694L192.942 461.164L194.473 462.308L187.041 473.142L185.526 472.011L190.968 464.437L183.312 470.352L182.024 469.391L187.266 461.647Z" fill="url(#paint37_radial)"/>
<path d="M180.4 450.245L181.727 451.574L171.97 460.587L170.644 459.256L180.4 450.245Z" fill="url(#paint38_radial)"/>
<path d="M172.391 441.104L162.041 449.431L160.368 447.181C159.891 446.538 159.67 445.799 159.706 444.961C159.736 444.125 160.024 443.259 160.571 442.364C161.113 441.474 161.865 440.641 162.827 439.867L163.303 439.484C164.265 438.71 165.225 438.162 166.183 437.842C167.138 437.517 168.011 437.443 168.801 437.62C169.592 437.797 170.227 438.204 170.707 438.84L172.391 441.104ZM162.648 446.535L169.558 440.976L169.017 440.248C168.579 439.659 167.971 439.428 167.195 439.555C166.419 439.682 165.521 440.15 164.502 440.959L163.955 441.399C162.902 442.246 162.221 443.04 161.91 443.783C161.593 444.53 161.656 445.199 162.096 445.792L162.648 446.535Z" fill="url(#paint39_radial)"/>
<path d="M156.838 427.259L158.569 430.465L161.473 428.441L159.44 424.678L161.234 423.427L164.169 428.86L153.329 436.417L150.401 430.995L152.21 429.734L154.236 433.486L156.82 431.685L155.088 428.479L156.838 427.259Z" fill="url(#paint40_radial)"/>
<path d="M141.39 397.79L142.046 400.682L151.621 395.849L152.062 397.794L142.488 402.627L143.135 405.48L141.217 406.449L139.472 398.758L141.39 397.79Z" fill="url(#paint41_radial)"/>
<path d="M144.803 380.872L144.965 382.509L149.229 380.74L149.433 382.795L137.784 387.627L137.417 383.922C137.301 382.744 137.517 381.708 138.067 380.815C138.618 379.921 139.452 379.242 140.572 378.777C141.367 378.448 142.046 378.32 142.609 378.396C143.166 378.469 143.631 378.739 144.005 379.207L148.551 375.075L148.663 375.028L148.882 377.234L144.803 380.872ZM143.021 383.316L142.857 381.658C142.806 381.143 142.614 380.806 142.282 380.649C141.945 380.494 141.507 380.528 140.968 380.752C140.419 380.98 140 381.294 139.712 381.694C139.424 382.089 139.307 382.563 139.362 383.115L139.525 384.766L143.021 383.316Z" fill="url(#paint42_radial)"/>
<path d="M146.166 360.925L146.102 364.683L148.498 364.611L148.46 366.891L136.836 366.834L136.87 364.847L148.626 357.137L148.587 359.416L146.166 360.925ZM144.161 364.741L144.205 362.14L139.808 364.876L144.161 364.741Z" fill="url(#paint43_radial)"/>
<path d="M146.482 342.04C147.721 341.826 148.652 342.02 149.273 342.62C149.895 343.217 150.128 344.143 149.971 345.401C149.799 346.777 149.164 347.979 148.066 349.008C146.962 350.033 145.536 350.754 143.787 351.17L143.077 351.338C141.96 351.604 140.999 351.656 140.194 351.495C139.388 351.333 138.802 350.97 138.434 350.404C138.061 349.835 137.931 349.103 138.042 348.209C138.197 346.97 138.68 345.888 139.493 344.96C140.305 344.033 141.367 343.356 142.68 342.929L142.403 345.141C141.647 345.373 141.08 345.696 140.704 346.11C140.322 346.52 140.089 347.064 140.004 347.742C139.913 348.479 140.131 348.964 140.659 349.196C141.182 349.424 142.044 349.4 143.245 349.124L144.122 348.916C145.377 348.618 146.316 348.225 146.939 347.738C147.563 347.247 147.922 346.623 148.017 345.866C148.102 345.183 147.998 344.714 147.705 344.46C147.407 344.202 146.907 344.132 146.206 344.251L146.482 342.04Z" fill="url(#paint44_radial)"/>
<path d="M148.801 324.822L147.816 329.155L150.876 328.706L152.031 323.621L153.922 323.342L152.253 330.685L140.831 332.364L142.497 325.036L144.403 324.756L143.25 329.826L145.973 329.426L146.958 325.093L148.801 324.822Z" fill="url(#paint45_radial)"/>
<path d="M156.97 305.531L155.664 309.528L157.706 310.169L156.914 312.593L147.143 309.054L147.833 306.941L160.303 302.219L159.512 304.643L156.97 305.531ZM154.01 309.009L154.913 306.243L150.298 307.851L154.01 309.009Z" fill="url(#paint46_radial)"/>
<path d="M164.048 292.779L153.345 292.255L154.993 288.378C155.563 287.035 156.246 286.028 157.041 285.358C157.831 284.688 158.706 284.377 159.667 284.424C160.191 284.45 160.595 284.611 160.879 284.91C161.157 285.208 161.284 285.61 161.259 286.116C161.637 285.555 162.104 285.123 162.658 284.819C163.215 284.51 163.794 284.37 164.397 284.4C165.426 284.45 166.061 284.828 166.302 285.533C166.542 286.238 166.4 287.219 165.876 288.477L164.048 292.779ZM160.356 290.27L163.245 290.412L164.076 288.458C164.304 287.921 164.359 287.497 164.241 287.186C164.12 286.869 163.842 286.701 163.406 286.679C162.426 286.631 161.705 287.131 161.245 288.18L160.356 290.27ZM158.798 290.194L159.515 288.506C159.985 287.355 159.786 286.758 158.918 286.715C158.433 286.691 158.023 286.821 157.687 287.105C157.349 287.383 157.046 287.837 156.779 288.465L156.101 290.062L158.798 290.194Z" fill="url(#paint47_radial)"/>
<path d="M174.522 270.546L173.338 272.804L163.157 271.18L164.341 268.921L174.522 270.546Z" fill="url(#paint48_radial)"/>
<path d="M182.263 253.896L185.208 249.195L186.79 249.643L182.458 256.558L172.9 253.85L174.287 251.636L182.263 253.896Z" fill="url(#paint49_radial)"/>
<path d="M197.302 234.548L195.726 236.695L186.886 232.931L188.462 230.784L197.302 234.548Z" fill="url(#paint50_radial)"/>
<path d="M206.845 210.403L204.244 213.465L210.938 217.45L209.188 219.51L202.494 215.525L199.928 218.545L198.587 217.747L205.504 209.605L206.845 210.403Z" fill="url(#paint51_radial)"/>
<path d="M222.243 197.727L220.947 193.164L223.03 191.03L224.55 197.807L227.143 199.894L225.206 201.877L222.613 199.79L215.02 199.232L217.11 197.092L222.243 197.727Z" fill="url(#paint52_radial)"/>
<path d="M260.429 168.339L256.642 171.28L256.989 173.388L254.692 175.172L253.419 164.624L255.42 163.069L264.519 167.539L262.223 169.322L260.429 168.339ZM256.361 169.573L258.982 167.537L255.728 165.747L256.361 169.573Z" fill="url(#paint53_radial)"/>
<path d="M282.123 155.444L279.867 156.959L272.776 154.454L275.477 159.908L273.222 161.424L269.116 153.133L271.372 151.618L278.477 154.13L275.769 148.664L278.017 147.154L282.123 155.444Z" fill="url(#paint54_radial)"/>
<path d="M292.272 149.286L289.276 140.305L292.753 138.308C293.747 137.737 294.694 137.407 295.595 137.316C296.499 137.217 297.28 137.371 297.94 137.776C298.598 138.178 299.066 138.796 299.344 139.63L299.482 140.044C299.761 140.878 299.791 141.746 299.573 142.645C299.36 143.542 298.92 144.395 298.253 145.204C297.586 146.014 296.759 146.704 295.772 147.276L292.272 149.286ZM292.105 140.467L294.104 146.463L295.23 145.816C296.14 145.293 296.757 144.657 297.081 143.907C297.404 143.158 297.424 142.34 297.141 141.455L296.983 140.98C296.679 140.067 296.21 139.513 295.578 139.317C294.944 139.118 294.169 139.281 293.253 139.807L292.105 140.467Z" fill="url(#paint55_radial)"/>
<path d="M333.108 125.641L333.354 129.196L330.949 130.14L330.252 120.051L334.805 118.263C335.681 117.919 336.46 117.756 337.142 117.773C337.829 117.788 338.369 117.981 338.762 118.353C339.155 118.721 339.374 119.23 339.419 119.882C339.488 120.87 339.149 121.805 338.403 122.686C337.662 123.561 336.6 124.27 335.216 124.814L333.108 125.641ZM332.992 123.957L335.14 123.114C335.776 122.864 336.25 122.545 336.564 122.156C336.883 121.765 337.025 121.33 336.992 120.849C336.958 120.355 336.762 120.021 336.405 119.849C336.047 119.676 335.571 119.701 334.977 119.925L332.773 120.791L332.992 123.957Z" fill="url(#paint56_radial)"/>
<path d="M357.049 118.951L352.829 120.236L351.93 122.643L349.371 123.422L354.188 111.603L356.418 110.924L360.322 120.089L357.763 120.868L357.049 118.951ZM353.557 118.286L356.477 117.398L355.185 113.916L353.557 118.286Z" fill="url(#paint57_radial)"/>
<path d="M375.274 110.874L378.417 105.491L381.025 104.93L376.186 112.629L375.595 116.545L373.17 117.067L373.761 113.152L370.999 107.088L373.615 106.525L375.274 110.874Z" fill="url(#paint58_radial)"/>
<path d="M377.303 225.879C337.755 226.969 295.544 259.518 282.241 297.394C268.938 335.272 288.886 366.107 328.434 365.018C347.339 364.497 366.955 356.741 383.723 344.599L402.436 375.646C375.146 395.644 343.287 408.283 312.945 409.119C250.583 410.837 216.743 361.904 238.982 298.586C261.221 235.269 330.431 183.497 392.792 181.779C423.135 180.943 446.652 192.056 460.29 210.927L419.189 243.622C410.706 232.175 396.208 225.359 377.303 225.879Z" fill="url(#paint59_linear)" stroke="url(#paint60_linear)" stroke-width="4"/>
<path d="M366.896 319.464L365.437 321.22L348.978 341.03C354.902 339.302 362.143 335.903 370.143 331.37C379.365 326.145 389.486 319.475 399.575 312.299C418.519 298.827 437.262 283.635 449.576 273.036L380.631 274.935L366.896 319.464ZM366.896 319.464L364.973 319.517L338.946 320.234L366.896 319.464ZM366.896 319.464L338.946 320.234L366.896 319.464ZM338.946 320.234C339.372 313.955 340.759 307.29 343.19 300.369C346.232 291.708 350.654 283.368 356.114 275.611L338.946 320.234ZM331.573 300.689C329.159 307.56 327.629 314.217 326.924 320.565L301.321 321.271C299.628 314.181 300.161 305.821 303.324 296.814C310.789 275.562 330.635 257.164 351.611 250.266L338.443 274.684L337.669 276.119L339.116 276.079L343.859 275.948C338.762 283.803 334.585 292.113 331.573 300.689ZM282.482 297.388C279.449 306.023 278.15 314.294 278.424 321.901L253.863 322.578L425.249 113.721L363.808 227.65C328.668 234.601 294.24 263.909 282.482 297.388ZM222.595 493.097L291.595 409.808L307.156 411.201L222.595 493.097Z" fill="url(#paint61_linear)" stroke="url(#paint62_linear)" stroke-width="4"/>
<path d="M632.97 291.501C689.056 131.816 605.692 5.91501 446.771 10.2932C287.851 14.6715 113.554 147.671 57.469 307.356C1.38361 467.04 84.7478 592.941 243.668 588.563C402.589 584.185 576.885 451.185 632.97 291.501Z" stroke="#E6C457" stroke-width="9"/>
<defs>
<filter id="filter0_f" x="60.9155" y="209.004" width="735.335" height="488.207" filterUnits="userSpaceOnUse" color-interpolation-filters="sRGB">
<feFlood flood-opacity="0" result="BackgroundImageFix"/>
<feBlend mode="normal" in="SourceGraphic" in2="BackgroundImageFix" result="shape"/>
<feGaussianBlur stdDeviation="30" result="effect1_foregroundBlur"/>
</filter>
<linearGradient id="paint0_linear" x1="83.0853" y1="250.661" x2="557.946" y2="463.378" gradientUnits="userSpaceOnUse">
<stop stop-color="#F0E052"/>
<stop offset="1" stop-color="#EBB61B"/>
</linearGradient>
<linearGradient id="paint1_linear" x1="83.0997" y1="306.208" x2="547.484" y2="469.312" gradientUnits="userSpaceOnUse">
<stop stop-color="#FFF6B9"/>
<stop offset="1" stop-color="#E8C96D"/>
</linearGradient>
<linearGradient id="paint2_linear" x1="89.146" y1="306.483" x2="540.251" y2="464.923" gradientUnits="userSpaceOnUse">
<stop stop-color="#EFD747"/>
<stop offset="1" stop-color="#DAA50B"/>
</linearGradient>
<radialGradient id="paint3_radial" cx="0" cy="0" r="1" gradientUnits="userSpaceOnUse" gradientTransform="translate(426.656 67.1704) rotate(109.353) scale(51.9323 25.9877)">
<stop stop-color="#CFA029"/>
<stop offset="1" stop-color="#9B7D2F"/>
</radialGradient>
<radialGradient id="paint4_radial" cx="0" cy="0" r="1" gradientUnits="userSpaceOnUse" gradientTransform="translate(450.808 67.83) rotate(114.208) scale(53.798 21.5198)">
<stop stop-color="#CFA029"/>
<stop offset="1" stop-color="#9B7D2F"/>
</radialGradient>
<radialGradient id="paint5_radial" cx="0" cy="0" r="1" gradientUnits="userSpaceOnUse" gradientTransform="translate(471 70.5467) rotate(118.783) scale(55.3022 19.7031)">
<stop stop-color="#CFA029"/>
<stop offset="1" stop-color="#9B7D2F"/>
</radialGradient>
<radialGradient id="paint6_radial" cx="0" cy="0" r="1" gradientUnits="userSpaceOnUse" gradientTransform="translate(492.478 76.0125) rotate(123.132) scale(56.591 20.4577)">
<stop stop-color="#CFA029"/>
<stop offset="1" stop-color="#9B7D2F"/>
</radialGradient>
<radialGradient id="paint7_radial" cx="0" cy="0" r="1" gradientUnits="userSpaceOnUse" gradientTransform="translate(511.221 83.4553) rotate(127.305) scale(57.6295 12.9989)">
<stop stop-color="#CFA029"/>
<stop offset="1" stop-color="#9B7D2F"/>
</radialGradient>
<radialGradient id="paint8_radial" cx="0" cy="0" r="1" gradientUnits="userSpaceOnUse" gradientTransform="translate(527.327 92.4018) rotate(131.349) scale(58.3906 9.3305)">
<stop stop-color="#CFA029"/>
<stop offset="1" stop-color="#9B7D2F"/>
</radialGradient>
<radialGradient id="paint9_radial" cx="0" cy="0" r="1" gradientUnits="userSpaceOnUse" gradientTransform="translate(543.598 104.672) rotate(135.309) scale(58.8554 19.6706)">
<stop stop-color="#CFA029"/>
<stop offset="1" stop-color="#9B7D2F"/>
</radialGradient>
<radialGradient id="paint10_radial" cx="0" cy="0" r="1" gradientUnits="userSpaceOnUse" gradientTransform="translate(556.154 117.362) rotate(139.227) scale(59.0127 18.4642)">
<stop stop-color="#CFA029"/>
<stop offset="1" stop-color="#9B7D2F"/>
</radialGradient>
<radialGradient id="paint11_radial" cx="0" cy="0" r="1" gradientUnits="userSpaceOnUse" gradientTransform="translate(568.117 133.597) rotate(143.145) scale(58.8584 19.6695)">
<stop stop-color="#CFA029"/>
<stop offset="1" stop-color="#9B7D2F"/>
</radialGradient>
<radialGradient id="paint12_radial" cx="0" cy="0" r="1" gradientUnits="userSpaceOnUse" gradientTransform="translate(583.464 167.924) rotate(151.148) scale(57.6382 11.8152)">
<stop stop-color="#CFA029"/>
<stop offset="1" stop-color="#9B7D2F"/>
</radialGradient>
<radialGradient id="paint13_radial" cx="0" cy="0" r="1" gradientUnits="userSpaceOnUse" gradientTransform="translate(587.936 187.622) rotate(155.319) scale(56.6027 19.2503)">
<stop stop-color="#CFA029"/>
<stop offset="1" stop-color="#9B7D2F"/>
</radialGradient>
<radialGradient id="paint14_radial" cx="0" cy="0" r="1" gradientUnits="userSpaceOnUse" gradientTransform="translate(589.995 208.429) rotate(159.666) scale(55.3163 19.698)">
<stop stop-color="#CFA029"/>
<stop offset="1" stop-color="#9B7D2F"/>
</radialGradient>
<radialGradient id="paint15_radial" cx="0" cy="0" r="1" gradientUnits="userSpaceOnUse" gradientTransform="translate(589.53 231.477) rotate(164.239) scale(53.814 21.5135)">
<stop stop-color="#CFA029"/>
<stop offset="1" stop-color="#9B7D2F"/>
</radialGradient>
<radialGradient id="paint16_radial" cx="0" cy="0" r="1" gradientUnits="userSpaceOnUse" gradientTransform="translate(586.584 253.904) rotate(169.091) scale(52.1397 22.2041)">
<stop stop-color="#CFA029"/>
<stop offset="1" stop-color="#9B7D2F"/>
</radialGradient>
<radialGradient id="paint17_radial" cx="0" cy="0" r="1" gradientUnits="userSpaceOnUse" gradientTransform="translate(581.635 275.381) rotate(174.278) scale(50.3471 24.3475)">
<stop stop-color="#CFA029"/>
<stop offset="1" stop-color="#9B7D2F"/>
</radialGradient>
<radialGradient id="paint18_radial" cx="0" cy="0" r="1" gradientUnits="userSpaceOnUse" gradientTransform="translate(574.095 298.47) rotate(179.856) scale(48.496 11.2342)">
<stop stop-color="#CFA029"/>
<stop offset="1" stop-color="#9B7D2F"/>
</radialGradient>
<radialGradient id="paint19_radial" cx="0" cy="0" r="1" gradientUnits="userSpaceOnUse" gradientTransform="translate(564.282 321.565) rotate(-174.124) scale(46.6597 26.2717)">
<stop stop-color="#CFA029"/>
<stop offset="1" stop-color="#9B7D2F"/>
</radialGradient>
<radialGradient id="paint20_radial" cx="0" cy="0" r="1" gradientUnits="userSpaceOnUse" gradientTransform="translate(551.5 345.815) rotate(-167.622) scale(44.9158 25.7752)">
<stop stop-color="#CFA029"/>
<stop offset="1" stop-color="#9B7D2F"/>
</radialGradient>
<radialGradient id="paint21_radial" cx="0" cy="0" r="1" gradientUnits="userSpaceOnUse" gradientTransform="translate(537.337 368.2) rotate(-160.621) scale(43.3487 23.565)">
<stop stop-color="#CFA029"/>
<stop offset="1" stop-color="#9B7D2F"/>
</radialGradient>
<radialGradient id="paint22_radial" cx="0" cy="0" r="1" gradientUnits="userSpaceOnUse" gradientTransform="translate(503.445 410.694) rotate(-145.24) scale(41.0794 28.1825)">
<stop stop-color="#CFA029"/>
<stop offset="1" stop-color="#9B7D2F"/>
</radialGradient>
<radialGradient id="paint23_radial" cx="0" cy="0" r="1" gradientUnits="userSpaceOnUse" gradientTransform="translate(485.273 429.216) rotate(-137.044) scale(40.5199 13.4454)">
<stop stop-color="#CFA029"/>
<stop offset="1" stop-color="#9B7D2F"/>
</radialGradient>
<radialGradient id="paint24_radial" cx="0" cy="0" r="1" gradientUnits="userSpaceOnUse" gradientTransform="translate(464.585 447.682) rotate(-128.707) scale(40.4042 30.339)">
<stop stop-color="#CFA029"/>
<stop offset="1" stop-color="#9B7D2F"/>
</radialGradient>
<radialGradient id="paint25_radial" cx="0" cy="0" r="1" gradientUnits="userSpaceOnUse" gradientTransform="translate(442.715 464.669) rotate(-120.419) scale(40.7403 26.7454)">
<stop stop-color="#CFA029"/>
<stop offset="1" stop-color="#9B7D2F"/>
</radialGradient>
<radialGradient id="paint26_radial" cx="0" cy="0" r="1" gradientUnits="userSpaceOnUse" gradientTransform="translate(419.875 480.01) rotate(-112.351) scale(41.5048 26.2529)">
<stop stop-color="#CFA029"/>
<stop offset="1" stop-color="#9B7D2F"/>
</radialGradient>
<radialGradient id="paint27_radial" cx="0" cy="0" r="1" gradientUnits="userSpaceOnUse" gradientTransform="translate(396.298 493.555) rotate(-104.645) scale(42.6448 25.551)">
<stop stop-color="#CFA029"/>
<stop offset="1" stop-color="#9B7D2F"/>
</radialGradient>
<radialGradient id="paint28_radial" cx="0" cy="0" r="1" gradientUnits="userSpaceOnUse" gradientTransform="translate(370.741 505.809) rotate(-97.3928) scale(44.089 26.2588)">
<stop stop-color="#CFA029"/>
<stop offset="1" stop-color="#9B7D2F"/>
</radialGradient>
<radialGradient id="paint29_radial" cx="0" cy="0" r="1" gradientUnits="userSpaceOnUse" gradientTransform="translate(346.384 515.24) rotate(-90.6367) scale(45.7534 25.3036)">
<stop stop-color="#CFA029"/>
<stop offset="1" stop-color="#9B7D2F"/>
</radialGradient>
<radialGradient id="paint30_radial" cx="0" cy="0" r="1" gradientUnits="userSpaceOnUse" gradientTransform="translate(323.493 522.144) rotate(-84.3747) scale(47.5533 11.457)">
<stop stop-color="#CFA029"/>
<stop offset="1" stop-color="#9B7D2F"/>
</radialGradient>
<radialGradient id="paint31_radial" cx="0" cy="0" r="1" gradientUnits="userSpaceOnUse" gradientTransform="translate(297.885 527.589) rotate(-78.5767) scale(49.4062 23.4328)">
<stop stop-color="#CFA029"/>
<stop offset="1" stop-color="#9B7D2F"/>
</radialGradient>
<radialGradient id="paint32_radial" cx="0" cy="0" r="1" gradientUnits="userSpaceOnUse" gradientTransform="translate(251.271 530.879) rotate(-68.1815) scale(52.9787 29.5653)">
<stop stop-color="#CFA029"/>
<stop offset="1" stop-color="#9B7D2F"/>
</radialGradient>
<radialGradient id="paint33_radial" cx="0" cy="0" r="1" gradientUnits="userSpaceOnUse" gradientTransform="translate(230.565 529.236) rotate(-63.4732) scale(54.5744 22.4614)">
<stop stop-color="#CFA029"/>
<stop offset="1" stop-color="#9B7D2F"/>
</radialGradient>
<radialGradient id="paint34_radial" cx="0" cy="0" r="1" gradientUnits="userSpaceOnUse" gradientTransform="translate(208.394 524.971) rotate(-59.0175) scale(55.9757 13.3827)">
<stop stop-color="#CFA029"/>
<stop offset="1" stop-color="#9B7D2F"/>
</radialGradient>
<radialGradient id="paint35_radial" cx="0" cy="0" r="1" gradientUnits="userSpaceOnUse" gradientTransform="translate(190.042 519.071) rotate(-54.7624) scale(57.1434 9.53412)">
<stop stop-color="#CFA029"/>
<stop offset="1" stop-color="#9B7D2F"/>
</radialGradient>
<radialGradient id="paint36_radial" cx="0" cy="0" r="1" gradientUnits="userSpaceOnUse" gradientTransform="translate(170.953 510.106) rotate(-50.6596) scale(58.0462 19.9449)">
<stop stop-color="#CFA029"/>
<stop offset="1" stop-color="#9B7D2F"/>
</radialGradient>
<radialGradient id="paint37_radial" cx="0" cy="0" r="1" gradientUnits="userSpaceOnUse" gradientTransform="translate(154.746 499.482) rotate(-46.6628) scale(58.6609 26.7014)">
<stop stop-color="#CFA029"/>
<stop offset="1" stop-color="#9B7D2F"/>
</radialGradient>
<radialGradient id="paint38_radial" cx="0" cy="0" r="1" gradientUnits="userSpaceOnUse" gradientTransform="translate(141.25 487.686) rotate(-42.7291) scale(58.9731 9.23833)">
<stop stop-color="#CFA029"/>
<stop offset="1" stop-color="#9B7D2F"/>
</radialGradient>
<radialGradient id="paint39_radial" cx="0" cy="0" r="1" gradientUnits="userSpaceOnUse" gradientTransform="translate(128.158 472.387) rotate(-38.8163) scale(58.9744 19.6309)">
<stop stop-color="#CFA029"/>
<stop offset="1" stop-color="#9B7D2F"/>
</radialGradient>
<radialGradient id="paint40_radial" cx="0" cy="0" r="1" gradientUnits="userSpaceOnUse" gradientTransform="translate(118.598 457.213) rotate(-34.8828) scale(58.6654 18.5733)">
<stop stop-color="#CFA029"/>
<stop offset="1" stop-color="#9B7D2F"/>
</radialGradient>
<radialGradient id="paint41_radial" cx="0" cy="0" r="1" gradientUnits="userSpaceOnUse" gradientTransform="translate(104.943 420.467) rotate(-26.7855) scale(57.1538 11.9154)">
<stop stop-color="#CFA029"/>
<stop offset="1" stop-color="#9B7D2F"/>
</radialGradient>
<radialGradient id="paint42_radial" cx="0" cy="0" r="1" gradientUnits="userSpaceOnUse" gradientTransform="translate(101.547 398.925) rotate(-22.5322) scale(55.9887 13.3797)">
<stop stop-color="#CFA029"/>
<stop offset="1" stop-color="#9B7D2F"/>
</radialGradient>
<radialGradient id="paint43_radial" cx="0" cy="0" r="1" gradientUnits="userSpaceOnUse" gradientTransform="translate(100.848 377.587) rotate(-18.0787) scale(54.5895 21.2077)">
<stop stop-color="#CFA029"/>
<stop offset="1" stop-color="#9B7D2F"/>
</radialGradient>
<radialGradient id="paint44_radial" cx="0" cy="0" r="1" gradientUnits="userSpaceOnUse" gradientTransform="translate(102.41 356.83) rotate(-13.3733) scale(52.9953 20.5606)">
<stop stop-color="#CFA029"/>
<stop offset="1" stop-color="#9B7D2F"/>
</radialGradient>
<radialGradient id="paint45_radial" cx="0" cy="0" r="1" gradientUnits="userSpaceOnUse" gradientTransform="translate(106.41 334.179) rotate(-8.36084) scale(51.2546 21.2589)">
<stop stop-color="#CFA029"/>
<stop offset="1" stop-color="#9B7D2F"/>
</radialGradient>
<radialGradient id="paint46_radial" cx="0" cy="0" r="1" gradientUnits="userSpaceOnUse" gradientTransform="translate(113.245 309.775) rotate(-2.98523) scale(49.4244 23.4242)">
<stop stop-color="#CFA029"/>
<stop offset="1" stop-color="#9B7D2F"/>
</radialGradient>
<radialGradient id="paint47_radial" cx="0" cy="0" r="1" gradientUnits="userSpaceOnUse" gradientTransform="translate(122.071 286.654) rotate(2.80795) scale(47.5715 24.3364)">
<stop stop-color="#CFA029"/>
<stop offset="1" stop-color="#9B7D2F"/>
</radialGradient>
<radialGradient id="paint48_radial" cx="0" cy="0" r="1" gradientUnits="userSpaceOnUse" gradientTransform="translate(132.388 265.047) rotate(9.06526) scale(45.7709 11.9029)">
<stop stop-color="#CFA029"/>
<stop offset="1" stop-color="#9B7D2F"/>
</radialGradient>
<radialGradient id="paint49_radial" cx="0" cy="0" r="1" gradientUnits="userSpaceOnUse" gradientTransform="translate(145.422 242.373) rotate(15.8168) scale(44.1046 12.3526)">
<stop stop-color="#CFA029"/>
<stop offset="1" stop-color="#9B7D2F"/>
</radialGradient>
<radialGradient id="paint50_radial" cx="0" cy="0" r="1" gradientUnits="userSpaceOnUse" gradientTransform="translate(160.442 220.263) rotate(23.0637) scale(42.6581 12.7716)">
<stop stop-color="#CFA029"/>
<stop offset="1" stop-color="#9B7D2F"/>
</radialGradient>
<radialGradient id="paint51_radial" cx="0" cy="0" r="1" gradientUnits="userSpaceOnUse" gradientTransform="translate(177.3 198.935) rotate(30.7652) scale(41.5145 16.4042)">
<stop stop-color="#CFA029"/>
<stop offset="1" stop-color="#9B7D2F"/>
</radialGradient>
<radialGradient id="paint52_radial" cx="0" cy="0" r="1" gradientUnits="userSpaceOnUse" gradientTransform="translate(197.005 177.402) rotate(38.8301) scale(40.7461 25.0704)">
<stop stop-color="#CFA029"/>
<stop offset="1" stop-color="#9B7D2F"/>
</radialGradient>
<radialGradient id="paint53_radial" cx="0" cy="0" r="1" gradientUnits="userSpaceOnUse" gradientTransform="translate(238.486 140.686) rotate(55.4538) scale(40.5166 28.574)">
<stop stop-color="#CFA029"/>
<stop offset="1" stop-color="#9B7D2F"/>
</radialGradient>
<radialGradient id="paint54_radial" cx="0" cy="0" r="1" gradientUnits="userSpaceOnUse" gradientTransform="translate(260.927 124.602) rotate(63.653) scale(41.0718 28.1877)">
<stop stop-color="#CFA029"/>
<stop offset="1" stop-color="#9B7D2F"/>
</radialGradient>
<radialGradient id="paint55_radial" cx="0" cy="0" r="1" gradientUnits="userSpaceOnUse" gradientTransform="translate(284.209 110.251) rotate(71.5547) scale(42.0321 27.5438)">
<stop stop-color="#CFA029"/>
<stop offset="1" stop-color="#9B7D2F"/>
</radialGradient>
<radialGradient id="paint56_radial" cx="0" cy="0" r="1" gradientUnits="userSpaceOnUse" gradientTransform="translate(332.361 87.3017) rotate(86.0477) scale(44.8988 25.7851)">
<stop stop-color="#CFA029"/>
<stop offset="1" stop-color="#9B7D2F"/>
</radialGradient>
<radialGradient id="paint57_radial" cx="0" cy="0" r="1" gradientUnits="userSpaceOnUse" gradientTransform="translate(356.753 78.9316) rotate(92.5548) scale(46.6415 24.8217)">
<stop stop-color="#CFA029"/>
<stop offset="1" stop-color="#9B7D2F"/>
</radialGradient>
<radialGradient id="paint58_radial" cx="0" cy="0" r="1" gradientUnits="userSpaceOnUse" gradientTransform="translate(381.034 72.749) rotate(98.5798) scale(48.4777 21.0719)">
<stop stop-color="#CFA029"/>
<stop offset="1" stop-color="#9B7D2F"/>
</radialGradient>
<linearGradient id="paint59_linear" x1="288.582" y1="204.675" x2="413.546" y2="331.334" gradientUnits="userSpaceOnUse">
<stop stop-color="#F2C730"/>
<stop offset="1" stop-color="#E1AD0F"/>
</linearGradient>
<linearGradient id="paint60_linear" x1="268.073" y1="238.794" x2="398.2" y2="350.788" gradientUnits="userSpaceOnUse">
<stop stop-color="#FFEF86"/>
<stop offset="1" stop-color="#FFEF87" stop-opacity="0.6"/>
</linearGradient>
<linearGradient id="paint61_linear" x1="270.902" y1="297.494" x2="358.78" y2="360.721" gradientUnits="userSpaceOnUse">
<stop stop-color="#F1CD4D"/>
<stop offset="0.300674" stop-color="#E0AC10"/>
<stop offset="0.673528" stop-color="#D9B948"/>
<stop offset="0.95457" stop-color="#E0AC10"/>
</linearGradient>
<linearGradient id="paint62_linear" x1="290.806" y1="265.772" x2="421.906" y2="336.151" gradientUnits="userSpaceOnUse">
<stop stop-color="#FDF2B1"/>
<stop offset="0.330225" stop-color="#E2CA68"/>
<stop offset="0.620659" stop-color="#FDF2B1"/>
<stop offset="1" stop-color="#E2CA68"/>
</linearGradient>
</defs>
</svg>
