<svg width="1008" height="913" viewBox="0 0 1008 913" fill="none" xmlns="http://www.w3.org/2000/svg">
<path d="M71.4805 184.855C71.4805 151.718 98.3434 124.855 131.48 124.855L1021.48 124.855L1021.48 766.855L131.48 766.855C98.3434 766.855 71.4805 739.993 71.4805 706.855L71.4805 184.855Z" fill="#F2F2F2"/>
<g filter="url(#filter0_f)">
<ellipse rx="324.594" ry="154.222" transform="matrix(0.931273 -0.345814 0.36956 0.94613 428.583 658.108)" fill="#1C1C1C" fill-opacity="0.2"/>
</g>
<path d="M650.226 508.792C707.742 345.035 624.231 215.869 463.699 220.291C303.167 224.714 126.405 361.051 68.8889 524.808C11.3731 688.565 94.8843 817.731 255.416 813.309C415.948 808.886 592.711 672.55 650.226 508.792Z" fill="#D8A91A" stroke="#D6A412" stroke-width="9"/>
<path d="M632.97 496.501C689.056 336.816 605.692 210.915 446.771 215.293C287.851 219.671 113.554 352.671 57.469 512.356C1.38361 672.04 84.7478 797.941 243.668 793.563C402.589 789.185 576.885 656.185 632.97 496.501Z" fill="url(#paint0_linear)"/>
<path d="M583.507 497.422C537.258 629.1 393.64 738.732 262.756 742.338C131.873 745.944 63.2116 642.16 109.46 510.482C155.709 378.804 299.327 269.172 430.211 265.566C561.094 261.96 629.756 365.744 583.507 497.422Z" stroke="url(#paint1_linear)" stroke-width="119"/>
<path d="M223.504 334.509L236.604 353.664C236.929 354.138 236.682 354.934 236.048 355.481C211.66 376.551 198.878 388.472 180.359 410.632C179.856 411.235 179.057 411.532 178.527 411.306L160.134 403.482C159.557 403.236 159.508 402.476 160.028 401.806C169.205 389.969 175.765 382.715 188.194 370.682C188.788 370.107 189.61 369.939 190.05 370.302L193.369 373.044C193.824 373.419 193.701 374.215 193.103 374.819C187.798 380.162 184.687 383.652 180.306 389.181C179.818 389.796 179.808 390.507 180.28 390.81L184.175 393.31C184.659 393.621 185.482 393.395 186.04 392.798C196.283 381.842 202.455 375.528 212.701 365.771C213.29 365.21 213.46 364.447 213.086 364.033L200.57 350.158C200.164 349.709 199.277 349.852 198.639 350.46C173.491 374.449 159.055 388.535 138.872 417.978C138.437 418.613 138.492 419.303 139.006 419.551L164.061 431.656C164.573 431.903 164.63 432.589 164.202 433.224C146.873 458.912 139.842 470.426 129.227 494.816C128.938 495.479 128.206 496.012 127.544 496.032L104.586 496.741C103.866 496.763 103.496 496.182 103.774 495.459C108.676 482.697 112.683 474.527 120.987 460.394C121.383 459.719 122.195 459.279 122.817 459.401L127.514 460.321C128.156 460.447 128.357 461.12 127.966 461.82C124.509 468.015 122.63 471.929 120.239 477.926C119.973 478.593 120.258 479.157 120.889 479.219L126.102 479.734C126.751 479.799 127.537 479.313 127.886 478.633C134.297 466.168 138.279 458.882 145.192 447.361C145.59 446.698 145.454 446.033 144.881 445.846L125.699 439.588C125.078 439.386 123.746 439.827 123.316 440.546C106.37 468.852 97.2118 485.355 87.8522 516.098C87.6478 516.77 88.0049 517.296 88.6705 517.289L120.533 516.841C121.188 516.832 121.548 517.338 121.37 517.995C114.124 544.675 111.559 556.593 110.938 579.626C110.921 580.251 110.372 580.951 109.673 581.229L85.4064 590.852C84.6448 591.154 83.9936 590.852 83.9728 590.184C83.6025 578.401 84.2951 570.513 86.9628 556.326C87.0901 555.649 87.7648 554.989 88.4851 554.837L93.9186 553.69C94.6616 553.533 95.173 553.973 95.063 554.667C94.0893 560.814 93.7998 564.576 93.8805 570.148C93.8894 570.768 94.4426 571.09 95.146 570.889L100.954 569.225C101.676 569.018 102.304 568.332 102.379 567.67C103.755 555.518 104.81 548.324 107.139 536.702C107.273 536.033 106.834 535.574 106.139 535.656L82.847 538.413C82.0933 538.502 81.3345 539.197 81.1903 539.921C75.5094 568.465 72.4975 584.99 76.0155 612.419C76.0913 613.01 76.693 613.277 77.3948 613.021L111.597 600.553C112.296 600.299 112.896 600.563 112.979 601.149C116.324 624.88 118.546 634.993 127.454 653.369C127.697 653.868 127.4 654.626 126.767 655.106L104.781 671.763C104.09 672.289 103.267 672.294 102.967 671.773C97.665 662.623 95.1232 656.146 92.0747 643.966C91.9292 643.384 92.3771 642.611 93.0849 642.222L98.428 639.287C99.1581 638.886 99.8893 639.041 100.06 639.629C101.576 644.839 102.832 647.913 105.238 652.275C105.506 652.761 106.233 652.808 106.902 652.386L112.43 648.904C113.118 648.47 113.505 647.695 113.31 647.145C109.724 637.051 107.86 630.985 105.516 620.953C105.381 620.375 104.72 620.177 104.009 620.502L80.2087 631.383C79.4386 631.735 78.9148 632.567 79.0623 633.192C84.8591 657.812 88.512 671.964 103.69 692.266C104.023 692.707 104.79 692.685 105.439 692.209L136.477 669.267C137.11 668.8 137.862 668.766 138.21 669.18C152.368 686.076 159.466 693.15 177.207 703.704C177.689 703.991 177.708 704.691 177.245 705.313L161.13 726.896C160.624 727.571 159.744 727.908 159.192 727.628C149.443 722.721 143.837 718.767 135.151 710.63C134.735 710.244 134.871 709.469 135.455 708.889L139.866 704.5C140.47 703.897 141.322 703.723 141.767 704.108C145.709 707.504 148.423 709.36 152.94 711.749C153.444 712.012 154.243 711.757 154.77 711.169L159.137 706.283C159.681 705.673 159.749 704.926 159.295 704.581C150.962 698.264 146.265 694.351 139.289 687.586C138.888 687.196 138.093 687.306 137.476 687.844L116.845 705.716C116.178 706.294 115.988 707.141 116.424 707.561C133.595 724.154 143.808 733.558 169.108 743.076C169.654 743.281 170.456 742.968 170.939 742.355L194.526 712.415C195.009 711.802 195.807 711.489 196.353 711.69C218.538 719.706 228.771 722.559 252.142 724.247C252.778 724.291 253.09 724.838 252.851 725.502L244.576 748.54C244.316 749.261 243.512 749.856 242.806 749.841C230.32 749.62 222.669 748.597 209.978 745.433C209.372 745.282 209.195 744.621 209.579 743.945L212.476 738.835C212.872 738.136 213.713 737.681 214.349 737.818C219.986 739.016 223.665 739.47 229.497 739.662C230.147 739.684 230.897 739.182 231.218 738.517L233.861 733.035C234.189 732.355 233.951 731.736 233.321 731.634C221.766 729.77 215.107 728.442 204.817 725.719C204.226 725.558 203.42 725.947 202.982 726.598L188.324 748.401C187.85 749.106 187.823 750.293 188.465 750.46C213.76 757.117 228.791 760.265 259.839 758.316C260.517 758.271 261.253 757.713 261.508 757.04L273.6 724.864C273.848 724.205 274.562 723.652 275.234 723.589C302.526 721.003 314.981 719.17 340.769 711.221C341.47 711.003 342.044 711.3 342.08 711.907L343.364 732.954C343.404 733.614 342.804 734.389 342.043 734.657C328.577 739.423 319.935 741.658 304.955 744.236C304.241 744.357 303.762 743.916 303.874 743.243L304.727 738.154C304.843 737.458 305.542 736.778 306.283 736.629C312.845 735.329 316.984 734.218 323.312 732.065C324.017 731.825 324.6 731.143 324.651 730.502L325.067 725.227C325.118 724.573 324.591 724.191 323.872 724.361C310.683 727.488 302.967 729.098 290.751 731.066C290.049 731.178 289.357 731.792 289.175 732.467L283.081 755.084C282.884 755.817 283.369 756.328 284.131 756.205C314.148 751.336 331.634 748.24 364.027 734.452C364.726 734.155 365.266 733.444 365.254 732.827L364.684 702.754C364.672 702.142 365.208 701.435 365.904 701.129C394.048 688.896 406.357 682.874 430.649 666.986C431.31 666.554 432.049 666.573 432.341 667.037L442.477 683.149C442.795 683.656 442.476 684.489 441.771 684.984C429.332 693.774 421.006 698.769 406.034 706.398C405.32 706.762 404.623 706.596 404.463 706.023L403.257 701.696C403.093 701.101 403.557 700.303 404.29 699.908C410.777 696.432 414.749 694.008 420.629 689.945C421.285 689.49 421.625 688.736 421.414 688.212L419.662 683.901C419.446 683.36 418.722 683.256 418.023 683.659C405.196 691.062 397.603 695.212 385.337 701.33C384.632 701.68 384.146 702.425 384.232 703.027L387.121 723.13C387.214 723.78 387.947 724.002 388.712 723.619C418.83 708.567 436.269 699.587 465.216 676.619C465.849 676.117 466.128 675.346 465.846 674.865L453.838 654.788C453.551 654.307 453.806 653.542 454.413 653.012C478.8 631.872 491.564 619.928 510.05 597.726C510.551 597.123 511.349 596.825 511.88 597.049L530.313 604.816C530.894 605.06 530.943 605.82 530.427 606.491C521.272 618.34 514.728 625.604 502.321 637.658C501.728 638.233 500.905 638.404 500.466 638.042L497.134 635.311C496.677 634.938 496.799 634.143 497.397 633.538C502.69 628.186 505.795 624.692 510.166 619.157C510.65 618.54 510.658 617.83 510.185 617.529L506.28 615.041C505.792 614.732 504.971 614.96 504.414 615.558C494.19 626.53 488.033 632.854 477.804 642.628C477.216 643.19 477.049 643.953 477.426 644.366L489.993 658.192C490.402 658.639 491.29 658.496 491.925 657.887C517.029 633.855 531.436 619.746 551.556 590.279C551.99 589.644 551.929 588.954 551.415 588.707L526.3 576.681C525.785 576.435 525.727 575.75 526.156 575.115C543.425 549.407 550.429 537.886 560.984 513.493C561.27 512.829 562.001 512.295 562.663 512.273L585.642 511.505C586.366 511.481 586.737 512.06 586.461 512.783C581.589 525.545 577.604 533.718 569.333 547.859C568.938 548.534 568.129 548.976 567.504 548.856L562.8 547.948C562.159 547.824 561.951 547.152 562.342 546.452C565.783 540.254 567.653 536.339 570.032 530.342C570.293 529.675 570.008 529.112 569.375 529.052L564.154 528.551C563.505 528.488 562.719 528.976 562.371 529.655C555.991 542.126 552.027 549.414 545.144 560.942C544.744 561.605 544.883 562.269 545.459 562.455L564.679 568.656C565.302 568.856 566.629 568.412 567.061 567.693C583.942 539.37 593.057 522.86 602.339 492.123C602.54 491.451 602.18 490.927 601.514 490.936L569.62 491.467C568.966 491.478 568.604 490.973 568.782 490.316C575.956 463.643 578.486 451.731 579.044 428.72C579.057 428.095 579.606 427.393 580.305 427.115L604.567 417.437C605.327 417.133 605.981 417.434 606.005 418.1C606.408 429.871 605.737 437.753 603.108 451.932C602.985 452.609 602.309 453.271 601.588 453.425L596.153 454.584C595.413 454.743 594.9 454.305 595.007 453.611C595.963 447.468 596.243 443.708 596.145 438.143C596.134 437.523 595.58 437.202 594.877 437.406L589.067 439.083C588.344 439.292 587.717 439.979 587.647 440.64C586.304 452.784 585.27 459.974 582.971 471.59C582.837 472.259 583.278 472.717 583.974 472.633L607.282 469.817C608.038 469.727 608.796 469.03 608.936 468.306C614.538 439.776 617.505 423.259 613.902 395.867C613.824 395.276 613.224 395.011 612.52 395.269L578.322 407.814C577.622 408.071 577.021 407.809 576.937 407.223C573.52 383.524 571.266 373.427 562.292 355.093C562.05 354.595 562.343 353.838 562.977 353.356L584.936 336.657C585.624 336.133 586.447 336.125 586.753 336.642C592.085 345.77 594.65 352.233 597.736 364.394C597.883 364.975 597.436 365.748 596.729 366.138L591.39 369.085C590.661 369.487 589.929 369.334 589.753 368.747C588.224 363.546 586.958 360.479 584.533 356.128C584.265 355.643 583.539 355.598 582.868 356.021L577.346 359.515C576.658 359.949 576.272 360.725 576.469 361.274C580.087 371.348 581.975 377.403 584.349 387.419C584.485 387.995 585.148 388.192 585.86 387.865L609.649 376.933C610.419 376.579 610.943 375.747 610.794 375.123C604.918 350.543 601.219 336.415 585.965 316.175C585.633 315.733 584.866 315.756 584.216 316.234L553.215 339.235C552.583 339.704 551.83 339.74 551.481 339.327C537.26 322.485 530.134 315.436 512.344 304.94C511.86 304.655 511.839 303.956 512.302 303.333L528.37 281.729C528.874 281.051 529.753 280.715 530.307 280.992C540.081 285.867 545.703 289.806 554.422 297.908C554.839 298.295 554.706 299.067 554.122 299.65L549.719 304.048C549.117 304.649 548.265 304.824 547.818 304.442C543.862 301.062 541.14 299.213 536.612 296.84C536.107 296.576 535.308 296.832 534.781 297.424L530.424 302.316C529.883 302.924 529.815 303.674 530.271 304.017C538.63 310.305 543.344 314.201 550.347 320.942C550.75 321.33 551.546 321.216 552.161 320.681L572.758 302.772C573.427 302.192 573.615 301.344 573.179 300.925C555.939 284.397 545.688 275.027 520.337 265.584C519.79 265.38 518.988 265.695 518.505 266.31L494.982 296.283C494.502 296.895 493.704 297.21 493.155 297.013C470.926 289.059 460.673 286.241 437.275 284.614C436.639 284.57 436.324 284.027 436.561 283.363L444.778 260.325C445.036 259.602 445.837 259.009 446.545 259.02C459.044 259.209 466.706 260.211 479.419 263.339C480.026 263.489 480.205 264.147 479.822 264.824L476.937 269.937C476.542 270.636 475.703 271.093 475.065 270.959C469.421 269.773 465.735 269.334 459.896 269.156C459.246 269.136 458.497 269.637 458.178 270.301L455.549 275.786C455.222 276.468 455.462 277.084 456.093 277.184C467.664 279.016 474.335 280.325 484.642 283.021C485.235 283.176 486.041 282.788 486.476 282.136L501.085 260.318C501.557 259.611 501.581 258.425 500.938 258.258C475.599 251.675 460.544 248.568 429.471 250.6C428.792 250.644 428.057 251.204 427.803 251.877L415.795 284.052C415.548 284.713 414.834 285.269 414.161 285.334C386.851 287.986 374.388 289.853 348.598 297.862C347.898 298.079 347.322 297.785 347.283 297.179L345.937 276.156C345.895 275.497 346.492 274.722 347.255 274.451C360.719 269.655 369.363 267.399 384.35 264.786C385.065 264.661 385.547 265.098 385.436 265.773L384.598 270.858C384.483 271.553 383.785 272.237 383.044 272.386C376.479 273.703 372.34 274.821 366.01 276.993C365.306 277.234 364.724 277.917 364.675 278.555L364.275 283.826C364.225 284.482 364.754 284.862 365.473 284.69C378.668 281.528 386.386 279.9 398.606 277.905C399.31 277.79 400.001 277.173 400.181 276.498L406.215 253.889C406.41 253.157 405.923 252.648 405.16 252.773C375.128 257.713 357.633 260.855 325.248 274.714C324.55 275.013 324.012 275.724 324.026 276.34L324.684 306.381C324.697 306.995 324.163 307.703 323.468 308.007C295.331 320.303 283.028 326.352 258.758 342.288C258.098 342.721 257.358 342.705 257.065 342.241L246.871 326.173C246.552 325.668 246.869 324.835 247.573 324.335C259.998 315.521 268.318 310.511 283.283 302.848C283.997 302.483 284.695 302.647 284.856 303.22L286.076 307.542C286.243 308.132 285.78 308.933 285.048 309.327C278.564 312.82 274.596 315.249 268.72 319.327C268.066 319.781 267.727 320.536 267.941 321.058L269.706 325.363C269.926 325.898 270.651 326 271.349 325.596C284.166 318.17 291.755 314.002 304.015 307.86C304.721 307.507 305.204 306.761 305.116 306.162L302.166 286.084C302.071 285.434 301.336 285.214 300.572 285.598C270.467 300.717 253.036 309.734 224.129 332.756C223.498 333.258 223.219 334.03 223.504 334.509Z" stroke="url(#paint2_linear)" stroke-width="6"/>
<path d="M628.54 496.622C573.232 654.095 401.449 785.248 244.854 789.562C88.2598 793.876 6.14781 669.718 61.4563 512.246C116.765 354.772 288.548 223.62 445.142 219.306C601.737 214.992 683.849 339.149 628.54 496.622Z" stroke="#CFA31F" stroke-width="11"/>
<path d="M625.439 496.708C570.735 652.458 400.833 782.179 245.948 786.446C91.0657 790.713 9.85415 667.91 64.5575 512.16C119.262 356.408 289.166 226.689 444.048 222.422C598.933 218.155 680.143 340.956 625.439 496.708Z" stroke="#EDCA61" stroke-width="3"/>
<path d="M416.58 313.732C416.076 314.926 415.307 315.876 414.274 316.583C413.246 317.289 412.086 317.66 410.794 317.696C409.38 317.735 408.435 317.289 407.957 316.357C407.486 315.421 407.544 314.119 408.13 312.45L408.368 311.773C408.742 310.708 409.258 309.764 409.917 308.942C410.575 308.121 411.326 307.485 412.169 307.034C413.019 306.579 413.903 306.339 414.821 306.314C416.093 306.279 416.998 306.593 417.535 307.256C418.071 307.919 418.183 308.868 417.87 310.102L415.598 310.165C415.794 309.451 415.776 308.939 415.545 308.629C415.321 308.314 414.861 308.166 414.164 308.185C413.407 308.206 412.743 308.495 412.172 309.053C411.608 309.606 411.119 310.456 410.707 311.603L410.413 312.44C409.992 313.637 409.864 314.507 410.029 315.05C410.198 315.592 410.671 315.853 411.448 315.832C412.15 315.812 412.729 315.638 413.184 315.309C413.646 314.975 414.021 314.47 414.309 313.794L416.58 313.732Z" fill="url(#paint3_radial)"/>
<path d="M433.469 315.794L429.646 315.505L427.895 317.727L425.577 317.552L434.485 306.798L436.505 306.951L435.497 318.302L433.179 318.127L433.469 315.794ZM431.063 313.705L433.709 313.905L434.239 309.667L431.063 313.705Z" fill="url(#paint4_radial)"/>
<path d="M449.858 317.562C450.092 317.137 450.132 316.786 449.98 316.509C449.831 316.227 449.466 315.893 448.887 315.507C448.31 315.117 447.88 314.76 447.596 314.436C446.825 313.551 446.751 312.541 447.374 311.406C447.699 310.816 448.138 310.32 448.694 309.917C449.257 309.51 449.895 309.231 450.608 309.079C451.325 308.927 452.04 308.919 452.752 309.054C453.469 309.189 454.029 309.452 454.433 309.843C454.839 310.229 455.055 310.709 455.081 311.282C455.11 311.856 454.945 312.47 454.585 313.125L452.518 312.734C452.792 312.234 452.86 311.819 452.722 311.49C452.586 311.155 452.257 310.938 451.733 310.839C451.227 310.744 450.77 310.787 450.361 310.969C449.954 311.146 449.647 311.424 449.438 311.804C449.243 312.159 449.242 312.487 449.437 312.789C449.636 313.092 449.997 313.408 450.52 313.739C451.485 314.346 452.079 314.986 452.304 315.657C452.529 316.328 452.407 317.089 451.941 317.939C451.422 318.884 450.685 319.564 449.732 319.979C448.781 320.39 447.75 320.49 446.637 320.28C445.866 320.134 445.246 319.849 444.78 319.424C444.316 318.994 444.063 318.48 444.022 317.882C443.985 317.285 444.16 316.633 444.547 315.928L446.621 316.321C445.96 317.526 446.29 318.253 447.614 318.503C448.106 318.596 448.548 318.561 448.942 318.398C449.338 318.23 449.644 317.952 449.858 317.562Z" fill="url(#paint5_radial)"/>
<path d="M467.861 325.775L465.926 325.162L468.912 320.587L465.141 319.392L462.154 323.967L460.22 323.354L467.187 312.68L469.122 313.292L466.298 317.618L470.07 318.813L472.893 314.488L474.827 315.101L467.861 325.775Z" fill="url(#paint6_radial)"/>
<path d="M484.978 327.596L481.557 326.004L478.342 330.223L476.56 329.395L484.427 319.07L490.058 321.689L488.745 323.412L484.897 321.622L482.865 324.288L486.286 325.879L484.978 327.596Z" fill="url(#paint7_radial)"/>
<path d="M492.639 335.622L496.061 337.823L494.623 339.457L489.59 336.22L498.278 326.346L499.89 327.383L492.639 335.622Z" fill="url(#paint8_radial)"/>
<path d="M508.334 346.876L505.835 344.712L503.418 346.221L501.903 344.909L513.902 337.816L515.223 338.959L508.388 350.524L506.872 349.212L508.334 346.876ZM507.793 343.489L509.522 344.986L512.181 340.744L507.793 343.489Z" fill="url(#paint9_radial)"/>
<path d="M518.762 356.711C519.154 356.374 519.372 356.021 519.416 355.652C519.465 355.28 519.392 354.749 519.198 354.058C519.008 353.364 518.903 352.775 518.881 352.294C518.823 350.979 519.318 349.871 520.364 348.968C520.908 348.499 521.482 348.186 522.085 348.029C522.696 347.87 523.29 347.883 523.867 348.068C524.448 348.255 524.949 348.593 525.37 349.082C525.795 349.574 526.042 350.126 526.111 350.737C526.185 351.344 526.076 351.958 525.783 352.579C525.494 353.203 525.047 353.775 524.443 354.296L523.219 352.876C523.679 352.479 523.951 352.072 524.033 351.654C524.12 351.233 524.008 350.843 523.697 350.483C523.398 350.136 523.057 349.96 522.674 349.954C522.296 349.945 521.932 350.091 521.582 350.394C521.255 350.676 521.077 351.024 521.049 351.439C521.024 351.857 521.104 352.368 521.288 352.974C521.63 354.087 521.697 355.055 521.491 355.876C521.284 356.699 520.788 357.448 520.005 358.123C519.133 358.874 518.255 359.239 517.368 359.218C516.485 359.192 515.715 358.798 515.056 358.035C514.599 357.504 514.323 356.901 514.228 356.223C514.139 355.542 514.241 354.873 514.535 354.217C514.833 353.565 515.307 352.959 515.956 352.398L517.185 353.822C516.074 354.78 515.911 355.713 516.695 356.621C516.986 356.959 517.312 357.136 517.674 357.155C518.04 357.169 518.403 357.021 518.762 356.711Z" fill="url(#paint10_radial)"/>
<path d="M526.825 374.176L525.813 372.586L530.359 369.178L528.386 366.077L523.84 369.485L522.827 367.895L533.436 359.943L534.447 361.533L530.149 364.755L532.123 367.856L536.421 364.634L537.433 366.224L526.825 374.176Z" fill="url(#paint11_radial)"/>
<path d="M547.64 396.984L546.807 394.184L537.336 399.403L536.778 397.52L546.249 392.301L545.429 389.539L547.328 388.493L549.539 395.938L547.64 396.984Z" fill="url(#paint12_radial)"/>
<path d="M546.149 414.908L545.525 411.063L542.423 412.489L543.15 417.002L541.235 417.883L540.184 411.368L551.768 406.044L552.819 412.545L550.883 413.434L550.16 408.935L547.398 410.204L548.018 414.049L546.149 414.908Z" fill="url(#paint13_radial)"/>
<path d="M546.384 433.877C545.125 434.263 544.117 434.224 543.368 433.758C542.613 433.297 542.215 432.469 542.17 431.273C542.116 429.966 542.578 428.749 543.552 427.625C544.534 426.503 545.907 425.616 547.663 424.963L548.379 424.699C549.504 424.282 550.498 424.089 551.37 424.117C552.237 424.145 552.913 424.395 553.392 424.867C553.88 425.341 554.138 426.003 554.173 426.853C554.221 428.03 553.898 429.112 553.204 430.098C552.511 431.085 551.514 431.877 550.212 432.472L550.13 430.371C550.882 430.04 551.417 429.653 551.744 429.211C552.074 428.771 552.225 428.229 552.201 427.584C552.171 426.884 551.861 426.465 551.268 426.329C550.683 426.196 549.788 426.348 548.576 426.787L547.693 427.114C546.432 427.582 545.517 428.09 544.947 428.637C544.376 429.19 544.104 429.825 544.132 430.545C544.159 431.194 544.349 431.615 544.698 431.807C545.05 432.003 545.585 431.992 546.302 431.775L546.384 433.877Z" fill="url(#paint14_radial)"/>
<path d="M541.622 454.207L541.778 452.026L546.779 450.615L547.084 446.364L542.082 447.775L542.238 445.595L553.907 442.303L553.751 444.483L549.022 445.817L548.718 450.068L553.442 448.734L553.286 450.914L541.622 454.207Z" fill="url(#paint15_radial)"/>
<path d="M538.754 472.379L539.149 470.143L547.505 464.326L539.919 465.788L540.314 463.551L551.844 461.329L551.449 463.566L543.076 469.393L550.68 467.928L550.283 470.157L538.754 472.379Z" fill="url(#paint16_radial)"/>
<path d="M539.68 489.141C538.571 489.253 537.652 489.158 536.919 488.859C536.186 488.559 535.694 488.074 535.439 487.402C535.181 486.736 535.179 485.941 535.438 485.018C535.689 484.104 536.141 483.267 536.79 482.505C537.439 481.743 538.232 481.124 539.171 480.646C540.12 480.169 541.137 479.873 542.221 479.76L542.78 479.704C543.89 479.592 544.812 479.689 545.548 479.993C546.286 480.302 546.782 480.789 547.035 481.456C547.29 482.127 547.292 482.922 547.035 483.841C546.778 484.759 546.326 485.597 545.674 486.354C545.029 487.116 544.224 487.734 543.268 488.208C542.319 488.686 541.29 488.98 540.185 489.091L539.68 489.141ZM540.831 486.789C542.014 486.67 542.969 486.373 543.698 485.897C544.431 485.422 544.899 484.801 545.112 484.033C545.327 483.271 545.185 482.714 544.69 482.361C544.2 482.008 543.369 481.887 542.197 482L541.647 482.055C540.492 482.17 539.541 482.467 538.79 482.945C538.043 483.422 537.559 484.049 537.343 484.827C537.133 485.589 537.276 486.144 537.772 486.491C538.273 486.839 539.11 486.956 540.281 486.843L540.831 486.789Z" fill="url(#paint17_radial)"/>
<path d="M531.689 502.626L529.867 507.474L528.058 507.479L530.738 500.348L541.66 500.32L540.805 502.603L531.689 502.626Z" fill="url(#paint18_radial)"/>
<path d="M524.386 527.377C523.357 527.271 522.549 526.986 521.953 526.522C521.361 526.059 521.023 525.447 520.944 524.686C520.858 523.931 521.034 523.091 521.473 522.167C521.908 521.253 522.503 520.459 523.257 519.785C524.016 519.111 524.874 518.616 525.832 518.301C526.793 517.988 527.779 517.88 528.784 517.978L529.301 518.031C530.334 518.137 531.145 518.425 531.74 518.894C532.336 519.369 532.678 519.983 532.755 520.738C532.839 521.499 532.658 522.339 532.225 523.257C531.788 524.177 531.189 524.97 530.432 525.639C529.673 526.314 528.812 526.805 527.844 527.113C526.874 527.426 525.881 527.53 524.856 527.425L524.386 527.377ZM525.954 525.123C527.051 525.236 527.98 525.114 528.745 524.759C529.515 524.403 530.076 523.842 530.443 523.074C530.803 522.312 530.8 521.695 530.43 521.222C530.07 520.751 529.344 520.456 528.262 520.339L527.749 520.287C526.682 520.177 525.758 520.299 524.971 520.652C524.189 521.006 523.608 521.571 523.239 522.349C522.879 523.112 522.882 523.726 523.253 524.194C523.629 524.661 524.36 524.954 525.446 525.07L525.954 525.123Z" fill="url(#paint19_radial)"/>
<path d="M509.922 546.598C509.716 546.099 509.701 545.454 509.882 544.664C510.063 543.875 510.411 543.033 510.927 542.137C511.468 541.197 512.13 540.412 512.909 539.782C513.689 539.158 514.546 538.729 515.479 538.497C516.41 538.27 517.358 538.256 518.323 538.457L518.995 538.604C519.981 538.821 520.729 539.19 521.243 539.711C521.756 540.238 522.002 540.886 521.986 541.657C521.977 542.433 521.704 543.283 521.173 544.209C520.431 545.497 519.572 546.443 518.592 547.047C517.617 547.651 516.558 547.903 515.413 547.803L516.666 545.624C517.289 545.649 517.831 545.518 518.291 545.232C518.745 544.952 519.145 544.513 519.49 543.915C519.929 543.154 519.999 542.518 519.709 542.005C519.415 541.493 518.76 541.122 517.736 540.892L517.104 540.753C516.07 540.525 515.159 540.57 514.381 540.887C513.603 541.203 512.975 541.78 512.492 542.616C512.013 543.457 511.829 544.092 511.95 544.522L513.653 544.895L514.825 542.858L516.324 543.187L513.865 547.464L509.922 546.598Z" fill="url(#paint20_radial)"/>
<path d="M504.819 561.753L507.467 565.418L505.848 567.805L502.341 562.261L498.998 561.086L500.506 558.866L503.849 560.041L512.081 558.627L510.454 561.022L504.819 561.753Z" fill="url(#paint21_radial)"/>
<path d="M475.624 590.661L483.226 595.936L480.114 599.35C479.036 600.532 478.041 601.306 477.131 601.671C476.222 602.038 475.424 601.985 474.744 601.512C474.369 601.253 474.155 600.902 474.091 600.459C474.036 600.018 474.136 599.533 474.405 599.004C473.849 599.436 473.299 599.692 472.74 599.772C472.179 599.857 471.685 599.751 471.259 599.454C470.529 598.946 470.247 598.263 470.417 597.405C470.582 596.546 471.17 595.561 472.17 594.449L475.624 590.661ZM477.104 594.966L475.051 593.542L473.486 595.262C473.052 595.735 472.805 596.164 472.74 596.548C472.673 596.939 472.795 597.242 473.105 597.457C473.8 597.94 474.574 597.723 475.426 596.807L477.104 594.966ZM478.212 595.734L476.856 597.22C475.949 598.243 475.799 598.968 476.417 599.395C476.763 599.634 477.126 599.676 477.514 599.522C477.895 599.374 478.342 599.023 478.844 598.47L480.127 597.064L478.212 595.734Z" fill="url(#paint22_radial)"/>
<path d="M459.947 609.081L455.749 613.093L454.644 612.064L460.818 606.162L467.499 612.382L465.519 614.271L459.947 609.081Z" fill="url(#paint23_radial)"/>
<path d="M439.738 630.71C439.178 630.011 438.864 629.25 438.798 628.427C438.731 627.605 438.915 626.773 439.349 625.934C439.779 625.099 440.422 624.325 441.278 623.612C442.124 622.907 442.992 622.42 443.883 622.15C444.774 621.879 445.611 621.854 446.395 622.074C447.182 622.297 447.851 622.748 448.404 623.427L448.685 623.778C449.245 624.477 449.557 625.242 449.622 626.072C449.685 626.909 449.5 627.743 449.068 628.576C448.633 629.415 447.99 630.189 447.139 630.898C446.288 631.606 445.418 632.092 444.53 632.355C443.639 632.625 442.8 632.644 442.013 632.41C441.223 632.184 440.55 631.723 439.992 631.027L439.738 630.71ZM442.128 629.256C442.725 630.001 443.37 630.407 444.064 630.475C444.757 630.542 445.459 630.28 446.17 629.688C446.876 629.1 447.267 628.454 447.342 627.751C447.421 627.051 447.167 626.33 446.58 625.588L446.302 625.242C445.721 624.517 445.079 624.114 444.375 624.033C443.671 623.953 442.959 624.212 442.239 624.812C441.533 625.4 441.144 626.044 441.073 626.743C441.004 627.446 441.264 628.168 441.851 628.91L442.128 629.256Z" fill="url(#paint24_radial)"/>
<path d="M420.86 643.228C420.444 642.316 420.477 641.337 420.961 640.29C421.44 639.247 422.308 638.271 423.566 637.362C424.941 636.367 426.224 635.924 427.415 636.034C428.603 636.15 429.547 636.805 430.247 637.997L430.531 638.48C430.978 639.241 431.189 640.043 431.166 640.886C431.143 641.728 430.886 642.547 430.394 643.341C429.899 644.143 429.205 644.867 428.311 645.514C427.073 646.409 425.932 646.885 424.888 646.943C423.845 647.001 423.004 646.63 422.368 645.831L424.578 644.233C424.932 644.705 425.343 644.934 425.811 644.921C426.276 644.915 426.847 644.666 427.525 644.176C428.262 643.644 428.7 643.049 428.838 642.391C428.974 641.741 428.807 641.002 428.336 640.176L427.985 639.578C427.483 638.723 426.941 638.224 426.361 638.082C425.775 637.942 425.104 638.146 424.348 638.693C423.665 639.187 423.224 639.668 423.024 640.138C422.821 640.615 422.836 641.113 423.07 641.63L420.86 643.228Z" fill="url(#paint25_radial)"/>
<path d="M407.285 652.893L408.068 651.153L407.052 648.682L409.347 647.255L412.901 655.903L410.608 657.328L408.996 653.41L408.428 655.113L406.76 659.722L403.938 661.479L406.312 655.177L400.268 652.905L402.999 651.205L407.285 652.893Z" fill="url(#paint26_radial)"/>
<path d="M382.462 666.229C382.29 665.18 382.539 664.154 383.212 663.144C383.879 662.138 384.882 661.282 386.223 660.575C387.688 659.802 388.948 659.591 390 659.946C391.047 660.309 391.755 661.189 392.12 662.59L392.268 663.159C392.502 664.052 392.514 664.942 392.303 665.83C392.095 666.713 391.678 667.526 391.056 668.267C390.429 669.011 389.639 669.637 388.687 670.139C387.367 670.837 386.229 671.111 385.273 670.961C384.315 670.815 383.639 670.252 383.242 669.28L385.598 668.038C385.813 668.605 386.133 668.931 386.559 669.012C386.981 669.097 387.553 668.954 388.275 668.572C389.06 668.158 389.59 667.615 389.862 666.95C390.131 666.291 390.145 665.475 389.905 664.507L389.721 663.807C389.459 662.8 389.08 662.167 388.588 661.898C388.089 661.634 387.437 661.714 386.63 662.142C385.903 662.523 385.397 662.943 385.11 663.4C384.82 663.862 384.723 664.39 384.817 664.987L382.462 666.229Z" fill="url(#paint27_radial)"/>
<path d="M360.811 672.684L363.205 671.639L363.752 675.861L368.422 673.819L367.874 669.597L370.268 668.553L371.545 678.402L369.152 679.446L368.633 675.457L363.966 677.495L364.483 681.488L362.089 682.533L360.811 672.684Z" fill="url(#paint28_radial)"/>
<path d="M343.828 681.052L348.051 679.582L348.831 677.176L351.391 676.285L347.155 688.107L344.922 688.887L340.432 680.105L342.995 679.21L343.828 681.052ZM347.421 681.526L344.498 682.546L346.01 685.89L347.421 681.526Z" fill="url(#paint29_radial)"/>
<path d="M326.578 683.961L328.978 683.335L327.927 693.997L325.529 694.619L326.578 683.961Z" fill="url(#paint30_radial)"/>
<path d="M302.219 688.873L304.583 688.473L307.738 694.867L309.189 687.689L311.554 687.289L309.35 698.195L306.984 698.6L303.826 692.188L302.371 699.383L300.014 699.783L302.219 688.873Z" fill="url(#paint31_radial)"/>
<path d="M265.355 693.808L260.744 701.654L258.522 701.605L265.357 690.581L267.6 690.633L266.394 698.086L271.122 690.713L273.365 690.766L271.329 701.901L269.109 701.847L270.794 693.949L265.862 701.773L263.976 701.728L265.355 693.808Z" fill="url(#paint32_radial)"/>
<path d="M245.957 694.038C246.499 692.952 247.151 692.03 247.918 691.259C248.685 690.489 249.514 689.928 250.406 689.573C251.293 689.218 252.169 689.097 253.034 689.21C253.889 689.323 254.544 689.64 254.996 690.165C255.449 690.69 255.656 691.386 255.621 692.242C255.582 693.107 255.301 694.067 254.778 695.126L254.505 695.672C253.965 696.753 253.309 697.68 252.535 698.455C251.755 699.23 250.921 699.795 250.036 700.146C249.144 700.501 248.268 700.622 247.408 700.509C246.548 700.396 245.896 700.075 245.451 699.545C244.998 699.02 244.796 698.32 244.845 697.446C244.884 696.58 245.174 695.607 245.713 694.525L245.957 694.038ZM247.863 694.819C247.288 695.972 247.044 696.874 247.132 697.524C247.221 698.174 247.625 698.542 248.344 698.636C249.057 698.731 249.756 698.505 250.44 697.961C251.122 697.422 251.749 696.585 252.325 695.441L252.593 694.904C253.153 693.782 253.394 692.885 253.317 692.213C253.238 691.545 252.834 691.164 252.108 691.065C251.393 690.974 250.696 691.2 250.017 691.744C249.336 692.292 248.707 693.138 248.131 694.282L247.863 694.819Z" fill="url(#paint33_radial)"/>
<path d="M232.402 689.796L233.997 690.197L236.374 686.239L238.376 686.744L231.887 697.551L228.274 696.646C227.126 696.356 226.41 695.851 226.128 695.127C225.848 694.398 226.019 693.516 226.643 692.476C227.085 691.741 227.599 691.163 228.187 690.736C228.766 690.319 229.435 690.036 230.193 689.892L230.742 684.948L230.804 684.845L232.955 685.381L232.402 689.796ZM232.915 691.999L231.299 691.594C230.795 691.471 230.322 691.511 229.876 691.726C229.426 691.945 229.053 692.304 228.753 692.802C228.446 693.313 228.337 693.748 228.425 694.102C228.507 694.462 228.819 694.704 229.356 694.844L230.967 695.245L232.915 691.999Z" fill="url(#paint34_radial)"/>
<path d="M219.888 683.219L215.939 681.683L217.169 679.943L222.978 682.199L215.552 692.711L213.692 691.991L219.888 683.219Z" fill="url(#paint35_radial)"/>
<path d="M207.807 675.515L199.518 685.628L196.983 684.229C196.258 683.83 195.776 683.275 195.536 682.559C195.288 681.847 195.307 681.031 195.593 680.115C195.877 679.199 196.404 678.272 197.174 677.333L197.555 676.869C198.325 675.931 199.169 675.18 200.086 674.621C200.999 674.063 201.906 673.742 202.811 673.651C203.715 673.565 204.529 673.719 205.254 674.109L207.807 675.515ZM199.204 683.004L204.737 676.252L203.916 675.803C203.251 675.438 202.526 675.423 201.739 675.762C200.952 676.101 200.147 676.767 199.327 677.755L198.889 678.287C198.047 679.315 197.583 680.188 197.497 680.909C197.409 681.63 197.697 682.177 198.366 682.542L199.204 683.004Z" fill="url(#paint36_radial)"/>
<path d="M187.266 666.647L179.821 672.742L178.305 671.611L189.011 663.222L190.539 664.37L185.675 671.694L192.942 666.164L194.473 667.308L187.041 678.142L185.526 677.011L190.968 669.437L183.312 675.352L182.024 674.391L187.266 666.647Z" fill="url(#paint37_radial)"/>
<path d="M180.4 655.245L181.727 656.574L171.97 665.587L170.644 664.256L180.4 655.245Z" fill="url(#paint38_radial)"/>
<path d="M172.391 646.104L162.041 654.431L160.368 652.181C159.891 651.538 159.67 650.799 159.706 649.961C159.736 649.125 160.024 648.259 160.571 647.364C161.113 646.474 161.865 645.641 162.827 644.867L163.303 644.484C164.265 643.71 165.225 643.162 166.183 642.842C167.138 642.517 168.011 642.443 168.801 642.62C169.592 642.797 170.227 643.204 170.707 643.84L172.391 646.104ZM162.648 651.535L169.558 645.976L169.017 645.248C168.579 644.659 167.971 644.428 167.195 644.555C166.419 644.682 165.521 645.15 164.502 645.959L163.955 646.399C162.902 647.246 162.221 648.04 161.91 648.783C161.593 649.53 161.656 650.199 162.096 650.792L162.648 651.535Z" fill="url(#paint39_radial)"/>
<path d="M156.838 632.259L158.569 635.465L161.473 633.441L159.44 629.678L161.234 628.427L164.169 633.86L153.329 641.417L150.401 635.995L152.21 634.734L154.236 638.486L156.82 636.685L155.088 633.479L156.838 632.259Z" fill="url(#paint40_radial)"/>
<path d="M141.39 602.79L142.046 605.682L151.621 600.849L152.062 602.794L142.488 607.627L143.135 610.48L141.217 611.449L139.472 603.758L141.39 602.79Z" fill="url(#paint41_radial)"/>
<path d="M144.803 585.872L144.965 587.509L149.229 585.74L149.433 587.795L137.784 592.627L137.417 588.922C137.301 587.744 137.517 586.708 138.067 585.815C138.618 584.921 139.452 584.242 140.572 583.777C141.367 583.448 142.046 583.32 142.609 583.396C143.166 583.469 143.631 583.739 144.005 584.207L148.551 580.075L148.663 580.028L148.882 582.234L144.803 585.872ZM143.021 588.316L142.857 586.658C142.806 586.143 142.614 585.806 142.282 585.649C141.945 585.494 141.507 585.528 140.968 585.752C140.419 585.98 140 586.294 139.712 586.694C139.424 587.089 139.307 587.563 139.362 588.115L139.525 589.766L143.021 588.316Z" fill="url(#paint42_radial)"/>
<path d="M146.166 565.925L146.102 569.683L148.498 569.611L148.46 571.891L136.836 571.834L136.87 569.847L148.626 562.137L148.587 564.416L146.166 565.925ZM144.161 569.741L144.205 567.14L139.808 569.876L144.161 569.741Z" fill="url(#paint43_radial)"/>
<path d="M146.482 547.04C147.721 546.826 148.652 547.02 149.273 547.62C149.895 548.217 150.128 549.143 149.971 550.401C149.799 551.777 149.164 552.979 148.066 554.008C146.962 555.033 145.536 555.754 143.787 556.17L143.077 556.338C141.96 556.604 140.999 556.656 140.194 556.495C139.388 556.333 138.802 555.97 138.434 555.404C138.061 554.835 137.931 554.103 138.042 553.209C138.197 551.97 138.68 550.888 139.493 549.96C140.305 549.033 141.367 548.356 142.68 547.929L142.403 550.141C141.647 550.373 141.08 550.696 140.704 551.11C140.322 551.52 140.089 552.064 140.004 552.742C139.913 553.479 140.131 553.964 140.659 554.196C141.182 554.424 142.044 554.4 143.245 554.124L144.122 553.916C145.377 553.618 146.316 553.225 146.939 552.738C147.563 552.247 147.922 551.623 148.017 550.866C148.102 550.183 147.998 549.714 147.705 549.46C147.407 549.202 146.907 549.132 146.206 549.251L146.482 547.04Z" fill="url(#paint44_radial)"/>
<path d="M148.801 529.822L147.816 534.155L150.876 533.706L152.031 528.621L153.922 528.342L152.253 535.685L140.831 537.364L142.497 530.036L144.403 529.756L143.25 534.826L145.973 534.426L146.958 530.093L148.801 529.822Z" fill="url(#paint45_radial)"/>
<path d="M156.97 510.531L155.664 514.528L157.706 515.169L156.914 517.593L147.143 514.054L147.833 511.941L160.303 507.219L159.512 509.643L156.97 510.531ZM154.01 514.009L154.913 511.243L150.298 512.851L154.01 514.009Z" fill="url(#paint46_radial)"/>
<path d="M164.048 497.779L153.345 497.255L154.993 493.378C155.563 492.035 156.246 491.028 157.041 490.358C157.831 489.688 158.706 489.377 159.667 489.424C160.191 489.45 160.595 489.611 160.879 489.91C161.157 490.208 161.284 490.61 161.259 491.116C161.637 490.555 162.104 490.123 162.658 489.819C163.215 489.51 163.794 489.37 164.397 489.4C165.426 489.45 166.061 489.828 166.302 490.533C166.542 491.238 166.4 492.219 165.876 493.477L164.048 497.779ZM160.356 495.27L163.245 495.412L164.076 493.458C164.304 492.921 164.359 492.497 164.241 492.186C164.12 491.869 163.842 491.701 163.406 491.679C162.426 491.631 161.705 492.131 161.245 493.18L160.356 495.27ZM158.798 495.194L159.515 493.506C159.985 492.355 159.786 491.758 158.918 491.715C158.433 491.691 158.023 491.821 157.687 492.105C157.349 492.383 157.046 492.837 156.779 493.465L156.101 495.062L158.798 495.194Z" fill="url(#paint47_radial)"/>
<path d="M174.522 475.546L173.338 477.804L163.157 476.18L164.341 473.921L174.522 475.546Z" fill="url(#paint48_radial)"/>
<path d="M182.263 458.896L185.208 454.195L186.79 454.643L182.458 461.558L172.9 458.85L174.287 456.636L182.263 458.896Z" fill="url(#paint49_radial)"/>
<path d="M197.302 439.548L195.726 441.695L186.886 437.931L188.462 435.784L197.302 439.548Z" fill="url(#paint50_radial)"/>
<path d="M206.845 415.403L204.244 418.465L210.938 422.45L209.188 424.51L202.494 420.525L199.928 423.545L198.587 422.747L205.504 414.605L206.845 415.403Z" fill="url(#paint51_radial)"/>
<path d="M222.243 402.727L220.947 398.164L223.03 396.03L224.55 402.807L227.143 404.894L225.206 406.877L222.613 404.79L215.02 404.232L217.11 402.092L222.243 402.727Z" fill="url(#paint52_radial)"/>
<path d="M260.429 373.339L256.642 376.28L256.989 378.388L254.692 380.172L253.419 369.624L255.42 368.069L264.519 372.539L262.223 374.322L260.429 373.339ZM256.361 374.573L258.982 372.537L255.728 370.747L256.361 374.573Z" fill="url(#paint53_radial)"/>
<path d="M282.123 360.444L279.867 361.959L272.776 359.454L275.477 364.908L273.222 366.424L269.116 358.133L271.372 356.618L278.477 359.13L275.769 353.664L278.017 352.154L282.123 360.444Z" fill="url(#paint54_radial)"/>
<path d="M292.272 354.286L289.276 345.305L292.753 343.308C293.747 342.737 294.694 342.407 295.595 342.316C296.499 342.217 297.28 342.371 297.94 342.776C298.598 343.178 299.066 343.796 299.344 344.63L299.482 345.044C299.761 345.878 299.791 346.746 299.573 347.645C299.36 348.542 298.92 349.395 298.253 350.204C297.586 351.014 296.759 351.704 295.772 352.276L292.272 354.286ZM292.105 345.467L294.104 351.463L295.23 350.816C296.14 350.293 296.757 349.657 297.081 348.907C297.404 348.158 297.424 347.34 297.141 346.455L296.983 345.98C296.679 345.067 296.21 344.513 295.578 344.317C294.944 344.118 294.169 344.281 293.253 344.807L292.105 345.467Z" fill="url(#paint55_radial)"/>
<path d="M333.108 330.641L333.354 334.196L330.949 335.14L330.252 325.051L334.805 323.263C335.681 322.919 336.46 322.756 337.142 322.773C337.829 322.788 338.369 322.981 338.762 323.353C339.155 323.721 339.374 324.23 339.419 324.882C339.488 325.87 339.149 326.805 338.403 327.686C337.662 328.561 336.6 329.27 335.216 329.814L333.108 330.641ZM332.992 328.957L335.14 328.114C335.776 327.864 336.25 327.545 336.564 327.156C336.883 326.765 337.025 326.33 336.992 325.849C336.958 325.355 336.762 325.021 336.405 324.849C336.047 324.676 335.571 324.701 334.977 324.925L332.773 325.791L332.992 328.957Z" fill="url(#paint56_radial)"/>
<path d="M357.049 323.951L352.829 325.236L351.93 327.643L349.371 328.422L354.188 316.603L356.418 315.924L360.322 325.089L357.763 325.868L357.049 323.951ZM353.557 323.286L356.477 322.398L355.185 318.916L353.557 323.286Z" fill="url(#paint57_radial)"/>
<path d="M375.274 315.874L378.417 310.491L381.025 309.93L376.186 317.629L375.595 321.545L373.17 322.067L373.761 318.152L370.999 312.088L373.615 311.525L375.274 315.874Z" fill="url(#paint58_radial)"/>
<path d="M377.303 430.879C337.755 431.969 295.544 464.518 282.241 502.394C268.938 540.272 288.886 571.107 328.434 570.018C347.339 569.497 366.955 561.741 383.723 549.599L402.436 580.646C375.146 600.644 343.287 613.283 312.945 614.119C250.583 615.837 216.743 566.904 238.982 503.586C261.221 440.269 330.431 388.497 392.792 386.779C423.135 385.943 446.652 397.056 460.29 415.927L419.189 448.622C410.706 437.175 396.208 430.359 377.303 430.879Z" fill="url(#paint59_linear)" stroke="url(#paint60_linear)" stroke-width="4"/>
<path d="M366.896 524.464L365.437 526.22L348.978 546.03C354.902 544.302 362.143 540.903 370.143 536.37C379.365 531.145 389.486 524.475 399.575 517.299C418.519 503.827 437.262 488.635 449.576 478.036L380.631 479.935L366.896 524.464ZM366.896 524.464L364.973 524.517L338.946 525.234L366.896 524.464ZM366.896 524.464L338.946 525.234L366.896 524.464ZM338.946 525.234C339.372 518.955 340.759 512.29 343.19 505.369C346.232 496.708 350.654 488.368 356.114 480.611L338.946 525.234ZM331.573 505.689C329.159 512.56 327.629 519.217 326.924 525.565L301.321 526.271C299.628 519.181 300.161 510.821 303.324 501.814C310.789 480.562 330.635 462.164 351.611 455.266L338.443 479.684L337.669 481.119L339.116 481.079L343.859 480.948C338.762 488.803 334.585 497.113 331.573 505.689ZM282.482 502.388C279.449 511.023 278.15 519.294 278.424 526.901L253.863 527.578L425.249 318.721L363.808 432.65C328.668 439.601 294.24 468.909 282.482 502.388ZM222.595 698.097L291.595 614.808L307.156 616.201L222.595 698.097Z" fill="url(#paint61_linear)" stroke="url(#paint62_linear)" stroke-width="4"/>
<path d="M632.97 496.501C689.056 336.816 605.692 210.915 446.771 215.293C287.851 219.671 113.554 352.671 57.469 512.356C1.38361 672.04 84.7478 797.941 243.668 793.563C402.589 789.185 576.885 656.185 632.97 496.501Z" stroke="#E6C457" stroke-width="9"/>
<defs>
<filter id="filter0_f" x="60.9155" y="414.004" width="735.335" height="488.207" filterUnits="userSpaceOnUse" color-interpolation-filters="sRGB">
<feFlood flood-opacity="0" result="BackgroundImageFix"/>
<feBlend mode="normal" in="SourceGraphic" in2="BackgroundImageFix" result="shape"/>
<feGaussianBlur stdDeviation="30" result="effect1_foregroundBlur"/>
</filter>
<linearGradient id="paint0_linear" x1="83.0853" y1="455.661" x2="557.946" y2="668.378" gradientUnits="userSpaceOnUse">
<stop stop-color="#F0E052"/>
<stop offset="1" stop-color="#EBB61B"/>
</linearGradient>
<linearGradient id="paint1_linear" x1="83.0997" y1="511.208" x2="547.484" y2="674.312" gradientUnits="userSpaceOnUse">
<stop stop-color="#FFF6B9"/>
<stop offset="1" stop-color="#E8C96D"/>
</linearGradient>
<linearGradient id="paint2_linear" x1="89.146" y1="511.483" x2="540.251" y2="669.923" gradientUnits="userSpaceOnUse">
<stop stop-color="#EFD747"/>
<stop offset="1" stop-color="#DAA50B"/>
</linearGradient>
<radialGradient id="paint3_radial" cx="0" cy="0" r="1" gradientUnits="userSpaceOnUse" gradientTransform="translate(426.656 272.17) rotate(109.353) scale(51.9323 25.9877)">
<stop stop-color="#CFA029"/>
<stop offset="1" stop-color="#9B7D2F"/>
</radialGradient>
<radialGradient id="paint4_radial" cx="0" cy="0" r="1" gradientUnits="userSpaceOnUse" gradientTransform="translate(450.808 272.83) rotate(114.208) scale(53.798 21.5198)">
<stop stop-color="#CFA029"/>
<stop offset="1" stop-color="#9B7D2F"/>
</radialGradient>
<radialGradient id="paint5_radial" cx="0" cy="0" r="1" gradientUnits="userSpaceOnUse" gradientTransform="translate(471 275.547) rotate(118.783) scale(55.3022 19.7031)">
<stop stop-color="#CFA029"/>
<stop offset="1" stop-color="#9B7D2F"/>
</radialGradient>
<radialGradient id="paint6_radial" cx="0" cy="0" r="1" gradientUnits="userSpaceOnUse" gradientTransform="translate(492.478 281.012) rotate(123.132) scale(56.591 20.4577)">
<stop stop-color="#CFA029"/>
<stop offset="1" stop-color="#9B7D2F"/>
</radialGradient>
<radialGradient id="paint7_radial" cx="0" cy="0" r="1" gradientUnits="userSpaceOnUse" gradientTransform="translate(511.221 288.455) rotate(127.305) scale(57.6295 12.9989)">
<stop stop-color="#CFA029"/>
<stop offset="1" stop-color="#9B7D2F"/>
</radialGradient>
<radialGradient id="paint8_radial" cx="0" cy="0" r="1" gradientUnits="userSpaceOnUse" gradientTransform="translate(527.327 297.402) rotate(131.349) scale(58.3906 9.3305)">
<stop stop-color="#CFA029"/>
<stop offset="1" stop-color="#9B7D2F"/>
</radialGradient>
<radialGradient id="paint9_radial" cx="0" cy="0" r="1" gradientUnits="userSpaceOnUse" gradientTransform="translate(543.598 309.672) rotate(135.309) scale(58.8554 19.6706)">
<stop stop-color="#CFA029"/>
<stop offset="1" stop-color="#9B7D2F"/>
</radialGradient>
<radialGradient id="paint10_radial" cx="0" cy="0" r="1" gradientUnits="userSpaceOnUse" gradientTransform="translate(556.154 322.362) rotate(139.227) scale(59.0127 18.4642)">
<stop stop-color="#CFA029"/>
<stop offset="1" stop-color="#9B7D2F"/>
</radialGradient>
<radialGradient id="paint11_radial" cx="0" cy="0" r="1" gradientUnits="userSpaceOnUse" gradientTransform="translate(568.117 338.597) rotate(143.145) scale(58.8584 19.6695)">
<stop stop-color="#CFA029"/>
<stop offset="1" stop-color="#9B7D2F"/>
</radialGradient>
<radialGradient id="paint12_radial" cx="0" cy="0" r="1" gradientUnits="userSpaceOnUse" gradientTransform="translate(583.464 372.924) rotate(151.148) scale(57.6382 11.8152)">
<stop stop-color="#CFA029"/>
<stop offset="1" stop-color="#9B7D2F"/>
</radialGradient>
<radialGradient id="paint13_radial" cx="0" cy="0" r="1" gradientUnits="userSpaceOnUse" gradientTransform="translate(587.936 392.622) rotate(155.319) scale(56.6027 19.2503)">
<stop stop-color="#CFA029"/>
<stop offset="1" stop-color="#9B7D2F"/>
</radialGradient>
<radialGradient id="paint14_radial" cx="0" cy="0" r="1" gradientUnits="userSpaceOnUse" gradientTransform="translate(589.995 413.429) rotate(159.666) scale(55.3163 19.698)">
<stop stop-color="#CFA029"/>
<stop offset="1" stop-color="#9B7D2F"/>
</radialGradient>
<radialGradient id="paint15_radial" cx="0" cy="0" r="1" gradientUnits="userSpaceOnUse" gradientTransform="translate(589.53 436.477) rotate(164.239) scale(53.814 21.5135)">
<stop stop-color="#CFA029"/>
<stop offset="1" stop-color="#9B7D2F"/>
</radialGradient>
<radialGradient id="paint16_radial" cx="0" cy="0" r="1" gradientUnits="userSpaceOnUse" gradientTransform="translate(586.584 458.904) rotate(169.091) scale(52.1397 22.2041)">
<stop stop-color="#CFA029"/>
<stop offset="1" stop-color="#9B7D2F"/>
</radialGradient>
<radialGradient id="paint17_radial" cx="0" cy="0" r="1" gradientUnits="userSpaceOnUse" gradientTransform="translate(581.635 480.381) rotate(174.278) scale(50.3471 24.3475)">
<stop stop-color="#CFA029"/>
<stop offset="1" stop-color="#9B7D2F"/>
</radialGradient>
<radialGradient id="paint18_radial" cx="0" cy="0" r="1" gradientUnits="userSpaceOnUse" gradientTransform="translate(574.095 503.47) rotate(179.856) scale(48.496 11.2342)">
<stop stop-color="#CFA029"/>
<stop offset="1" stop-color="#9B7D2F"/>
</radialGradient>
<radialGradient id="paint19_radial" cx="0" cy="0" r="1" gradientUnits="userSpaceOnUse" gradientTransform="translate(564.282 526.565) rotate(-174.124) scale(46.6597 26.2717)">
<stop stop-color="#CFA029"/>
<stop offset="1" stop-color="#9B7D2F"/>
</radialGradient>
<radialGradient id="paint20_radial" cx="0" cy="0" r="1" gradientUnits="userSpaceOnUse" gradientTransform="translate(551.5 550.815) rotate(-167.622) scale(44.9158 25.7752)">
<stop stop-color="#CFA029"/>
<stop offset="1" stop-color="#9B7D2F"/>
</radialGradient>
<radialGradient id="paint21_radial" cx="0" cy="0" r="1" gradientUnits="userSpaceOnUse" gradientTransform="translate(537.337 573.2) rotate(-160.621) scale(43.3487 23.565)">
<stop stop-color="#CFA029"/>
<stop offset="1" stop-color="#9B7D2F"/>
</radialGradient>
<radialGradient id="paint22_radial" cx="0" cy="0" r="1" gradientUnits="userSpaceOnUse" gradientTransform="translate(503.445 615.694) rotate(-145.24) scale(41.0794 28.1825)">
<stop stop-color="#CFA029"/>
<stop offset="1" stop-color="#9B7D2F"/>
</radialGradient>
<radialGradient id="paint23_radial" cx="0" cy="0" r="1" gradientUnits="userSpaceOnUse" gradientTransform="translate(485.273 634.216) rotate(-137.044) scale(40.5199 13.4454)">
<stop stop-color="#CFA029"/>
<stop offset="1" stop-color="#9B7D2F"/>
</radialGradient>
<radialGradient id="paint24_radial" cx="0" cy="0" r="1" gradientUnits="userSpaceOnUse" gradientTransform="translate(464.585 652.682) rotate(-128.707) scale(40.4042 30.339)">
<stop stop-color="#CFA029"/>
<stop offset="1" stop-color="#9B7D2F"/>
</radialGradient>
<radialGradient id="paint25_radial" cx="0" cy="0" r="1" gradientUnits="userSpaceOnUse" gradientTransform="translate(442.715 669.669) rotate(-120.419) scale(40.7403 26.7454)">
<stop stop-color="#CFA029"/>
<stop offset="1" stop-color="#9B7D2F"/>
</radialGradient>
<radialGradient id="paint26_radial" cx="0" cy="0" r="1" gradientUnits="userSpaceOnUse" gradientTransform="translate(419.875 685.01) rotate(-112.351) scale(41.5048 26.2529)">
<stop stop-color="#CFA029"/>
<stop offset="1" stop-color="#9B7D2F"/>
</radialGradient>
<radialGradient id="paint27_radial" cx="0" cy="0" r="1" gradientUnits="userSpaceOnUse" gradientTransform="translate(396.298 698.555) rotate(-104.645) scale(42.6448 25.551)">
<stop stop-color="#CFA029"/>
<stop offset="1" stop-color="#9B7D2F"/>
</radialGradient>
<radialGradient id="paint28_radial" cx="0" cy="0" r="1" gradientUnits="userSpaceOnUse" gradientTransform="translate(370.741 710.809) rotate(-97.3928) scale(44.089 26.2588)">
<stop stop-color="#CFA029"/>
<stop offset="1" stop-color="#9B7D2F"/>
</radialGradient>
<radialGradient id="paint29_radial" cx="0" cy="0" r="1" gradientUnits="userSpaceOnUse" gradientTransform="translate(346.384 720.24) rotate(-90.6367) scale(45.7534 25.3036)">
<stop stop-color="#CFA029"/>
<stop offset="1" stop-color="#9B7D2F"/>
</radialGradient>
<radialGradient id="paint30_radial" cx="0" cy="0" r="1" gradientUnits="userSpaceOnUse" gradientTransform="translate(323.493 727.144) rotate(-84.3747) scale(47.5533 11.457)">
<stop stop-color="#CFA029"/>
<stop offset="1" stop-color="#9B7D2F"/>
</radialGradient>
<radialGradient id="paint31_radial" cx="0" cy="0" r="1" gradientUnits="userSpaceOnUse" gradientTransform="translate(297.885 732.589) rotate(-78.5767) scale(49.4062 23.4328)">
<stop stop-color="#CFA029"/>
<stop offset="1" stop-color="#9B7D2F"/>
</radialGradient>
<radialGradient id="paint32_radial" cx="0" cy="0" r="1" gradientUnits="userSpaceOnUse" gradientTransform="translate(251.271 735.879) rotate(-68.1815) scale(52.9787 29.5653)">
<stop stop-color="#CFA029"/>
<stop offset="1" stop-color="#9B7D2F"/>
</radialGradient>
<radialGradient id="paint33_radial" cx="0" cy="0" r="1" gradientUnits="userSpaceOnUse" gradientTransform="translate(230.565 734.236) rotate(-63.4732) scale(54.5744 22.4614)">
<stop stop-color="#CFA029"/>
<stop offset="1" stop-color="#9B7D2F"/>
</radialGradient>
<radialGradient id="paint34_radial" cx="0" cy="0" r="1" gradientUnits="userSpaceOnUse" gradientTransform="translate(208.394 729.971) rotate(-59.0175) scale(55.9757 13.3827)">
<stop stop-color="#CFA029"/>
<stop offset="1" stop-color="#9B7D2F"/>
</radialGradient>
<radialGradient id="paint35_radial" cx="0" cy="0" r="1" gradientUnits="userSpaceOnUse" gradientTransform="translate(190.042 724.071) rotate(-54.7624) scale(57.1434 9.53412)">
<stop stop-color="#CFA029"/>
<stop offset="1" stop-color="#9B7D2F"/>
</radialGradient>
<radialGradient id="paint36_radial" cx="0" cy="0" r="1" gradientUnits="userSpaceOnUse" gradientTransform="translate(170.953 715.106) rotate(-50.6596) scale(58.0462 19.9449)">
<stop stop-color="#CFA029"/>
<stop offset="1" stop-color="#9B7D2F"/>
</radialGradient>
<radialGradient id="paint37_radial" cx="0" cy="0" r="1" gradientUnits="userSpaceOnUse" gradientTransform="translate(154.746 704.482) rotate(-46.6628) scale(58.6609 26.7014)">
<stop stop-color="#CFA029"/>
<stop offset="1" stop-color="#9B7D2F"/>
</radialGradient>
<radialGradient id="paint38_radial" cx="0" cy="0" r="1" gradientUnits="userSpaceOnUse" gradientTransform="translate(141.25 692.686) rotate(-42.7291) scale(58.9731 9.23833)">
<stop stop-color="#CFA029"/>
<stop offset="1" stop-color="#9B7D2F"/>
</radialGradient>
<radialGradient id="paint39_radial" cx="0" cy="0" r="1" gradientUnits="userSpaceOnUse" gradientTransform="translate(128.158 677.387) rotate(-38.8163) scale(58.9744 19.6309)">
<stop stop-color="#CFA029"/>
<stop offset="1" stop-color="#9B7D2F"/>
</radialGradient>
<radialGradient id="paint40_radial" cx="0" cy="0" r="1" gradientUnits="userSpaceOnUse" gradientTransform="translate(118.598 662.213) rotate(-34.8828) scale(58.6654 18.5733)">
<stop stop-color="#CFA029"/>
<stop offset="1" stop-color="#9B7D2F"/>
</radialGradient>
<radialGradient id="paint41_radial" cx="0" cy="0" r="1" gradientUnits="userSpaceOnUse" gradientTransform="translate(104.943 625.467) rotate(-26.7855) scale(57.1538 11.9154)">
<stop stop-color="#CFA029"/>
<stop offset="1" stop-color="#9B7D2F"/>
</radialGradient>
<radialGradient id="paint42_radial" cx="0" cy="0" r="1" gradientUnits="userSpaceOnUse" gradientTransform="translate(101.547 603.925) rotate(-22.5322) scale(55.9887 13.3797)">
<stop stop-color="#CFA029"/>
<stop offset="1" stop-color="#9B7D2F"/>
</radialGradient>
<radialGradient id="paint43_radial" cx="0" cy="0" r="1" gradientUnits="userSpaceOnUse" gradientTransform="translate(100.848 582.587) rotate(-18.0787) scale(54.5895 21.2077)">
<stop stop-color="#CFA029"/>
<stop offset="1" stop-color="#9B7D2F"/>
</radialGradient>
<radialGradient id="paint44_radial" cx="0" cy="0" r="1" gradientUnits="userSpaceOnUse" gradientTransform="translate(102.41 561.83) rotate(-13.3733) scale(52.9953 20.5606)">
<stop stop-color="#CFA029"/>
<stop offset="1" stop-color="#9B7D2F"/>
</radialGradient>
<radialGradient id="paint45_radial" cx="0" cy="0" r="1" gradientUnits="userSpaceOnUse" gradientTransform="translate(106.41 539.179) rotate(-8.36084) scale(51.2546 21.2589)">
<stop stop-color="#CFA029"/>
<stop offset="1" stop-color="#9B7D2F"/>
</radialGradient>
<radialGradient id="paint46_radial" cx="0" cy="0" r="1" gradientUnits="userSpaceOnUse" gradientTransform="translate(113.245 514.775) rotate(-2.98523) scale(49.4244 23.4242)">
<stop stop-color="#CFA029"/>
<stop offset="1" stop-color="#9B7D2F"/>
</radialGradient>
<radialGradient id="paint47_radial" cx="0" cy="0" r="1" gradientUnits="userSpaceOnUse" gradientTransform="translate(122.071 491.654) rotate(2.80795) scale(47.5715 24.3364)">
<stop stop-color="#CFA029"/>
<stop offset="1" stop-color="#9B7D2F"/>
</radialGradient>
<radialGradient id="paint48_radial" cx="0" cy="0" r="1" gradientUnits="userSpaceOnUse" gradientTransform="translate(132.388 470.047) rotate(9.06526) scale(45.7709 11.9029)">
<stop stop-color="#CFA029"/>
<stop offset="1" stop-color="#9B7D2F"/>
</radialGradient>
<radialGradient id="paint49_radial" cx="0" cy="0" r="1" gradientUnits="userSpaceOnUse" gradientTransform="translate(145.422 447.373) rotate(15.8168) scale(44.1046 12.3526)">
<stop stop-color="#CFA029"/>
<stop offset="1" stop-color="#9B7D2F"/>
</radialGradient>
<radialGradient id="paint50_radial" cx="0" cy="0" r="1" gradientUnits="userSpaceOnUse" gradientTransform="translate(160.442 425.263) rotate(23.0637) scale(42.6581 12.7716)">
<stop stop-color="#CFA029"/>
<stop offset="1" stop-color="#9B7D2F"/>
</radialGradient>
<radialGradient id="paint51_radial" cx="0" cy="0" r="1" gradientUnits="userSpaceOnUse" gradientTransform="translate(177.3 403.935) rotate(30.7652) scale(41.5145 16.4042)">
<stop stop-color="#CFA029"/>
<stop offset="1" stop-color="#9B7D2F"/>
</radialGradient>
<radialGradient id="paint52_radial" cx="0" cy="0" r="1" gradientUnits="userSpaceOnUse" gradientTransform="translate(197.005 382.402) rotate(38.8301) scale(40.7461 25.0704)">
<stop stop-color="#CFA029"/>
<stop offset="1" stop-color="#9B7D2F"/>
</radialGradient>
<radialGradient id="paint53_radial" cx="0" cy="0" r="1" gradientUnits="userSpaceOnUse" gradientTransform="translate(238.486 345.686) rotate(55.4538) scale(40.5166 28.574)">
<stop stop-color="#CFA029"/>
<stop offset="1" stop-color="#9B7D2F"/>
</radialGradient>
<radialGradient id="paint54_radial" cx="0" cy="0" r="1" gradientUnits="userSpaceOnUse" gradientTransform="translate(260.927 329.602) rotate(63.653) scale(41.0718 28.1877)">
<stop stop-color="#CFA029"/>
<stop offset="1" stop-color="#9B7D2F"/>
</radialGradient>
<radialGradient id="paint55_radial" cx="0" cy="0" r="1" gradientUnits="userSpaceOnUse" gradientTransform="translate(284.209 315.251) rotate(71.5547) scale(42.0321 27.5438)">
<stop stop-color="#CFA029"/>
<stop offset="1" stop-color="#9B7D2F"/>
</radialGradient>
<radialGradient id="paint56_radial" cx="0" cy="0" r="1" gradientUnits="userSpaceOnUse" gradientTransform="translate(332.361 292.302) rotate(86.0477) scale(44.8988 25.7851)">
<stop stop-color="#CFA029"/>
<stop offset="1" stop-color="#9B7D2F"/>
</radialGradient>
<radialGradient id="paint57_radial" cx="0" cy="0" r="1" gradientUnits="userSpaceOnUse" gradientTransform="translate(356.753 283.932) rotate(92.5548) scale(46.6415 24.8217)">
<stop stop-color="#CFA029"/>
<stop offset="1" stop-color="#9B7D2F"/>
</radialGradient>
<radialGradient id="paint58_radial" cx="0" cy="0" r="1" gradientUnits="userSpaceOnUse" gradientTransform="translate(381.034 277.749) rotate(98.5798) scale(48.4777 21.0719)">
<stop stop-color="#CFA029"/>
<stop offset="1" stop-color="#9B7D2F"/>
</radialGradient>
<linearGradient id="paint59_linear" x1="288.582" y1="409.675" x2="413.546" y2="536.334" gradientUnits="userSpaceOnUse">
<stop stop-color="#F2C730"/>
<stop offset="1" stop-color="#E1AD0F"/>
</linearGradient>
<linearGradient id="paint60_linear" x1="268.073" y1="443.794" x2="398.2" y2="555.788" gradientUnits="userSpaceOnUse">
<stop stop-color="#FFEF86"/>
<stop offset="1" stop-color="#FFEF87" stop-opacity="0.6"/>
</linearGradient>
<linearGradient id="paint61_linear" x1="270.902" y1="502.494" x2="358.78" y2="565.721" gradientUnits="userSpaceOnUse">
<stop stop-color="#F1CD4D"/>
<stop offset="0.300674" stop-color="#E0AC10"/>
<stop offset="0.673528" stop-color="#D9B948"/>
<stop offset="0.95457" stop-color="#E0AC10"/>
</linearGradient>
<linearGradient id="paint62_linear" x1="290.806" y1="470.772" x2="421.906" y2="541.151" gradientUnits="userSpaceOnUse">
<stop stop-color="#FDF2B1"/>
<stop offset="0.330225" stop-color="#E2CA68"/>
<stop offset="0.620659" stop-color="#FDF2B1"/>
<stop offset="1" stop-color="#E2CA68"/>
</linearGradient>
</defs>
</svg>
