<svg width="38" height="38" viewBox="0 0 38 38" fill="none" xmlns="http://www.w3.org/2000/svg">
<path d="M0 19C0 27.2967 5.32 34.3267 12.6667 36.9233V1.07666C5.32 3.67333 0 10.7033 0 19Z" fill="#FF0100"/>
<path d="M19 0C16.7834 0 14.63 0.38 12.6667 1.07667V12.6667H36.9234C34.3267 5.32 27.2967 0 19 0Z" fill="#00742F"/>
<path d="M36.9234 12.6665H12.6667V25.3332H36.9234C37.62 23.3698 38 21.2165 38 18.9998C38 16.7832 37.62 14.6298 36.9234 12.6665Z" fill="#F9F9F9"/>
<path d="M12.6667 25.3335V36.9235C14.63 37.6202 16.7834 38.0002 19 38.0002C27.2967 38.0002 34.3267 32.7435 36.9234 25.3335H12.6667Z" fill="black"/>
<rect x="0.5" y="0.5" width="37" height="37" rx="18.5" stroke="#DFDFDF"/>
</svg>
