<svg width="38" height="38" viewBox="0 0 38 38" fill="none" xmlns="http://www.w3.org/2000/svg">
<path d="M19 38C29.4934 38 38 29.4934 38 19C38 8.50659 29.4934 0 19 0C8.50659 0 0 8.50659 0 19C0 29.4934 8.50659 38 19 38Z" fill="#FF0100"/>
<path d="M12.6667 16.7197L17.7333 20.2664L15.8333 14.4397L20.9 10.7664H14.63L12.6667 5.06641L10.7667 10.7664H4.43335L9.50002 14.4397L7.60002 20.2664L12.6667 16.7197Z" fill="#FFE62E"/>
<path d="M21.09 21.09L19.6334 21.4066L21.0267 21.9766V23.4333L21.9767 22.3566L23.37 22.8633L22.5467 21.66L23.4334 20.52L21.9767 20.8366L21.09 19.6333V21.09Z" fill="#FFE62E"/>
<path d="M23.2434 16.783L22.1667 17.733L23.6234 17.6064L24.2567 18.9997L24.51 17.543L25.9667 17.4164L24.7 16.6564L25.0167 15.1997L23.94 16.1497L22.6734 15.3897L23.2434 16.783Z" fill="#FFE62E"/>
<path d="M23.6234 11.8433L24.0667 13.3L24.51 11.9067H25.9667L24.8267 11.02L25.27 9.56333L24.0667 10.45L22.9267 9.5L23.37 10.9567L22.1667 11.78L23.6234 11.8433Z" fill="#FFE62E"/>
<path d="M21.09 6.77644V8.23311L21.9767 7.02977L23.4334 7.34644L22.5467 6.20644L23.37 5.00311L21.9767 5.57311L21.0267 4.43311V5.88977L19.6334 6.45977L21.09 6.77644Z" fill="#FFE62E"/>
<rect x="0.5" y="0.5" width="37" height="37" rx="18.5" stroke="#DFDFDF"/>
</svg>
