<svg width="38" height="38" viewBox="0 0 38 38" fill="none" xmlns="http://www.w3.org/2000/svg">
<path d="M0 19C0 22.7367 1.07667 26.22 2.91333 29.1334H35.0233C36.86 26.22 37.9367 22.7367 37.9367 19C37.9367 15.2634 36.86 11.78 35.0233 8.8667H2.91333C1.07667 11.78 0 15.2634 0 19Z" fill="#FFE62E"/>
<path d="M35.0867 8.86667C31.73 3.54667 25.7767 0 19 0C12.2233 0 6.27 3.54667 2.91333 8.86667H35.0867Z" fill="#FF0100"/>
<path d="M2.91333 29.1333C6.27 34.4533 12.2233 38 19 38C25.7767 38 31.73 34.4533 35.0867 29.1333H2.91333Z" fill="#FF0100"/>
<path d="M4.56006 16.9102H6.58673V18.0502H4.56006V16.9102Z" fill="#C8B100"/>
<path d="M4.56006 25.27H6.65006V26.3467H4.56006V25.27Z" fill="#C8B100"/>
<path d="M4.37001 23.4966C4.18001 23.6232 4.05334 23.7499 4.05334 23.8132C4.05334 23.8766 4.11668 23.9399 4.24334 24.0032C4.37001 24.0666 4.49668 24.1932 4.43335 24.3199C4.56001 24.1932 4.62335 24.0666 4.62335 23.9399C4.62335 23.7499 4.49668 23.5599 4.37001 23.4966Z" fill="#ED4C5C"/>
<path d="M4.87671 18.0498H6.33338V25.2698H4.87671V18.0498Z" fill="white"/>
<path d="M7.85329 20.71C7.53662 20.5833 6.96662 20.4566 6.33329 20.4566C6.14329 20.4566 5.88996 20.4566 5.63662 20.52C4.74996 20.6466 4.05329 21.0266 4.11662 21.28L3.79996 20.5833C3.73662 20.2666 4.49662 19.8866 5.44662 19.6966C5.76329 19.6333 6.07996 19.6333 6.33329 19.6333C6.96662 19.6333 7.53662 19.6966 7.85329 19.8233V20.71Z" fill="#ED4C5C"/>
<path d="M4.87672 21.6599C4.49672 21.6599 4.18005 21.5332 4.18005 21.3432C4.18005 21.2166 4.30672 21.0266 4.56005 20.8999H4.94005L4.87672 21.6599Z" fill="#ED4C5C"/>
<path d="M6.33325 21.0898C6.58659 21.1532 6.77659 21.2165 6.90325 21.2798C6.96659 21.3432 6.71325 21.5965 6.33325 21.7865V21.0898Z" fill="#ED4C5C"/>
<path d="M3.92657 23.0531C3.86323 22.9265 4.30657 22.6731 4.87657 22.4831C5.1299 22.4198 5.3199 22.2931 5.63657 22.1665C6.39657 21.8498 7.0299 21.4065 6.90323 21.2798L7.0299 22.0398C7.09323 22.1665 6.58657 22.5465 5.82657 22.9265C5.57323 23.0531 5.1299 23.2431 4.87657 23.3065C4.43323 23.4331 4.05323 23.6865 4.05323 23.7498L3.92657 23.0531Z" fill="#ED4C5C"/>
<path d="M18.1766 16.9102H20.2033V18.0502H18.1766V16.9102Z" fill="#C8B100"/>
<path d="M18.1133 25.27H20.2033V26.3467H18.1133V25.27Z" fill="#C8B100"/>
<path d="M20.3933 23.4966C20.5833 23.6232 20.71 23.7499 20.71 23.8132C20.71 23.8766 20.6467 23.9399 20.52 24.0033C20.3933 24.1299 20.2667 24.3199 20.33 24.3832C20.2033 24.2566 20.14 24.1299 20.14 24.0033C20.14 23.7499 20.2667 23.5599 20.3933 23.4966Z" fill="#ED4C5C"/>
<path d="M18.4299 18.0498H19.8866V25.2698H18.4299V18.0498Z" fill="white"/>
<path d="M16.91 20.71C17.2267 20.5833 17.7967 20.4566 18.43 20.4566C18.62 20.4566 18.8734 20.4566 19.1267 20.52C20.0134 20.6466 20.71 21.0266 20.6467 21.28L20.9634 20.52C21.0267 20.2033 20.2667 19.8233 19.3167 19.6333H18.43C17.7967 19.6333 17.2267 19.6966 16.91 19.8233V20.71Z" fill="#ED4C5C"/>
<path d="M19.8867 21.6604C20.2667 21.6604 20.5834 21.5337 20.5834 21.3437C20.5834 21.2171 20.4567 21.0271 20.2034 20.9004H19.8234L19.8867 21.6604Z" fill="#ED4C5C"/>
<path d="M18.43 21.0903C18.1767 21.1537 17.9867 21.217 17.86 21.2803C17.7967 21.3437 18.05 21.597 18.43 21.787V21.0903Z" fill="#ED4C5C"/>
<path d="M20.8367 23.0536C20.9 22.9269 20.4567 22.6736 19.8867 22.4836C19.6334 22.4203 19.4434 22.2936 19.1267 22.1669C18.3667 21.8503 17.7334 21.4069 17.86 21.2803L17.7334 22.0403C17.67 22.1669 18.1767 22.5469 18.9367 22.9269C19.19 23.0536 19.6334 23.2436 19.8867 23.3069C20.33 23.4336 20.71 23.7503 20.6467 23.8136L20.8367 23.0536Z" fill="#ED4C5C"/>
<path d="M12.35 12.8569C13.5534 12.8569 16.0234 13.1103 16.91 13.9969C15.96 16.2769 14.44 15.3269 12.35 15.3269C10.3234 15.3269 8.74004 16.2769 7.79004 13.9969C8.67671 13.1103 11.0834 12.8569 12.35 12.8569Z" fill="#ED4C5C"/>
<path d="M15.4532 15.39C14.6932 14.9466 13.5532 14.8833 12.3499 14.8833C11.1466 14.8833 10.0066 15.01 9.24658 15.39L9.49992 16.4666C10.1966 16.6566 11.2099 16.7833 12.3499 16.7833C13.4899 16.7833 14.4399 16.6566 15.1999 16.4666L15.4532 15.39Z" fill="#C8B100"/>
<path d="M16.53 12.6668C16.2767 12.4768 15.77 12.2868 15.3267 12.2868C15.1367 12.2868 14.9467 12.2868 14.7567 12.3501C14.7567 12.3501 14.3767 11.8435 13.49 11.8435C13.1733 11.8435 12.92 11.9068 12.6667 12.0335V11.9701C12.6033 11.8435 12.4767 11.7168 12.35 11.7168C12.2233 11.7168 12.0333 11.9068 12.0333 12.0335V12.0968C11.78 11.9701 11.5267 11.9068 11.21 11.9068C10.3233 11.9068 9.94332 12.4768 9.94332 12.4135C9.75332 12.3501 9.56332 12.3501 9.37332 12.3501C6.45999 12.3501 7.91666 14.3135 7.91666 14.3135L8.23332 13.9335C7.53666 13.0468 8.16999 12.5401 9.43666 12.5401C9.62666 12.5401 9.75332 12.5401 9.87999 12.6035C9.43666 13.2368 10.26 13.8068 10.26 13.8068L10.45 13.4901C10.0067 13.1735 9.94332 12.0968 11.21 12.0968C11.5267 12.0968 11.78 12.1601 12.0333 12.3501C12.0333 12.4135 11.97 13.3001 11.9067 13.4268L12.4133 13.8701L12.92 13.4268C12.8567 13.2368 12.7933 12.4135 12.7933 12.3501C12.9833 12.2235 13.3 12.0968 13.6167 12.0968C14.9467 12.0968 14.9467 13.1735 14.3767 13.4901L14.5667 13.8068C14.5667 13.8068 15.2633 13.2368 14.9467 12.6035C15.0733 12.6035 15.2633 12.5401 15.39 12.5401C16.91 12.5401 16.9733 13.6801 16.5933 13.9335L16.8467 14.3135C16.72 14.3135 17.4167 13.4268 16.53 12.6668Z" fill="#C8B100"/>
<path d="M11.9701 11.4635C11.9701 11.2735 12.1601 11.0835 12.3501 11.0835C12.6034 11.0835 12.7301 11.2735 12.7301 11.4635C12.7301 11.6535 12.5401 11.8435 12.3501 11.8435C12.1601 11.8435 11.9701 11.6535 11.9701 11.4635Z" fill="#005BBF"/>
<path d="M12.2234 10.3867V10.5767H12.0334V10.7667H12.2234V11.4001H11.9701V11.5901H12.7301L12.7934 11.4634L12.7301 11.4001H12.4768V10.7667H12.6668V10.5767H12.4768V10.3867H12.2234Z" fill="#C8B100"/>
<path d="M12.3501 16.6568C11.3368 16.6568 10.4501 16.5301 9.75342 16.3401C10.4501 16.1501 11.3368 16.0234 12.3501 16.0234C13.3634 16.0234 14.2501 16.1501 14.9468 16.3401C14.3134 16.5301 13.3634 16.6568 12.3501 16.6568Z" fill="#ED4C5C"/>
<path d="M12.4134 27.6136C11.2101 27.6136 10.0701 27.2969 9.05673 26.8536C8.29673 26.4736 7.85339 25.7769 7.85339 24.9536V21.9136H16.9734V24.9536C16.9734 25.7769 16.4667 26.5369 15.7701 26.8536C14.7567 27.3602 13.6167 27.6136 12.4134 27.6136Z" fill="white"/>
<path d="M12.35 16.8467H16.91V21.9133H12.35V16.8467Z" fill="white"/>
<path d="M12.4134 24.9531C12.4134 26.1564 11.4001 27.1064 10.1334 27.1064C8.86673 27.1064 7.85339 26.1564 7.85339 24.9531V21.9131H12.4134V24.9531Z" fill="#ED4C5C"/>
<path d="M8.80334 26.7266C8.93001 26.79 9.12001 26.9166 9.37334 26.98V21.7866H8.86668L8.80334 26.7266Z" fill="#C8B100"/>
<path d="M7.79004 24.89C7.79004 25.5233 8.04337 26.03 8.29671 26.2833V21.7866H7.79004V24.89Z" fill="#C8B100"/>
<path d="M9.81665 27.1066H10.3233V21.7866H9.81665V27.1066Z" fill="#C7B500"/>
<path d="M10.83 26.98C11.02 26.9166 11.2733 26.79 11.4 26.7266V21.7866H10.8933L10.83 26.98Z" fill="#C8B100"/>
<path d="M7.79004 16.8467H12.35V21.9133H7.79004V16.8467Z" fill="#ED4C5C"/>
<path d="M11.9066 26.2834C12.1599 26.0934 12.35 25.6501 12.4133 25.1434V21.8501H11.9066V26.2834Z" fill="#C8B100"/>
<path d="M16.9735 21.9131V24.9531C16.9735 26.1564 15.9601 27.1064 14.6935 27.1064C13.4268 27.1064 12.4135 26.1564 12.4135 24.9531V21.9131H16.9735Z" fill="#ED4C5C"/>
<path d="M15.3268 17.7333C15.5168 18.1133 15.5168 19.0633 14.9468 18.8733C15.0735 18.9367 15.1368 19.38 15.3268 19.6333C15.6435 20.0133 16.0235 19.6967 15.9601 19.2533C15.8335 18.5567 15.8968 18.1133 16.0235 17.4167C16.0235 17.48 16.3401 17.48 16.4668 17.3533C16.4035 17.5433 16.3401 17.7967 16.4668 17.7967C16.3401 17.9867 16.0235 18.3033 15.9601 18.4933C15.8968 18.9367 16.5935 19.76 15.8335 19.95C15.3268 20.0767 15.6435 20.4567 15.8335 20.6467C15.8335 20.6467 15.5801 21.47 15.7068 21.4067C15.2001 21.5967 15.3268 21.1533 15.3268 21.1533C15.5801 20.3933 14.8835 20.33 14.9468 20.2033C14.3135 20.14 15.0101 20.7733 14.4401 20.7733C14.3135 20.7733 14.0601 20.9 14.0601 20.9C13.3635 20.8367 13.7435 20.2033 13.9968 20.2667C14.1868 20.33 14.3768 20.6467 14.3768 20.2033C14.3768 20.2033 14.0601 19.6967 14.8835 19.6967C14.5668 19.6967 14.3768 19.4433 14.2501 19.1267C14.1235 19.19 13.9335 19.5067 13.2368 19.57C13.2368 19.57 13.0468 18.8733 13.2368 19C13.4901 19.1267 13.6168 19.1267 13.8701 18.8733C13.7435 18.6833 12.9835 18.43 13.1101 17.9867C13.1101 17.86 13.4901 17.67 13.4901 17.67C13.4268 17.9867 13.6168 18.3033 13.9968 18.3033C14.5035 18.3667 14.3135 18.1767 14.3768 18.05C14.4401 17.9233 14.8201 18.1133 14.6935 17.7967C14.6935 17.7333 14.2501 17.67 14.3768 17.48C14.6301 17.1633 15.0101 17.4167 15.3268 17.7333Z" fill="#ED4C5C"/>
<path d="M12.4134 26.9799L12.2867 26.6632L12.4134 26.2832L12.5401 26.6632L12.4134 26.9799Z" fill="#ED4C5C"/>
<path d="M9.18335 17.9232V18.2398H9.31001V18.4932H8.99335V19.1265H9.18335V20.5198H8.80334V21.2165H11.4V20.5198H11.0833V19.1265H11.21V18.4932H10.8933V18.2398H11.0833V17.9232H10.45V18.2398H10.5767V18.4932H10.26V17.7332H10.45V17.4165H9.75334V17.7332H9.94335V18.4932H9.62668V18.2398H9.75334V17.9232H9.18335Z" fill="#C8B100"/>
<path d="M16.3401 25.7131V22.5464H13.0468V25.7131L14.5668 26.4097H14.7568L16.3401 25.7131ZM14.5668 22.7997V23.8764L13.4901 22.7997H14.5668ZM13.2368 22.8631L14.5034 24.1297L13.2368 25.3964V22.8631ZM13.3634 25.6497L14.5668 24.4464V26.2197L13.3634 25.6497ZM14.7568 26.1564V24.3831L15.9601 25.5864L14.7568 26.1564ZM16.0868 25.3964L14.8201 24.1297L16.0868 22.8631V25.3964ZM14.7568 22.7997H15.8334L14.7568 23.8764V22.7997Z" fill="#C8B100"/>
<path d="M10.8933 21.8503C10.8933 20.9003 11.5266 20.2036 12.35 20.2036C13.1733 20.2036 13.8066 20.9636 13.8066 21.8503C13.8066 22.7369 13.1733 23.4969 12.35 23.4969C11.5266 23.4969 10.8933 22.8003 10.8933 21.8503Z" fill="#ED4C5C"/>
<path d="M11.3367 21.8498C11.3367 21.1532 11.78 20.6465 12.35 20.6465C12.92 20.6465 13.3633 21.2165 13.3633 21.8498C13.3633 22.5465 12.92 23.0532 12.35 23.0532C11.8433 23.1165 11.3367 22.5465 11.3367 21.8498Z" fill="#005BBF"/>
<path d="M11.9067 21.0264L11.6533 21.723L11.8433 21.7864L11.7167 22.0397H12.0967L11.97 21.7864L12.16 21.723L11.9067 21.0264Z" fill="#C8B100"/>
<path d="M12.8566 21.0264L12.6033 21.723L12.7933 21.7864L12.6666 22.0397H13.0466L12.9833 21.7864L13.1733 21.723L12.8566 21.0264Z" fill="#C8B100"/>
<path d="M12.4133 21.8496L12.0967 22.5463L12.2867 22.6096L12.2233 22.8629H12.54L12.4767 22.6096L12.6667 22.5463L12.4133 21.8496Z" fill="#C8B100"/>
<rect x="0.5" y="0.5" width="37" height="37" rx="18.5" stroke="#DFDFDF"/>
</svg>
