<svg width="38" height="38" viewBox="0 0 38 38" fill="none" xmlns="http://www.w3.org/2000/svg">
<path d="M36.2781 14.8438C34.4375 7.00625 27.3719 1.1875 19 1.1875H18.4062V14.8438H36.2781Z" fill="#F9F9F9"/>
<path d="M10.0938 3.5625C5.9376 5.99688 2.79072 10.0344 1.6626 14.8438H10.0938V3.5625Z" fill="#F9F9F9"/>
<path d="M1.6626 23.1562C2.79072 27.9656 5.9376 32.0031 10.0938 34.4375V23.1562H1.6626Z" fill="#F9F9F9"/>
<path d="M18.4062 36.8125H19C27.4313 36.8125 34.4375 30.9938 36.3375 23.1562H18.4062V36.8125Z" fill="#F9F9F9"/>
<path d="M36.2781 14.8438H18.4062V1.1875C15.3781 1.30625 12.5281 2.1375 10.0938 3.5625V14.8438H1.6625C1.36562 16.15 1.1875 17.575 1.1875 19C1.1875 20.425 1.36562 21.85 1.6625 23.1562H10.0938V34.4375C12.5281 35.8625 15.3781 36.6937 18.4062 36.8125V23.1562H36.3375C36.6344 21.85 36.8125 20.425 36.8125 19C36.8125 17.575 36.6344 16.15 36.2781 14.8438Z" fill="#428BC1"/>
</svg>
