<svg width="38" height="38" viewBox="0 0 38 38" fill="none" xmlns="http://www.w3.org/2000/svg">
<path d="M19.2491 0C11.0885 0 4.17373 5.32 1.61963 12.6667H36.8786C34.3245 5.32 27.4098 0 19.2491 0Z" fill="#3E4347"/>
<path d="M19.2491 38.0002C27.4098 38.0002 34.3245 32.7435 36.8786 25.3335H1.61963C4.17373 32.7435 11.0885 38.0002 19.2491 38.0002Z" fill="#FFE62E"/>
<path d="M1.61969 12.6665C0.934439 14.6298 0.560669 16.7832 0.560669 18.9998C0.560669 21.2165 0.934439 23.3698 1.61969 25.3332H36.8787C37.5639 23.3698 37.9377 21.2165 37.9377 18.9998C37.9377 16.7832 37.5639 14.6298 36.8787 12.6665H1.61969Z" fill="#FF0100"/>
<rect x="0.5" y="0.5" width="37" height="37" rx="18.5" stroke="#DFDFDF"/>
</svg>
