<svg width="38" height="38" viewBox="0 0 38 38" fill="none" xmlns="http://www.w3.org/2000/svg">
<path d="M19.1868 0C11.0885 0 4.17373 5.32 1.61963 12.6667H36.8786C34.2622 5.32 27.3475 0 19.1868 0Z" fill="#F29100"/>
<path d="M19.1868 38.0002C27.3475 38.0002 34.2622 32.7435 36.8163 25.3335H1.61963C4.17373 32.7435 11.0885 38.0002 19.1868 38.0002Z" fill="#65BF4F"/>
<path d="M1.61969 12.6665C0.934439 14.6298 0.560669 16.7832 0.560669 18.9998C0.560669 21.2165 0.934439 23.3698 1.61969 25.3332H36.8787C37.5639 23.3698 37.9377 21.2165 37.9377 18.9998C37.9377 16.7832 37.5639 14.6298 36.8787 12.6665H1.61969Z" fill="white"/>
<path d="M19.1869 24.0664C21.9392 24.0664 24.1705 21.798 24.1705 18.9998C24.1705 16.2015 21.9392 13.9331 19.1869 13.9331C16.4345 13.9331 14.2032 16.2015 14.2032 18.9998C14.2032 21.798 16.4345 24.0664 19.1869 24.0664Z" fill="#428BC1"/>
<path d="M19.1868 23.4336C21.5952 23.4336 23.5475 21.4487 23.5475 19.0002C23.5475 16.5518 21.5952 14.5669 19.1868 14.5669C16.7785 14.5669 14.8262 16.5518 14.8262 19.0002C14.8262 21.4487 16.7785 23.4336 19.1868 23.4336Z" fill="white"/>
<path d="M17.5672 15.1997C17.7392 15.1997 17.8787 15.058 17.8787 14.8831C17.8787 14.7082 17.7392 14.5664 17.5672 14.5664C17.3952 14.5664 17.2557 14.7082 17.2557 14.8831C17.2557 15.058 17.3952 15.1997 17.5672 15.1997Z" fill="#428BC1"/>
<path d="M16.5705 15.7701C16.7425 15.7701 16.882 15.6283 16.882 15.4534C16.882 15.2785 16.7425 15.1367 16.5705 15.1367C16.3985 15.1367 16.259 15.2785 16.259 15.4534C16.259 15.6283 16.3985 15.7701 16.5705 15.7701Z" fill="#428BC1"/>
<path d="M15.7607 16.5933C15.9327 16.5933 16.0722 16.4515 16.0722 16.2766C16.0722 16.1017 15.9327 15.96 15.7607 15.96C15.5887 15.96 15.4492 16.1017 15.4492 16.2766C15.4492 16.4515 15.5887 16.5933 15.7607 16.5933Z" fill="#428BC1"/>
<path d="M15.2 17.6065C15.372 17.6065 15.5115 17.4647 15.5115 17.2898C15.5115 17.1149 15.372 16.9731 15.2 16.9731C15.028 16.9731 14.8885 17.1149 14.8885 17.2898C14.8885 17.4647 15.028 17.6065 15.2 17.6065Z" fill="#428BC1"/>
<path d="M14.8885 18.7466C15.0605 18.7466 15.2 18.6048 15.2 18.4299C15.2 18.2551 15.0605 18.1133 14.8885 18.1133C14.7165 18.1133 14.577 18.2551 14.577 18.4299C14.577 18.6048 14.7165 18.7466 14.8885 18.7466Z" fill="#428BC1"/>
<path d="M14.8885 19.8868C15.0605 19.8868 15.2 19.745 15.2 19.5701C15.2 19.3952 15.0605 19.2534 14.8885 19.2534C14.7165 19.2534 14.577 19.3952 14.577 19.5701C14.577 19.745 14.7165 19.8868 14.8885 19.8868Z" fill="#428BC1"/>
<path d="M15.2 21.0264C15.372 21.0264 15.5115 20.8846 15.5115 20.7097C15.5115 20.5348 15.372 20.3931 15.2 20.3931C15.028 20.3931 14.8885 20.5348 14.8885 20.7097C14.8885 20.8846 15.028 21.0264 15.2 21.0264Z" fill="#428BC1"/>
<path d="M15.7607 22.0396C15.9327 22.0396 16.0722 21.8978 16.0722 21.7229C16.0722 21.548 15.9327 21.4062 15.7607 21.4062C15.5887 21.4062 15.4492 21.548 15.4492 21.7229C15.4492 21.8978 15.5887 22.0396 15.7607 22.0396Z" fill="#428BC1"/>
<path d="M16.5705 22.8633C16.7425 22.8633 16.882 22.7215 16.882 22.5466C16.882 22.3718 16.7425 22.23 16.5705 22.23C16.3985 22.23 16.259 22.3718 16.259 22.5466C16.259 22.7215 16.3985 22.8633 16.5705 22.8633Z" fill="#428BC1"/>
<path d="M17.5672 23.4331C17.7392 23.4331 17.8787 23.2914 17.8787 23.1165C17.8787 22.9416 17.7392 22.7998 17.5672 22.7998C17.3952 22.7998 17.2557 22.9416 17.2557 23.1165C17.2557 23.2914 17.3952 23.4331 17.5672 23.4331Z" fill="#428BC1"/>
<path d="M18.6262 23.6866C18.7982 23.6866 18.9376 23.5448 18.9376 23.3699C18.9376 23.195 18.7982 23.0532 18.6262 23.0532C18.4541 23.0532 18.3147 23.195 18.3147 23.3699C18.3147 23.5448 18.4541 23.6866 18.6262 23.6866Z" fill="#428BC1"/>
<path d="M19.4984 23.4332C19.4984 23.2432 19.623 23.1166 19.7476 23.0532C19.9345 23.0532 20.0591 23.1799 20.1214 23.3066C20.1214 23.4966 19.9968 23.6232 19.8722 23.6866C19.623 23.7499 19.4984 23.6232 19.4984 23.4332Z" fill="#428BC1"/>
<path d="M20.8688 23.4331C21.0409 23.4331 21.1803 23.2914 21.1803 23.1165C21.1803 22.9416 21.0409 22.7998 20.8688 22.7998C20.6968 22.7998 20.5574 22.9416 20.5574 23.1165C20.5574 23.2914 20.6968 23.4331 20.8688 23.4331Z" fill="#428BC1"/>
<path d="M21.8656 22.8633C22.0376 22.8633 22.177 22.7215 22.177 22.5466C22.177 22.3718 22.0376 22.23 21.8656 22.23C21.6935 22.23 21.5541 22.3718 21.5541 22.5466C21.5541 22.7215 21.6935 22.8633 21.8656 22.8633Z" fill="#428BC1"/>
<path d="M22.6754 22.0396C22.8474 22.0396 22.9868 21.8978 22.9868 21.7229C22.9868 21.548 22.8474 21.4062 22.6754 21.4062C22.5033 21.4062 22.3639 21.548 22.3639 21.7229C22.3639 21.8978 22.5033 22.0396 22.6754 22.0396Z" fill="#428BC1"/>
<path d="M23.236 21.0264C23.4081 21.0264 23.5475 20.8846 23.5475 20.7097C23.5475 20.5348 23.4081 20.3931 23.236 20.3931C23.064 20.3931 22.9246 20.5348 22.9246 20.7097C22.9246 20.8846 23.064 21.0264 23.236 21.0264Z" fill="#428BC1"/>
<path d="M23.5476 19.8868C23.7196 19.8868 23.859 19.745 23.859 19.5701C23.859 19.3952 23.7196 19.2534 23.5476 19.2534C23.3755 19.2534 23.2361 19.3952 23.2361 19.5701C23.2361 19.745 23.3755 19.8868 23.5476 19.8868Z" fill="#428BC1"/>
<path d="M23.5475 18.7466C23.3606 18.7466 23.236 18.6199 23.1737 18.4933C23.1737 18.3033 23.2983 18.1766 23.4229 18.1133C23.6098 18.1133 23.7344 18.2399 23.7967 18.3666C23.859 18.5566 23.7344 18.6833 23.5475 18.7466Z" fill="#428BC1"/>
<path d="M23.236 17.6065C23.4081 17.6065 23.5475 17.4647 23.5475 17.2898C23.5475 17.1149 23.4081 16.9731 23.236 16.9731C23.064 16.9731 22.9246 17.1149 22.9246 17.2898C22.9246 17.4647 23.064 17.6065 23.236 17.6065Z" fill="#428BC1"/>
<path d="M22.6754 16.5933C22.8474 16.5933 22.9868 16.4515 22.9868 16.2766C22.9868 16.1017 22.8474 15.96 22.6754 15.96C22.5033 15.96 22.3639 16.1017 22.3639 16.2766C22.3639 16.4515 22.5033 16.5933 22.6754 16.5933Z" fill="#428BC1"/>
<path d="M21.8656 15.7701C22.0376 15.7701 22.177 15.6283 22.177 15.4534C22.177 15.2785 22.0376 15.1367 21.8656 15.1367C21.6935 15.1367 21.5541 15.2785 21.5541 15.4534C21.5541 15.6283 21.6935 15.7701 21.8656 15.7701Z" fill="#428BC1"/>
<path d="M21.1802 15.0101C21.118 15.2001 20.9311 15.2634 20.7442 15.2001C20.5573 15.1367 20.495 14.9467 20.5573 14.7567C20.6196 14.5667 20.8065 14.5034 20.9934 14.5667C21.1802 14.6934 21.2425 14.8834 21.1802 15.0101Z" fill="#428BC1"/>
<path d="M20.0591 14.6299C20.0591 14.8199 19.8722 14.9465 19.6853 14.8832C19.4984 14.8832 19.3738 14.6932 19.4361 14.5032C19.4361 14.3132 19.623 14.1865 19.8099 14.2499C19.9968 14.3132 20.1214 14.5032 20.0591 14.6299Z" fill="#428BC1"/>
<path d="M18.9376 14.5667C18.9376 14.7567 18.8131 14.8834 18.6885 14.9467C18.5016 14.9467 18.377 14.82 18.3147 14.6934C18.3147 14.5034 18.4393 14.3767 18.5639 14.3133C18.7508 14.25 18.9376 14.3767 18.9376 14.5667Z" fill="#428BC1"/>
<path d="M19.1869 19.9498C19.7029 19.9498 20.1213 19.5245 20.1213 18.9998C20.1213 18.4751 19.7029 18.0498 19.1869 18.0498C18.6708 18.0498 18.2524 18.4751 18.2524 18.9998C18.2524 19.5245 18.6708 19.9498 19.1869 19.9498Z" fill="#428BC1"/>
<path d="M19.1868 14.5664L19.0623 17.2897L19.1868 18.9997L19.3737 17.2897L19.1868 14.5664Z" fill="#428BC1"/>
<path d="M18.0656 14.6934L18.6262 17.4167L19.1869 19L18.9377 17.29L18.0656 14.6934Z" fill="#428BC1"/>
<path d="M17.0066 15.1367L18.2525 17.6067L19.1869 19.0001L18.5017 17.4167L17.0066 15.1367Z" fill="#428BC1"/>
<path d="M16.1344 15.8335L17.941 17.9235L19.1869 19.0002L18.1278 17.6702L16.1344 15.8335Z" fill="#428BC1"/>
<path d="M15.4492 16.7832L17.6918 18.3032L19.1869 18.9999L17.8164 17.9865L15.4492 16.7832Z" fill="#428BC1"/>
<path d="M15.0131 17.8599L17.5672 18.6832L19.1868 18.9999L17.6295 18.4299L15.0131 17.8599Z" fill="#428BC1"/>
<path d="M14.8263 18.9997L17.5673 19.1264L19.1869 18.9997L17.5673 18.873L14.8263 18.9997Z" fill="#428BC1"/>
<path d="M15.0131 20.14L17.6295 19.57L19.1868 19L17.5672 19.3167L15.0131 20.14Z" fill="#428BC1"/>
<path d="M15.4492 21.2167L17.8164 20.0133L19.1869 19L17.6918 19.6967L15.4492 21.2167Z" fill="#428BC1"/>
<path d="M16.1344 22.1033L18.1278 20.33L19.1869 19L17.941 20.0767L16.1344 22.1033Z" fill="#428BC1"/>
<path d="M17.0066 22.8633L18.5017 20.52L19.1869 19L18.2525 20.3933L17.0066 22.8633Z" fill="#428BC1"/>
<path d="M18.0656 23.3067L18.9377 20.71L19.1869 19L18.6262 20.5833L18.0656 23.3067Z" fill="#428BC1"/>
<path d="M19.1868 23.4333L19.3737 20.71L19.1868 19L19.0623 20.71L19.1868 23.4333Z" fill="#428BC1"/>
<path d="M20.3082 23.3067L19.8098 20.5833L19.1869 19L19.4984 20.71L20.3082 23.3067Z" fill="#428BC1"/>
<path d="M21.3672 22.8633L20.1836 20.3933L19.1869 19L19.9344 20.5833L21.3672 22.8633Z" fill="#428BC1"/>
<path d="M22.3016 22.1033L20.4951 20.0767L19.1869 19L20.3082 20.33L22.3016 22.1033Z" fill="#428BC1"/>
<path d="M22.9869 21.2167L20.7443 19.6967L19.1869 19L20.5574 20.0133L22.9869 21.2167Z" fill="#428BC1"/>
<path d="M23.423 20.14L20.8689 19.3167L19.1869 19L20.8066 19.57L23.423 20.14Z" fill="#428BC1"/>
<path d="M23.5475 19.0001L20.8689 18.8101L19.1869 19.0001L20.8689 19.1267L23.5475 19.0001Z" fill="#428BC1"/>
<path d="M23.423 17.8599L20.8066 18.4299L19.1869 18.9999L20.8689 18.6832L23.423 17.8599Z" fill="#428BC1"/>
<path d="M22.9869 16.7832L20.5574 17.9865L19.1869 18.9999L20.7443 18.3032L22.9869 16.7832Z" fill="#428BC1"/>
<path d="M22.3016 15.8965L20.3082 17.6698L19.1869 18.9998L20.4951 17.9231L22.3016 15.8965Z" fill="#428BC1"/>
<path d="M21.3672 15.1367L19.9344 17.4801L19.1869 19.0001L20.1836 17.6067L21.3672 15.1367Z" fill="#428BC1"/>
<path d="M20.3705 14.6934L19.4984 17.29L19.1869 19L19.8098 17.4167L20.3705 14.6934Z" fill="#428BC1"/>
<rect x="0.5" y="0.5" width="37" height="37" rx="18.5" stroke="#DFDFDF"/>
</svg>
