<svg width="38" height="38" viewBox="0 0 38 38" fill="none" xmlns="http://www.w3.org/2000/svg">
<path d="M19 38C29.4934 38 38 29.4934 38 19C38 8.50659 29.4934 0 19 0C8.50659 0 0 8.50659 0 19C0 29.4934 8.50659 38 19 38Z" fill="#F5F5F5"/>
<path d="M13.5533 20.0766C15.3267 21.28 17.7967 20.7733 19 19C20.2033 17.2266 22.61 16.72 24.4466 17.9233C26.1566 19.0633 26.6633 21.28 25.7133 22.99C27.8033 19.4433 26.8533 14.82 23.3067 12.4766C19.6967 10.07 14.82 11.02 12.4133 14.63C12.35 14.7566 12.2867 14.8833 12.2233 14.9466C11.3367 16.7833 11.9067 18.9366 13.5533 20.0766Z" fill="#FF0100"/>
<path d="M25.5233 23.3699C25.5866 23.2432 25.65 23.1166 25.7133 23.0532C25.65 23.1166 25.5866 23.2432 25.5233 23.3699Z" fill="#003478"/>
<path d="M24.4467 17.9231C22.6734 16.7198 20.2034 17.2264 19 18.9998C17.7967 20.7731 15.39 21.2798 13.5534 20.0764C11.8434 18.9364 11.3367 16.7198 12.2867 15.0098C10.1334 18.5564 11.1467 23.1798 14.6934 25.5231C18.3034 27.9298 23.18 26.9798 25.5867 23.3698C25.65 23.2431 25.7134 23.1164 25.7767 23.0531C26.6634 21.2164 26.0934 19.0631 24.4467 17.9231Z" fill="#259BF2"/>
<path d="M3.67335 13.4898L8.04335 6.96648L7.60002 6.64982L7.15668 6.39648L2.78668 12.9198L3.23002 13.1732L3.67335 13.4898Z" fill="#3E4347"/>
<path d="M4.87662 14.3131L5.31995 14.5665L9.62662 8.04314L9.24662 7.78981L8.80329 7.47314L4.43329 13.9965L4.87662 14.3131Z" fill="#3E4347"/>
<path d="M10.3867 8.5498L6.08002 15.0731L6.52335 15.3898L6.96668 15.6431L11.2734 9.1198L10.83 8.86647L10.3867 8.5498Z" fill="#3E4347"/>
<path d="M29.45 25.6498L29.8934 25.9664L31.92 22.9264L31.4767 22.6098L31.0334 22.3564L29.0067 25.3964L29.45 25.6498Z" fill="#3E4347"/>
<path d="M34.3267 24.5098L32.3 27.5498L32.7433 27.8664L33.1867 28.1198L35.2133 25.0798L34.77 24.8264L34.3267 24.5098Z" fill="#3E4347"/>
<path d="M31.54 27.0431L33.5667 24.0031L33.1233 23.6864L32.68 23.4331L30.6533 26.4731L31.0967 26.7264L31.54 27.0431Z" fill="#3E4347"/>
<path d="M29.1967 26.0932L28.7534 25.8398L26.7267 28.8798L27.17 29.1332L27.6133 29.4498L29.64 26.4098L29.1967 26.0932Z" fill="#3E4347"/>
<path d="M30.78 27.1698L30.4 26.9165L28.3734 29.9565L28.7534 30.2098L29.1967 30.5265L31.2234 27.4865L30.78 27.1698Z" fill="#3E4347"/>
<path d="M31.9834 27.9932L29.9567 31.0332L30.4001 31.3498L30.8434 31.6032L32.8701 28.5632L32.4267 28.2465L31.9834 27.9932Z" fill="#3E4347"/>
<path d="M3.23002 24.8264L2.78668 25.0798L7.15668 31.6031L7.60002 31.3498L8.04335 31.0331L3.67335 24.5098L3.23002 24.8264Z" fill="#3E4347"/>
<path d="M7.22001 27.1698L6.77667 27.4865L8.80334 30.5265L9.24667 30.2098L9.62667 29.9565L7.60001 26.9165L7.22001 27.1698Z" fill="#3E4347"/>
<path d="M6.52335 22.6098L6.08002 22.9264L10.3867 29.4498L10.83 29.1331L11.2734 28.8798L6.96668 22.3564L6.52335 22.6098Z" fill="#3E4347"/>
<path d="M4.43329 24.0031L6.45995 27.0431L6.90329 26.7264L7.34662 26.4731L5.31995 23.4331L4.87662 23.6864L4.43329 24.0031Z" fill="#3E4347"/>
<path d="M32.4267 9.75315L32.8701 9.43648L30.8434 6.39648L30.4001 6.64982L29.9567 6.96648L31.9834 10.0065L32.4267 9.75315Z" fill="#3E4347"/>
<path d="M29.1967 11.9065L29.64 11.5898L27.6133 8.5498L27.17 8.86647L26.7267 9.1198L28.7534 12.1598L29.1967 11.9065Z" fill="#3E4347"/>
<path d="M32.3 10.4499L34.3267 13.4899L34.77 13.1732L35.2133 12.9199L33.1867 9.87988L32.7433 10.1332L32.3 10.4499Z" fill="#3E4347"/>
<path d="M33.1234 14.3131L33.5667 13.9965L29.1967 7.47314L28.7534 7.78981L28.3734 8.04314L32.68 14.5665L33.1234 14.3131Z" fill="#3E4347"/>
<path d="M31.4767 15.3899L31.92 15.0732L29.8934 12.0332L29.45 12.3499L29.0067 12.6032L31.0334 15.6432L31.4767 15.3899Z" fill="#3E4347"/>
<rect x="0.5" y="0.5" width="37" height="37" rx="18.5" stroke="#DFDFDF"/>
</svg>
