<svg width="38" height="38" viewBox="0 0 38 38" fill="none" xmlns="http://www.w3.org/2000/svg">
<path d="M36.3376 23.1562V14.8438C34.4376 7.00625 27.4313 1.1875 19.0001 1.1875C10.5688 1.1875 3.5626 7.00625 1.6626 14.8438V23.1562C3.5626 30.9937 10.5688 36.8125 19.0001 36.8125C27.4313 36.8125 34.4376 30.9937 36.3376 23.1562Z" fill="#C94747"/>
<path opacity="0.15" d="M36.3376 23.1562V14.8438C34.4376 7.00625 27.4313 1.1875 19.0001 1.1875C10.5688 1.1875 3.5626 7.00625 1.6626 14.8438V23.1562C3.5626 30.9937 10.5688 36.8125 19.0001 36.8125C27.4313 36.8125 34.4376 30.9937 36.3376 23.1562Z" fill="#C28FEF"/>
<path d="M1.1875 19C1.1875 20.425 1.36562 21.85 1.6625 23.1562H36.2781C36.575 21.85 36.7531 20.425 36.7531 19C36.7531 17.575 36.575 16.15 36.2781 14.8438H1.6625C1.36562 16.15 1.1875 17.575 1.1875 19Z" fill="white"/>
</svg>
