<svg width="38" height="38" viewBox="0 0 38 38" fill="none" xmlns="http://www.w3.org/2000/svg">
<path d="M0 19C0 29.5133 8.48667 38 19 38V0C8.48667 0 0 8.48667 0 19Z" fill="#F9F9F9"/>
<path d="M38 19C38 8.48667 29.5133 0 19 0V38C29.5133 38 38 29.5133 38 19Z" fill="#FF0100"/>
<path d="M4.17993 9.5V13.11H7.78993C7.78993 13.68 8.35993 14.3133 8.99327 14.3133V17.9233H12.6033V14.3133C13.1733 14.3133 13.8066 13.7433 13.8066 13.11H17.4166V9.5H13.8066C13.8066 8.93 13.2366 8.29667 12.6033 8.29667V4.75H8.99327V8.36C8.42327 8.36 7.78993 8.93 7.78993 9.56333H4.17993V9.5Z" fill="#FF0100"/>
<path d="M4.56006 9.88023V12.7302H8.17006C8.17006 13.3002 8.74006 13.9336 9.37339 13.9336V17.5436H12.2234V13.9336C12.7934 13.9336 13.4267 13.3636 13.4267 12.7302H17.0367V9.88023H13.4267C13.4267 9.31023 12.8567 8.67689 12.2234 8.67689V5.06689H9.37339V8.67689C8.80339 8.67689 8.17006 9.24689 8.17006 9.88023H4.56006Z" fill="#BCBCBC"/>
<path d="M9.12002 8.67683C9.31002 8.86683 9.24669 9.31016 8.99336 9.56349C8.74002 9.81683 8.29669 9.88016 8.10669 9.69016C7.91669 9.50016 7.98002 9.05683 8.23336 8.80349C8.48669 8.48683 8.93002 8.42349 9.12002 8.67683Z" fill="#94989B"/>
<path d="M8.04333 9.31046L8.10667 9.24713L8.42334 9.43713L8.23334 9.12046L8.29667 9.05713L8.61334 9.7538L8.04333 9.31046Z" fill="#D0D0D0"/>
<path d="M8.54993 8.80357L8.61326 8.74023L9.11993 9.2469L9.05659 9.31024L8.54993 8.80357Z" fill="#D0D0D0"/>
<path d="M9.81661 13.2368L9.94328 13.3635L9.81661 13.4901L9.68994 13.3635L9.81661 13.2368Z" fill="#3E4347"/>
<path d="M11.7166 13.2368L11.8433 13.3635L11.7166 13.4901L11.59 13.3635L11.7166 13.2368Z" fill="#3E4347"/>
<path d="M10.7033 13.3633V13.4899H10.5133V13.6166H10.7033V13.7433H10.83V13.6166H11.02V13.4899H10.83V13.3633H10.7033Z" fill="#3E4347"/>
<path d="M11.8434 10.8298C12.0334 10.7665 12.2234 10.9565 12.2867 10.9565C12.35 11.0831 12.4767 10.9565 12.4767 10.9565C12.4767 10.9565 12.35 10.8931 12.2234 10.7665C12.16 10.7665 11.97 10.6398 11.8434 10.6398C11.78 10.7031 11.59 10.8298 11.59 10.8298C11.59 10.8298 11.5267 10.7031 11.4634 10.7031C11.4634 10.6398 11.4 10.5131 11.3367 10.4498L11.5267 10.2598C11.59 10.2598 11.59 10.2598 11.59 10.1965C11.59 10.1965 11.6534 10.1965 11.6534 10.1331V10.0065C11.5267 10.0065 11.3367 9.94313 11.21 9.94313V9.81646C11.21 9.81646 11.1467 9.81646 11.0834 9.8798H11.02C11.02 9.75313 10.8934 9.62646 10.7667 9.62646C10.64 9.62646 10.5134 9.6898 10.5134 9.81646C9.50002 9.56313 8.99335 10.5765 9.24669 10.8298C9.31002 10.8931 9.56335 10.7665 9.75335 10.7031V10.8298H9.69002L9.94335 11.0198L10.1334 11.1465C10.07 11.2098 9.94335 11.2731 9.94335 11.4631C9.81669 11.5265 9.56335 11.2731 9.50002 11.3998C9.43669 11.5265 9.43669 11.6531 9.50002 11.7798C9.56335 11.8431 9.37335 11.9065 9.37335 11.9698C9.31002 12.0331 9.50002 12.3498 9.56335 12.3498V12.2231C9.56335 12.2231 9.69002 12.2231 9.69002 12.1598V12.0331C9.69002 12.0331 9.81669 11.9065 9.81669 11.7798C9.81669 11.6531 9.62669 11.5898 9.69002 11.5265C9.75335 11.4631 9.94335 11.6531 10.07 11.5898C10.1334 11.7798 10.3867 11.9065 10.5134 11.9065C10.5134 11.9698 10.45 12.1598 10.45 12.2231C10.45 12.2865 10.5767 12.2231 10.7667 12.2865C10.7667 12.3498 10.7034 12.3498 10.7034 12.3498H10.5134L10.45 12.4131H9.81669L10.07 12.6031H12.0967L12.2234 12.4765L11.97 12.3498L12.0334 12.2865H12.16C12.4134 12.4765 12.54 12.2865 12.54 12.2865C12.54 12.2865 12.4767 12.2865 12.4767 12.2231L12.4134 12.1598C12.4134 12.1598 12.4134 12.2865 12.35 12.2865C12.35 12.2865 12.2867 12.2865 12.2234 12.2231C12.35 12.1598 12.4134 11.9698 12.4134 11.9698L12.4767 11.8431H12.54C12.54 11.8431 12.54 11.7798 12.4767 11.7798C12.4767 11.7798 12.4767 11.7165 12.4134 11.7165V11.6531C12.35 11.6531 12.35 11.8431 12.35 11.8431C12.35 11.8431 12.2234 11.9698 12.16 11.9698C12.16 11.8431 11.97 11.7165 12.0334 11.6531C12.0967 11.5898 12.16 11.7798 12.2867 11.7165C12.35 11.7165 12.4134 11.6531 12.4134 11.5265C12.4767 11.5898 12.54 11.5898 12.54 11.5898V11.5265H12.6034L12.54 11.4631V11.3998H12.4767C12.4767 11.3365 12.4134 11.2731 12.4134 11.2731H12.35L11.97 11.3998C11.97 11.3998 11.8434 11.4631 11.8434 11.5265C11.8434 11.5898 11.9067 11.6531 11.97 11.6531C11.9067 11.6531 11.78 11.5898 11.78 11.5898L11.9067 11.7165H11.8434C11.8434 11.7798 11.9067 11.7798 11.97 11.7798C11.97 11.8431 12.0334 11.8431 12.0334 11.8431C12.0334 11.8431 12.0334 11.9065 11.97 11.9065C11.9067 11.9065 11.78 11.7165 11.7167 11.7798C11.59 11.8431 11.78 12.0331 11.78 12.0331L11.7167 12.0965L11.6534 12.0331C11.6534 11.9065 11.7167 11.6531 11.8434 11.5265C11.78 11.5265 11.6534 11.6531 11.5267 11.7165C11.4634 11.6531 11.3367 11.5898 11.3367 11.5265C11.3367 11.5265 11.2734 11.4631 11.2734 11.3998H11.3367C11.5267 11.3998 11.7167 11.3365 11.8434 11.2731C11.9067 11.3365 11.9067 11.3365 11.97 11.2731C12.16 11.3998 12.16 11.5898 12.2234 11.4631C12.2867 11.6531 12.4134 11.5898 12.4134 11.5898L12.16 11.3998C12.16 11.3998 12.0334 11.2731 11.9067 11.2098C11.78 11.1465 11.59 11.1465 11.59 11.1465C11.59 11.1465 11.8434 11.0198 11.8434 10.8298ZM11.4 10.2598C11.4 10.3231 11.3367 10.3231 11.2734 10.3865L11.21 10.3231C11.21 10.3231 11.3367 10.2598 11.4 10.2598ZM10.83 10.1965L10.7667 10.2598L10.7034 10.1965H10.7667C10.7034 10.1965 10.7667 10.1331 10.83 10.1965V10.1331V10.1965ZM10.5134 9.94313C10.5134 10.0065 10.5134 10.0065 10.5767 10.0698H10.3867C10.3867 10.0065 10.45 10.0065 10.5134 9.94313ZM9.94335 10.9565C9.88002 10.9565 9.88002 10.9565 9.94335 10.9565V10.8931C9.94335 10.8931 9.88002 10.8931 9.88002 10.8298V10.7031L10.0067 10.5765C10.1967 10.5131 10.26 10.4498 10.26 10.4498C10.26 10.5131 10.26 10.6398 10.3234 10.7031C10.3234 10.8298 10.45 11.0198 10.5134 11.0831C10.45 11.0831 10.3234 11.1465 10.26 11.1465L9.94335 10.9565ZM10.45 12.0965C10.5134 12.0965 10.5767 11.9065 10.5767 11.8431C10.64 11.9698 10.5767 12.0965 10.64 12.0965C10.7034 12.1598 10.7667 12.0965 10.7667 12.0965C10.8934 12.0965 11.0834 12.0331 11.0834 12.0331C11.1467 12.0965 11.1467 12.0331 11.21 12.0331C11.21 12.0965 11.2734 12.0965 11.2734 12.0965C11.2734 12.0965 11.0834 12.1598 11.02 12.1598C10.8934 12.0965 10.7667 12.1598 10.7034 12.2231C10.5134 12.2231 10.45 12.1598 10.45 12.0965ZM11.2734 11.6531V11.7165H11.4C11.4 11.7165 11.4634 11.7165 11.4634 11.7798L11.4 11.8431C11.2734 11.7798 11.0834 11.7165 10.83 11.7798C11.0834 11.7798 11.0834 11.9065 11.0834 11.9065C11.0834 11.9065 11.21 11.9065 11.21 12.0331C11.2734 12.0331 11.2734 12.0965 11.2734 12.0965C11.2734 12.0965 11.3367 12.0331 11.3367 12.1598C11.4 12.1598 11.4 12.1598 11.4634 12.2231C11.4 12.1598 11.3367 12.1598 11.2734 12.1598C11.21 12.0965 11.1467 12.0331 11.0834 12.0331C11.02 12.0965 10.83 12.0965 10.7667 12.0965C10.7034 12.0965 10.7667 12.0331 10.7034 12.0331C10.7667 11.9698 10.7034 11.8431 10.7034 11.7798C10.7034 11.7798 10.7667 11.7798 10.83 11.7165C10.8934 11.7165 10.9567 11.6531 11.02 11.5898C11.1467 11.5265 11.21 11.5898 11.2734 11.6531Z" fill="#94989B"/>
<rect x="0.5" y="0.5" width="37" height="37" rx="18.5" stroke="#DFDFDF"/>
</svg>
