<svg width="38" height="38" viewBox="0 0 38 38" fill="none" xmlns="http://www.w3.org/2000/svg">
<path d="M19 0C10.7033 0 3.67333 5.25667 1.07666 12.6667H36.9233C34.3267 5.25667 27.2967 0 19 0Z" fill="#FF0100"/>
<path d="M19 38.0002C27.2967 38.0002 34.3267 32.7435 36.9233 25.3335H1.07666C3.67333 32.7435 10.7033 38.0002 19 38.0002Z" fill="#005CE6"/>
<path d="M1.07667 12.6665C0.38 14.6298 0 16.7832 0 18.9998C0 21.2165 0.38 23.3698 1.07667 25.3332H36.9233C37.62 23.3698 38 21.2165 38 18.9998C38 16.7832 37.62 14.6298 36.9233 12.6665H1.07667Z" fill="white"/>
<rect x="0.5" y="0.5" width="37" height="37" rx="18.5" stroke="#DFDFDF"/>
</svg>
