<svg width="38" height="38" viewBox="0 0 38 38" fill="none" xmlns="http://www.w3.org/2000/svg">
<path d="M36.6345 16.625C36.5751 16.0312 36.4563 15.4375 36.3376 14.8438H1.6626C1.54385 15.4375 1.4251 16.0312 1.36572 16.625H36.6345Z" fill="white"/>
<path d="M1.36572 21.375C1.4251 21.9688 1.54385 22.5625 1.6626 23.1562H36.2782C36.397 22.5625 36.5157 21.9688 36.5751 21.375H1.36572Z" fill="white"/>
<path d="M11.875 2.67188C11.2812 2.90937 10.6875 3.26562 10.0938 3.5625V34.4375C10.6875 34.7938 11.2812 35.0906 11.875 35.3281V2.67188Z" fill="white"/>
<path d="M16.625 1.36562V36.6937L18.4062 36.8719V1.1875C17.8125 1.1875 17.2188 1.24687 16.625 1.36562Z" fill="white"/>
<path d="M1.1875 19C1.1875 19.8312 1.24687 20.6031 1.36562 21.375H36.6937C36.8125 20.6031 36.8719 19.8312 36.8719 19C36.8719 18.1688 36.8125 17.3969 36.6937 16.625H1.36562C1.24687 17.3969 1.1875 18.1688 1.1875 19Z" fill="#428BC1"/>
<path d="M11.875 35.3282C13.3594 35.9813 14.9625 36.4563 16.625 36.6345V1.36572C14.9625 1.60322 13.3594 2.01885 11.875 2.67197V35.3282Z" fill="#428BC1"/>
<path d="M10.0938 14.8438V3.5625C5.9376 5.99688 2.8501 10.0344 1.6626 14.8438H10.0938Z" fill="#ED4C5C"/>
<path d="M10.0938 23.1562V34.4375C5.9376 32.0031 2.8501 27.9656 1.6626 23.1562H10.0938Z" fill="#ED4C5C"/>
<path d="M19 1.1875H18.4062V14.8438H36.3375C34.4375 7.00625 27.4313 1.1875 19 1.1875Z" fill="#ED4C5C"/>
<path d="M18.4062 23.1562V36.8125H19C27.4313 36.8125 34.4375 30.9938 36.3375 23.1562H18.4062Z" fill="#ED4C5C"/>
</svg>
