<svg width="38" height="38" viewBox="0 0 38 38" fill="none" xmlns="http://www.w3.org/2000/svg">
<path d="M9.5 35.4665V2.5332C3.8 5.82654 0 11.9699 0 18.9999C0 26.0299 3.8 32.1732 9.5 35.4665Z" fill="#699635"/>
<path d="M19 0C15.5167 0 12.2867 0.95 9.5 2.53333V35.4667C12.2867 37.1133 15.5167 38 19 38C29.5133 38 38 29.5133 38 19C38 8.48667 29.5133 0 19 0Z" fill="#FF0100"/>
<path d="M9.50002 11.4004C5.32002 11.4004 1.90002 14.8204 1.90002 19.0004C1.90002 23.1804 5.32002 26.6004 9.50002 26.6004C13.68 26.6004 17.1 23.1804 17.1 19.0004C17.1 14.8204 13.68 11.4004 9.50002 11.4004ZM9.50002 25.6504C5.82669 25.6504 2.85002 22.6737 2.85002 19.0004C2.85002 15.3271 5.82669 12.3504 9.50002 12.3504C13.1734 12.3504 16.15 15.3271 16.15 19.0004C16.15 22.6737 13.1734 25.6504 9.50002 25.6504Z" fill="#FFE62E"/>
<path d="M12.0968 26.4099C11.9702 26.5366 11.7802 26.5366 11.6535 26.4099L2.97684 14.9466C2.85017 14.8199 2.85017 14.6299 2.97684 14.5033L3.16684 14.3133C3.2935 14.1866 3.4835 14.1866 3.61017 14.3133L12.2868 25.7766C12.4135 25.9033 12.4135 26.0933 12.2868 26.2199L12.0968 26.4099Z" fill="#FFE62E"/>
<path d="M9.62674 11.0835C9.81674 11.0835 9.94341 11.2102 9.94341 11.4002V26.6002C9.94341 26.7902 9.81674 26.9168 9.62674 26.9168H9.31007C9.12007 26.9168 8.99341 26.7902 8.99341 26.6002V11.4002C8.99341 11.2102 9.12007 11.0835 9.31007 11.0835H9.62674Z" fill="#FFE62E"/>
<path d="M17.0367 19.8237L9.5 18.4937V19.4437L16.91 20.7737C17.1 20.7737 17.2267 20.7103 17.29 20.5203L17.3533 20.2037C17.3533 20.077 17.2267 19.887 17.0367 19.8237Z" fill="#FFE62E"/>
<path d="M9.50007 18.4302L3.54674 14.2502C3.42007 14.1235 3.23007 14.1869 3.1034 14.3135L2.9134 14.5669C2.78674 14.6935 2.85007 14.8835 2.97674 15.0102L9.50007 19.5702V18.4302Z" fill="#FFE62E"/>
<path d="M9.24682 17.7334L3.29349 23.6867C3.16682 23.8134 3.16682 24.0034 3.29349 24.1301L3.54682 24.3834C3.67349 24.5101 3.86349 24.5101 3.99015 24.3834L9.24682 19.1267V17.7334Z" fill="#FFE62E"/>
<path d="M9.5001 14.8833L1.58343 18.62C1.45676 18.6833 1.3301 18.8733 1.45676 19.0633L1.58343 19.38C1.64676 19.5066 1.83676 19.6333 2.02676 19.5066L9.5001 15.96V14.8833Z" fill="#FFE62E"/>
<path d="M16.5301 15.9604L8.99341 14.6304V15.5804L16.4034 16.9104C16.5934 16.9104 16.7201 16.847 16.7834 16.657L16.8467 16.3404C16.7834 16.1504 16.6567 15.9604 16.5301 15.9604Z" fill="#FFE62E"/>
<path d="M9.43682 23.3701C9.31016 23.4335 9.18349 23.6235 9.31016 23.8135L9.43682 24.1301C9.50016 24.2568 9.69016 24.3835 9.88016 24.2568L16.2135 21.3435L16.5302 20.1401L9.43682 23.3701Z" fill="#FFE62E"/>
<path d="M9.43672 21.2168L2.34338 18.6201V19.6335L9.43672 22.2301V21.2168Z" fill="#FFE62E"/>
<path d="M4.49683 23.3071V24.2571L13.8702 24.8905C14.2502 24.6371 14.5668 24.3205 14.8835 24.0038L4.49683 23.3071Z" fill="#FFE62E"/>
<path d="M6.33337 15.8335V20.2668C6.33337 22.0402 7.72671 23.4335 9.50004 23.4335C11.2734 23.4335 12.6667 22.0402 12.6667 20.2668V15.8335H6.33337Z" fill="white"/>
<path d="M9.49998 24.7002C7.02998 24.7002 5.06665 22.7369 5.06665 20.2669V14.5669H13.9333V20.2669C13.9333 22.7369 11.97 24.7002 9.49998 24.7002ZM7.59998 17.1002V20.2669C7.59998 21.3436 8.42332 22.1669 9.49998 22.1669C10.5767 22.1669 11.4 21.3436 11.4 20.2669V17.1002H7.59998Z" fill="#ED4C5C"/>
<path d="M8.93005 17.3534V18.3667C8.93005 18.5567 9.05672 18.6834 9.24672 18.6834H9.75339C9.94339 18.6834 10.0701 18.5567 10.0701 18.3667V17.29H8.93005V17.3534Z" fill="#0071BC"/>
<path d="M8.93005 18.9365V20.0132C8.93005 20.2032 9.05672 20.3299 9.24672 20.3299H9.75339C9.94339 20.3299 10.0701 20.2032 10.0701 20.0132V18.9365H8.93005Z" fill="#0071BC"/>
<path d="M7.66333 18.9365V20.0132C7.66333 20.2032 7.79 20.3299 7.98 20.3299H8.48666C8.67666 20.3299 8.80333 20.2032 8.80333 20.0132V18.9365H7.66333Z" fill="#0071BC"/>
<path d="M10.1967 18.9365V20.0132C10.1967 20.2032 10.3233 20.3299 10.5133 20.3299H11.02C11.21 20.3299 11.3367 20.2032 11.3367 20.0132V18.9365H10.1967Z" fill="#0071BC"/>
<path d="M8.93005 20.4565V21.5332C8.93005 21.7232 9.05672 21.8499 9.24672 21.8499H9.75339C9.94339 21.8499 10.0701 21.7232 10.0701 21.5332V20.4565H8.93005Z" fill="#0071BC"/>
<path d="M9.50008 19.6967C9.57004 19.6967 9.62675 19.64 9.62675 19.57C9.62675 19.5001 9.57004 19.4434 9.50008 19.4434C9.43012 19.4434 9.37341 19.5001 9.37341 19.57C9.37341 19.64 9.43012 19.6967 9.50008 19.6967Z" fill="white"/>
<path d="M9.24678 20.0136C9.31674 20.0136 9.37345 19.9569 9.37345 19.8869C9.37345 19.817 9.31674 19.7603 9.24678 19.7603C9.17683 19.7603 9.12012 19.817 9.12012 19.8869C9.12012 19.9569 9.17683 20.0136 9.24678 20.0136Z" fill="white"/>
<path d="M9.75337 20.0136C9.82333 20.0136 9.88004 19.9569 9.88004 19.8869C9.88004 19.817 9.82333 19.7603 9.75337 19.7603C9.68342 19.7603 9.62671 19.817 9.62671 19.8869C9.62671 19.9569 9.68342 20.0136 9.75337 20.0136Z" fill="white"/>
<path d="M9.24678 19.3803C9.31674 19.3803 9.37345 19.3236 9.37345 19.2536C9.37345 19.1837 9.31674 19.127 9.24678 19.127C9.17683 19.127 9.12012 19.1837 9.12012 19.2536C9.12012 19.3236 9.17683 19.3803 9.24678 19.3803Z" fill="white"/>
<path d="M9.75337 19.3803C9.82333 19.3803 9.88004 19.3236 9.88004 19.2536C9.88004 19.1837 9.82333 19.127 9.75337 19.127C9.68342 19.127 9.62671 19.1837 9.62671 19.2536C9.62671 19.3236 9.68342 19.3803 9.75337 19.3803Z" fill="white"/>
<path d="M9.50008 18.1137C9.57004 18.1137 9.62675 18.057 9.62675 17.987C9.62675 17.9171 9.57004 17.8604 9.50008 17.8604C9.43012 17.8604 9.37341 17.9171 9.37341 17.987C9.37341 18.057 9.43012 18.1137 9.50008 18.1137Z" fill="white"/>
<path d="M9.24678 18.4301C9.31674 18.4301 9.37345 18.3734 9.37345 18.3034C9.37345 18.2335 9.31674 18.1768 9.24678 18.1768C9.17683 18.1768 9.12012 18.2335 9.12012 18.3034C9.12012 18.3734 9.17683 18.4301 9.24678 18.4301Z" fill="white"/>
<path d="M9.75337 18.4301C9.82333 18.4301 9.88004 18.3734 9.88004 18.3034C9.88004 18.2335 9.82333 18.1768 9.75337 18.1768C9.68342 18.1768 9.62671 18.2335 9.62671 18.3034C9.62671 18.3734 9.68342 18.4301 9.75337 18.4301Z" fill="white"/>
<path d="M9.24678 17.7968C9.31674 17.7968 9.37345 17.7401 9.37345 17.6701C9.37345 17.6002 9.31674 17.5435 9.24678 17.5435C9.17683 17.5435 9.12012 17.6002 9.12012 17.6701C9.12012 17.7401 9.17683 17.7968 9.24678 17.7968Z" fill="white"/>
<path d="M9.75337 17.7968C9.82333 17.7968 9.88004 17.7401 9.88004 17.6701C9.88004 17.6002 9.82333 17.5435 9.75337 17.5435C9.68342 17.5435 9.62671 17.6002 9.62671 17.6701C9.62671 17.7401 9.68342 17.7968 9.75337 17.7968Z" fill="white"/>
<path d="M10.7668 19.6967C10.8368 19.6967 10.8935 19.64 10.8935 19.57C10.8935 19.5001 10.8368 19.4434 10.7668 19.4434C10.6968 19.4434 10.6401 19.5001 10.6401 19.57C10.6401 19.64 10.6968 19.6967 10.7668 19.6967Z" fill="white"/>
<path d="M10.5134 20.0136C10.5833 20.0136 10.6401 19.9569 10.6401 19.8869C10.6401 19.817 10.5833 19.7603 10.5134 19.7603C10.4434 19.7603 10.3867 19.817 10.3867 19.8869C10.3867 19.9569 10.4434 20.0136 10.5134 20.0136Z" fill="white"/>
<path d="M11.0201 20.0136C11.0901 20.0136 11.1468 19.9569 11.1468 19.8869C11.1468 19.817 11.0901 19.7603 11.0201 19.7603C10.9501 19.7603 10.8934 19.817 10.8934 19.8869C10.8934 19.9569 10.9501 20.0136 11.0201 20.0136Z" fill="white"/>
<path d="M10.5134 19.3803C10.5833 19.3803 10.6401 19.3236 10.6401 19.2536C10.6401 19.1837 10.5833 19.127 10.5134 19.127C10.4434 19.127 10.3867 19.1837 10.3867 19.2536C10.3867 19.3236 10.4434 19.3803 10.5134 19.3803Z" fill="white"/>
<path d="M11.0201 19.3803C11.0901 19.3803 11.1468 19.3236 11.1468 19.2536C11.1468 19.1837 11.0901 19.127 11.0201 19.127C10.9501 19.127 10.8934 19.1837 10.8934 19.2536C10.8934 19.3236 10.9501 19.3803 11.0201 19.3803Z" fill="white"/>
<path d="M8.23348 19.6967C8.30343 19.6967 8.36014 19.64 8.36014 19.57C8.36014 19.5001 8.30343 19.4434 8.23348 19.4434C8.16352 19.4434 8.10681 19.5001 8.10681 19.57C8.10681 19.64 8.16352 19.6967 8.23348 19.6967Z" fill="white"/>
<path d="M7.98006 20.0136C8.05002 20.0136 8.10673 19.9569 8.10673 19.8869C8.10673 19.817 8.05002 19.7603 7.98006 19.7603C7.9101 19.7603 7.85339 19.817 7.85339 19.8869C7.85339 19.9569 7.9101 20.0136 7.98006 20.0136Z" fill="white"/>
<path d="M8.48665 20.0136C8.55661 20.0136 8.61332 19.9569 8.61332 19.8869C8.61332 19.817 8.55661 19.7603 8.48665 19.7603C8.4167 19.7603 8.35999 19.817 8.35999 19.8869C8.35999 19.9569 8.4167 20.0136 8.48665 20.0136Z" fill="white"/>
<path d="M7.98006 19.3803C8.05002 19.3803 8.10673 19.3236 8.10673 19.2536C8.10673 19.1837 8.05002 19.127 7.98006 19.127C7.9101 19.127 7.85339 19.1837 7.85339 19.2536C7.85339 19.3236 7.9101 19.3803 7.98006 19.3803Z" fill="white"/>
<path d="M8.48665 19.3803C8.55661 19.3803 8.61332 19.3236 8.61332 19.2536C8.61332 19.1837 8.55661 19.127 8.48665 19.127C8.4167 19.127 8.35999 19.1837 8.35999 19.2536C8.35999 19.3236 8.4167 19.3803 8.48665 19.3803Z" fill="white"/>
<path d="M9.50008 21.2802C9.57004 21.2802 9.62675 21.2235 9.62675 21.1535C9.62675 21.0836 9.57004 21.0269 9.50008 21.0269C9.43012 21.0269 9.37341 21.0836 9.37341 21.1535C9.37341 21.2235 9.43012 21.2802 9.50008 21.2802Z" fill="white"/>
<path d="M9.24678 21.5966C9.31674 21.5966 9.37345 21.5399 9.37345 21.4699C9.37345 21.4 9.31674 21.3433 9.24678 21.3433C9.17683 21.3433 9.12012 21.4 9.12012 21.4699C9.12012 21.5399 9.17683 21.5966 9.24678 21.5966Z" fill="white"/>
<path d="M9.75337 21.5966C9.82333 21.5966 9.88004 21.5399 9.88004 21.4699C9.88004 21.4 9.82333 21.3433 9.75337 21.3433C9.68342 21.3433 9.62671 21.4 9.62671 21.4699C9.62671 21.5399 9.68342 21.5966 9.75337 21.5966Z" fill="white"/>
<path d="M9.24678 20.9633C9.31674 20.9633 9.37345 20.9066 9.37345 20.8366C9.37345 20.7667 9.31674 20.71 9.24678 20.71C9.17683 20.71 9.12012 20.7667 9.12012 20.8366C9.12012 20.9066 9.17683 20.9633 9.24678 20.9633Z" fill="white"/>
<path d="M9.75337 20.9633C9.82333 20.9633 9.88004 20.9066 9.88004 20.8366C9.88004 20.7667 9.82333 20.71 9.75337 20.71C9.68342 20.71 9.62671 20.7667 9.62671 20.8366C9.62671 20.9066 9.68342 20.9633 9.75337 20.9633Z" fill="white"/>
<path d="M8.8667 16.4666H10.1334L10.0067 15.8333V15.2H10.1334V14.8833H9.94337V15.0733H9.88003V14.8833H9.69003V15.0733H9.56337V14.8833H9.4367V15.0733H9.31003V14.8833H9.12003V15.0733H8.99337V14.8833H8.8667V15.2H8.99337V15.8333L8.8667 16.4666Z" fill="#FFE62E"/>
<path d="M9.68994 16.4663H9.6266V16.213C9.6266 16.1496 9.56327 16.0863 9.49994 16.0863C9.4366 16.0863 9.37327 16.1496 9.37327 16.213V16.4663H9.30994V16.213C9.30994 16.0863 9.37327 16.0229 9.49994 16.0229C9.6266 16.0229 9.68994 16.0863 9.68994 16.213V16.4663Z" fill="#3E4347"/>
<path d="M9.5 15.7698H9.12V15.4532C9.12 15.3265 9.18333 15.2632 9.31 15.2632C9.43666 15.2632 9.5 15.3265 9.5 15.4532V15.7698ZM9.18333 15.7065H9.43666V15.4532C9.43666 15.3898 9.37333 15.3265 9.31 15.3265C9.24666 15.3265 9.18333 15.3898 9.18333 15.4532V15.7065Z" fill="#3E4347"/>
<path d="M9.88 15.7698H9.5V15.4532C9.5 15.3265 9.56333 15.2632 9.69 15.2632C9.81667 15.2632 9.88 15.3265 9.88 15.4532V15.7698ZM9.56333 15.7065H9.81667V15.4532C9.81667 15.3898 9.75333 15.3265 9.69 15.3265C9.62667 15.3265 9.56333 15.3898 9.56333 15.4532V15.7065Z" fill="#3E4347"/>
<path d="M5.69995 16.4666H6.96662L6.83995 15.8333V15.2H6.96662V14.8833H6.77662V15.0733H6.71328V14.8833H6.52328V15.0733H6.39662V14.8833H6.26995V15.0733H6.14328V14.8833H5.95328V15.0733H5.82662V14.8833H5.69995V15.2H5.82662V15.8333L5.69995 16.4666Z" fill="#FFE62E"/>
<path d="M6.52331 16.4663H6.45998V16.213C6.45998 16.1496 6.39664 16.0863 6.33331 16.0863C6.26998 16.0863 6.20664 16.1496 6.20664 16.213V16.4663H6.14331V16.213C6.14331 16.0863 6.20664 16.0229 6.33331 16.0229C6.45998 16.0229 6.52331 16.0863 6.52331 16.213V16.4663Z" fill="#3E4347"/>
<path d="M6.33337 15.7698H5.95337V15.4532C5.95337 15.3265 6.0167 15.2632 6.14337 15.2632C6.27004 15.2632 6.33337 15.3265 6.33337 15.4532V15.7698ZM6.0167 15.7065H6.27004V15.4532C6.27004 15.3898 6.2067 15.3265 6.14337 15.3265C6.08004 15.3265 6.0167 15.3898 6.0167 15.4532V15.7065Z" fill="#3E4347"/>
<path d="M6.71337 15.7698H6.33337V15.4532C6.33337 15.3265 6.39671 15.2632 6.52337 15.2632C6.65004 15.2632 6.71337 15.3265 6.71337 15.4532V15.7698ZM6.39671 15.7065H6.65004V15.4532C6.65004 15.3898 6.58671 15.3265 6.52337 15.3265C6.46004 15.3265 6.39671 15.3898 6.39671 15.4532V15.7065Z" fill="#3E4347"/>
<path d="M5.69995 20.2035H6.96662L6.83995 19.5701V18.9368H6.96662V18.6201H6.83995V18.8101H6.71328V18.6201H6.58662V18.8101H6.39662V18.6201H6.26995V18.8101H6.14328V18.6201H6.01662V18.8101H5.88995V18.6201H5.69995V18.9368H5.88995V19.5701L5.69995 20.2035Z" fill="#FFE62E"/>
<path d="M6.52331 20.2031H6.45998V19.9498C6.45998 19.8864 6.39664 19.8231 6.33331 19.8231C6.26998 19.8231 6.20664 19.8864 6.20664 19.9498V20.2031H6.14331V19.9498C6.14331 19.8231 6.20664 19.7598 6.33331 19.7598C6.45998 19.7598 6.52331 19.8231 6.52331 19.9498V20.2031Z" fill="#3E4347"/>
<path d="M6.33337 19.5067H5.95337V19.19C5.95337 19.0633 6.0167 19 6.14337 19C6.27004 19 6.33337 19.0633 6.33337 19.19V19.5067ZM6.0167 19.4433H6.27004V19.19C6.27004 19.1267 6.2067 19.0633 6.14337 19.0633C6.08004 19.0633 6.0167 19.1267 6.0167 19.19V19.4433Z" fill="#3E4347"/>
<path d="M6.77673 19.5067H6.39673V19.19C6.39673 19.0633 6.46006 19 6.58673 19C6.71339 19 6.77673 19.0633 6.77673 19.19V19.5067ZM6.46006 19.4433H6.7134V19.19C6.7134 19.1267 6.65006 19.0633 6.58673 19.0633C6.52339 19.0633 6.46006 19.1267 6.46006 19.19V19.4433Z" fill="#3E4347"/>
<path d="M12.0333 20.2666H13.3L13.1733 19.6332V18.9999H13.3V18.7466H13.11V18.8732H13.0467V18.7466H12.8567V18.8732H12.73V18.7466H12.6033V18.8732H12.4767V18.7466H12.2867V18.8732H12.16V18.7466H12.0333V18.9999H12.16V19.6332L12.0333 20.2666Z" fill="#FFE62E"/>
<path d="M12.8567 20.2666H12.7934V20.0132C12.7934 19.9499 12.73 19.8866 12.6667 19.8866C12.6034 19.8866 12.54 19.9499 12.54 20.0132V20.2666H12.4767V20.0132C12.4767 19.8866 12.54 19.8232 12.6667 19.8232C12.7934 19.8232 12.8567 19.8866 12.8567 20.0132V20.2666Z" fill="#3E4347"/>
<path d="M12.6667 19.5701H12.2867V19.2535C12.2867 19.1268 12.3501 19.0635 12.4767 19.0635C12.6034 19.0635 12.6667 19.1268 12.6667 19.2535V19.5701ZM12.3501 19.5068H12.6034V19.2535C12.6034 19.1901 12.5401 19.1268 12.4767 19.1268C12.4134 19.1268 12.3501 19.1901 12.3501 19.2535V19.5068Z" fill="#3E4347"/>
<path d="M13.0467 19.5701H12.6667V19.2535C12.6667 19.1268 12.7301 19.0635 12.8567 19.0635C12.9834 19.0635 13.0467 19.1268 13.0467 19.2535V19.5701ZM12.7301 19.5068H12.9834V19.2535C12.9834 19.1901 12.9201 19.1268 12.8567 19.1268C12.7934 19.1268 12.7301 19.1901 12.7301 19.2535V19.5068Z" fill="#3E4347"/>
<path d="M12.0333 16.4666H13.3L13.1733 15.8333V15.2H13.3V14.8833H13.11V15.0733H13.0467V14.8833H12.8567V15.0733H12.73V14.8833H12.6033V15.0733H12.4767V14.8833H12.2867V15.0733H12.16V14.8833H12.0333V15.2H12.16V15.8333L12.0333 16.4666Z" fill="#FFE62E"/>
<path d="M12.8567 16.4663H12.7934V16.213C12.7934 16.1496 12.73 16.0863 12.6667 16.0863C12.6034 16.0863 12.54 16.1496 12.54 16.213V16.4663H12.4767V16.213C12.4767 16.0863 12.54 16.0229 12.6667 16.0229C12.7934 16.0229 12.8567 16.0863 12.8567 16.213V16.4663Z" fill="#3E4347"/>
<path d="M12.6667 15.7698H12.2867V15.4532C12.2867 15.3265 12.3501 15.2632 12.4767 15.2632C12.6034 15.2632 12.6667 15.3265 12.6667 15.4532V15.7698ZM12.3501 15.7065H12.6034V15.4532C12.6034 15.3898 12.5401 15.3265 12.4767 15.3265C12.4134 15.3265 12.3501 15.3898 12.3501 15.4532V15.7065Z" fill="#3E4347"/>
<path d="M13.0467 15.7698H12.6667V15.4532C12.6667 15.3265 12.7301 15.2632 12.8567 15.2632C12.9834 15.2632 13.0467 15.3265 13.0467 15.4532V15.7698ZM12.7301 15.7065H12.9834V15.4532C12.9834 15.3898 12.9201 15.3265 12.8567 15.3265C12.7934 15.3265 12.7301 15.3898 12.7301 15.4532V15.7065Z" fill="#3E4347"/>
<path d="M7.72669 23.8133L8.61336 22.8633L8.04336 22.5466L7.60002 22.1033L7.72669 21.9766L7.53669 21.7866L7.41002 21.9133L7.53669 22.04L7.47336 22.1033L7.34669 21.9766L7.22002 22.1033L7.34669 22.1666L7.22002 22.2933L7.15669 22.1666L7.03002 22.2933L7.15669 22.42L7.03002 22.4833L6.96669 22.3566L6.84002 22.4833L6.90336 22.61L6.84002 22.6733L6.77669 22.5466L6.65002 22.6733L6.84002 22.8633H6.90336L6.96669 22.8L7.41002 23.2433L7.72669 23.8133Z" fill="#FFE62E"/>
<path d="M8.29672 23.18L8.04339 23.0534C7.98005 22.99 7.91672 22.99 7.85339 23.0534C7.79005 23.1167 7.79005 23.18 7.85339 23.2434L8.04339 23.4334L7.98005 23.4967L7.79005 23.3067C7.72672 23.2434 7.72672 23.1167 7.79005 23.0534C7.85339 22.99 7.98005 22.99 8.04339 23.0534L8.29672 23.18Z" fill="#3E4347"/>
<path d="M7.66332 22.8635L7.40999 23.1168L7.21999 22.9268C7.15665 22.8635 7.15665 22.7368 7.21999 22.6735C7.28332 22.6101 7.40999 22.6101 7.47332 22.6735L7.66332 22.8635ZM7.40999 23.0535L7.59999 22.8635L7.40999 22.6735C7.34665 22.6101 7.28332 22.6101 7.21999 22.6735C7.15665 22.7368 7.15665 22.8001 7.21999 22.8635L7.40999 23.0535Z" fill="#3E4347"/>
<path d="M7.97997 22.5466L7.72664 22.7999L7.53664 22.6099C7.4733 22.5466 7.4733 22.4199 7.53664 22.3566C7.59997 22.2932 7.72664 22.2932 7.78997 22.3566L7.97997 22.5466ZM7.72664 22.7366L7.91664 22.5466L7.72664 22.3566C7.6633 22.2932 7.59997 22.2932 7.53664 22.3566C7.4733 22.4199 7.4733 22.4832 7.53664 22.5466L7.72664 22.7366Z" fill="#3E4347"/>
<path d="M11.2734 23.8133L10.3867 22.8633L10.8934 22.5466L11.3367 22.1033L11.2734 21.9766L11.4634 21.7866L11.5901 21.9133L11.4634 22.04L11.5267 22.1033L11.6534 21.9766L11.7801 22.1033L11.6534 22.1666L11.7801 22.2933L11.8434 22.1666L11.9701 22.2933L11.8434 22.42L11.9701 22.4833L12.0334 22.3566L12.1601 22.4833L12.0334 22.61L12.1601 22.6733L12.2234 22.5466L12.3501 22.6733L12.1601 22.8633H12.0967L12.0334 22.8L11.5901 23.2433L11.2734 23.8133Z" fill="#FFE62E"/>
<path d="M10.7034 23.18L10.9567 23.0534C11.02 22.99 11.0834 22.99 11.1467 23.0534C11.21 23.1167 11.21 23.18 11.1467 23.2434L10.8934 23.4334L10.9567 23.4967L11.1467 23.3067C11.21 23.2434 11.21 23.1167 11.1467 23.0534C11.0834 22.99 10.9567 22.99 10.8934 23.0534L10.7034 23.18Z" fill="#3E4347"/>
<path d="M11.5267 22.6735C11.59 22.6101 11.7167 22.6101 11.78 22.6735C11.8433 22.7368 11.8433 22.8635 11.78 22.9268L11.59 23.1168L11.3367 22.8635L11.5267 22.6735ZM11.7167 22.8635C11.78 22.8001 11.78 22.7368 11.7167 22.6735C11.6533 22.6101 11.59 22.6101 11.5267 22.6735L11.4 22.8635L11.59 23.0535L11.7167 22.8635Z" fill="#3E4347"/>
<path d="M11.21 22.3566C11.2734 22.2932 11.4 22.2932 11.4634 22.3566C11.5267 22.4199 11.5267 22.5466 11.4634 22.6099L11.2734 22.7999L11.02 22.5466L11.21 22.3566ZM11.4634 22.5466C11.5267 22.4832 11.5267 22.4199 11.4634 22.3566C11.4 22.2932 11.3367 22.2932 11.2734 22.3566L11.0834 22.5466L11.2734 22.7366L11.4634 22.5466Z" fill="#3E4347"/>
<rect x="0.5" y="0.5" width="37" height="37" rx="18.5" stroke="#DFDFDF"/>
</svg>
