<svg width="38" height="38" viewBox="0 0 38 38" fill="none" xmlns="http://www.w3.org/2000/svg">
<path d="M0 19C0 27.2967 5.32 34.3267 12.6667 36.9233V1.07666C5.32 3.67333 0 10.7033 0 19Z" fill="#2A5F9E"/>
<path d="M38 19C38 10.7033 32.7434 3.67333 25.3334 1.07666V36.9233C32.7434 34.3267 38 27.2967 38 19Z" fill="#FF0100"/>
<path d="M12.6666 36.9233C14.63 37.62 16.7833 38 19 38C21.2166 38 23.37 37.62 25.3333 36.9233V1.07667C23.37 0.38 21.2166 0 19 0C16.7833 0 14.63 0.38 12.6666 1.07667V36.9233Z" fill="#FFCE31"/>
<rect x="0.5" y="0.5" width="37" height="37" rx="18.5" stroke="#DFDFDF"/>
</svg>
