<svg width="38" height="38" viewBox="0 0 38 38" fill="none" xmlns="http://www.w3.org/2000/svg">
<path d="M18.9999 1.1875C11.2218 1.1875 4.63115 6.175 2.19678 13.0625H35.803C33.3687 6.175 26.778 1.1875 18.9999 1.1875Z" fill="#ED4C5C"/>
<path d="M18.9999 36.8125C26.778 36.8125 33.3687 31.8844 35.803 24.9375H2.19678C4.63115 31.8844 11.2218 36.8125 18.9999 36.8125Z" fill="#F9F9F9"/>
<path d="M2.19687 13.0625C1.54375 14.9031 1.1875 16.9219 1.1875 19C1.1875 21.0781 1.54375 23.0969 2.19687 24.9375H35.8031C36.4562 23.0969 36.8125 21.0781 36.8125 19C36.8125 16.9219 36.4562 14.9031 35.8031 13.0625H2.19687Z" fill="#2872A0"/>
<path d="M9.20312 12.8843V22.503C9.20312 25.828 11.9937 28.4999 15.4375 28.4999C18.8813 28.4999 21.6719 25.828 21.6719 22.503V12.8843H9.20312Z" fill="#ED4C5C"/>
<path d="M17.6936 27.4906L17.5749 26.9563L17.0999 26.125L17.278 26.0062L17.1592 25.4719L16.7436 24.8187L16.8624 24.7594L16.7436 24.225L16.4467 23.6312L16.9217 22.7406L17.2186 23.6906L17.4561 23.3344L17.8124 23.8688L17.9311 23.5125L18.2874 23.6906L18.228 22.9781L19.0592 23.2156L18.4655 22.4437H18.5249L18.0499 21.4938L18.1686 21.1375L18.4655 21.7312L18.5842 21.4938L19.0592 22.8V22.7406L19.2967 23.2156L19.4155 22.9781L19.8905 23.9281L20.0686 23.3938L20.7811 23.9281C20.7811 23.9281 20.7217 22.1469 20.7217 21.6125C20.8405 20.0688 21.3749 16.9219 20.9592 15.4969C20.7811 14.7844 19.3561 13.0625 19.3561 13.0625C19.3561 13.0625 19.2967 15.1406 18.9405 15.7938C18.8217 16.0313 17.753 16.6844 17.753 16.6844L17.3374 16.625L17.5155 16.5656L16.7436 15.7938L17.0405 14.25L17.8124 13.1219L16.6249 13.1813L15.7342 13.4188L15.9717 13.775L15.4374 15.675L14.903 13.8344L15.1405 13.4781L14.2499 13.1813L13.0624 13.1219L13.8342 14.25L14.1311 15.7938L13.3592 16.5656L13.5374 16.625L13.0624 16.7438C13.0624 16.7438 11.9936 16.0906 11.8749 15.8531C11.5186 15.2594 11.4592 13.1219 11.4592 13.1219C11.4592 13.1219 10.0342 14.8438 9.85612 15.5563C9.4405 17.0406 10.0342 20.1875 10.0936 21.6719C10.153 22.2656 10.0342 23.9875 10.0342 23.9875L10.7467 23.4531L10.9249 23.9875L11.3999 23.0375L11.5186 23.275L11.7561 22.8V22.8594L12.2311 21.5531L12.3499 21.7906L12.6467 21.1969L12.7655 21.5531L12.2905 22.5031H12.3499L11.7561 23.275L12.5874 23.0375V23.75L12.9436 23.5719L13.0624 23.9281L13.4186 23.3938L13.6561 23.75L13.953 22.8L14.428 23.6906L14.1311 24.2844L14.0124 24.8187L14.1311 24.8781L13.7155 25.5312L13.5967 26.0656L13.7749 26.1844L13.3592 27.075L13.2405 27.6094L17.6936 27.4906Z" fill="white"/>
<path d="M11.875 24.7593L11.9938 24.5218L12.5281 24.2843L12.8844 24.1656H13.1219L13.1813 24.1062L12.825 23.9281L12.7656 23.8687L12.4688 23.9875L12.2313 24.1656L12.7062 23.5718L13.1219 22.6218L12.4688 23.0375L11.875 24.1062L11.6375 24.225H11.0438L10.7469 24.1656L10.3906 24.3437L10.45 24.4031H10.6875L10.925 24.5218L11.4594 24.4625L10.8656 24.6406L10.7469 24.8781V25.2343H10.8063L10.8656 25.0562H11.1625L11.6969 24.5812L11.2812 25.2343L11.2219 25.5312L11.4 25.9468L11.5187 25.8875V25.5906L11.7562 25.3531L11.875 24.7593Z" fill="#FFCE31"/>
<path d="M18.9407 24.7593L18.8813 24.5218L18.347 24.2843L17.9907 24.1656H17.7532L17.6938 24.1062L18.0501 23.9281L18.1095 23.8687L18.4063 23.9875L18.6438 24.1656L18.1688 23.5718L17.7532 22.6218L18.4063 23.0375L19.0001 24.1062L19.2376 24.225H19.8313L20.1282 24.1656L20.4845 24.3437L20.4251 24.4031H20.1876L19.9501 24.5218L19.4157 24.4625L20.0095 24.6406L20.1282 24.8781V25.2343H20.0688L20.0095 25.0562H19.7126L19.1782 24.5812L19.5938 25.2343L19.6532 25.5312L19.4751 25.9468L19.3563 25.8875V25.5906L19.1188 25.3531L18.9407 24.7593Z" fill="#FFCE31"/>
<path d="M12.7061 13.1812C12.1123 13.2406 12.1717 13.6562 12.7061 14.1906C12.8248 14.3093 12.8248 14.3093 12.8842 14.1906C12.9436 14.0125 13.1217 13.8937 13.2404 14.0125C13.2998 14.1312 13.2998 14.1906 13.5373 14.1312C13.5967 14.1906 13.7154 14.25 13.7748 14.3093C13.7154 14.3093 13.4779 14.3687 13.1217 14.4281C12.8248 14.4875 12.6467 14.3687 12.4092 14.1312C12.4686 14.4281 13.1811 14.6062 13.1217 14.6062C13.1811 14.725 13.1811 14.7843 13.2404 14.7843C13.4779 14.8437 13.7154 14.6656 13.9529 14.725C14.4873 14.8437 13.5967 13.3593 13.6561 13.3C13.7154 13.1812 12.8842 12.9437 12.7061 13.1812Z" fill="#FFCE31"/>
<path d="M17.575 14.8437C17.6343 14.8437 17.6343 14.8437 17.6937 14.6656C17.6343 14.6656 18.3468 14.4874 18.4062 14.1906C18.2281 14.4281 17.9906 14.5468 17.6937 14.4874C17.3375 14.4281 17.1 14.3093 17.0406 14.3687C17.1 14.3093 17.1593 14.2499 17.2781 14.1906C17.5156 14.2499 17.5156 14.1906 17.575 14.0718C17.6937 13.9531 17.8718 14.0124 17.9312 14.2499C17.9312 14.3687 17.9906 14.3687 18.1093 14.2499C18.6437 13.7156 18.7031 13.2999 18.1093 13.2406C17.9906 13.0031 17.1593 13.2406 17.2187 13.4187C17.2187 13.4781 16.3875 14.9624 16.9218 14.8437C17.1 14.7249 17.3375 14.8437 17.575 14.8437Z" fill="#FFCE31"/>
<path d="M12.8252 16.9812V21.3156C12.8252 22.6218 14.0127 23.6906 15.4377 23.6906C16.8627 23.6906 18.0502 22.6218 18.0502 21.3156V16.9812H12.8252Z" fill="#ED4C5C"/>
<path d="M14.7251 16.2095H16.2095V25.1157H14.7251V16.2095Z" fill="white"/>
<path d="M11.3408 19.1782H19.5346V20.6626H11.3408V19.1782Z" fill="white"/>
<path d="M14.25 18.05L13.6562 18.6437L13.8344 18.05L13.6562 17.5156L14.25 18.05Z" fill="white"/>
<path d="M14.25 21.7908L13.6562 22.3845L13.8344 21.7908L13.6562 21.197L14.25 21.7908Z" fill="white"/>
<path d="M16.625 18.05L17.2188 18.6437L17.1 18.05L17.2188 17.5156L16.625 18.05Z" fill="white"/>
<path d="M16.625 21.7908L17.2188 22.3845L17.1 21.7908L17.2188 21.197L16.625 21.7908Z" fill="white"/>
<path d="M16.0312 6.94678H14.8438V8.13428H16.0312V6.94678Z" fill="#428BC1"/>
<path d="M14.9029 6.175L15.0217 6.23438L15.1404 6.175H15.3186V6.8875H14.8436V7.125H16.0311V6.8875H15.5561V6.175H15.7342L15.8529 6.23438L15.9717 6.175L16.0904 6.05625L15.9717 5.9375L15.8529 5.81875L15.7342 5.9375H15.5561V5.7L15.6748 5.58125L15.5561 5.4625L15.4373 5.34375L15.3186 5.4625L15.1998 5.58125L15.3186 5.7V5.9375H15.1404L15.0217 5.81875L14.9029 5.9375L14.7842 6.05625L14.9029 6.175Z" fill="#FFCE31"/>
<path d="M19.2968 8.54997C18.5249 8.13434 18.0499 8.01559 17.8718 8.31247C17.8718 8.31247 17.8718 8.37184 17.8124 8.37184C16.8624 7.89684 16.1499 7.83747 15.4374 8.13434C14.7249 7.83747 14.0718 7.89684 13.0624 8.37184C13.0624 8.31247 13.0624 8.31247 13.003 8.31247C12.8249 8.01559 12.3499 8.07497 11.578 8.54997C10.8061 8.96559 10.0936 9.55934 10.2718 9.79684C10.3311 10.2125 10.5686 10.5687 10.9843 10.9843C11.4593 11.2218 12.4093 11.2812 13.4186 11.2218C14.7249 11.1625 16.0905 11.1625 17.3968 11.2218C18.4061 11.2812 19.3561 11.2218 19.8311 10.9843C20.2468 10.5687 20.4843 10.2125 20.5436 9.79684C20.7811 9.61872 20.0093 9.02497 19.2968 8.54997Z" fill="#FFCE31"/>
<path d="M16.2685 10.2124C16.7435 9.79678 17.0403 9.38115 17.2778 8.96553C16.8622 8.84678 16.4466 8.7874 16.0903 8.84678C16.1497 9.32178 16.2091 9.79678 16.2685 10.2124Z" fill="#ED4C5C"/>
<path d="M14.6063 10.2125C14.6656 9.73745 14.725 9.26245 14.8438 8.78745C14.4875 8.72808 14.0719 8.78745 13.6562 8.9062C13.775 9.3812 14.1313 9.79683 14.6063 10.2125Z" fill="#ED4C5C"/>
<path d="M19.356 9.38115C19.2966 9.32178 19.1778 9.20303 18.9997 9.14365C18.8216 9.08428 18.6435 9.0249 18.5247 9.0249C18.4653 9.4999 18.2872 9.9749 17.8716 10.4499C18.0497 10.4499 18.2278 10.3905 18.3466 10.3312C18.8216 10.0937 19.1185 9.79678 19.356 9.55928C19.4153 9.4999 19.4153 9.44053 19.356 9.38115Z" fill="#ED4C5C"/>
<path d="M12.3499 8.96558C12.2311 8.96558 12.053 9.02495 11.8749 9.08433C11.578 9.20308 11.3999 9.44058 11.5186 9.49995C11.7561 9.73745 12.053 9.97495 12.528 10.2718C12.6468 10.3312 12.8249 10.3312 13.003 10.3906C12.5874 9.91558 12.4093 9.49995 12.3499 8.96558Z" fill="#ED4C5C"/>
<path d="M11.0439 10.9844H19.8314V12.1719H11.0439V10.9844Z" fill="#FFCE31"/>
<path d="M11.0437 11.2219L10.8062 11.6375L11.103 11.9344L11.5187 11.5188L11.0437 11.2219Z" fill="#428BC1"/>
<path d="M19.831 11.2219L19.356 11.5188L19.7716 11.9344L20.0685 11.6375L19.831 11.2219Z" fill="#428BC1"/>
<path d="M15.4374 10.925L14.9624 11.3407L15.4374 11.6969L15.9124 11.3407L15.4374 10.925Z" fill="#428BC1"/>
<path d="M13.2406 11.7562L13.6562 11.3406L13.1813 11.0437L12.7656 11.4L13.2406 11.7562Z" fill="#ED4C5C"/>
<path d="M17.6344 11.7562L18.1094 11.4L17.6937 11.0437L17.2188 11.3406L17.6344 11.7562Z" fill="#ED4C5C"/>
</svg>
