<svg width="38" height="38" viewBox="0 0 38 38" fill="none" xmlns="http://www.w3.org/2000/svg">
<path d="M19 38C29.4934 38 38 29.4934 38 19C38 8.50659 29.4934 0 19 0C8.50659 0 0 8.50659 0 19C0 29.4934 8.50659 38 19 38Z" fill="#FF0100"/>
<path d="M24.89 23.4336L24.9533 20.0136L21.5333 19.0002L24.9533 17.9869L24.89 14.5669L26.98 17.2902L30.4 16.2769L28.31 19.0002L30.4 21.7236L26.98 20.7102L24.89 23.4336Z" fill="white"/>
<path d="M19.76 26.6C15.58 26.6 12.2233 23.18 12.2233 19C12.2233 14.82 15.58 11.4 19.76 11.4C21.3433 11.4 22.8 11.9067 24.0666 12.73C22.3566 10.7667 19.8233 9.5 16.9733 9.5C11.78 9.5 7.59998 13.7433 7.59998 19C7.59998 24.2567 11.78 28.5 16.9733 28.5C19.8233 28.5 22.3566 27.2333 24.0666 25.27C22.8633 26.0933 21.4066 26.6 19.76 26.6Z" fill="white"/>
<rect x="0.5" y="0.5" width="37" height="37" rx="18.5" stroke="#DFDFDF"/>
</svg>
