<svg width="24" height="24" viewBox="0 0 24 24" fill="none" xmlns="http://www.w3.org/2000/svg">
<path d="M5.81306 18.8543L5.79295 18.8672L16.5254 8.13479L16.5303 12.5869C16.5302 12.8046 16.6178 13.0117 16.7725 13.1664C16.9272 13.3211 17.1333 13.4077 17.3512 13.4079L18.0434 13.4081C18.261 13.4081 18.4661 13.3232 18.6207 13.1686C18.7754 13.0139 18.8608 12.8091 18.8608 12.5915L18.8611 4.9685C18.8611 4.75004 18.7753 4.54482 18.6201 4.39047C18.4649 4.2344 18.2596 4.14855 18.0413 4.14872L10.418 4.14873C10.2004 4.14881 9.99565 4.23398 9.84087 4.38876C9.68626 4.54336 9.60118 4.74825 9.60101 4.96567L9.60118 5.65783C9.60092 5.87535 9.68626 6.08014 9.84095 6.23483C9.99556 6.38944 10.1927 6.46713 10.4103 6.46696L14.9 6.45922L4.15106 17.2081C3.83249 17.5267 3.83936 18.069 4.15777 18.3874L4.64737 18.877C4.96577 19.1954 5.49448 19.1729 5.81306 18.8543Z" fill="black"/>
</svg>
