<svg width="14" height="14" viewBox="0 0 14 14" fill="none" xmlns="http://www.w3.org/2000/svg">
<path d="M12.4985 6.47218L2.58184 1.80551C2.48198 1.75853 2.37084 1.74083 2.26133 1.75448C2.15182 1.76813 2.04842 1.81256 1.96315 1.88262C1.87789 1.95268 1.81424 2.04549 1.77961 2.15028C1.74498 2.25506 1.74078 2.36752 1.7675 2.4746L2.4745 5.30318L7 7.0001L2.4745 8.69701L1.7675 11.5256C1.74028 11.6328 1.74412 11.7454 1.77859 11.8505C1.81307 11.9555 1.87674 12.0486 1.96216 12.1188C2.04758 12.189 2.15123 12.2334 2.26096 12.2468C2.3707 12.2603 2.482 12.2422 2.58184 12.1947L12.4985 7.52801C12.5987 7.48091 12.6835 7.40625 12.7428 7.31276C12.8022 7.21928 12.8337 7.11083 12.8337 7.0001C12.8337 6.88936 12.8022 6.78092 12.7428 6.68743C12.6835 6.59395 12.5987 6.51929 12.4985 6.47218Z" fill="#54595F"/>
</svg>
