<svg width="9" height="14" viewBox="0 0 9 14" fill="none" xmlns="http://www.w3.org/2000/svg">
<path fill-rule="evenodd" clip-rule="evenodd" d="M8.82102 9.5621L4.9321 13.8047C4.69346 14.0651 4.30654 14.0651 4.0679 13.8047L0.178983 9.5621C-0.0596604 9.30175 -0.0596603 8.87964 0.178983 8.61929C0.417626 8.35894 0.804543 8.35894 1.04319 8.61929L3.88892 11.7239L3.88892 0.666666C3.88892 0.298477 4.16251 -2.11453e-07 4.5 -1.96701e-07C4.83749 -1.81949e-07 5.11108 0.298477 5.11108 0.666667L5.11108 11.7239L7.95681 8.61929C8.19546 8.35894 8.58237 8.35894 8.82102 8.61929C9.05966 8.87964 9.05966 9.30175 8.82102 9.5621Z" fill="#F2994A"/>
</svg>
