<svg width="150" height="150" viewBox="0 0 150 150" fill="none" xmlns="http://www.w3.org/2000/svg">
<rect width="150" height="150" fill="#EAEAEA"/>
<g clip-path="url(#clip0)">
<path d="M74.2874 76.1703C80.9052 76.1703 86.6356 73.7968 91.3177 69.1139C95.9999 64.4317 98.3734 58.7029 98.3734 52.0844C98.3734 45.4682 95.9999 39.7385 91.317 35.0549C86.6341 30.3735 80.9044 28 74.2874 28C67.6689 28 61.94 30.3735 57.2578 35.0556C52.5757 39.7378 50.2014 45.4674 50.2014 52.0844C50.2014 58.7029 52.5757 64.4325 57.2586 69.1146C61.9415 73.796 67.6712 76.1703 74.2874 76.1703V76.1703Z" fill="#8E8E8E"/>
<path d="M116.431 104.895C116.296 102.946 116.023 100.821 115.621 98.5762C115.215 96.3149 114.693 94.1771 114.067 92.2232C113.421 90.2037 112.542 88.2094 111.456 86.2983C110.328 84.3146 109.003 82.5873 107.517 81.166C105.963 79.679 104.06 78.4835 101.86 77.6115C99.6674 76.744 97.2374 76.3046 94.6381 76.3046C93.6172 76.3046 92.63 76.7234 90.7234 77.9647C89.55 78.7299 88.1775 79.6149 86.6455 80.5938C85.3355 81.4284 83.5609 82.2105 81.369 82.9185C79.2305 83.6104 77.0592 83.9614 74.9161 83.9614C72.773 83.9614 70.6024 83.6104 68.4616 82.9185C66.272 82.2112 64.4974 81.4292 63.1889 80.5946C61.6714 79.6249 60.2982 78.7399 59.1072 77.964C57.2029 76.7227 56.2149 76.3038 55.1941 76.3038C52.594 76.3038 50.1648 76.744 47.9729 77.6122C45.7741 78.4827 43.8705 79.6783 42.3149 81.1668C40.8295 82.5889 39.5042 84.3154 38.3781 86.2983C37.2925 88.2094 36.4136 90.203 35.7666 92.224C35.1418 94.1779 34.6191 96.3149 34.2133 98.5762C33.8112 100.818 33.5381 102.944 33.403 104.897C33.2703 106.811 33.2031 108.797 33.2031 110.802C33.2031 116.022 34.8625 120.248 38.1348 123.365C41.3666 126.44 45.6429 128 50.843 128H98.9937C104.194 128 108.469 126.441 111.701 123.365C114.974 120.25 116.634 116.024 116.634 110.801C116.633 108.787 116.565 106.799 116.431 104.895V104.895Z" fill="#8E8E8E"/>
</g>
<defs>
<clipPath id="clip0">
<rect width="100" height="100" fill="white" transform="translate(25 28)"/>
</clipPath>
</defs>
</svg>
