<svg width="22" height="21" viewBox="0 0 22 21" fill="none" xmlns="http://www.w3.org/2000/svg">
<path fill-rule="evenodd" clip-rule="evenodd" d="M6.44721 0.894427L6 0L5.55279 0.894427L5.04253 1.91494C4.84793 2.30413 4.78605 2.77604 4.91241 3.1833C4.97718 3.39208 5.09692 3.5985 5.2904 3.75369C5.48811 3.91227 5.73293 3.99303 6 3.99303C6.26707 3.99303 6.51189 3.91227 6.7096 3.75369C6.90308 3.5985 7.02282 3.39208 7.08759 3.1833C7.21395 2.77604 7.15207 2.30413 6.95747 1.91494L6.44721 0.894427ZM5.93696 2.36215L6 2.23607L6.06304 2.36215C6.16091 2.55789 6.1709 2.76324 6.1325 2.88698C6.1149 2.94371 6.09312 2.96623 6.08391 2.97362L6.08386 2.97366C6.0788 2.97772 6.05971 2.99303 6 2.99303C5.94029 2.99303 5.9212 2.97772 5.91614 2.97366L5.91609 2.97362C5.90688 2.96623 5.8851 2.94371 5.8675 2.88698C5.8291 2.76324 5.83909 2.55789 5.93696 2.36215ZM12 8.11803V5.11803H10V8.11803H7V5.11803H5V8.11803C2.23858 8.11803 0 10.3566 0 13.118V18.118C0 19.2226 0.89543 20.118 2 20.118H20C21.1046 20.118 22 19.2226 22 18.118V13.118C22 10.3566 19.7614 8.11803 17 8.11803V5.11803H15V8.11803H12ZM17 10.118C18.6569 10.118 20 11.4612 20 13.118H2C2 11.4612 3.34315 10.118 5 10.118H17ZM20 15.118V18.118H2L2 15.118H20ZM11 0L11.4472 0.894427L11.9575 1.91494C12.1521 2.30413 12.2139 2.77604 12.0876 3.1833C12.0228 3.39208 11.9031 3.5985 11.7096 3.75369C11.5119 3.91227 11.2671 3.99303 11 3.99303C10.7329 3.99303 10.4881 3.91227 10.2904 3.75369C10.0969 3.5985 9.97718 3.39208 9.91241 3.1833C9.78605 2.77604 9.84793 2.30413 10.0425 1.91494L10.5528 0.894427L11 0ZM11 2.23607L10.937 2.36215C10.8391 2.55789 10.8291 2.76324 10.8675 2.88698C10.8851 2.94371 10.9069 2.96623 10.9161 2.97362L10.9161 2.97366C10.9212 2.97772 10.9403 2.99303 11 2.99303C11.0597 2.99303 11.0788 2.97772 11.0839 2.97366L11.0839 2.97362C11.0931 2.96623 11.1149 2.94371 11.1325 2.88698C11.1709 2.76324 11.1609 2.55789 11.063 2.36215L11 2.23607ZM16.4472 0.894427L16 0L15.5528 0.894427L15.0425 1.91494C14.8479 2.30413 14.786 2.77604 14.9124 3.1833C14.9772 3.39208 15.0969 3.5985 15.2904 3.75369C15.4881 3.91227 15.7329 3.99303 16 3.99303C16.2671 3.99303 16.5119 3.91227 16.7096 3.75369C16.9031 3.5985 17.0228 3.39208 17.0876 3.1833C17.2139 2.77604 17.1521 2.30413 16.9575 1.91494L16.4472 0.894427ZM15.937 2.36215L16 2.23607L16.063 2.36215C16.1609 2.55789 16.1709 2.76324 16.1325 2.88698C16.1149 2.94371 16.0931 2.96623 16.0839 2.97362L16.0839 2.97366C16.0788 2.97772 16.0597 2.99303 16 2.99303C15.9403 2.99303 15.9212 2.97772 15.9161 2.97366L15.9161 2.97362C15.9069 2.96623 15.8851 2.94371 15.8675 2.88698C15.8291 2.76324 15.8391 2.55789 15.937 2.36215Z" fill="url(#paint0_linear)"/>
<defs>
<linearGradient id="paint0_linear" x1="0.171111" y1="2.88133e-06" x2="23.2046" y2="1.48942" gradientUnits="userSpaceOnUse">
<stop stop-color="#FEE802"/>
<stop offset="1" stop-color="#FED602"/>
</linearGradient>
</defs>
</svg>
