<svg width="20" height="16" viewBox="0 0 20 16" fill="none" xmlns="http://www.w3.org/2000/svg">
<path d="M0 1C0 0.447715 0.471279 0 1.05263 0H18.9474C19.5287 0 20 0.447715 20 1C20 1.55228 19.5287 2 18.9474 2H1.05263C0.471279 2 0 1.55228 0 1Z" fill="black"/>
<path d="M0 8C0 7.44772 0.471279 7 1.05263 7H18.9474C19.5287 7 20 7.44772 20 8C20 8.55229 19.5287 9 18.9474 9H1.05263C0.471279 9 0 8.55229 0 8Z" fill="black"/>
<path d="M1.05263 14C0.471279 14 0 14.4477 0 15C0 15.5523 0.471279 16 1.05263 16H18.9474C19.5287 16 20 15.5523 20 15C20 14.4477 19.5287 14 18.9474 14H1.05263Z" fill="black"/>
</svg>
