<svg width="20" height="21" viewBox="0 0 20 21" fill="none" xmlns="http://www.w3.org/2000/svg">
<path d="M5.83337 9.66675H7.50004V11.3334H5.83337V9.66675ZM5.83337 13.0001H7.50004V14.6667H5.83337V13.0001ZM9.16671 9.66675H10.8334V11.3334H9.16671V9.66675ZM9.16671 13.0001H10.8334V14.6667H9.16671V13.0001ZM12.5 9.66675H14.1667V11.3334H12.5V9.66675ZM12.5 13.0001H14.1667V14.6667H12.5V13.0001Z" fill="black"/>
<path d="M4.16667 18.8334H15.8333C16.7525 18.8334 17.5 18.0859 17.5 17.1667V5.50008C17.5 4.58091 16.7525 3.83341 15.8333 3.83341H14.1667V2.16675H12.5V3.83341H7.5V2.16675H5.83333V3.83341H4.16667C3.2475 3.83341 2.5 4.58091 2.5 5.50008V17.1667C2.5 18.0859 3.2475 18.8334 4.16667 18.8334ZM15.8333 7.16675L15.8342 17.1667H4.16667V7.16675H15.8333Z" fill="black"/>
</svg>
