<svg width="17" height="15" viewBox="0 0 17 15" fill="none" xmlns="http://www.w3.org/2000/svg">
<path d="M8.5 5.83333C7.1179 5.83333 5.95 6.97833 5.95 8.33333C5.95 9.68833 7.1179 10.8333 8.5 10.8333C9.8821 10.8333 11.05 9.68833 11.05 8.33333C11.05 6.97833 9.8821 5.83333 8.5 5.83333Z" fill="white"/>
<path d="M15.3 2.5H13.1019L10.801 0.244167C10.7222 0.166632 10.6285 0.105142 10.5254 0.0632378C10.4222 0.0213334 10.3116 -0.000157874 10.2 8.73062e-07H6.8C6.68836 -0.000157874 6.57779 0.0213334 6.47465 0.0632378C6.37151 0.105142 6.27785 0.166632 6.19905 0.244167L3.8981 2.5H1.7C0.76245 2.5 0 3.2475 0 4.16667V13.3333C0 14.2525 0.76245 15 1.7 15H15.3C16.2376 15 17 14.2525 17 13.3333V4.16667C17 3.2475 16.2376 2.5 15.3 2.5ZM8.5 12.5C6.1965 12.5 4.25 10.5917 4.25 8.33333C4.25 6.075 6.1965 4.16667 8.5 4.16667C10.8035 4.16667 12.75 6.075 12.75 8.33333C12.75 10.5917 10.8035 12.5 8.5 12.5Z" fill="white"/>
</svg>
