<svg width="18" height="18" viewBox="0 0 18 18" fill="none" xmlns="http://www.w3.org/2000/svg">
<path fill-rule="evenodd" clip-rule="evenodd" d="M9 2.03941C7.15394 2.03941 5.38348 2.77275 4.07812 4.07812C2.77275 5.38348 2.03941 7.15394 2.03941 9C2.03941 9.91408 2.21945 10.8192 2.56925 11.6637C2.91905 12.5082 3.43177 13.2755 4.07812 13.9219C4.72447 14.5682 5.4918 15.0809 6.3363 15.4307C7.18079 15.7806 8.08592 15.9606 9 15.9606C9.91408 15.9606 10.8192 15.7806 11.6637 15.4307C12.5082 15.0809 13.2755 14.5682 13.9219 13.9219C14.5682 13.2755 15.0809 12.5082 15.4307 11.6637C15.7806 10.8192 15.9606 9.91408 15.9606 9C15.9606 7.15394 15.2272 5.38348 13.9219 4.07812C12.6165 2.77275 10.8461 2.03941 9 2.03941ZM2.63604 2.63604C4.32387 0.948212 6.61305 0 9 0C11.3869 0 13.6761 0.948212 15.364 2.63604C17.0518 4.32387 18 6.61305 18 9C18 10.1819 17.7672 11.3522 17.3149 12.4442C16.8626 13.5361 16.1997 14.5282 15.364 15.364C14.5282 16.1997 13.5361 16.8626 12.4442 17.3149C11.3522 17.7672 10.1819 18 9 18C7.8181 18 6.64778 17.7672 5.55585 17.3149C4.46392 16.8626 3.47177 16.1997 2.63604 15.364C1.80031 14.5282 1.13738 13.5361 0.685084 12.4442C0.232792 11.3522 0 10.1819 0 9C0 6.61305 0.948211 4.32387 2.63604 2.63604ZM9 4.4335C9.56317 4.4335 10.0197 4.89004 10.0197 5.4532V8.57763L12.3811 10.9391C12.7794 11.3373 12.7794 11.9829 12.3811 12.3811C11.9829 12.7794 11.3373 12.7794 10.9391 12.3811L8.27896 9.72104C8.08773 9.52981 7.9803 9.27044 7.9803 9V5.4532C7.9803 4.89004 8.43683 4.4335 9 4.4335Z" fill="white"/>
</svg>
