<svg width="14" height="14" viewBox="0 0 14 14" fill="none" xmlns="http://www.w3.org/2000/svg">
<path d="M13.1223 2.70133C13.6259 2.19774 13.6259 1.38127 13.1223 0.877688C12.6187 0.374104 11.8023 0.374104 11.2987 0.877688L7 5.17636L2.70133 0.877688C2.19774 0.374104 1.38127 0.374104 0.877689 0.877688C0.374104 1.38127 0.374104 2.19774 0.877689 2.70133L5.17636 7L0.877688 11.2987C0.374104 11.8023 0.374103 12.6187 0.877688 13.1223C1.38127 13.6259 2.19774 13.6259 2.70133 13.1223L7 8.82364L11.2987 13.1223C11.8023 13.6259 12.6187 13.6259 13.1223 13.1223C13.6259 12.6187 13.6259 11.8023 13.1223 11.2987L8.82364 7L13.1223 2.70133Z" fill="black"/>
</svg>
