<svg width="17" height="15" viewBox="0 0 17 15" fill="none" xmlns="http://www.w3.org/2000/svg">
<path fill-rule="evenodd" clip-rule="evenodd" d="M3.79616 0.394971C3.46198 -0.0447374 2.83462 -0.130286 2.39491 0.203892C1.9552 0.53807 1.86965 1.16543 2.20383 1.60514L3.05765 2.72858C1.89071 3.66362 0.914993 4.97183 0.125169 6.64147C0.0428399 6.81632 0 7.0076 0 7.20092C0 7.39424 0.0426859 7.58519 0.125014 7.76004C1.00571 9.62085 2.11814 11.0331 3.46866 11.9795C4.82091 12.9272 6.40048 13.4 8.2 13.4C9.15091 13.4 10.0402 13.2681 10.8669 13.004L11.7038 14.1051C12.038 14.5448 12.6654 14.6304 13.1051 14.2962C13.5448 13.962 13.6303 13.3347 13.2962 12.895L12.7129 12.1275C12.7866 12.0794 12.8596 12.03 12.932 11.9793C14.2823 11.0326 15.3941 9.62029 16.2748 7.75865C16.442 7.4058 16.4413 6.99746 16.2754 6.64078L16.2748 6.63959C15.3941 4.77879 14.2818 3.36693 12.9313 2.42049C11.5791 1.47285 9.99951 1 8.2 1C6.95139 1 5.80899 1.22741 4.77505 1.68299L3.79616 0.394971ZM4.10092 4.10131C3.20323 4.82793 2.42804 5.8532 1.76698 7.2C2.51234 8.71852 3.40277 9.8283 4.4503 10.5621C5.51562 11.3084 6.75616 11.6748 8.2 11.6748C8.74112 11.6748 9.25365 11.6234 9.73907 11.5199L8.98686 10.5302C8.71197 10.6014 8.42371 10.6393 8.1266 10.6393C6.23199 10.6393 4.69705 9.09885 4.69705 7.2C4.69705 6.57578 4.86293 5.99029 5.15293 5.48553L4.10092 4.10131ZM6.61941 4.10979L5.85808 3.10802C6.57222 2.85187 7.35096 2.72515 8.2 2.72515C9.64384 2.72515 10.8844 3.09161 11.9497 3.83789C12.9972 4.57171 13.8877 5.6815 14.633 7.20005C13.8886 8.71856 12.9986 9.82831 11.9511 10.5621C11.8574 10.6277 11.7624 10.6904 11.6661 10.7501L10.6978 9.47602C11.232 8.86951 11.5561 8.0726 11.5561 7.2C11.5561 5.30115 10.0212 3.76074 8.1266 3.76074C7.58578 3.76074 7.07428 3.88625 6.61941 4.10979ZM6.28483 6.97487C6.27598 7.04866 6.27143 7.12379 6.27143 7.2C6.27143 8.13691 6.9593 8.91029 7.8556 9.04167L6.28483 6.97487ZM9.70823 8.17402L7.60904 5.41192C7.7733 5.36421 7.94696 5.33865 8.1266 5.33865C9.15142 5.33865 9.98176 6.17063 9.98176 7.2C9.98176 7.5573 9.88172 7.89082 9.70823 8.17402Z" fill="#54595F"/>
</svg>
