<svg width="22" height="24" viewBox="0 0 22 24" fill="none" xmlns="http://www.w3.org/2000/svg">
<path d="M11.0004 3.75C15.9431 3.75 20.0553 7.30667 20.9178 12C20.0562 16.6933 15.9431 20.25 11.0004 20.25C6.05776 20.25 1.94559 16.6933 1.08301 12C1.94467 7.30667 6.05776 3.75 11.0004 3.75ZM11.0004 18.4167C12.8699 18.4163 14.6839 17.7813 16.1455 16.6156C17.6071 15.4499 18.6298 13.8226 19.046 12C18.6282 10.1789 17.605 8.55334 16.1435 7.38919C14.682 6.22504 12.8689 5.59115 11.0004 5.59115C9.13198 5.59115 7.31881 6.22504 5.85735 7.38919C4.3959 8.55334 3.37263 10.1789 2.95484 12C3.3711 13.8226 4.39371 15.4499 5.85531 16.6156C7.3169 17.7813 9.13091 18.4163 11.0004 18.4167V18.4167ZM11.0004 16.125C9.90641 16.125 8.8572 15.6904 8.08361 14.9168C7.31002 14.1432 6.87543 13.094 6.87543 12C6.87543 10.906 7.31002 9.85677 8.08361 9.08318C8.8572 8.3096 9.90641 7.875 11.0004 7.875C12.0944 7.875 13.1437 8.3096 13.9172 9.08318C14.6908 9.85677 15.1254 10.906 15.1254 12C15.1254 13.094 14.6908 14.1432 13.9172 14.9168C13.1437 15.6904 12.0944 16.125 11.0004 16.125ZM11.0004 14.2917C11.6082 14.2917 12.1911 14.0502 12.6209 13.6205C13.0506 13.1907 13.2921 12.6078 13.2921 12C13.2921 11.3922 13.0506 10.8093 12.6209 10.3795C12.1911 9.94978 11.6082 9.70833 11.0004 9.70833C10.3926 9.70833 9.80974 9.94978 9.37997 10.3795C8.9502 10.8093 8.70876 11.3922 8.70876 12C8.70876 12.6078 8.9502 13.1907 9.37997 13.6205C9.80974 14.0502 10.3926 14.2917 11.0004 14.2917Z" fill="black"/>
</svg>
