<svg width="22" height="24" viewBox="0 0 22 24" fill="none" xmlns="http://www.w3.org/2000/svg">
<path d="M8.4855 23.1577L6.71542 22.6828L7.43683 19.9887C6.35697 19.5905 5.35336 19.0101 4.46958 18.2727L2.496 20.2472L1.19892 18.9502L3.17342 16.9766C2.05882 15.6417 1.30991 14.0403 1 12.3291L2.804 12C3.49975 15.8518 6.86942 18.7742 10.922 18.7742C14.9737 18.7742 18.3443 15.8518 19.04 12L20.844 12.3282C20.5345 14.0396 19.7859 15.6413 18.6715 16.9766L20.6451 18.9502L19.348 20.2472L17.3744 18.2727C16.4906 19.0101 15.487 19.5905 14.4072 19.9887L15.1286 22.6837L13.3585 23.1577L12.6362 20.4627C11.5017 20.6571 10.3423 20.6571 9.20783 20.4627L8.4855 23.1577Z" fill="black"/>
</svg>
