<svg width="17" height="13" viewBox="0 0 17 13" fill="none" xmlns="http://www.w3.org/2000/svg">
<path fill-rule="evenodd" clip-rule="evenodd" d="M8.1266 2.76074C6.23199 2.76074 4.69705 4.30115 4.69705 6.2C4.69705 8.09885 6.23199 9.63926 8.1266 9.63926C10.0212 9.63926 11.5561 8.09885 11.5561 6.2C11.5561 4.30115 10.0212 2.76074 8.1266 2.76074ZM8.1266 8.06135C7.10177 8.06135 6.27143 7.22937 6.27143 6.2C6.27143 5.17063 7.10177 4.33865 8.1266 4.33865C9.15142 4.33865 9.98176 5.17063 9.98176 6.2C9.98176 7.22937 9.15142 8.06135 8.1266 8.06135Z" fill="black"/>
<path fill-rule="evenodd" clip-rule="evenodd" d="M16.2748 6.75865C16.442 6.4058 16.4413 5.99746 16.2754 5.64078L16.2748 5.63959C15.3941 3.77879 14.2818 2.36693 12.9313 1.42049C11.5791 0.472848 9.99951 0 8.2 0C6.39958 0 4.81999 0.472841 3.46794 1.42075C2.11764 2.36744 1.00584 3.77978 0.125169 5.64147C0.0428399 5.81632 0 6.0076 0 6.20092C0 6.39424 0.0426859 6.58519 0.125014 6.76004C1.00571 8.62085 2.11814 10.0331 3.46866 10.9795C4.82091 11.9272 6.40048 12.4 8.2 12.4C10.0004 12.4 11.58 11.9272 12.932 10.9793C14.2823 10.0326 15.3941 8.62029 16.2748 6.75865ZM8.2 10.6748C6.75616 10.6748 5.51562 10.3084 4.4503 9.56211C3.40277 8.8283 2.51234 7.71852 1.76698 6.2C2.51234 4.68147 3.40277 3.5717 4.4503 2.83789C5.51562 2.09161 6.75616 1.72515 8.2 1.72515C9.64384 1.72515 10.8844 2.09161 11.9497 2.83789C12.9972 3.57171 13.8877 4.6815 14.633 6.20005C13.8886 7.71856 12.9986 8.82831 11.9511 9.56211C10.8858 10.3084 9.64478 10.6748 8.2 10.6748Z" fill="black"/>
</svg>
