<svg width="40" height="40" viewBox="0 0 40 40" fill="none" xmlns="http://www.w3.org/2000/svg">
<g clip-path="url(#clip0)">
<path d="M20.0008 40.0016C31.0469 40.0016 40.0016 31.0469 40.0016 20.0008C40.0016 8.95467 31.0469 0 20.0008 0C8.95467 0 0 8.95467 0 20.0008C0 31.0469 8.95467 40.0016 20.0008 40.0016Z" fill="#616161"/>
<path d="M20.0008 32.7282C12.9707 32.7282 7.27346 27.0309 7.27346 20.0008C7.27346 12.9707 12.9707 7.27346 20.0008 7.27346C23.5142 7.27346 26.6957 8.69817 29.0004 11.0012L34.1432 5.85841C30.5234 2.23861 25.5224 0 20.0008 0C8.95443 0 0 8.95443 0 20.0008C0 31.0472 8.95443 40.0016 20.0008 40.0016C25.524 40.0016 30.5234 37.763 34.1448 34.1448L29.002 29.002C26.6957 31.3034 23.5142 32.7282 20.0008 32.7282Z" fill="#9E9E9E"/>
<path d="M32.7285 20.0007H26.3641C26.3641 16.4873 23.5146 13.6362 19.9996 13.6362C16.4845 13.6362 13.6367 16.4857 13.6367 20.0007C13.6367 21.7123 14.3136 23.2643 15.4144 24.4102L15.4096 24.4151L23.289 32.2945L23.2906 32.2961C28.7252 30.8456 32.7285 25.8914 32.7285 20.0007Z" fill="#424242"/>
<path d="M39.9998 20.0009H32.7264C32.7264 25.8915 28.7214 30.8458 23.29 32.2963L28.9067 37.9129C35.4823 34.6364 39.9998 27.8465 39.9998 20.0009Z" fill="#616161"/>
<path d="M20.0008 39.7727C8.99311 39.7727 0.0644667 30.8795 0.00161167 19.8864C0.00161167 19.925 0 19.9621 0 20.0008C0 31.0472 8.95443 40.0016 20.0008 40.0016C31.0472 40.0016 40.0016 31.0472 40.0016 20.0008C40.0016 19.9621 40 19.925 40 19.8864C39.9371 30.8795 31.0069 39.7727 20.0008 39.7727Z" fill="#212121" fill-opacity="0.1"/>
<path d="M23.292 32.2963L23.4693 32.4736C28.8103 30.965 32.7283 26.0559 32.7283 20.2281V20.0009C32.7283 25.8915 28.7233 30.8458 23.292 32.2963Z" fill="white" fill-opacity="0.05"/>
<path d="M36.3643 18.1821H19.9996C18.9955 18.1821 18.1816 18.996 18.1816 20C18.1816 21.004 18.9955 21.8179 19.9996 21.8179H36.3627C37.3668 21.8179 38.1807 21.004 38.1807 20C38.1823 18.996 37.3684 18.1821 36.3643 18.1821Z" fill="#9E9E9E"/>
<path opacity="0.5" d="M36.3643 18.1821H19.9996C18.9955 18.1821 18.1816 18.996 18.1816 20C18.1816 21.004 18.9955 21.8179 19.9996 21.8179H36.3627C37.3668 21.8179 38.1807 21.004 38.1807 20C38.1823 18.996 37.3684 18.1821 36.3643 18.1821Z" fill="#BDBDBD"/>
<path d="M3.63593 21.3643C4.38896 21.3643 4.9994 20.7538 4.9994 20.0008C4.9994 19.2478 4.38896 18.6373 3.63593 18.6373C2.88291 18.6373 2.27246 19.2478 2.27246 20.0008C2.27246 20.7538 2.88291 21.3643 3.63593 21.3643Z" fill="#BDBDBD"/>
<path d="M20.0012 4.9994C20.7542 4.9994 21.3646 4.38896 21.3646 3.63593C21.3646 2.88291 20.7542 2.27246 20.0012 2.27246C19.2481 2.27246 18.6377 2.88291 18.6377 3.63593C18.6377 4.38896 19.2481 4.9994 20.0012 4.9994Z" fill="#BDBDBD"/>
<path d="M20.0012 37.7276C20.7542 37.7276 21.3646 37.1171 21.3646 36.3641C21.3646 35.6111 20.7542 35.0006 20.0012 35.0006C19.2481 35.0006 18.6377 35.6111 18.6377 36.3641C18.6377 37.1171 19.2481 37.7276 20.0012 37.7276Z" fill="#BDBDBD"/>
<path d="M8.40937 9.79262C9.16239 9.79262 9.77284 9.18217 9.77284 8.42915C9.77284 7.67612 9.16239 7.06567 8.40937 7.06567C7.65635 7.06567 7.0459 7.67612 7.0459 8.42915C7.0459 9.18217 7.65635 9.79262 8.40937 9.79262Z" fill="#BDBDBD"/>
<path d="M8.40937 32.9555C9.16239 32.9555 9.77284 32.345 9.77284 31.592C9.77284 30.839 9.16239 30.2285 8.40937 30.2285C7.65635 30.2285 7.0459 30.839 7.0459 31.592C7.0459 32.345 7.65635 32.9555 8.40937 32.9555Z" fill="#BDBDBD"/>
<path d="M31.592 32.9555C32.345 32.9555 32.9555 32.345 32.9555 31.592C32.9555 30.839 32.345 30.2285 31.592 30.2285C30.839 30.2285 30.2285 30.839 30.2285 31.592C30.2285 32.345 30.839 32.9555 31.592 32.9555Z" fill="#757575"/>
<path d="M20.0006 18.4101H36.3639C37.3292 18.4101 38.119 19.1644 38.1754 20.1153C38.177 20.0766 38.1818 20.0395 38.1818 20.0008C38.1818 18.9968 37.3679 18.1829 36.3639 18.1829H20.0006C18.9965 18.1829 18.1826 18.9968 18.1826 20.0008C18.1826 20.0395 18.1842 20.0766 18.1891 20.1153C18.2455 19.1644 19.0336 18.4101 20.0006 18.4101Z" fill="white" fill-opacity="0.2"/>
<path d="M38.1754 20.1136C38.1157 21.0629 37.3276 21.8188 36.3639 21.8188H20.0006C19.0352 21.8188 18.2455 21.0645 18.1891 20.1136C18.1842 20.1523 18.1826 20.1894 18.1826 20.2265C18.1826 21.2305 18.9965 22.0444 20.0006 22.0444H36.3639C37.3679 22.0444 38.1818 21.2305 38.1818 20.2265C38.1818 20.1894 38.1802 20.1523 38.1754 20.1136Z" fill="#212121" fill-opacity="0.2"/>
<path d="M20.0007 7.50084C23.5142 7.50084 26.6956 8.92555 29.0003 11.2286L34.2543 5.97136C34.2156 5.93268 34.1785 5.894 34.1415 5.85693L29.0003 10.9998C26.6956 8.69669 23.5142 7.27198 20.0007 7.27198C12.9707 7.27198 7.27344 12.9692 7.27344 19.9993C7.27344 20.038 7.27505 20.0751 7.27505 20.1138C7.33629 13.1368 13.0093 7.50084 20.0007 7.50084Z" fill="#212121" fill-opacity="0.1"/>
<path d="M20.0008 40.0016C31.0469 40.0016 40.0016 31.0469 40.0016 20.0008C40.0016 8.95467 31.0469 0 20.0008 0C8.95467 0 0 8.95467 0 20.0008C0 31.0469 8.95467 40.0016 20.0008 40.0016Z" fill="url(#paint0_radial)"/>
</g>
<defs>
<radialGradient id="paint0_radial" cx="0" cy="0" r="1" gradientUnits="userSpaceOnUse" gradientTransform="translate(5.86536 5.81982) scale(39.9325)">
<stop stop-color="white" stop-opacity="0.1"/>
<stop offset="1" stop-color="white" stop-opacity="0"/>
</radialGradient>
<clipPath id="clip0">
<rect width="40" height="40" fill="white"/>
</clipPath>
</defs>
</svg>
