<svg width="24" height="26" viewBox="0 0 24 26" fill="none" xmlns="http://www.w3.org/2000/svg">
<path fill-rule="evenodd" clip-rule="evenodd" d="M23.6831 16.3048L21.8298 14.6797C21.9175 14.1283 21.9627 13.5653 21.9627 13.0024C21.9627 12.4394 21.9175 11.8764 21.8298 11.325L23.6831 9.69989C23.8229 9.57716 23.9229 9.41369 23.9699 9.23122C24.0169 9.04875 24.0087 8.85593 23.9462 8.67839L23.9208 8.60294C23.4106 7.14042 22.6465 5.78463 21.6656 4.6011L21.6147 4.54016C21.4957 4.39666 21.3371 4.29351 21.1598 4.24429C20.9825 4.19508 20.7949 4.20211 20.6216 4.26447L18.3212 5.10314C17.4723 4.38926 16.5244 3.82627 15.5001 3.4316L15.0559 0.964911C15.0224 0.779306 14.9346 0.608554 14.8042 0.475339C14.6738 0.342124 14.507 0.252754 14.3259 0.2191L14.2495 0.20459C12.7753 -0.0681967 11.2247 -0.0681967 9.75054 0.20459L9.67414 0.2191C9.49304 0.252754 9.32621 0.342124 9.19582 0.475339C9.06543 0.608554 8.97764 0.779306 8.94412 0.964911L8.49706 3.44321C7.48095 3.83796 6.53469 4.40065 5.69583 5.10895L3.37845 4.26447C3.20519 4.20162 3.01738 4.19433 2.83998 4.24357C2.66258 4.29282 2.50399 4.39626 2.38529 4.54016L2.33436 4.6011C1.35463 5.78547 0.590741 7.14103 0.0792322 8.60294L0.0537665 8.67839C-0.0735619 9.04114 0.0311304 9.44742 0.316912 9.69989L2.19288 11.3424C2.10517 11.888 2.06273 12.4452 2.06273 12.9995C2.06273 13.5566 2.10517 14.1138 2.19288 14.6565L0.316912 16.299C0.177122 16.4217 0.0770718 16.5852 0.0300665 16.7677C-0.0169388 16.9502 -0.00867254 17.143 0.0537665 17.3205L0.0792322 17.396C0.591375 18.8586 1.34969 20.208 2.33436 21.3978L2.38529 21.4587C2.50428 21.6022 2.66288 21.7054 2.84017 21.7546C3.01746 21.8038 3.20513 21.7968 3.37845 21.7344L5.69583 20.89C6.53903 21.6009 7.48126 22.1639 8.49706 22.5557L8.94412 25.034C8.97764 25.2196 9.06543 25.3903 9.19582 25.5236C9.32621 25.6568 9.49304 25.7461 9.67414 25.7798L9.75054 25.7943C11.2383 26.0686 12.7617 26.0686 14.2495 25.7943L14.3259 25.7798C14.507 25.7461 14.6738 25.6568 14.8042 25.5236C14.9346 25.3903 15.0224 25.2196 15.0559 25.034L15.5001 22.5673C16.524 22.1737 17.4772 21.6088 18.3212 20.8958L20.6216 21.7344C20.7948 21.7973 20.9826 21.8046 21.16 21.7553C21.3374 21.7061 21.496 21.6026 21.6147 21.4587L21.6656 21.3978C22.6503 20.2051 23.4086 18.8586 23.9208 17.396L23.9462 17.3205C24.0736 16.9636 23.9689 16.5573 23.6831 16.3048ZM13.216 15.7188C13.6006 15.5555 13.9499 15.3157 14.2438 15.0134C14.8408 14.3982 15.1719 13.5827 15.1719 12.7151C15.1725 12.2881 15.0909 11.8653 14.9316 11.4708C14.7723 11.0764 14.5386 10.7181 14.2438 10.4167C13.644 9.80146 12.8489 9.46483 12.0028 9.46483C11.1568 9.46483 10.3617 9.80146 9.76186 10.4167C9.16483 11.0319 8.83377 11.8474 8.83377 12.7151C8.83313 13.142 8.91479 13.5648 9.07406 13.9593C9.23334 14.3537 9.46709 14.712 9.76186 15.0134C10.3617 15.6257 11.1568 15.9653 12.0028 15.9653C12.4191 15.9659 12.8314 15.8822 13.216 15.7188Z" fill="#54595F"/>
</svg>
