<svg width="14" height="14" viewBox="0 0 14 14" fill="none" xmlns="http://www.w3.org/2000/svg">
<path fill-rule="evenodd" clip-rule="evenodd" d="M7 14C10.866 14 14 10.866 14 7C14 3.13401 10.866 0 7 0C3.13401 0 0 3.13401 0 7C0 10.866 3.13401 14 7 14ZM6.49168 7.79167C6.39105 8.05197 6.34073 8.40166 6.34073 8.84073H7.47725L7.49501 8.55376C7.52756 8.24642 7.65631 7.97827 7.88124 7.74933L8.24084 7.3871C8.52201 7.09857 8.71883 6.83669 8.8313 6.60148C8.94377 6.36313 9 6.11066 9 5.84409C9 5.25762 8.82686 4.80444 8.48058 4.48454C8.1343 4.16151 7.64743 4 7.01998 4C6.39845 4 5.90714 4.16935 5.54606 4.50806C5.18794 4.84677 5.00592 5.31564 5 5.91465H6.28746C6.29338 5.66375 6.36145 5.46774 6.49168 5.32661C6.62486 5.18235 6.80096 5.11022 7.01998 5.11022C7.48169 5.11022 7.71254 5.37522 7.71254 5.90524C7.71254 6.08087 7.66815 6.24866 7.57936 6.4086C7.49057 6.56541 7.31151 6.77083 7.04218 7.02487C6.7758 7.27576 6.5923 7.53136 6.49168 7.79167ZM6.41176 9.76747C6.27858 9.90233 6.21199 10.0748 6.21199 10.2849C6.21199 10.4919 6.2771 10.6629 6.40733 10.7977C6.54051 10.9326 6.71513 11 6.93119 11C7.14724 11 7.32038 10.9326 7.45061 10.7977C7.5838 10.6629 7.65039 10.4919 7.65039 10.2849C7.65039 10.0748 7.58232 9.90233 7.44617 9.76747C7.31299 9.62948 7.14132 9.56048 6.93119 9.56048C6.72105 9.56048 6.54791 9.62948 6.41176 9.76747Z" fill="#F2F2F2"/>
</svg>
