<svg width="28" height="28" viewBox="0 0 28 28" fill="none" xmlns="http://www.w3.org/2000/svg">
<path d="M14 2C10.8174 2 7.76516 3.26428 5.51472 5.51472C3.26428 7.76516 2 10.8174 2 14C2 17.1826 3.26428 20.2348 5.51472 22.4853C7.76516 24.7357 10.8174 26 14 26C17.1826 26 20.2348 24.7357 22.4853 22.4853C24.7357 20.2348 26 17.1826 26 14C26 10.8174 24.7357 7.76516 22.4853 5.51472C20.2348 3.26428 17.1826 2 14 2V2ZM3.48 14.9067H6.82667C6.88 16.12 7.04933 17.3253 7.33333 18.5067H4.45333C3.91627 17.3745 3.58661 16.1552 3.48 14.9067V14.9067ZM14.9067 7.70667V3.58667C16.1916 4.07497 17.2474 5.02616 17.8667 6.25333C18.14 6.716 18.3813 7.19733 18.5867 7.69333L14.9067 7.70667V7.70667ZM19.2 9.50667C19.5093 10.684 19.6933 11.8907 19.7467 13.1067H14.9067V9.50667H19.2V9.50667ZM13.0933 3.58667V7.70667H9.41333C9.61902 7.21026 9.85962 6.72906 10.1333 6.26667C10.75 5.03447 11.8061 4.07821 13.0933 3.58667V3.58667ZM13.0933 9.50667V13.1067H8.26667C8.32 11.8907 8.504 10.684 8.81333 9.50667H13.0933V9.50667ZM6.82667 13.0933H3.48C3.58661 11.8448 3.91627 10.6255 4.45333 9.49333H7.33333C7.04879 10.6742 6.87911 11.8798 6.82667 13.0933V13.0933ZM8.26667 14.9067H13.0933V18.5067H8.81333C8.50405 17.3294 8.3208 16.1226 8.26667 14.9067V14.9067ZM13.1067 20.24V24.36C11.8218 23.8717 10.7659 22.9205 10.1467 21.6933C9.87295 21.2309 9.63235 20.7497 9.42667 20.2533L13.1067 20.24V20.24ZM14.9067 24.36V20.3067H18.5867C18.381 20.8031 18.1404 21.2843 17.8667 21.7467C17.2474 22.9738 16.1916 23.925 14.9067 24.4133V24.36V24.36ZM14.9067 18.44V14.84H19.7333C19.6792 16.056 19.496 17.2628 19.1867 18.44H14.9067ZM21.1867 14.84H24.5333C24.4267 16.0885 24.0971 17.3078 23.56 18.44H20.6667C20.9467 17.28 21.116 16.0973 21.1733 14.9067L21.1867 14.84V14.84ZM21.1867 13.04C21.1256 11.8484 20.9515 10.6653 20.6667 9.50667H23.5467C24.084 10.64 24.4133 11.8587 24.52 13.1067L21.1867 13.04ZM22.52 7.70667H20.1333C19.7015 6.49373 19.0756 5.35897 18.28 4.34667C19.9392 5.09144 21.3804 6.24807 22.4667 7.70667H22.52V7.70667ZM9.72 4.34667C8.92443 5.35897 8.2985 6.49373 7.86667 7.70667H5.53333C6.61963 6.24807 8.06082 5.09144 9.72 4.34667V4.34667ZM5.52 20.3467H7.86667C8.2985 21.5596 8.92443 22.6944 9.72 23.7067C8.05623 22.9507 6.6146 21.7799 5.53333 20.3067L5.52 20.3467V20.3467ZM18.2667 23.7067C19.0622 22.6944 19.6882 21.5596 20.12 20.3467H22.4667C21.3737 21.7857 19.9331 22.9235 18.28 23.6533L18.2667 23.7067Z" fill="url(#paint0_linear)"/>
<defs>
<linearGradient id="paint0_linear" x1="2.18667" y1="2" x2="27.3312" y2="3.48684" gradientUnits="userSpaceOnUse">
<stop stop-color="#FEE802"/>
<stop offset="1" stop-color="#FED602"/>
</linearGradient>
</defs>
</svg>
