<svg width="28" height="28" viewBox="0 0 28 28" fill="none" xmlns="http://www.w3.org/2000/svg">
<path fill-rule="evenodd" clip-rule="evenodd" d="M6 5C4.34315 5 3 6.34315 3 8V20C3 21.6569 4.34315 23 6 23H22C23.6569 23 25 21.6569 25 20V8C25 6.34315 23.6569 5 22 5H6ZM5.94604 7.00143C5.9639 7.00048 5.9819 7 6 7H22C22.0181 7 22.0361 7.00048 22.054 7.00143L14 11.8338L5.94604 7.00143ZM5 8.76619V20C5 20.5523 5.44772 21 6 21H22C22.5523 21 23 20.5523 23 20V8.76619L14 14.1662L5 8.76619Z" fill="url(#paint0_linear)"/>
<defs>
<linearGradient id="paint0_linear" x1="3.17111" y1="5" x2="26.1807" y2="6.66295" gradientUnits="userSpaceOnUse">
<stop stop-color="#FEE802"/>
<stop offset="1" stop-color="#FED602"/>
</linearGradient>
</defs>
</svg>
