<svg width="28" height="28" viewBox="0 0 28 28" fill="none" xmlns="http://www.w3.org/2000/svg">
<path d="M14.0001 1.55566C11.5775 1.55769 9.2541 2.51831 7.53741 4.22772C5.82071 5.93712 4.85022 8.2564 4.83789 10.679C4.83789 14.3112 6.87567 17.3523 8.369 19.569L8.64122 19.9734C10.127 22.1268 11.7209 24.2036 13.4168 26.1957L14.0079 26.8879L14.599 26.1957C16.2947 24.2034 17.8886 22.1267 19.3746 19.9734L19.6468 19.5612C21.1323 17.3446 23.1701 14.3112 23.1701 10.679C23.1578 8.25506 22.1862 5.9346 20.4678 4.22498C18.7495 2.51535 16.4241 1.55563 14.0001 1.55566V1.55566ZM14.0001 14.7779C12.991 14.7779 12.0045 14.4786 11.1655 13.918C10.3264 13.3574 9.67245 12.5605 9.28627 11.6282C8.9001 10.6959 8.79906 9.67001 8.99593 8.68027C9.1928 7.69054 9.67874 6.78141 10.3923 6.06785C11.1059 5.35429 12.015 4.86835 13.0047 4.67148C13.9945 4.47461 15.0203 4.57565 15.9526 4.96183C16.885 5.348 17.6818 6.00197 18.2425 6.84102C18.8031 7.68008 19.1023 8.66654 19.1023 9.67566C19.1023 11.0289 18.5648 12.3266 17.6079 13.2835C16.6511 14.2403 15.3533 14.7779 14.0001 14.7779V14.7779Z" fill="url(#paint0_linear)"/>
<path d="M13.9997 12.5766C15.602 12.5766 16.9009 11.2778 16.9009 9.67553C16.9009 8.07329 15.602 6.77441 13.9997 6.77441C12.3975 6.77441 11.0986 8.07329 11.0986 9.67553C11.0986 11.2778 12.3975 12.5766 13.9997 12.5766Z" fill="url(#paint1_linear)"/>
<defs>
<linearGradient id="paint0_linear" x1="4.98047" y1="1.55567" x2="24.2189" y2="2.37891" gradientUnits="userSpaceOnUse">
<stop stop-color="#FEE802"/>
<stop offset="1" stop-color="#FED602"/>
</linearGradient>
<linearGradient id="paint1_linear" x1="11.1438" y1="6.77441" x2="17.2227" y2="7.13387" gradientUnits="userSpaceOnUse">
<stop stop-color="#FEE802"/>
<stop offset="1" stop-color="#FED602"/>
</linearGradient>
</defs>
</svg>
