<svg width="16" height="16" viewBox="0 0 16 16" fill="none" xmlns="http://www.w3.org/2000/svg">
<path d="M0 5.85714C0 6.40943 0.447715 6.85714 1 6.85714H5.85714C6.40943 6.85714 6.85714 6.40943 6.85714 5.85714V1C6.85714 0.447715 6.40943 0 5.85714 0H1C0.447715 0 0 0.447715 0 1V5.85714ZM2.28571 3.28571C2.28571 2.73343 2.73343 2.28571 3.28571 2.28571H3.57143C4.12371 2.28571 4.57143 2.73343 4.57143 3.28571V3.57143C4.57143 4.12371 4.12371 4.57143 3.57143 4.57143H3.28571C2.73343 4.57143 2.28571 4.12371 2.28571 3.57143V3.28571ZM10.1429 0C9.59057 0 9.14286 0.447715 9.14286 1V5.85714C9.14286 6.40943 9.59057 6.85714 10.1429 6.85714H15C15.5523 6.85714 16 6.40943 16 5.85714V1C16 0.447715 15.5523 0 15 0H10.1429ZM13.7143 3.57143C13.7143 4.12371 13.2666 4.57143 12.7143 4.57143H12.4286C11.8763 4.57143 11.4286 4.12371 11.4286 3.57143V3.28571C11.4286 2.73343 11.8763 2.28571 12.4286 2.28571H12.7143C13.2666 2.28571 13.7143 2.73343 13.7143 3.28571V3.57143ZM0 15C0 15.5523 0.447715 16 1 16H5.85714C6.40943 16 6.85714 15.5523 6.85714 15V10.1429C6.85714 9.59057 6.40943 9.14286 5.85714 9.14286H1C0.447715 9.14286 0 9.59057 0 10.1429V15ZM2.28571 12.4286C2.28571 11.8763 2.73343 11.4286 3.28571 11.4286H3.57143C4.12371 11.4286 4.57143 11.8763 4.57143 12.4286V12.7143C4.57143 13.2666 4.12371 13.7143 3.57143 13.7143H3.28571C2.73343 13.7143 2.28571 13.2666 2.28571 12.7143V12.4286ZM14.8571 9.71429C14.8571 9.39869 15.113 9.14286 15.4286 9.14286C15.7442 9.14286 16 9.39869 16 9.71429V12.7143C16 13.2666 15.5523 13.7143 15 13.7143H13.1429C12.8273 13.7143 12.5714 13.4584 12.5714 13.1429C12.5714 12.8273 12.3156 12.5714 12 12.5714C11.6844 12.5714 11.4286 12.8273 11.4286 13.1429V15C11.4286 15.5523 10.9809 16 10.4286 16H10.1429C9.59057 16 9.14286 15.5523 9.14286 15V10.1429C9.14286 9.59057 9.59057 9.14286 10.1429 9.14286H12C12.3156 9.14286 12.5714 9.39869 12.5714 9.71429C12.5714 10.0299 12.8273 10.2857 13.1429 10.2857H14.2857C14.6013 10.2857 14.8571 10.0299 14.8571 9.71429ZM14.8571 15.4286C14.8571 15.113 15.113 14.8571 15.4286 14.8571C15.7442 14.8571 16 15.113 16 15.4286C16 15.7442 15.7442 16 15.4286 16C15.113 16 14.8571 15.7442 14.8571 15.4286ZM12.5714 15.4286C12.5714 15.113 12.8273 14.8571 13.1429 14.8571C13.4584 14.8571 13.7143 15.113 13.7143 15.4286C13.7143 15.7442 13.4584 16 13.1429 16C12.8273 16 12.5714 15.7442 12.5714 15.4286Z" fill="black"/>
</svg>
