<svg width="141" height="713" viewBox="0 0 141 713" fill="none" xmlns="http://www.w3.org/2000/svg">
<path d="M49 374.186C49 370.77 49.73 368 50.6304 368H92.3696C93.27 368 94 370.77 94 374.186V706.803C94 711.819 92.5093 714.75 91.4293 711.857L72.4402 660.998C71.8766 659.489 71.1234 659.489 70.5598 660.998C69.9961 662.508 51.5707 711.857 51.5707 711.857C50.4907 714.75 49 711.819 49 706.803V374.186Z" fill="url(#paint0_linear)"/>
<path d="M94 338.814C94 342.23 93.27 345 92.3696 345L50.6304 345C49.73 345 49 342.23 49 338.814L49 6.19715C49 1.18117 50.4906 -1.7495 51.5706 1.14313L70.5597 52.0016C71.1234 53.5114 71.8765 53.5114 72.4402 52.0016C73.0039 50.4919 91.4293 1.14313 91.4293 1.14313C92.5093 -1.7495 94 1.18117 94 6.19714L94 338.814Z" fill="url(#paint1_linear)"/>
<path d="M68.5892 276.579C69.6983 275.662 71.3017 275.662 72.4108 276.579L88.3421 289.741C88.9457 290.24 89.7204 290.483 90.5008 290.419L111.514 288.676C112.987 288.554 114.329 289.522 114.677 290.957L119.371 310.265C119.566 311.066 120.081 311.752 120.797 312.161L138.644 322.367C139.982 323.132 140.522 324.786 139.895 326.193L131.83 344.278C131.483 345.056 131.483 345.944 131.83 346.722L139.895 364.807C140.522 366.214 139.982 367.868 138.644 368.633L120.797 378.839C120.081 379.248 119.566 379.934 119.371 380.734L114.677 400.043C114.329 401.478 112.987 402.446 111.514 402.324L90.5008 400.581C89.7204 400.517 88.9457 400.76 88.3421 401.258L72.4108 414.421C71.3017 415.338 69.6983 415.338 68.5892 414.421L52.6579 401.258C52.0543 400.76 51.2796 400.517 50.4992 400.581L29.4855 402.324C28.0134 402.446 26.6715 401.478 26.3226 400.043L21.6289 380.735C21.4342 379.934 20.9185 379.248 20.203 378.839L2.35603 368.633C1.01842 367.868 0.477807 366.214 1.10536 364.807L9.17012 346.722C9.51689 345.944 9.5169 345.056 9.17012 344.278L1.10537 326.193C0.477808 324.786 1.01842 323.132 2.35603 322.367L20.203 312.161C20.9185 311.752 21.4342 311.066 21.6289 310.265L26.3226 290.957C26.6715 289.522 28.0134 288.554 29.4855 288.676L50.4992 290.419C51.2796 290.483 52.0543 290.24 52.6579 289.741L68.5892 276.579Z" fill="url(#paint2_linear)"/>
<path d="M67.8662 315.829C69.0032 313.745 71.9968 313.745 73.1338 315.829L80.5658 329.457C80.9973 330.248 81.7616 330.803 82.6474 330.969L97.9046 333.826C100.239 334.263 101.164 337.111 99.5323 338.836L88.8684 350.116C88.2493 350.77 87.9574 351.669 88.0733 352.563L90.0707 367.956C90.3763 370.311 87.9545 372.07 85.8092 371.052L71.7865 364.396C70.9724 364.009 70.0276 364.009 69.2135 364.396L55.1908 371.052C53.0455 372.07 50.6237 370.311 50.9293 367.956L52.9267 352.563C53.0426 351.669 52.7507 350.77 52.1316 350.116L41.4677 338.836C39.8362 337.111 40.7613 334.263 43.0954 333.826L58.3526 330.969C59.2384 330.803 60.0027 330.248 60.4342 329.457L67.8662 315.829Z" fill="url(#paint3_linear)"/>
<circle cx="70.5" cy="345.5" r="48" stroke="url(#paint4_linear)" stroke-width="5"/>
<defs>
<linearGradient id="paint0_linear" x1="71.5" y1="350.06" x2="71.5" y2="538.742" gradientUnits="userSpaceOnUse">
<stop stop-color="#B80000"/>
<stop offset="1" stop-color="#FF5C5D"/>
</linearGradient>
<linearGradient id="paint1_linear" x1="71.5" y1="362.94" x2="71.5" y2="174.258" gradientUnits="userSpaceOnUse">
<stop stop-color="#B80000"/>
<stop offset="1" stop-color="#FF5C5D"/>
</linearGradient>
<linearGradient id="paint2_linear" x1="70.8976" y1="281.994" x2="136.512" y2="351.009" gradientUnits="userSpaceOnUse">
<stop stop-color="#FEE802"/>
<stop offset="1" stop-color="#FED602"/>
</linearGradient>
<linearGradient id="paint3_linear" x1="63.8788" y1="315.182" x2="70.5" y2="380" gradientUnits="userSpaceOnUse">
<stop stop-color="#FED602"/>
<stop offset="1" stop-color="#FEB702"/>
</linearGradient>
<linearGradient id="paint4_linear" x1="45.7091" y1="302.345" x2="121" y2="424.005" gradientUnits="userSpaceOnUse">
<stop stop-color="#FED402"/>
<stop offset="1" stop-color="#FEBC02"/>
</linearGradient>
</defs>
</svg>
