<svg width="25" height="28" viewBox="0 0 25 28" fill="none" xmlns="http://www.w3.org/2000/svg">
<path d="M0.348907 12.4781C0.439877 12.6962 0.652156 12.8385 0.887725 12.8385L7.27772 12.8385L7.27772 27.4168C7.27772 27.7387 7.53898 28 7.86087 28L17.1911 28C17.513 28 17.7742 27.7387 17.7742 27.4168L17.7742 12.8384L24.1887 12.8384C24.4243 12.8384 24.6366 12.6961 24.7275 12.4792C24.8174 12.2611 24.7684 12.0103 24.6016 11.8435L12.968 0.171481C12.8584 0.0618695 12.7102 3.95121e-05 12.5551 3.95256e-05C12.4 3.95392e-05 12.2519 0.0618697 12.1423 0.170333L0.474864 11.8424C0.308069 12.0092 0.257938 12.26 0.348907 12.4781Z" fill="black"/>
</svg>
